# Piezas extraídas de modelos de terceros; véase procedencia.json
mtllib algodon.mtl
o pieza_0
usemtl material_0
v -0.08507156703335444 0.022000854957870276 0.08600219876324695
v -0.08400219843542141 0.026000000536441803 0.08600219876324695
v -0.08400219843542141 0.026000000536441803 0.11799780487263638
v -0.08507156703335444 0.022000854957870276 0.11799780487263638
v -0.09200171033297307 0.026000000536441803 0.08600219876324695
v -0.08400219843542141 0.026000000536441803 0.08600219876324695
v -0.08507156703335444 0.022000854957870276 0.08600219876324695
v -0.09200171033297307 0.026000000536441803 0.11799780487263638
v -0.08507156703335444 0.022000854957870276 0.11799780487263638
v -0.08400219843542141 0.026000000536441803 0.11799780487263638
v -0.08800134401399293 0.019071077977231794 0.08600219876324695
v -0.08507156703335444 0.022000854957870276 0.08600219876324695
v -0.08507156703335444 0.022000854957870276 0.11799780487263638
v -0.08800134401399293 0.019071077977231794 0.11799780487263638
v -0.08507156703335444 0.022000854957870276 0.08600219876324695
v -0.08800134401399293 0.019071077977231794 0.08600219876324695
v -0.08800134401399293 0.019071077977231794 0.11799780487263638
v -0.08507156703335444 0.022000854957870276 0.11799780487263638
v -0.09200171033297307 0.018001709379298746 0.08600219876324695
v -0.08800134401399293 0.019071077977231794 0.08600219876324695
v -0.08800134401399293 0.019071077977231794 0.11799780487263638
v -0.09200171033297307 0.018001709379298746 0.11799780487263638
v -0.08800134401399293 0.019071077977231794 0.08600219876324695
v -0.09200171033297307 0.018001709379298746 0.08600219876324695
v -0.09200171033297307 0.018001709379298746 0.11799780487263638
v -0.08800134401399293 0.019071077977231794 0.11799780487263638
v -0.09600085591154459 0.019071077977231794 0.08600219876324695
v -0.09200171033297307 0.018001709379298746 0.08600219876324695
v -0.09200171033297307 0.018001709379298746 0.11799780487263638
v -0.09600085591154459 0.019071077977231794 0.11799780487263638
v -0.09200171033297307 0.018001709379298746 0.08600219876324695
v -0.09600085591154459 0.019071077977231794 0.08600219876324695
v -0.09600085591154459 0.019071077977231794 0.11799780487263638
v -0.09200171033297307 0.018001709379298746 0.11799780487263638
v -0.09893063289218307 0.022000854957870276 0.08600219876324695
v -0.09600085591154459 0.019071077977231794 0.08600219876324695
v -0.09600085591154459 0.019071077977231794 0.11799780487263638
v -0.09893063289218307 0.022000854957870276 0.11799780487263638
v -0.09600085591154459 0.019071077977231794 0.08600219876324695
v -0.09893063289218307 0.022000854957870276 0.08600219876324695
v -0.09893063289218307 0.022000854957870276 0.11799780487263638
v -0.09600085591154459 0.019071077977231794 0.11799780487263638
v -0.10000000149011612 0.026000000536441803 0.08600219876324695
v -0.09893063289218307 0.022000854957870276 0.08600219876324695
v -0.09893063289218307 0.022000854957870276 0.11799780487263638
v -0.10000000149011612 0.026000000536441803 0.11799780487263638
v -0.09893063289218307 0.022000854957870276 0.08600219876324695
v -0.10000000149011612 0.026000000536441803 0.08600219876324695
v -0.10000000149011612 0.026000000536441803 0.11799780487263638
v -0.09893063289218307 0.022000854957870276 0.11799780487263638
v -0.09893063289218307 0.02999914611501333 0.08600219876324695
v -0.10000000149011612 0.026000000536441803 0.08600219876324695
v -0.10000000149011612 0.026000000536441803 0.11799780487263638
v -0.09893063289218307 0.02999914611501333 0.11799780487263638
v -0.09200171033297307 0.026000000536441803 0.08600219876324695
v -0.10000000149011612 0.026000000536441803 0.08600219876324695
v -0.09893063289218307 0.02999914611501333 0.08600219876324695
v -0.09893063289218307 0.02999914611501333 0.11799780487263638
v -0.10000000149011612 0.026000000536441803 0.11799780487263638
v -0.09600085591154459 0.03292892309565181 0.08600219876324695
v -0.09893063289218307 0.02999914611501333 0.08600219876324695
v -0.09893063289218307 0.02999914611501333 0.11799780487263638
v -0.09600085591154459 0.03292892309565181 0.11799780487263638
v -0.09893063289218307 0.02999914611501333 0.08600219876324695
v -0.09600085591154459 0.03292892309565181 0.08600219876324695
v -0.09600085591154459 0.03292892309565181 0.11799780487263638
v -0.09893063289218307 0.02999914611501333 0.11799780487263638
v -0.09200171033297307 0.033998291693584856 0.08600219876324695
v -0.09600085591154459 0.03292892309565181 0.08600219876324695
v -0.09600085591154459 0.03292892309565181 0.11799780487263638
v -0.09200171033297307 0.033998291693584856 0.11799780487263638
v -0.09600085591154459 0.03292892309565181 0.08600219876324695
v -0.09200171033297307 0.033998291693584856 0.08600219876324695
v -0.09200171033297307 0.033998291693584856 0.11799780487263638
v -0.09600085591154459 0.03292892309565181 0.11799780487263638
v -0.08800134401399293 0.03292892309565181 0.08600219876324695
v -0.09200171033297307 0.033998291693584856 0.08600219876324695
v -0.09200171033297307 0.033998291693584856 0.11799780487263638
v -0.08800134401399293 0.03292892309565181 0.11799780487263638
v -0.09200171033297307 0.033998291693584856 0.08600219876324695
v -0.08800134401399293 0.03292892309565181 0.08600219876324695
v -0.08800134401399293 0.03292892309565181 0.11799780487263638
v -0.09200171033297307 0.033998291693584856 0.11799780487263638
v -0.08507156703335444 0.02999914611501333 0.08600219876324695
v -0.08800134401399293 0.03292892309565181 0.08600219876324695
v -0.08800134401399293 0.03292892309565181 0.11799780487263638
v -0.08507156703335444 0.02999914611501333 0.11799780487263638
v -0.08800134401399293 0.03292892309565181 0.08600219876324695
v -0.08507156703335444 0.02999914611501333 0.08600219876324695
v -0.08507156703335444 0.02999914611501333 0.11799780487263638
v -0.08800134401399293 0.03292892309565181 0.11799780487263638
v -0.08400219843542141 0.026000000536441803 0.08600219876324695
v -0.08507156703335444 0.02999914611501333 0.08600219876324695
v -0.08507156703335444 0.02999914611501333 0.11799780487263638
v -0.08400219843542141 0.026000000536441803 0.11799780487263638
v -0.08507156703335444 0.02999914611501333 0.08600219876324695
v -0.08400219843542141 0.026000000536441803 0.08600219876324695
v -0.08400219843542141 0.026000000536441803 0.11799780487263638
v -0.08507156703335444 0.02999914611501333 0.11799780487263638
f 1 2 3
f 1 3 4
f 5 6 7
f 8 9 10
f 11 12 13
f 11 13 14
f 5 15 16
f 8 17 18
f 19 20 21
f 19 21 22
f 5 23 24
f 8 25 26
f 27 28 29
f 27 29 30
f 5 31 32
f 8 33 34
f 35 36 37
f 35 37 38
f 5 39 40
f 8 41 42
f 43 44 45
f 43 45 46
f 5 47 48
f 8 49 50
f 51 52 53
f 51 53 54
f 55 56 57
f 8 58 59
f 60 61 62
f 60 62 63
f 5 64 65
f 8 66 67
f 68 69 70
f 68 70 71
f 5 72 73
f 8 74 75
f 76 77 78
f 76 78 79
f 5 80 81
f 8 82 83
f 84 85 86
f 84 86 87
f 5 88 89
f 8 90 91
f 92 93 94
f 92 94 95
f 5 96 97
f 8 98 99
o pieza_1
usemtl material_1
v -0.05307107796233063 0.022000854957870276 0.08600219876324695
v -0.05200170936439759 0.026000000536441803 0.08600219876324695
v -0.05200170936439759 0.026000000536441803 0.11799780487263638
v -0.05307107796233063 0.022000854957870276 0.11799780487263638
v -0.06000000052154064 0.026000000536441803 0.08600219876324695
v -0.05200170936439759 0.026000000536441803 0.08600219876324695
v -0.05307107796233063 0.022000854957870276 0.08600219876324695
v -0.06000000052154064 0.026000000536441803 0.11799780487263638
v -0.05307107796233063 0.022000854957870276 0.11799780487263638
v -0.05200170936439759 0.026000000536441803 0.11799780487263638
v -0.056000854942969115 0.019071077977231794 0.08600219876324695
v -0.05307107796233063 0.022000854957870276 0.08600219876324695
v -0.05307107796233063 0.022000854957870276 0.11799780487263638
v -0.056000854942969115 0.019071077977231794 0.11799780487263638
v -0.05307107796233063 0.022000854957870276 0.08600219876324695
v -0.056000854942969115 0.019071077977231794 0.08600219876324695
v -0.056000854942969115 0.019071077977231794 0.11799780487263638
v -0.05307107796233063 0.022000854957870276 0.11799780487263638
v -0.06000000052154064 0.018001709379298746 0.08600219876324695
v -0.056000854942969115 0.019071077977231794 0.08600219876324695
v -0.056000854942969115 0.019071077977231794 0.11799780487263638
v -0.06000000052154064 0.018001709379298746 0.11799780487263638
v -0.056000854942969115 0.019071077977231794 0.08600219876324695
v -0.06000000052154064 0.018001709379298746 0.08600219876324695
v -0.06000000052154064 0.018001709379298746 0.11799780487263638
v -0.056000854942969115 0.019071077977231794 0.11799780487263638
v -0.06399914610011218 0.019071077977231794 0.08600219876324695
v -0.06000000052154064 0.018001709379298746 0.08600219876324695
v -0.06000000052154064 0.018001709379298746 0.11799780487263638
v -0.06399914610011218 0.019071077977231794 0.11799780487263638
v -0.06000000052154064 0.018001709379298746 0.08600219876324695
v -0.06399914610011218 0.019071077977231794 0.08600219876324695
v -0.06399914610011218 0.019071077977231794 0.11799780487263638
v -0.06000000052154064 0.018001709379298746 0.11799780487263638
v -0.06692892308075066 0.022000854957870276 0.08600219876324695
v -0.06399914610011218 0.019071077977231794 0.08600219876324695
v -0.06399914610011218 0.019071077977231794 0.11799780487263638
v -0.06692892308075066 0.022000854957870276 0.11799780487263638
v -0.06399914610011218 0.019071077977231794 0.08600219876324695
v -0.06692892308075066 0.022000854957870276 0.08600219876324695
v -0.06692892308075066 0.022000854957870276 0.11799780487263638
v -0.06399914610011218 0.019071077977231794 0.11799780487263638
v -0.0679982916786837 0.026000000536441803 0.08600219876324695
v -0.06692892308075066 0.022000854957870276 0.08600219876324695
v -0.06692892308075066 0.022000854957870276 0.11799780487263638
v -0.0679982916786837 0.026000000536441803 0.11799780487263638
v -0.06692892308075066 0.022000854957870276 0.08600219876324695
v -0.0679982916786837 0.026000000536441803 0.08600219876324695
v -0.0679982916786837 0.026000000536441803 0.11799780487263638
v -0.06692892308075066 0.022000854957870276 0.11799780487263638
v -0.06692892308075066 0.02999914611501333 0.08600219876324695
v -0.0679982916786837 0.026000000536441803 0.08600219876324695
v -0.0679982916786837 0.026000000536441803 0.11799780487263638
v -0.06692892308075066 0.02999914611501333 0.11799780487263638
v -0.06000000052154064 0.026000000536441803 0.08600219876324695
v -0.0679982916786837 0.026000000536441803 0.08600219876324695
v -0.06692892308075066 0.02999914611501333 0.08600219876324695
v -0.06692892308075066 0.02999914611501333 0.11799780487263638
v -0.0679982916786837 0.026000000536441803 0.11799780487263638
v -0.06399914610011218 0.03292892309565181 0.08600219876324695
v -0.06692892308075066 0.02999914611501333 0.08600219876324695
v -0.06692892308075066 0.02999914611501333 0.11799780487263638
v -0.06399914610011218 0.03292892309565181 0.11799780487263638
v -0.06692892308075066 0.02999914611501333 0.08600219876324695
v -0.06399914610011218 0.03292892309565181 0.08600219876324695
v -0.06399914610011218 0.03292892309565181 0.11799780487263638
v -0.06692892308075066 0.02999914611501333 0.11799780487263638
v -0.06000000052154064 0.033998291693584856 0.08600219876324695
v -0.06399914610011218 0.03292892309565181 0.08600219876324695
v -0.06399914610011218 0.03292892309565181 0.11799780487263638
v -0.06000000052154064 0.033998291693584856 0.11799780487263638
v -0.06399914610011218 0.03292892309565181 0.08600219876324695
v -0.06000000052154064 0.033998291693584856 0.08600219876324695
v -0.06000000052154064 0.033998291693584856 0.11799780487263638
v -0.06399914610011218 0.03292892309565181 0.11799780487263638
v -0.056000854942969115 0.03292892309565181 0.08600219876324695
v -0.06000000052154064 0.033998291693584856 0.08600219876324695
v -0.06000000052154064 0.033998291693584856 0.11799780487263638
v -0.056000854942969115 0.03292892309565181 0.11799780487263638
v -0.06000000052154064 0.033998291693584856 0.08600219876324695
v -0.056000854942969115 0.03292892309565181 0.08600219876324695
v -0.056000854942969115 0.03292892309565181 0.11799780487263638
v -0.06000000052154064 0.033998291693584856 0.11799780487263638
v -0.05307107796233063 0.02999914611501333 0.08600219876324695
v -0.056000854942969115 0.03292892309565181 0.08600219876324695
v -0.056000854942969115 0.03292892309565181 0.11799780487263638
v -0.05307107796233063 0.02999914611501333 0.11799780487263638
v -0.056000854942969115 0.03292892309565181 0.08600219876324695
v -0.05307107796233063 0.02999914611501333 0.08600219876324695
v -0.05307107796233063 0.02999914611501333 0.11799780487263638
v -0.056000854942969115 0.03292892309565181 0.11799780487263638
v -0.05200170936439759 0.026000000536441803 0.08600219876324695
v -0.05307107796233063 0.02999914611501333 0.08600219876324695
v -0.05307107796233063 0.02999914611501333 0.11799780487263638
v -0.05200170936439759 0.026000000536441803 0.11799780487263638
v -0.05307107796233063 0.02999914611501333 0.08600219876324695
v -0.05200170936439759 0.026000000536441803 0.08600219876324695
v -0.05200170936439759 0.026000000536441803 0.11799780487263638
v -0.05307107796233063 0.02999914611501333 0.11799780487263638
f 100 101 102
f 100 102 103
f 104 105 106
f 107 108 109
f 110 111 112
f 110 112 113
f 104 114 115
f 107 116 117
f 118 119 120
f 118 120 121
f 104 122 123
f 107 124 125
f 126 127 128
f 126 128 129
f 104 130 131
f 107 132 133
f 134 135 136
f 134 136 137
f 104 138 139
f 107 140 141
f 142 143 144
f 142 144 145
f 104 146 147
f 107 148 149
f 150 151 152
f 150 152 153
f 154 155 156
f 107 157 158
f 159 160 161
f 159 161 162
f 104 163 164
f 107 165 166
f 167 168 169
f 167 169 170
f 104 171 172
f 107 173 174
f 175 176 177
f 175 177 178
f 104 179 180
f 107 181 182
f 183 184 185
f 183 185 186
f 104 187 188
f 107 189 190
f 191 192 193
f 191 193 194
f 104 195 196
f 107 197 198
o pieza_2
usemtl material_2
v -0.02106936815089821 0.022000854957870276 0.08600219876324695
v -0.019999999552965164 0.026000000536441803 0.08600219876324695
v -0.019999999552965164 0.026000000536441803 0.11799780487263638
v -0.02106936815089821 0.022000854957870276 0.11799780487263638
v -0.027998290710108217 0.026000000536441803 0.08600219876324695
v -0.019999999552965164 0.026000000536441803 0.08600219876324695
v -0.02106936815089821 0.022000854957870276 0.08600219876324695
v -0.027998290710108217 0.026000000536441803 0.11799780487263638
v -0.02106936815089821 0.022000854957870276 0.11799780487263638
v -0.019999999552965164 0.026000000536441803 0.11799780487263638
v -0.02399914513153669 0.019071077977231794 0.08600219876324695
v -0.02106936815089821 0.022000854957870276 0.08600219876324695
v -0.02106936815089821 0.022000854957870276 0.11799780487263638
v -0.02399914513153669 0.019071077977231794 0.11799780487263638
v -0.02106936815089821 0.022000854957870276 0.08600219876324695
v -0.02399914513153669 0.019071077977231794 0.08600219876324695
v -0.02399914513153669 0.019071077977231794 0.11799780487263638
v -0.02106936815089821 0.022000854957870276 0.11799780487263638
v -0.027998290710108217 0.018001709379298746 0.08600219876324695
v -0.02399914513153669 0.019071077977231794 0.08600219876324695
v -0.02399914513153669 0.019071077977231794 0.11799780487263638
v -0.027998290710108217 0.018001709379298746 0.11799780487263638
v -0.02399914513153669 0.019071077977231794 0.08600219876324695
v -0.027998290710108217 0.018001709379298746 0.08600219876324695
v -0.027998290710108217 0.018001709379298746 0.11799780487263638
v -0.02399914513153669 0.019071077977231794 0.11799780487263638
v -0.03199865702908835 0.019071077977231794 0.08600219876324695
v -0.027998290710108217 0.018001709379298746 0.08600219876324695
v -0.027998290710108217 0.018001709379298746 0.11799780487263638
v -0.03199865702908835 0.019071077977231794 0.11799780487263638
v -0.027998290710108217 0.018001709379298746 0.08600219876324695
v -0.03199865702908835 0.019071077977231794 0.08600219876324695
v -0.03199865702908835 0.019071077977231794 0.11799780487263638
v -0.027998290710108217 0.018001709379298746 0.11799780487263638
v -0.03492843400972683 0.022000854957870276 0.08600219876324695
v -0.03199865702908835 0.019071077977231794 0.08600219876324695
v -0.03199865702908835 0.019071077977231794 0.11799780487263638
v -0.03492843400972683 0.022000854957870276 0.11799780487263638
v -0.03199865702908835 0.019071077977231794 0.08600219876324695
v -0.03492843400972683 0.022000854957870276 0.08600219876324695
v -0.03492843400972683 0.022000854957870276 0.11799780487263638
v -0.03199865702908835 0.019071077977231794 0.11799780487263638
v -0.035997802607659876 0.026000000536441803 0.08600219876324695
v -0.03492843400972683 0.022000854957870276 0.08600219876324695
v -0.03492843400972683 0.022000854957870276 0.11799780487263638
v -0.035997802607659876 0.026000000536441803 0.11799780487263638
v -0.03492843400972683 0.022000854957870276 0.08600219876324695
v -0.035997802607659876 0.026000000536441803 0.08600219876324695
v -0.035997802607659876 0.026000000536441803 0.11799780487263638
v -0.03492843400972683 0.022000854957870276 0.11799780487263638
v -0.03492843400972683 0.02999914611501333 0.08600219876324695
v -0.035997802607659876 0.026000000536441803 0.08600219876324695
v -0.035997802607659876 0.026000000536441803 0.11799780487263638
v -0.03492843400972683 0.02999914611501333 0.11799780487263638
v -0.027998290710108217 0.026000000536441803 0.08600219876324695
v -0.035997802607659876 0.026000000536441803 0.08600219876324695
v -0.03492843400972683 0.02999914611501333 0.08600219876324695
v -0.03492843400972683 0.02999914611501333 0.11799780487263638
v -0.035997802607659876 0.026000000536441803 0.11799780487263638
v -0.03199865702908835 0.03292892309565181 0.08600219876324695
v -0.03492843400972683 0.02999914611501333 0.08600219876324695
v -0.03492843400972683 0.02999914611501333 0.11799780487263638
v -0.03199865702908835 0.03292892309565181 0.11799780487263638
v -0.03492843400972683 0.02999914611501333 0.08600219876324695
v -0.03199865702908835 0.03292892309565181 0.08600219876324695
v -0.03199865702908835 0.03292892309565181 0.11799780487263638
v -0.03492843400972683 0.02999914611501333 0.11799780487263638
v -0.027998290710108217 0.033998291693584856 0.08600219876324695
v -0.03199865702908835 0.03292892309565181 0.08600219876324695
v -0.03199865702908835 0.03292892309565181 0.11799780487263638
v -0.027998290710108217 0.033998291693584856 0.11799780487263638
v -0.03199865702908835 0.03292892309565181 0.08600219876324695
v -0.027998290710108217 0.033998291693584856 0.08600219876324695
v -0.027998290710108217 0.033998291693584856 0.11799780487263638
v -0.03199865702908835 0.03292892309565181 0.11799780487263638
v -0.02399914513153669 0.03292892309565181 0.08600219876324695
v -0.027998290710108217 0.033998291693584856 0.08600219876324695
v -0.027998290710108217 0.033998291693584856 0.11799780487263638
v -0.02399914513153669 0.03292892309565181 0.11799780487263638
v -0.027998290710108217 0.033998291693584856 0.08600219876324695
v -0.02399914513153669 0.03292892309565181 0.08600219876324695
v -0.02399914513153669 0.03292892309565181 0.11799780487263638
v -0.027998290710108217 0.033998291693584856 0.11799780487263638
v -0.02106936815089821 0.02999914611501333 0.08600219876324695
v -0.02399914513153669 0.03292892309565181 0.08600219876324695
v -0.02399914513153669 0.03292892309565181 0.11799780487263638
v -0.02106936815089821 0.02999914611501333 0.11799780487263638
v -0.02399914513153669 0.03292892309565181 0.08600219876324695
v -0.02106936815089821 0.02999914611501333 0.08600219876324695
v -0.02106936815089821 0.02999914611501333 0.11799780487263638
v -0.02399914513153669 0.03292892309565181 0.11799780487263638
v -0.019999999552965164 0.026000000536441803 0.08600219876324695
v -0.02106936815089821 0.02999914611501333 0.08600219876324695
v -0.02106936815089821 0.02999914611501333 0.11799780487263638
v -0.019999999552965164 0.026000000536441803 0.11799780487263638
v -0.02106936815089821 0.02999914611501333 0.08600219876324695
v -0.019999999552965164 0.026000000536441803 0.08600219876324695
v -0.019999999552965164 0.026000000536441803 0.11799780487263638
v -0.02106936815089821 0.02999914611501333 0.11799780487263638
f 199 200 201
f 199 201 202
f 203 204 205
f 206 207 208
f 209 210 211
f 209 211 212
f 203 213 214
f 206 215 216
f 217 218 219
f 217 219 220
f 203 221 222
f 206 223 224
f 225 226 227
f 225 227 228
f 203 229 230
f 206 231 232
f 233 234 235
f 233 235 236
f 203 237 238
f 206 239 240
f 241 242 243
f 241 243 244
f 203 245 246
f 206 247 248
f 249 250 251
f 249 251 252
f 253 254 255
f 206 256 257
f 258 259 260
f 258 260 261
f 203 262 263
f 206 264 265
f 266 267 268
f 266 268 269
f 203 270 271
f 206 272 273
f 274 275 276
f 274 276 277
f 203 278 279
f 206 280 281
f 282 283 284
f 282 284 285
f 203 286 287
f 206 288 289
f 290 291 292
f 290 292 293
f 203 294 295
f 206 296 297
