# Piezas extraídas de modelos de terceros; véase procedencia.json
mtllib brazo-rayos.mtl
o pieza_4
usemtl material_4
v 0.03153432550391771 -0.020009682644204663 0.015153823663986894
v 0.03498241278565821 -0.020009682644204663 -1.7760375671343337e-05
v 0.03498241278565821 0.03001892918904847 -1.7760375671343337e-05
v 0.03153432550391771 -0.020009682644204663 0.015153823663986894
v 0.03498241278565821 0.03001892918904847 -1.7760375671343337e-05
v 0.03153432550391771 0.03001892918904847 0.015153823663986894
v 0.0 -0.020009682644204663 -1.7760375671343337e-05
v 0.03498241278565821 -0.020009682644204663 -1.7760375671343337e-05
v 0.03153432550391771 -0.020009682644204663 0.015153823663986894
v 0.0 0.03001892918904847 -1.7760375671343337e-05
v 0.03153432550391771 0.03001892918904847 0.015153823663986894
v 0.03498241278565821 0.03001892918904847 -1.7760375671343337e-05
v 0.021816988619012646 -0.020009682644204663 0.02737886039015776
v 0.03153432550391771 -0.020009682644204663 0.015153823663986894
v 0.03153432550391771 0.03001892918904847 0.015153823663986894
v 0.021816988619012646 -0.020009682644204663 0.02737886039015776
v 0.03153432550391771 0.03001892918904847 0.015153823663986894
v 0.021816988619012646 0.03001892918904847 0.02737886039015776
v 0.03153432550391771 -0.020009682644204663 0.015153823663986894
v 0.021816988619012646 -0.020009682644204663 0.02737886039015776
v 0.021816988619012646 0.03001892918904847 0.02737886039015776
v 0.03153432550391771 0.03001892918904847 0.015153823663986894
v 0.007773869507924047 -0.020009682644204663 0.03408695746554381
v 0.021816988619012646 -0.020009682644204663 0.02737886039015776
v 0.021816988619012646 0.03001892918904847 0.02737886039015776
v 0.007773869507924047 -0.020009682644204663 0.03408695746554381
v 0.021816988619012646 0.03001892918904847 0.02737886039015776
v 0.007773869507924047 0.03001892918904847 0.03408695746554381
v 0.021816988619012646 -0.020009682644204663 0.02737886039015776
v 0.007773869507924047 -0.020009682644204663 0.03408695746554381
v 0.007773869507924047 0.03001892918904847 0.03408695746554381
v 0.021816988619012646 0.03001892918904847 0.02737886039015776
v -0.007773869507924047 -0.020009682644204663 0.03408695746554381
v 0.007773869507924047 -0.020009682644204663 0.03408695746554381
v 0.007773869507924047 0.03001892918904847 0.03408695746554381
v -0.007773869507924047 0.03001892918904847 0.03408695746554381
v 0.007773869507924047 -0.020009682644204663 0.03408695746554381
v -0.007773869507924047 -0.020009682644204663 0.03408695746554381
v 0.0 0.03001892918904847 -1.7760375671343337e-05
v -0.007773869507924047 0.03001892918904847 0.03408695746554381
v 0.007773869507924047 0.03001892918904847 0.03408695746554381
v -0.021816988619012646 -0.020009682644204663 0.02737886039015776
v -0.007773869507924047 -0.020009682644204663 0.03408695746554381
v -0.007773869507924047 0.03001892918904847 0.03408695746554381
v -0.021816988619012646 0.03001892918904847 0.02737886039015776
v -0.007773869507924047 -0.020009682644204663 0.03408695746554381
v -0.021816988619012646 -0.020009682644204663 0.02737886039015776
v -0.021816988619012646 0.03001892918904847 0.02737886039015776
v -0.007773869507924047 0.03001892918904847 0.03408695746554381
v -0.03153432550391771 -0.020009682644204663 0.015153823663986894
v -0.021816988619012646 -0.020009682644204663 0.02737886039015776
v -0.021816988619012646 0.03001892918904847 0.02737886039015776
v -0.03153432550391771 0.03001892918904847 0.015153823663986894
v -0.021816988619012646 -0.020009682644204663 0.02737886039015776
v -0.03153432550391771 -0.020009682644204663 0.015153823663986894
v -0.03153432550391771 0.03001892918904847 0.015153823663986894
v -0.021816988619012646 0.03001892918904847 0.02737886039015776
v -0.03498241278565821 -0.020009682644204663 -1.7760375671343337e-05
v -0.03153432550391771 -0.020009682644204663 0.015153823663986894
v -0.03153432550391771 0.03001892918904847 0.015153823663986894
v -0.03498241278565821 0.03001892918904847 -1.7760375671343337e-05
v -0.03153432550391771 -0.020009682644204663 0.015153823663986894
v -0.03498241278565821 -0.020009682644204663 -1.7760375671343337e-05
v -0.03498241278565821 0.03001892918904847 -1.7760375671343337e-05
v -0.03153432550391771 0.03001892918904847 0.015153823663986894
v -0.03153432550391771 -0.020009682644204663 -0.01518934441532958
v -0.03498241278565821 -0.020009682644204663 -1.7760375671343337e-05
v -0.03498241278565821 0.03001892918904847 -1.7760375671343337e-05
v -0.03153432550391771 0.03001892918904847 -0.01518934441532958
v 0.0 -0.020009682644204663 -1.7760375671343337e-05
v -0.03498241278565821 -0.020009682644204663 -1.7760375671343337e-05
v -0.03153432550391771 -0.020009682644204663 -0.01518934441532958
v -0.03153432550391771 0.03001892918904847 -0.01518934441532958
v -0.03498241278565821 0.03001892918904847 -1.7760375671343337e-05
v -0.021816988619012646 -0.020009682644204663 -0.027351688645468757
v -0.03153432550391771 -0.020009682644204663 -0.01518934441532958
v -0.03153432550391771 0.03001892918904847 -0.01518934441532958
v -0.021816988619012646 0.03001892918904847 -0.027351688645468757
v -0.03153432550391771 -0.020009682644204663 -0.01518934441532958
v -0.021816988619012646 -0.020009682644204663 -0.027351688645468757
v -0.021816988619012646 0.03001892918904847 -0.027351688645468757
v -0.03153432550391771 0.03001892918904847 -0.01518934441532958
v -0.007773869507924047 -0.020009682644204663 -0.034122478216886507
v -0.021816988619012646 -0.020009682644204663 -0.027351688645468757
v -0.021816988619012646 0.03001892918904847 -0.027351688645468757
v -0.007773869507924047 0.03001892918904847 -0.034122478216886507
v -0.021816988619012646 -0.020009682644204663 -0.027351688645468757
v -0.007773869507924047 -0.020009682644204663 -0.034122478216886507
v -0.007773869507924047 0.03001892918904847 -0.034122478216886507
v -0.021816988619012646 0.03001892918904847 -0.027351688645468757
v 0.007773869507924047 -0.020009682644204663 -0.034122478216886507
v -0.007773869507924047 -0.020009682644204663 -0.034122478216886507
v -0.007773869507924047 0.03001892918904847 -0.034122478216886507
v 0.007773869507924047 0.03001892918904847 -0.034122478216886507
v 0.0 -0.020009682644204663 -1.7760375671343337e-05
v -0.007773869507924047 -0.020009682644204663 -0.034122478216886507
v 0.007773869507924047 -0.020009682644204663 -0.034122478216886507
v 0.007773869507924047 0.03001892918904847 -0.034122478216886507
v -0.007773869507924047 0.03001892918904847 -0.034122478216886507
v 0.021816988619012646 -0.020009682644204663 -0.027351688645468757
v 0.007773869507924047 -0.020009682644204663 -0.034122478216886507
v 0.007773869507924047 0.03001892918904847 -0.034122478216886507
v 0.021816988619012646 0.03001892918904847 -0.027351688645468757
v 0.007773869507924047 -0.020009682644204663 -0.034122478216886507
v 0.021816988619012646 -0.020009682644204663 -0.027351688645468757
v 0.021816988619012646 0.03001892918904847 -0.027351688645468757
v 0.007773869507924047 0.03001892918904847 -0.034122478216886507
v 0.03153432550391771 -0.020009682644204663 -0.01518934441532958
v 0.021816988619012646 -0.020009682644204663 -0.027351688645468757
v 0.021816988619012646 0.03001892918904847 -0.027351688645468757
v 0.03153432550391771 0.03001892918904847 -0.01518934441532958
v 0.021816988619012646 -0.020009682644204663 -0.027351688645468757
v 0.03153432550391771 -0.020009682644204663 -0.01518934441532958
v 0.03153432550391771 0.03001892918904847 -0.01518934441532958
v 0.021816988619012646 0.03001892918904847 -0.027351688645468757
v 0.03498241278565821 -0.020009682644204663 -1.7760375671343337e-05
v 0.03153432550391771 -0.020009682644204663 -0.01518934441532958
v 0.03153432550391771 0.03001892918904847 -0.01518934441532958
v 0.03498241278565821 0.03001892918904847 -1.7760375671343337e-05
v 0.03153432550391771 -0.020009682644204663 -0.01518934441532958
v 0.03498241278565821 -0.020009682644204663 -1.7760375671343337e-05
v 0.03498241278565821 0.03001892918904847 -1.7760375671343337e-05
v 0.03153432550391771 0.03001892918904847 -0.01518934441532958
f 1 2 3
f 4 5 6
f 7 8 9
f 10 11 12
f 13 14 15
f 16 17 18
f 7 19 20
f 10 21 22
f 23 24 25
f 26 27 28
f 7 29 30
f 10 31 32
f 33 34 35
f 33 35 36
f 7 37 38
f 39 40 41
f 42 43 44
f 42 44 45
f 7 46 47
f 10 48 49
f 50 51 52
f 50 52 53
f 7 54 55
f 10 56 57
f 58 59 60
f 58 60 61
f 7 62 63
f 10 64 65
f 66 67 68
f 66 68 69
f 70 71 72
f 10 73 74
f 75 76 77
f 75 77 78
f 7 79 80
f 10 81 82
f 83 84 85
f 83 85 86
f 7 87 88
f 10 89 90
f 91 92 93
f 91 93 94
f 95 96 97
f 10 98 99
f 100 101 102
f 100 102 103
f 7 104 105
f 10 106 107
f 108 109 110
f 108 110 111
f 7 112 113
f 10 114 115
f 116 117 118
f 116 118 119
f 7 120 121
f 10 122 123
o pieza_5
usemtl material_5
v -0.09999453117047463 -0.01649890286643252 0.9687380345533313
v -0.09999453117047463 -0.00997888327914137 0.9669826446644452
v 0.09999453117047463 -0.00997888327914137 0.9669826446644452
v 0.09999453117047463 -0.01649890286643252 0.9687380345533313
v -0.09999453117047463 -0.00997888327914137 0.9800226838390276
v -0.09999453117047463 -0.00997888327914137 0.9669826446644452
v -0.09999453117047463 -0.01649890286643252 0.9687380345533313
v 0.09999453117047463 -0.00997888327914137 0.9800226838390276
v 0.09999453117047463 -0.01649890286643252 0.9687380345533313
v 0.09999453117047463 -0.00997888327914137 0.9669826446644452
v -0.09999453117047463 -0.021263532564837567 0.9735026642517364
v -0.09999453117047463 -0.01649890286643252 0.9687380345533313
v 0.09999453117047463 -0.01649890286643252 0.9687380345533313
v 0.09999453117047463 -0.021263532564837567 0.9735026642517364
v -0.09999453117047463 -0.01649890286643252 0.9687380345533313
v -0.09999453117047463 -0.021263532564837567 0.9735026642517364
v 0.09999453117047463 -0.021263532564837567 0.9735026642517364
v 0.09999453117047463 -0.01649890286643252 0.9687380345533313
v -0.09999453117047463 -0.02301892245372364 0.9800226838390276
v -0.09999453117047463 -0.021263532564837567 0.9735026642517364
v 0.09999453117047463 -0.021263532564837567 0.9735026642517364
v 0.09999453117047463 -0.02301892245372364 0.9800226838390276
v -0.09999453117047463 -0.021263532564837567 0.9735026642517364
v -0.09999453117047463 -0.02301892245372364 0.9800226838390276
v 0.09999453117047463 -0.02301892245372364 0.9800226838390276
v 0.09999453117047463 -0.021263532564837567 0.9735026642517364
v -0.09999453117047463 -0.021263532564837567 0.9864800109302871
v -0.09999453117047463 -0.02301892245372364 0.9800226838390276
v 0.09999453117047463 -0.02301892245372364 0.9800226838390276
v 0.09999453117047463 -0.021263532564837567 0.9864800109302871
v -0.09999453117047463 -0.02301892245372364 0.9800226838390276
v -0.09999453117047463 -0.021263532564837567 0.9864800109302871
v 0.09999453117047463 -0.021263532564837567 0.9864800109302871
v 0.09999453117047463 -0.02301892245372364 0.9800226838390276
v -0.09999453117047463 -0.01649890286643252 0.9912446406286919
v -0.09999453117047463 -0.021263532564837567 0.9864800109302871
v 0.09999453117047463 -0.021263532564837567 0.9864800109302871
v 0.09999453117047463 -0.01649890286643252 0.9912446406286919
v -0.09999453117047463 -0.021263532564837567 0.9864800109302871
v -0.09999453117047463 -0.01649890286643252 0.9912446406286919
v 0.09999453117047463 -0.01649890286643252 0.9912446406286919
v 0.09999453117047463 -0.021263532564837567 0.9864800109302871
v -0.09999453117047463 -0.00997888327914137 0.9930000305175781
v -0.09999453117047463 -0.01649890286643252 0.9912446406286919
v 0.09999453117047463 -0.01649890286643252 0.9912446406286919
v 0.09999453117047463 -0.00997888327914137 0.9930000305175781
v -0.09999453117047463 -0.01649890286643252 0.9912446406286919
v -0.09999453117047463 -0.00997888327914137 0.9930000305175781
v 0.09999453117047463 -0.00997888327914137 0.9930000305175781
v 0.09999453117047463 -0.01649890286643252 0.9912446406286919
v -0.09999453117047463 -0.003521556187881858 0.9912446406286919
v -0.09999453117047463 -0.00997888327914137 0.9930000305175781
v 0.09999453117047463 -0.00997888327914137 0.9930000305175781
v 0.09999453117047463 -0.003521556187881858 0.9912446406286919
v -0.09999453117047463 -0.00997888327914137 0.9930000305175781
v -0.09999453117047463 -0.003521556187881858 0.9912446406286919
v 0.09999453117047463 -0.003521556187881858 0.9912446406286919
v 0.09999453117047463 -0.00997888327914137 0.9930000305175781
v -0.09999453117047463 0.0012430735105232182 0.9864800109302871
v -0.09999453117047463 -0.003521556187881858 0.9912446406286919
v 0.09999453117047463 -0.003521556187881858 0.9912446406286919
v 0.09999453117047463 0.0012430735105232182 0.9864800109302871
v -0.09999453117047463 -0.003521556187881858 0.9912446406286919
v -0.09999453117047463 0.0012430735105232182 0.9864800109302871
v 0.09999453117047463 0.0012430735105232182 0.9864800109302871
v 0.09999453117047463 -0.003521556187881858 0.9912446406286919
v -0.09999453117047463 0.00299846339940929 0.9800226838390276
v -0.09999453117047463 0.0012430735105232182 0.9864800109302871
v 0.09999453117047463 0.0012430735105232182 0.9864800109302871
v 0.09999453117047463 0.00299846339940929 0.9800226838390276
v -0.09999453117047463 0.0012430735105232182 0.9864800109302871
v -0.09999453117047463 0.00299846339940929 0.9800226838390276
v 0.09999453117047463 0.00299846339940929 0.9800226838390276
v 0.09999453117047463 0.0012430735105232182 0.9864800109302871
v -0.09999453117047463 0.0012430735105232182 0.9735026642517364
v -0.09999453117047463 0.00299846339940929 0.9800226838390276
v 0.09999453117047463 0.00299846339940929 0.9800226838390276
v 0.09999453117047463 0.0012430735105232182 0.9735026642517364
v -0.09999453117047463 0.00299846339940929 0.9800226838390276
v -0.09999453117047463 0.0012430735105232182 0.9735026642517364
v 0.09999453117047463 0.0012430735105232182 0.9735026642517364
v 0.09999453117047463 0.00299846339940929 0.9800226838390276
v -0.09999453117047463 -0.003521556187881858 0.9687380345533313
v -0.09999453117047463 0.0012430735105232182 0.9735026642517364
v 0.09999453117047463 0.0012430735105232182 0.9735026642517364
v 0.09999453117047463 -0.003521556187881858 0.9687380345533313
v -0.09999453117047463 0.0012430735105232182 0.9735026642517364
v -0.09999453117047463 -0.003521556187881858 0.9687380345533313
v 0.09999453117047463 -0.003521556187881858 0.9687380345533313
v 0.09999453117047463 0.0012430735105232182 0.9735026642517364
v -0.09999453117047463 -0.00997888327914137 0.9669826446644452
v -0.09999453117047463 -0.003521556187881858 0.9687380345533313
v 0.09999453117047463 -0.003521556187881858 0.9687380345533313
v 0.09999453117047463 -0.00997888327914137 0.9669826446644452
v -0.09999453117047463 -0.003521556187881858 0.9687380345533313
v -0.09999453117047463 -0.00997888327914137 0.9669826446644452
v 0.09999453117047463 -0.00997888327914137 0.9669826446644452
v 0.09999453117047463 -0.003521556187881858 0.9687380345533313
f 124 125 126
f 124 126 127
f 128 129 130
f 131 132 133
f 134 135 136
f 134 136 137
f 128 138 139
f 131 140 141
f 142 143 144
f 142 144 145
f 128 146 147
f 131 148 149
f 150 151 152
f 150 152 153
f 128 154 155
f 131 156 157
f 158 159 160
f 158 160 161
f 128 162 163
f 131 164 165
f 166 167 168
f 166 168 169
f 128 170 171
f 131 172 173
f 174 175 176
f 174 176 177
f 128 178 179
f 131 180 181
f 182 183 184
f 182 184 185
f 128 186 187
f 131 188 189
f 190 191 192
f 190 192 193
f 128 194 195
f 131 196 197
f 198 199 200
f 198 200 201
f 128 202 203
f 131 204 205
f 206 207 208
f 206 208 209
f 128 210 211
f 131 212 213
f 214 215 216
f 214 216 217
f 128 218 219
f 131 220 221
o pieza_6
usemtl material_6
v 0.024242387607742107 -0.003991200985422716 0.000795105793510071
v 0.027971985701240893 0.01002932518087829 -3.369378282290156e-05
v 0.027971985701240893 0.04000424319159074 0.5399810301716886
v 0.024242387607742107 0.026052783656650813 0.5408098297480217
v 0.0 0.01002932518087829 -3.369378282290156e-05
v 0.027971985701240893 0.01002932518087829 -3.369378282290156e-05
v 0.024242387607742107 -0.003991200985422716 0.000795105793510071
v 0.0 0.04000424319159074 0.5399810301716886
v 0.024242387607742107 0.026052783656650813 0.5408098297480217
v 0.027971985701240893 0.04000424319159074 0.5399810301716886
v 0.014020526166300989 -0.01421306242686382 0.0013476388443988303
v 0.024242387607742107 -0.003991200985422716 0.000795105793510071
v 0.024242387607742107 0.026052783656650813 0.5408098297480217
v 0.014020526166300989 0.015761855583848627 0.5413623627989104
v 0.024242387607742107 -0.003991200985422716 0.000795105793510071
v 0.014020526166300989 -0.01421306242686382 0.0013476388443988303
v 0.014020526166300989 0.015761855583848627 0.5413623627989104
v 0.024242387607742107 0.026052783656650813 0.5408098297480217
v 0.0 -0.01794266052036264 0.0015548387384820735
v 0.014020526166300989 -0.01421306242686382 0.0013476388443988303
v 0.014020526166300989 0.015761855583848627 0.5413623627989104
v 0.0 0.012032257490349862 0.5415695626929937
v 0.014020526166300989 -0.01421306242686382 0.0013476388443988303
v 0.0 -0.01794266052036264 0.0015548387384820735
v 0.0 0.012032257490349862 0.5415695626929937
v 0.014020526166300989 0.015761855583848627 0.5413623627989104
v -0.014020526166300989 -0.01421306242686382 0.0013476388443988303
v 0.0 -0.01794266052036264 0.0015548387384820735
v 0.0 0.012032257490349862 0.5415695626929937
v -0.014020526166300989 0.015761855583848627 0.5413623627989104
v 0.0 -0.01794266052036264 0.0015548387384820735
v -0.014020526166300989 -0.01421306242686382 0.0013476388443988303
v -0.014020526166300989 0.015761855583848627 0.5413623627989104
v 0.0 0.012032257490349862 0.5415695626929937
v -0.024242387607742107 -0.003991200985422716 0.000795105793510071
v -0.014020526166300989 -0.01421306242686382 0.0013476388443988303
v -0.014020526166300989 0.015761855583848627 0.5413623627989104
v -0.024242387607742107 0.026052783656650813 0.5408098297480217
v -0.014020526166300989 -0.01421306242686382 0.0013476388443988303
v -0.024242387607742107 -0.003991200985422716 0.000795105793510071
v -0.024242387607742107 0.026052783656650813 0.5408098297480217
v -0.014020526166300989 0.015761855583848627 0.5413623627989104
v -0.027971985701240893 0.01002932518087829 -3.369378282290156e-05
v -0.024242387607742107 -0.003991200985422716 0.000795105793510071
v -0.024242387607742107 0.026052783656650813 0.5408098297480217
v -0.027971985701240893 0.04000424319159074 0.5399810301716886
v -0.024242387607742107 -0.003991200985422716 0.000795105793510071
v -0.027971985701240893 0.01002932518087829 -3.369378282290156e-05
v -0.027971985701240893 0.04000424319159074 0.5399810301716886
v -0.024242387607742107 0.026052783656650813 0.5408098297480217
v -0.024242387607742107 0.02398078471581816 -0.0007934267277949041
v -0.027971985701240893 0.01002932518087829 -3.369378282290156e-05
v -0.027971985701240893 0.04000424319159074 0.5399810301716886
v -0.024242387607742107 0.05395570272653061 0.5392212972267166
v 0.0 0.01002932518087829 -3.369378282290156e-05
v -0.027971985701240893 0.01002932518087829 -3.369378282290156e-05
v -0.024242387607742107 0.02398078471581816 -0.0007934267277949041
v -0.024242387607742107 0.05395570272653061 0.5392212972267166
v -0.027971985701240893 0.04000424319159074 0.5399810301716886
v -0.014020526166300989 0.034202646157259264 -0.0013459597786836634
v -0.024242387607742107 0.02398078471581816 -0.0007934267277949041
v -0.024242387607742107 0.05395570272653061 0.5392212972267166
v -0.014020526166300989 0.06417756416797171 0.538668764175828
v -0.024242387607742107 0.02398078471581816 -0.0007934267277949041
v -0.014020526166300989 0.034202646157259264 -0.0013459597786836634
v -0.014020526166300989 0.06417756416797171 0.538668764175828
v -0.024242387607742107 0.05395570272653061 0.5392212972267166
v 0.0 0.037932244250758085 -0.0015531596727669066
v -0.014020526166300989 0.034202646157259264 -0.0013459597786836634
v -0.014020526166300989 0.06417756416797171 0.538668764175828
v 0.0 0.06797622889283161 0.5384615642817447
v -0.014020526166300989 0.034202646157259264 -0.0013459597786836634
v 0.0 0.037932244250758085 -0.0015531596727669066
v 0.0 0.06797622889283161 0.5384615642817447
v -0.014020526166300989 0.06417756416797171 0.538668764175828
v 0.014020526166300989 0.034202646157259264 -0.0013459597786836634
v 0.0 0.037932244250758085 -0.0015531596727669066
v 0.0 0.06797622889283161 0.5384615642817447
v 0.014020526166300989 0.06417756416797171 0.538668764175828
v 0.0 0.037932244250758085 -0.0015531596727669066
v 0.014020526166300989 0.034202646157259264 -0.0013459597786836634
v 0.014020526166300989 0.06417756416797171 0.538668764175828
v 0.0 0.06797622889283161 0.5384615642817447
v 0.024242387607742107 0.02398078471581816 -0.0007934267277949041
v 0.014020526166300989 0.034202646157259264 -0.0013459597786836634
v 0.014020526166300989 0.06417756416797171 0.538668764175828
v 0.024242387607742107 0.05395570272653061 0.5392212972267166
v 0.014020526166300989 0.034202646157259264 -0.0013459597786836634
v 0.024242387607742107 0.02398078471581816 -0.0007934267277949041
v 0.024242387607742107 0.05395570272653061 0.5392212972267166
v 0.014020526166300989 0.06417756416797171 0.538668764175828
v 0.027971985701240893 0.01002932518087829 -3.369378282290156e-05
v 0.024242387607742107 0.02398078471581816 -0.0007934267277949041
v 0.024242387607742107 0.05395570272653061 0.5392212972267166
v 0.027971985701240893 0.04000424319159074 0.5399810301716886
v 0.024242387607742107 0.02398078471581816 -0.0007934267277949041
v 0.027971985701240893 0.01002932518087829 -3.369378282290156e-05
v 0.027971985701240893 0.04000424319159074 0.5399810301716886
v 0.024242387607742107 0.05395570272653061 0.5392212972267166
v 0.02251572182371489 0.02708878312706714 0.5385306309131058
v 0.02596905339176932 0.04000424319159074 0.5399810301716886
v 0.02596905339176932 -0.009999997913837433 0.9799700052575037
v 0.02251572182371489 -0.022915457978361004 0.9785196059989207
v 0.0 0.04000424319159074 0.5399810301716886
v 0.02596905339176932 0.04000424319159074 0.5399810301716886
v 0.02251572182371489 0.02708878312706714 0.5385306309131058
v 0.0 -0.009999997913837433 0.9799700052575037
v 0.02251572182371489 -0.022915457978361004 0.9785196059989207
v 0.02596905339176932 -0.009999997913837433 0.9799700052575037
v 0.01298452669588466 0.017626654630598038 0.5374255648113284
v 0.02251572182371489 0.02708878312706714 0.5385306309131058
v 0.02251572182371489 -0.022915457978361004 0.9785196059989207
v 0.01298452669588466 -0.03237758647483013 0.9774836065285044
v 0.02251572182371489 0.02708878312706714 0.5385306309131058
v 0.01298452669588466 0.017626654630598038 0.5374255648113284
v 0.01298452669588466 -0.03237758647483013 0.9774836065285044
v 0.02251572182371489 -0.022915457978361004 0.9785196059989207
v 0.0 0.014173323062543597 0.5370802316545229
v 0.01298452669588466 0.017626654630598038 0.5374255648113284
v 0.01298452669588466 -0.03237758647483013 0.9774836065285044
v 0.0 -0.035830918042884574 0.9770692067403379
v 0.01298452669588466 0.017626654630598038 0.5374255648113284
v 0.0 0.014173323062543597 0.5370802316545229
v 0.0 -0.035830918042884574 0.9770692067403379
v 0.01298452669588466 -0.03237758647483013 0.9774836065285044
v -0.01298452669588466 0.017626654630598038 0.5374255648113284
v 0.0 0.014173323062543597 0.5370802316545229
v 0.0 -0.035830918042884574 0.9770692067403379
v -0.01298452669588466 -0.03237758647483013 0.9774836065285044
v 0.0 0.014173323062543597 0.5370802316545229
v -0.01298452669588466 0.017626654630598038 0.5374255648113284
v -0.01298452669588466 -0.03237758647483013 0.9774836065285044
v 0.0 -0.035830918042884574 0.9770692067403379
v -0.02251572182371489 0.02708878312706714 0.5385306309131058
v -0.01298452669588466 0.017626654630598038 0.5374255648113284
v -0.01298452669588466 -0.03237758647483013 0.9774836065285044
v -0.02251572182371489 -0.022915457978361004 0.9785196059989207
v -0.01298452669588466 0.017626654630598038 0.5374255648113284
v -0.02251572182371489 0.02708878312706714 0.5385306309131058
v -0.02251572182371489 -0.022915457978361004 0.9785196059989207
v -0.01298452669588466 -0.03237758647483013 0.9774836065285044
v -0.02596905339176932 0.04000424319159074 0.5399810301716886
v -0.02251572182371489 0.02708878312706714 0.5385306309131058
v -0.02251572182371489 -0.022915457978361004 0.9785196059989207
v -0.02596905339176932 -0.009999997913837433 0.9799700052575037
v -0.02251572182371489 0.02708878312706714 0.5385306309131058
v -0.02596905339176932 0.04000424319159074 0.5399810301716886
v -0.02596905339176932 -0.009999997913837433 0.9799700052575037
v -0.02251572182371489 -0.022915457978361004 0.9785196059989207
v -0.02251572182371489 0.05291970325611428 0.5415004960616326
v -0.02596905339176932 0.04000424319159074 0.5399810301716886
v -0.02596905339176932 -0.009999997913837433 0.9799700052575037
v -0.02251572182371489 0.0029154621506861655 0.9814894711474476
v 0.0 0.04000424319159074 0.5399810301716886
v -0.02596905339176932 0.04000424319159074 0.5399810301716886
v -0.02251572182371489 0.05291970325611428 0.5415004960616326
v -0.02251572182371489 0.0029154621506861655 0.9814894711474476
v -0.02596905339176932 -0.009999997913837433 0.9799700052575037
v -0.01298452669588466 0.06238183175258344 0.542536495532049
v -0.02251572182371489 0.05291970325611428 0.5415004960616326
v -0.02251572182371489 0.0029154621506861655 0.9814894711474476
v -0.01298452669588466 0.012377590647155268 0.9825254706178639
v -0.02251572182371489 0.05291970325611428 0.5415004960616326
v -0.01298452669588466 0.06238183175258344 0.542536495532049
v -0.01298452669588466 0.012377590647155268 0.9825254706178639
v -0.02251572182371489 0.0029154621506861655 0.9814894711474476
v 0.0 0.06583516332063788 0.5429508953202155
v -0.01298452669588466 0.06238183175258344 0.542536495532049
v -0.01298452669588466 0.012377590647155268 0.9825254706178639
v 0.0 0.01583092221520971 0.9829398704060304
v -0.01298452669588466 0.06238183175258344 0.542536495532049
v 0.0 0.06583516332063788 0.5429508953202155
v 0.0 0.01583092221520971 0.9829398704060304
v -0.01298452669588466 0.012377590647155268 0.9825254706178639
v 0.01298452669588466 0.06238183175258344 0.542536495532049
v 0.0 0.06583516332063788 0.5429508953202155
v 0.0 0.01583092221520971 0.9829398704060304
v 0.01298452669588466 0.012377590647155268 0.9825254706178639
v 0.0 0.06583516332063788 0.5429508953202155
v 0.01298452669588466 0.06238183175258344 0.542536495532049
v 0.01298452669588466 0.012377590647155268 0.9825254706178639
v 0.0 0.01583092221520971 0.9829398704060304
v 0.02251572182371489 0.05291970325611428 0.5415004960616326
v 0.01298452669588466 0.06238183175258344 0.542536495532049
v 0.01298452669588466 0.012377590647155268 0.9825254706178639
v 0.02251572182371489 0.0029154621506861655 0.9814894711474476
v 0.01298452669588466 0.06238183175258344 0.542536495532049
v 0.02251572182371489 0.05291970325611428 0.5415004960616326
v 0.02251572182371489 0.0029154621506861655 0.9814894711474476
v 0.01298452669588466 0.012377590647155268 0.9825254706178639
v 0.02596905339176932 0.04000424319159074 0.5399810301716886
v 0.02251572182371489 0.05291970325611428 0.5415004960616326
v 0.02251572182371489 0.0029154621506861655 0.9814894711474476
v 0.02596905339176932 -0.009999997913837433 0.9799700052575037
v 0.02251572182371489 0.05291970325611428 0.5415004960616326
v 0.02596905339176932 0.04000424319159074 0.5399810301716886
v 0.02596905339176932 -0.009999997913837433 0.9799700052575037
v 0.02251572182371489 0.0029154621506861655 0.9814894711474476
f 222 223 224
f 222 224 225
f 226 227 228
f 229 230 231
f 232 233 234
f 232 234 235
f 226 236 237
f 229 238 239
f 240 241 242
f 240 242 243
f 226 244 245
f 229 246 247
f 248 249 250
f 248 250 251
f 226 252 253
f 229 254 255
f 256 257 258
f 256 258 259
f 226 260 261
f 229 262 263
f 264 265 266
f 264 266 267
f 226 268 269
f 229 270 271
f 272 273 274
f 272 274 275
f 276 277 278
f 229 279 280
f 281 282 283
f 281 283 284
f 226 285 286
f 229 287 288
f 289 290 291
f 289 291 292
f 226 293 294
f 229 295 296
f 297 298 299
f 297 299 300
f 226 301 302
f 229 303 304
f 305 306 307
f 305 307 308
f 226 309 310
f 229 311 312
f 313 314 315
f 313 315 316
f 226 317 318
f 229 319 320
f 321 322 323
f 321 323 324
f 325 326 327
f 328 329 330
f 331 332 333
f 331 333 334
f 325 335 336
f 328 337 338
f 339 340 341
f 339 341 342
f 325 343 344
f 328 345 346
f 347 348 349
f 347 349 350
f 325 351 352
f 328 353 354
f 355 356 357
f 355 357 358
f 325 359 360
f 328 361 362
f 363 364 365
f 363 365 366
f 325 367 368
f 328 369 370
f 371 372 373
f 371 373 374
f 375 376 377
f 328 378 379
f 380 381 382
f 380 382 383
f 325 384 385
f 328 386 387
f 388 389 390
f 388 390 391
f 325 392 393
f 328 394 395
f 396 397 398
f 396 398 399
f 325 400 401
f 328 402 403
f 404 405 406
f 404 406 407
f 325 408 409
f 328 410 411
f 412 413 414
f 412 414 415
f 325 416 417
f 328 418 419
o pieza_7
usemtl material_7
v 0.06927383125517188 -0.04998957747190774 0.970024410341507
v 0.07997915911614062 -0.009999997913837433 0.970024410341507
v 0.07997915911614062 -0.009999997913837433 1.1299999952316284
v 0.06927383125517188 -0.04998957747190774 1.1299999952316284
v 0.0 -0.009999997913837433 0.970024410341507
v 0.07997915911614062 -0.009999997913837433 0.970024410341507
v 0.06927383125517188 -0.04998957747190774 0.970024410341507
v 0.0 -0.009999997913837433 1.1299999952316284
v 0.06927383125517188 -0.04998957747190774 1.1299999952316284
v 0.07997915911614062 -0.009999997913837433 1.1299999952316284
v 0.03998957955807031 -0.07927382916900932 0.970024410341507
v 0.06927383125517188 -0.04998957747190774 0.970024410341507
v 0.06927383125517188 -0.04998957747190774 1.1299999952316284
v 0.03998957955807031 -0.07927382916900932 1.1299999952316284
v 0.06927383125517188 -0.04998957747190774 0.970024410341507
v 0.03998957955807031 -0.07927382916900932 0.970024410341507
v 0.03998957955807031 -0.07927382916900932 1.1299999952316284
v 0.06927383125517188 -0.04998957747190774 1.1299999952316284
v 0.0 -0.08997915702997805 0.970024410341507
v 0.03998957955807031 -0.07927382916900932 0.970024410341507
v 0.03998957955807031 -0.07927382916900932 1.1299999952316284
v 0.0 -0.08997915702997805 1.1299999952316284
v 0.03998957955807031 -0.07927382916900932 0.970024410341507
v 0.0 -0.08997915702997805 0.970024410341507
v 0.0 -0.08997915702997805 1.1299999952316284
v 0.03998957955807031 -0.07927382916900932 1.1299999952316284
v -0.03998957955807031 -0.07927382916900932 0.970024410341507
v 0.0 -0.08997915702997805 0.970024410341507
v 0.0 -0.08997915702997805 1.1299999952316284
v -0.03998957955807031 -0.07927382916900932 1.1299999952316284
v 0.0 -0.08997915702997805 0.970024410341507
v -0.03998957955807031 -0.07927382916900932 0.970024410341507
v -0.03998957955807031 -0.07927382916900932 1.1299999952316284
v 0.0 -0.08997915702997805 1.1299999952316284
v -0.06927383125517188 -0.04998957747190774 0.970024410341507
v -0.03998957955807031 -0.07927382916900932 0.970024410341507
v -0.03998957955807031 -0.07927382916900932 1.1299999952316284
v -0.06927383125517188 -0.04998957747190774 1.1299999952316284
v -0.03998957955807031 -0.07927382916900932 0.970024410341507
v -0.06927383125517188 -0.04998957747190774 0.970024410341507
v -0.06927383125517188 -0.04998957747190774 1.1299999952316284
v -0.03998957955807031 -0.07927382916900932 1.1299999952316284
v -0.07997915911614062 -0.009999997913837433 0.970024410341507
v -0.06927383125517188 -0.04998957747190774 0.970024410341507
v -0.06927383125517188 -0.04998957747190774 1.1299999952316284
v -0.07997915911614062 -0.009999997913837433 1.1299999952316284
v -0.06927383125517188 -0.04998957747190774 0.970024410341507
v -0.07997915911614062 -0.009999997913837433 0.970024410341507
v -0.07997915911614062 -0.009999997913837433 1.1299999952316284
v -0.06927383125517188 -0.04998957747190774 1.1299999952316284
v -0.06927383125517188 0.029989581644232877 0.970024410341507
v -0.07997915911614062 -0.009999997913837433 0.970024410341507
v -0.07997915911614062 -0.009999997913837433 1.1299999952316284
v -0.06927383125517188 0.029989581644232877 1.1299999952316284
v 0.0 -0.009999997913837433 0.970024410341507
v -0.07997915911614062 -0.009999997913837433 0.970024410341507
v -0.06927383125517188 0.029989581644232877 0.970024410341507
v -0.06927383125517188 0.029989581644232877 1.1299999952316284
v -0.07997915911614062 -0.009999997913837433 1.1299999952316284
v -0.03998957955807031 0.05927383334133446 0.970024410341507
v -0.06927383125517188 0.029989581644232877 0.970024410341507
v -0.06927383125517188 0.029989581644232877 1.1299999952316284
v -0.03998957955807031 0.05927383334133446 1.1299999952316284
v -0.06927383125517188 0.029989581644232877 0.970024410341507
v -0.03998957955807031 0.05927383334133446 0.970024410341507
v -0.03998957955807031 0.05927383334133446 1.1299999952316284
v -0.06927383125517188 0.029989581644232877 1.1299999952316284
v 0.0 0.06997916120230319 0.970024410341507
v -0.03998957955807031 0.05927383334133446 0.970024410341507
v -0.03998957955807031 0.05927383334133446 1.1299999952316284
v 0.0 0.06997916120230319 1.1299999952316284
v -0.03998957955807031 0.05927383334133446 0.970024410341507
v 0.0 0.06997916120230319 0.970024410341507
v 0.0 0.06997916120230319 1.1299999952316284
v -0.03998957955807031 0.05927383334133446 1.1299999952316284
v 0.03998957955807031 0.05927383334133446 0.970024410341507
v 0.0 0.06997916120230319 0.970024410341507
v 0.0 0.06997916120230319 1.1299999952316284
v 0.03998957955807031 0.05927383334133446 1.1299999952316284
v 0.0 0.06997916120230319 0.970024410341507
v 0.03998957955807031 0.05927383334133446 0.970024410341507
v 0.03998957955807031 0.05927383334133446 1.1299999952316284
v 0.0 0.06997916120230319 1.1299999952316284
v 0.06927383125517188 0.029989581644232877 0.970024410341507
v 0.03998957955807031 0.05927383334133446 0.970024410341507
v 0.03998957955807031 0.05927383334133446 1.1299999952316284
v 0.06927383125517188 0.029989581644232877 1.1299999952316284
v 0.03998957955807031 0.05927383334133446 0.970024410341507
v 0.06927383125517188 0.029989581644232877 0.970024410341507
v 0.06927383125517188 0.029989581644232877 1.1299999952316284
v 0.03998957955807031 0.05927383334133446 1.1299999952316284
v 0.07997915911614062 -0.009999997913837433 0.970024410341507
v 0.06927383125517188 0.029989581644232877 0.970024410341507
v 0.06927383125517188 0.029989581644232877 1.1299999952316284
v 0.07997915911614062 -0.009999997913837433 1.1299999952316284
v 0.06927383125517188 0.029989581644232877 0.970024410341507
v 0.07997915911614062 -0.009999997913837433 0.970024410341507
v 0.07997915911614062 -0.009999997913837433 1.1299999952316284
v 0.06927383125517188 0.029989581644232877 1.1299999952316284
f 420 421 422
f 420 422 423
f 424 425 426
f 427 428 429
f 430 431 432
f 430 432 433
f 424 434 435
f 427 436 437
f 438 439 440
f 438 440 441
f 424 442 443
f 427 444 445
f 446 447 448
f 446 448 449
f 424 450 451
f 427 452 453
f 454 455 456
f 454 456 457
f 424 458 459
f 427 460 461
f 462 463 464
f 462 464 465
f 424 466 467
f 427 468 469
f 470 471 472
f 470 472 473
f 474 475 476
f 427 477 478
f 479 480 481
f 479 481 482
f 424 483 484
f 427 485 486
f 487 488 489
f 487 489 490
f 424 491 492
f 427 493 494
f 495 496 497
f 495 497 498
f 424 499 500
f 427 501 502
f 503 504 505
f 503 505 506
f 424 507 508
f 427 509 510
f 511 512 513
f 511 513 514
f 424 515 516
f 427 517 518
o pieza_8
usemtl material_8
v 0.07188503403880211 -0.05149367119441969 1.0199991677006552
v 0.08299999684095383 -0.01000000536441803 1.0199991677006552
v 0.08299999684095383 -0.01000000536441803 1.060000875214689
v 0.07188503403880211 -0.05149367119441969 1.060000875214689
v 0.0 -0.01000000536441803 1.0199991677006552
v 0.08299999684095383 -0.01000000536441803 1.0199991677006552
v 0.07188503403880211 -0.05149367119441969 1.0199991677006552
v 0.0 -0.01000000536441803 1.060000875214689
v 0.07188503403880211 -0.05149367119441969 1.060000875214689
v 0.08299999684095383 -0.01000000536441803 1.060000875214689
v 0.041506331010952156 -0.08188503940322014 1.0199991677006552
v 0.07188503403880211 -0.05149367119441969 1.0199991677006552
v 0.07188503403880211 -0.05149367119441969 1.060000875214689
v 0.041506331010952156 -0.08188503940322014 1.060000875214689
v 0.07188503403880211 -0.05149367119441969 1.0199991677006552
v 0.041506331010952156 -0.08188503940322014 1.0199991677006552
v 0.041506331010952156 -0.08188503940322014 1.060000875214689
v 0.07188503403880211 -0.05149367119441969 1.060000875214689
v 0.0 -0.09300000220537186 1.0199991677006552
v 0.041506331010952156 -0.08188503940322014 1.0199991677006552
v 0.041506331010952156 -0.08188503940322014 1.060000875214689
v 0.0 -0.09300000220537186 1.060000875214689
v 0.041506331010952156 -0.08188503940322014 1.0199991677006552
v 0.0 -0.09300000220537186 1.0199991677006552
v 0.0 -0.09300000220537186 1.060000875214689
v 0.041506331010952156 -0.08188503940322014 1.060000875214689
v -0.041506331010952156 -0.08188503940322014 1.0199991677006552
v 0.0 -0.09300000220537186 1.0199991677006552
v 0.0 -0.09300000220537186 1.060000875214689
v -0.041506331010952156 -0.08188503940322014 1.060000875214689
v 0.0 -0.09300000220537186 1.0199991677006552
v -0.041506331010952156 -0.08188503940322014 1.0199991677006552
v -0.041506331010952156 -0.08188503940322014 1.060000875214689
v 0.0 -0.09300000220537186 1.060000875214689
v -0.07188503403880211 -0.05149367119441969 1.0199991677006552
v -0.041506331010952156 -0.08188503940322014 1.0199991677006552
v -0.041506331010952156 -0.08188503940322014 1.060000875214689
v -0.07188503403880211 -0.05149367119441969 1.060000875214689
v -0.041506331010952156 -0.08188503940322014 1.0199991677006552
v -0.07188503403880211 -0.05149367119441969 1.0199991677006552
v -0.07188503403880211 -0.05149367119441969 1.060000875214689
v -0.041506331010952156 -0.08188503940322014 1.060000875214689
v -0.08299999684095383 -0.01000000536441803 1.0199991677006552
v -0.07188503403880211 -0.05149367119441969 1.0199991677006552
v -0.07188503403880211 -0.05149367119441969 1.060000875214689
v -0.08299999684095383 -0.01000000536441803 1.060000875214689
v -0.07188503403880211 -0.05149367119441969 1.0199991677006552
v -0.08299999684095383 -0.01000000536441803 1.0199991677006552
v -0.08299999684095383 -0.01000000536441803 1.060000875214689
v -0.07188503403880211 -0.05149367119441969 1.060000875214689
v -0.07188503403880211 0.031506325646534106 1.0199991677006552
v -0.08299999684095383 -0.01000000536441803 1.0199991677006552
v -0.08299999684095383 -0.01000000536441803 1.060000875214689
v -0.07188503403880211 0.031506325646534106 1.060000875214689
v 0.0 -0.01000000536441803 1.0199991677006552
v -0.08299999684095383 -0.01000000536441803 1.0199991677006552
v -0.07188503403880211 0.031506325646534106 1.0199991677006552
v -0.07188503403880211 0.031506325646534106 1.060000875214689
v -0.08299999684095383 -0.01000000536441803 1.060000875214689
v -0.041506331010952156 0.06188502867438406 1.0199991677006552
v -0.07188503403880211 0.031506325646534106 1.0199991677006552
v -0.07188503403880211 0.031506325646534106 1.060000875214689
v -0.041506331010952156 0.06188502867438406 1.060000875214689
v -0.07188503403880211 0.031506325646534106 1.0199991677006552
v -0.041506331010952156 0.06188502867438406 1.0199991677006552
v -0.041506331010952156 0.06188502867438406 1.060000875214689
v -0.07188503403880211 0.031506325646534106 1.060000875214689
v 0.0 0.0729999914765358 1.0199991677006552
v -0.041506331010952156 0.06188502867438406 1.0199991677006552
v -0.041506331010952156 0.06188502867438406 1.060000875214689
v 0.0 0.0729999914765358 1.060000875214689
v -0.041506331010952156 0.06188502867438406 1.0199991677006552
v 0.0 0.0729999914765358 1.0199991677006552
v 0.0 0.0729999914765358 1.060000875214689
v -0.041506331010952156 0.06188502867438406 1.060000875214689
v 0.041506331010952156 0.06188502867438406 1.0199991677006552
v 0.0 0.0729999914765358 1.0199991677006552
v 0.0 0.0729999914765358 1.060000875214689
v 0.041506331010952156 0.06188502867438406 1.060000875214689
v 0.0 0.0729999914765358 1.0199991677006552
v 0.041506331010952156 0.06188502867438406 1.0199991677006552
v 0.041506331010952156 0.06188502867438406 1.060000875214689
v 0.0 0.0729999914765358 1.060000875214689
v 0.07188503403880211 0.031506325646534106 1.0199991677006552
v 0.041506331010952156 0.06188502867438406 1.0199991677006552
v 0.041506331010952156 0.06188502867438406 1.060000875214689
v 0.07188503403880211 0.031506325646534106 1.060000875214689
v 0.041506331010952156 0.06188502867438406 1.0199991677006552
v 0.07188503403880211 0.031506325646534106 1.0199991677006552
v 0.07188503403880211 0.031506325646534106 1.060000875214689
v 0.041506331010952156 0.06188502867438406 1.060000875214689
v 0.08299999684095383 -0.01000000536441803 1.0199991677006552
v 0.07188503403880211 0.031506325646534106 1.0199991677006552
v 0.07188503403880211 0.031506325646534106 1.060000875214689
v 0.08299999684095383 -0.01000000536441803 1.060000875214689
v 0.07188503403880211 0.031506325646534106 1.0199991677006552
v 0.08299999684095383 -0.01000000536441803 1.0199991677006552
v 0.08299999684095383 -0.01000000536441803 1.060000875214689
v 0.07188503403880211 0.031506325646534106 1.060000875214689
f 519 520 521
f 519 521 522
f 523 524 525
f 526 527 528
f 529 530 531
f 529 531 532
f 523 533 534
f 526 535 536
f 537 538 539
f 537 539 540
f 523 541 542
f 526 543 544
f 545 546 547
f 545 547 548
f 523 549 550
f 526 551 552
f 553 554 555
f 553 555 556
f 523 557 558
f 526 559 560
f 561 562 563
f 561 563 564
f 523 565 566
f 526 567 568
f 569 570 571
f 569 571 572
f 573 574 575
f 526 576 577
f 578 579 580
f 578 580 581
f 523 582 583
f 526 584 585
f 586 587 588
f 586 588 589
f 523 590 591
f 526 592 593
f 594 595 596
f 594 596 597
f 523 598 599
f 526 600 601
f 602 603 604
f 602 604 605
f 523 606 607
f 526 608 609
f 610 611 612
f 610 612 613
f 523 614 615
f 526 616 617
o pieza_9
usemtl material_9
v 0.0433011888906532 -0.03499694705617931 1.1299967907880062
v 0.05000305383789037 -0.009999997913837433 1.1299967907880062
v 0.07500000298023224 -0.009999997913837433 1.2500032044436222
v 0.06495636111258311 -0.047505721624707675 1.2500032044436222
v 0.0 -0.009999997913837433 1.1299967907880062
v 0.05000305383789037 -0.009999997913837433 1.1299967907880062
v 0.0433011888906532 -0.03499694705617931 1.1299967907880062
v 0.0 -0.009999997913837433 1.2500032044436222
v 0.06495636111258311 -0.047505721624707675 1.2500032044436222
v 0.07500000298023224 -0.009999997913837433 1.2500032044436222
v 0.02499694914234188 -0.05330118680449064 1.1299967907880062
v 0.0433011888906532 -0.03499694705617931 1.1299967907880062
v 0.06495636111258311 -0.047505721624707675 1.2500032044436222
v 0.03750572371087025 -0.07495635902642056 1.2500032044436222
v 0.0433011888906532 -0.03499694705617931 1.1299967907880062
v 0.02499694914234188 -0.05330118680449064 1.1299967907880062
v 0.03750572371087025 -0.07495635902642056 1.2500032044436222
v 0.06495636111258311 -0.047505721624707675 1.2500032044436222
v 0.0 -0.06000305175172779 1.1299967907880062
v 0.02499694914234188 -0.05330118680449064 1.1299967907880062
v 0.03750572371087025 -0.07495635902642056 1.2500032044436222
v 0.0 -0.08500000089406967 1.2500032044436222
v 0.02499694914234188 -0.05330118680449064 1.1299967907880062
v 0.0 -0.06000305175172779 1.1299967907880062
v 0.0 -0.08500000089406967 1.2500032044436222
v 0.03750572371087025 -0.07495635902642056 1.2500032044436222
v -0.02499694914234188 -0.05330118680449064 1.1299967907880062
v 0.0 -0.06000305175172779 1.1299967907880062
v 0.0 -0.08500000089406967 1.2500032044436222
v -0.03750572371087025 -0.07495635902642056 1.2500032044436222
v 0.0 -0.06000305175172779 1.1299967907880062
v -0.02499694914234188 -0.05330118680449064 1.1299967907880062
v -0.03750572371087025 -0.07495635902642056 1.2500032044436222
v 0.0 -0.08500000089406967 1.2500032044436222
v -0.0433011888906532 -0.03499694705617931 1.1299967907880062
v -0.02499694914234188 -0.05330118680449064 1.1299967907880062
v -0.03750572371087025 -0.07495635902642056 1.2500032044436222
v -0.06495636111258311 -0.047505721624707675 1.2500032044436222
v -0.02499694914234188 -0.05330118680449064 1.1299967907880062
v -0.0433011888906532 -0.03499694705617931 1.1299967907880062
v -0.06495636111258311 -0.047505721624707675 1.2500032044436222
v -0.03750572371087025 -0.07495635902642056 1.2500032044436222
v -0.05000305383789037 -0.009999997913837433 1.1299967907880062
v -0.0433011888906532 -0.03499694705617931 1.1299967907880062
v -0.06495636111258311 -0.047505721624707675 1.2500032044436222
v -0.07500000298023224 -0.009999997913837433 1.2500032044436222
v -0.0433011888906532 -0.03499694705617931 1.1299967907880062
v -0.05000305383789037 -0.009999997913837433 1.1299967907880062
v -0.07500000298023224 -0.009999997913837433 1.2500032044436222
v -0.06495636111258311 -0.047505721624707675 1.2500032044436222
v -0.0433011888906532 0.014996951228504418 1.1299967907880062
v -0.05000305383789037 -0.009999997913837433 1.1299967907880062
v -0.07500000298023224 -0.009999997913837433 1.2500032044436222
v -0.06495636111258311 0.02750572579703281 1.2500032044436222
v 0.0 -0.009999997913837433 1.1299967907880062
v -0.05000305383789037 -0.009999997913837433 1.1299967907880062
v -0.0433011888906532 0.014996951228504418 1.1299967907880062
v -0.06495636111258311 0.02750572579703281 1.2500032044436222
v -0.07500000298023224 -0.009999997913837433 1.2500032044436222
v -0.02499694914234188 0.033301190976815775 1.1299967907880062
v -0.0433011888906532 0.014996951228504418 1.1299967907880062
v -0.06495636111258311 0.02750572579703281 1.2500032044436222
v -0.03750572371087025 0.054956363198745695 1.2500032044436222
v -0.0433011888906532 0.014996951228504418 1.1299967907880062
v -0.02499694914234188 0.033301190976815775 1.1299967907880062
v -0.03750572371087025 0.054956363198745695 1.2500032044436222
v -0.06495636111258311 0.02750572579703281 1.2500032044436222
v 0.0 0.040003055924052955 1.1299967907880062
v -0.02499694914234188 0.033301190976815775 1.1299967907880062
v -0.03750572371087025 0.054956363198745695 1.2500032044436222
v 0.0 0.0650000050663948 1.2500032044436222
v -0.02499694914234188 0.033301190976815775 1.1299967907880062
v 0.0 0.040003055924052955 1.1299967907880062
v 0.0 0.0650000050663948 1.2500032044436222
v -0.03750572371087025 0.054956363198745695 1.2500032044436222
v 0.02499694914234188 0.033301190976815775 1.1299967907880062
v 0.0 0.040003055924052955 1.1299967907880062
v 0.0 0.0650000050663948 1.2500032044436222
v 0.03750572371087025 0.054956363198745695 1.2500032044436222
v 0.0 0.040003055924052955 1.1299967907880062
v 0.02499694914234188 0.033301190976815775 1.1299967907880062
v 0.03750572371087025 0.054956363198745695 1.2500032044436222
v 0.0 0.0650000050663948 1.2500032044436222
v 0.0433011888906532 0.014996951228504418 1.1299967907880062
v 0.02499694914234188 0.033301190976815775 1.1299967907880062
v 0.03750572371087025 0.054956363198745695 1.2500032044436222
v 0.06495636111258311 0.02750572579703281 1.2500032044436222
v 0.02499694914234188 0.033301190976815775 1.1299967907880062
v 0.0433011888906532 0.014996951228504418 1.1299967907880062
v 0.06495636111258311 0.02750572579703281 1.2500032044436222
v 0.03750572371087025 0.054956363198745695 1.2500032044436222
v 0.05000305383789037 -0.009999997913837433 1.1299967907880062
v 0.0433011888906532 0.014996951228504418 1.1299967907880062
v 0.06495636111258311 0.02750572579703281 1.2500032044436222
v 0.07500000298023224 -0.009999997913837433 1.2500032044436222
v 0.0433011888906532 0.014996951228504418 1.1299967907880062
v 0.05000305383789037 -0.009999997913837433 1.1299967907880062
v 0.07500000298023224 -0.009999997913837433 1.2500032044436222
v 0.06495636111258311 0.02750572579703281 1.2500032044436222
f 618 619 620
f 618 620 621
f 622 623 624
f 625 626 627
f 628 629 630
f 628 630 631
f 622 632 633
f 625 634 635
f 636 637 638
f 636 638 639
f 622 640 641
f 625 642 643
f 644 645 646
f 644 646 647
f 622 648 649
f 625 650 651
f 652 653 654
f 652 654 655
f 622 656 657
f 625 658 659
f 660 661 662
f 660 662 663
f 622 664 665
f 625 666 667
f 668 669 670
f 668 670 671
f 672 673 674
f 625 675 676
f 677 678 679
f 677 679 680
f 622 681 682
f 625 683 684
f 685 686 687
f 685 687 688
f 622 689 690
f 625 691 692
f 693 694 695
f 693 695 696
f 622 697 698
f 625 699 700
f 701 702 703
f 701 703 704
f 622 705 706
f 625 707 708
f 709 710 711
f 709 711 712
f 622 713 714
f 625 715 716
