# Piezas extraídas de modelos de terceros; véase procedencia.json
mtllib charola.mtl
o pieza_0
usemtl material_0
v 0.13878658465411473 0.010784941913747336 0.09378338001901973
v 0.13916257269245974 0.009127176471953276 0.09415936805736477
v 0.13916257269245974 0.01116092995209238 0.09212561457722566
v 0.14000000059604645 0.009127176471953276 0.09212561457722566
v 0.13916257269245974 0.01116092995209238 -0.09212561457722566
v 0.14000000059604645 0.009127176471953276 -0.09212561457722566
v 0.13878658465411473 0.010784941913747336 -0.09378338001901973
v 0.13916257269245974 0.009127176471953276 -0.09415936805736477
v 0.13916257269245974 0.0028891931085013936 0.09415936805736477
v 0.14000000059604645 0.0028891931085013936 0.09212561457722566
v 0.14000000059604645 0.0028891931085013936 -0.09212561457722566
v 0.13916257269245974 0.0028891931085013936 -0.09415936805736477
v 0.13878658465411473 0.001214337301328014 0.09378338001901973
v 0.13916257269245974 0.0008383492629829674 0.09212561457722566
v 0.13916257269245974 0.0008383492629829674 -0.09212561457722566
v 0.13878658465411473 0.001214337301328014 -0.09378338001901973
v -0.13878658465411473 0.010784941913747336 -0.09378338001901973
v -0.13916257269245974 0.009127176471953276 -0.09415936805736477
v -0.13916257269245974 0.01116092995209238 -0.09212561457722566
v -0.14000000059604645 0.009127176471953276 -0.09212561457722566
v -0.13916257269245974 0.01116092995209238 0.09212561457722566
v -0.14000000059604645 0.009127176471953276 0.09212561457722566
v -0.13878658465411473 0.010784941913747336 0.09378338001901973
v -0.13916257269245974 0.009127176471953276 0.09415936805736477
v -0.13916257269245974 0.0028891931085013936 -0.09415936805736477
v -0.14000000059604645 0.0028891931085013936 -0.09212561457722566
v -0.14000000059604645 0.0028891931085013936 0.09212561457722566
v -0.13916257269245974 0.0028891931085013936 0.09415936805736477
v -0.13878658465411473 0.001214337301328014 -0.09378338001901973
v -0.13916257269245974 0.0008383492629829674 -0.09212561457722566
v -0.13916257269245974 0.0008383492629829674 0.09212561457722566
v -0.13878658465411473 0.001214337301328014 0.09378338001901973
v -0.13878658465411473 0.010784941913747336 -0.09378338001901973
v -0.13916257269245974 0.01116092995209238 -0.09212561457722566
v -0.13711172884694134 0.01116092995209238 -0.09415936805736477
v -0.13711172884694134 0.011998357855679074 -0.09212561457722566
v 0.13711172884694134 0.01116092995209238 -0.09415936805736477
v 0.13711172884694134 0.011998357855679074 -0.09212561457722566
v 0.13916257269245974 0.01116092995209238 -0.09212561457722566
v -0.13916257269245974 0.01116092995209238 0.09212561457722566
v -0.13711172884694134 0.011998357855679074 0.09212561457722566
v 0.13711172884694134 0.011998357855679074 0.09212561457722566
v 0.13916257269245974 0.01116092995209238 0.09212561457722566
v -0.13878658465411473 0.010784941913747336 0.09378338001901973
v -0.13711172884694134 0.01116092995209238 0.09415936805736477
v 0.13711172884694134 0.01116092995209238 0.09415936805736477
v 0.13878658465411473 0.010784941913747336 0.09378338001901973
v -0.13878658465411473 0.001214337301328014 0.09378338001901973
v -0.13916257269245974 0.0008383492629829674 0.09212561457722566
v -0.13711172884694134 0.0008383492629829674 0.09415936805736477
v -0.13711172884694134 9.213593962775768e-07 0.09212561457722566
v 0.13711172884694134 0.0008383492629829674 0.09415936805736477
v 0.13711172884694134 9.213593962775768e-07 0.09212561457722566
v 0.13878658465411473 0.001214337301328014 0.09378338001901973
v 0.13916257269245974 0.0008383492629829674 0.09212561457722566
v -0.13916257269245974 0.0008383492629829674 -0.09212561457722566
v -0.13711172884694134 9.213593962775768e-07 -0.09212561457722566
v 0.13711172884694134 9.213593962775768e-07 -0.09212561457722566
v 0.13916257269245974 0.0008383492629829674 -0.09212561457722566
v -0.13878658465411473 0.001214337301328014 -0.09378338001901973
v -0.13711172884694134 0.0008383492629829674 -0.09415936805736477
v 0.13711172884694134 0.0008383492629829674 -0.09415936805736477
v -0.13878658465411473 0.010784941913747336 0.09378338001901973
v -0.13916257269245974 0.009127176471953276 0.09415936805736477
v -0.13711172884694134 0.01116092995209238 0.09415936805736477
v -0.13711172884694134 0.009127176471953276 0.09499679596095147
v 0.13711172884694134 0.01116092995209238 0.09415936805736477
v 0.13711172884694134 0.009127176471953276 0.09499679596095147
v 0.13878658465411473 0.010784941913747336 0.09378338001901973
v 0.13916257269245974 0.009127176471953276 0.09415936805736477
v -0.13916257269245974 0.0028891931085013936 0.09415936805736477
v -0.13711172884694134 0.0028891931085013936 0.09499679596095147
v 0.13711172884694134 0.0028891931085013936 0.09499679596095147
v 0.13916257269245974 0.0028891931085013936 0.09415936805736477
v -0.13878658465411473 0.001214337301328014 0.09378338001901973
v -0.13711172884694134 0.0008383492629829674 0.09415936805736477
v 0.13711172884694134 0.0008383492629829674 0.09415936805736477
v 0.13878658465411473 0.001214337301328014 0.09378338001901973
v 0.13878658465411473 0.010784941913747336 -0.09378338001901973
v 0.13916257269245974 0.009127176471953276 -0.09415936805736477
v 0.13711172884694134 0.01116092995209238 -0.09415936805736477
v 0.13711172884694134 0.009127176471953276 -0.09499679596095147
v -0.13711172884694134 0.01116092995209238 -0.09415936805736477
v -0.13711172884694134 0.009127176471953276 -0.09499679596095147
v -0.13878658465411473 0.010784941913747336 -0.09378338001901973
v -0.13916257269245974 0.009127176471953276 -0.09415936805736477
v 0.13916257269245974 0.0028891931085013936 -0.09415936805736477
v 0.13711172884694134 0.0028891931085013936 -0.09499679596095147
v -0.13711172884694134 0.0028891931085013936 -0.09499679596095147
v -0.13916257269245974 0.0028891931085013936 -0.09415936805736477
v 0.13878658465411473 0.001214337301328014 -0.09378338001901973
v 0.13711172884694134 0.0008383492629829674 -0.09415936805736477
v -0.13711172884694134 0.0008383492629829674 -0.09415936805736477
v -0.13878658465411473 0.001214337301328014 -0.09378338001901973
f 1 2 3
f 2 4 3
f 3 4 5
f 4 6 5
f 5 6 7
f 6 8 7
f 2 9 4
f 9 10 4
f 4 10 6
f 10 11 6
f 6 11 8
f 11 12 8
f 9 13 10
f 13 14 10
f 10 14 11
f 14 15 11
f 11 15 12
f 15 16 12
f 17 18 19
f 18 20 19
f 19 20 21
f 20 22 21
f 21 22 23
f 22 24 23
f 18 25 20
f 25 26 20
f 20 26 22
f 26 27 22
f 22 27 24
f 27 28 24
f 25 29 26
f 29 30 26
f 26 30 27
f 30 31 27
f 27 31 28
f 31 32 28
f 33 34 35
f 34 36 35
f 35 36 37
f 36 38 37
f 37 38 7
f 38 39 7
f 34 40 36
f 40 41 36
f 36 41 38
f 41 42 38
f 38 42 39
f 42 43 39
f 40 44 41
f 44 45 41
f 41 45 42
f 45 46 42
f 42 46 43
f 46 47 43
f 48 49 50
f 49 51 50
f 50 51 52
f 51 53 52
f 52 53 54
f 53 55 54
f 49 56 51
f 56 57 51
f 51 57 53
f 57 58 53
f 53 58 55
f 58 59 55
f 56 60 57
f 60 61 57
f 57 61 58
f 61 62 58
f 58 62 59
f 62 16 59
f 63 64 65
f 64 66 65
f 65 66 67
f 66 68 67
f 67 68 69
f 68 70 69
f 64 71 66
f 71 72 66
f 66 72 68
f 72 73 68
f 68 73 70
f 73 74 70
f 71 75 72
f 75 76 72
f 72 76 73
f 76 77 73
f 73 77 74
f 77 78 74
f 79 80 81
f 80 82 81
f 81 82 83
f 82 84 83
f 83 84 85
f 84 86 85
f 80 87 82
f 87 88 82
f 82 88 84
f 88 89 84
f 84 89 86
f 89 90 86
f 87 91 88
f 91 92 88
f 88 92 89
f 92 93 89
f 89 93 90
f 93 94 90
o pieza_1
usemtl material_1
v -0.14000000059604645 0.011998357855679074 -0.08299935946466867
v 0.14000000059604645 0.011998357855679074 -0.08299935946466867
v 0.14000000059604645 0.03599323084824467 -0.08299935946466867
v -0.14000000059604645 0.03599323084824467 -0.08299935946466867
v 0.14000000059604645 0.011998357855679074 -0.09499679596095147
v -0.14000000059604645 0.011998357855679074 -0.09499679596095147
v -0.14000000059604645 0.03599323084824467 -0.09499679596095147
v 0.14000000059604645 0.03599323084824467 -0.09499679596095147
v -0.14000000059604645 0.011998357855679074 -0.09499679596095147
v -0.14000000059604645 0.011998357855679074 -0.08299935946466867
v -0.14000000059604645 0.03599323084824467 -0.08299935946466867
v -0.14000000059604645 0.03599323084824467 -0.09499679596095147
v 0.14000000059604645 0.011998357855679074 -0.08299935946466867
v 0.14000000059604645 0.011998357855679074 -0.09499679596095147
v 0.14000000059604645 0.03599323084824467 -0.09499679596095147
v 0.14000000059604645 0.011998357855679074 -0.08299935946466867
v 0.14000000059604645 0.03599323084824467 -0.09499679596095147
v 0.14000000059604645 0.03599323084824467 -0.08299935946466867
v -0.14000000059604645 0.03599323084824467 -0.08299935946466867
v 0.14000000059604645 0.03599323084824467 -0.08299935946466867
v 0.14000000059604645 0.03599323084824467 -0.09499679596095147
v -0.14000000059604645 0.03599323084824467 -0.08299935946466867
v 0.14000000059604645 0.03599323084824467 -0.09499679596095147
v -0.14000000059604645 0.03599323084824467 -0.09499679596095147
v -0.14000000059604645 0.011998357855679074 -0.09499679596095147
v 0.14000000059604645 0.011998357855679074 -0.09499679596095147
v 0.14000000059604645 0.011998357855679074 -0.08299935946466867
v -0.14000000059604645 0.011998357855679074 -0.08299935946466867
v -0.14000000059604645 0.011998357855679074 0.09499679596095147
v 0.14000000059604645 0.011998357855679074 0.09499679596095147
v 0.14000000059604645 0.03599323084824467 0.09499679596095147
v -0.14000000059604645 0.03599323084824467 0.09499679596095147
v 0.14000000059604645 0.011998357855679074 0.08299935946466867
v -0.14000000059604645 0.011998357855679074 0.08299935946466867
v -0.14000000059604645 0.03599323084824467 0.08299935946466867
v 0.14000000059604645 0.03599323084824467 0.08299935946466867
v -0.14000000059604645 0.011998357855679074 0.08299935946466867
v -0.14000000059604645 0.011998357855679074 0.09499679596095147
v -0.14000000059604645 0.03599323084824467 0.09499679596095147
v -0.14000000059604645 0.03599323084824467 0.08299935946466867
v 0.14000000059604645 0.011998357855679074 0.09499679596095147
v 0.14000000059604645 0.011998357855679074 0.08299935946466867
v 0.14000000059604645 0.03599323084824467 0.08299935946466867
v 0.14000000059604645 0.011998357855679074 0.09499679596095147
v 0.14000000059604645 0.03599323084824467 0.08299935946466867
v 0.14000000059604645 0.03599323084824467 0.09499679596095147
v -0.14000000059604645 0.03599323084824467 0.09499679596095147
v 0.14000000059604645 0.03599323084824467 0.09499679596095147
v 0.14000000059604645 0.03599323084824467 0.08299935946466867
v -0.14000000059604645 0.03599323084824467 0.09499679596095147
v 0.14000000059604645 0.03599323084824467 0.08299935946466867
v -0.14000000059604645 0.03599323084824467 0.08299935946466867
v -0.14000000059604645 0.011998357855679074 0.08299935946466867
v 0.14000000059604645 0.011998357855679074 0.08299935946466867
v 0.14000000059604645 0.011998357855679074 0.09499679596095147
v -0.14000000059604645 0.011998357855679074 0.09499679596095147
v -0.14000000059604645 0.011998357855679074 0.08299935946466867
v -0.12800256409976365 0.011998357855679074 0.08299935946466867
v -0.12800256409976365 0.03599323084824467 0.08299935946466867
v -0.14000000059604645 0.03599323084824467 0.08299935946466867
v -0.12800256409976365 0.011998357855679074 -0.08299935946466867
v -0.14000000059604645 0.011998357855679074 -0.08299935946466867
v -0.14000000059604645 0.03599323084824467 -0.08299935946466867
v -0.12800256409976365 0.03599323084824467 -0.08299935946466867
v -0.14000000059604645 0.011998357855679074 -0.08299935946466867
v -0.14000000059604645 0.011998357855679074 0.08299935946466867
v -0.14000000059604645 0.03599323084824467 0.08299935946466867
v -0.14000000059604645 0.03599323084824467 -0.08299935946466867
v -0.12800256409976365 0.011998357855679074 0.08299935946466867
v -0.12800256409976365 0.011998357855679074 -0.08299935946466867
v -0.12800256409976365 0.03599323084824467 -0.08299935946466867
v -0.12800256409976365 0.011998357855679074 0.08299935946466867
v -0.12800256409976365 0.03599323084824467 -0.08299935946466867
v -0.12800256409976365 0.03599323084824467 0.08299935946466867
v -0.14000000059604645 0.03599323084824467 0.08299935946466867
v -0.12800256409976365 0.03599323084824467 0.08299935946466867
v -0.12800256409976365 0.03599323084824467 -0.08299935946466867
v -0.14000000059604645 0.03599323084824467 0.08299935946466867
v -0.12800256409976365 0.03599323084824467 -0.08299935946466867
v -0.14000000059604645 0.03599323084824467 -0.08299935946466867
v -0.14000000059604645 0.011998357855679074 -0.08299935946466867
v -0.12800256409976365 0.011998357855679074 -0.08299935946466867
v -0.12800256409976365 0.011998357855679074 0.08299935946466867
v -0.14000000059604645 0.011998357855679074 0.08299935946466867
v 0.12800256409976365 0.011998357855679074 0.08299935946466867
v 0.14000000059604645 0.011998357855679074 0.08299935946466867
v 0.14000000059604645 0.03599323084824467 0.08299935946466867
v 0.12800256409976365 0.03599323084824467 0.08299935946466867
v 0.14000000059604645 0.011998357855679074 -0.08299935946466867
v 0.12800256409976365 0.011998357855679074 -0.08299935946466867
v 0.12800256409976365 0.03599323084824467 -0.08299935946466867
v 0.14000000059604645 0.03599323084824467 -0.08299935946466867
v 0.12800256409976365 0.011998357855679074 -0.08299935946466867
v 0.12800256409976365 0.011998357855679074 0.08299935946466867
v 0.12800256409976365 0.03599323084824467 0.08299935946466867
v 0.12800256409976365 0.03599323084824467 -0.08299935946466867
v 0.14000000059604645 0.011998357855679074 0.08299935946466867
v 0.14000000059604645 0.011998357855679074 -0.08299935946466867
v 0.14000000059604645 0.03599323084824467 -0.08299935946466867
v 0.14000000059604645 0.011998357855679074 0.08299935946466867
v 0.14000000059604645 0.03599323084824467 -0.08299935946466867
v 0.14000000059604645 0.03599323084824467 0.08299935946466867
v 0.12800256409976365 0.03599323084824467 0.08299935946466867
v 0.14000000059604645 0.03599323084824467 0.08299935946466867
v 0.14000000059604645 0.03599323084824467 -0.08299935946466867
v 0.12800256409976365 0.03599323084824467 0.08299935946466867
v 0.14000000059604645 0.03599323084824467 -0.08299935946466867
v 0.12800256409976365 0.03599323084824467 -0.08299935946466867
v 0.12800256409976365 0.011998357855679074 -0.08299935946466867
v 0.14000000059604645 0.011998357855679074 -0.08299935946466867
v 0.14000000059604645 0.011998357855679074 0.08299935946466867
v 0.12800256409976365 0.011998357855679074 0.08299935946466867
f 95 96 97
f 95 97 98
f 99 100 101
f 99 101 102
f 103 104 105
f 103 105 106
f 107 108 109
f 110 111 112
f 113 114 115
f 116 117 118
f 119 120 121
f 119 121 122
f 123 124 125
f 123 125 126
f 127 128 129
f 127 129 130
f 131 132 133
f 131 133 134
f 135 136 137
f 138 139 140
f 141 142 143
f 144 145 146
f 147 148 149
f 147 149 150
f 151 152 153
f 151 153 154
f 155 156 157
f 155 157 158
f 159 160 161
f 159 161 162
f 163 164 165
f 166 167 168
f 169 170 171
f 172 173 174
f 175 176 177
f 175 177 178
f 179 180 181
f 179 181 182
f 183 184 185
f 183 185 186
f 187 188 189
f 187 189 190
f 191 192 193
f 194 195 196
f 197 198 199
f 200 201 202
f 203 204 205
f 203 205 206
o pieza_2
usemtl material_2
v -0.125 0.01200459292019214 0.07999664296395764
v 0.125 0.01200459292019214 0.07999664296395764
v 0.125 0.014995406848839862 0.07999664296395764
v -0.125 0.014995406848839862 0.07999664296395764
v 0.125 0.01200459292019214 -0.07999664296395764
v -0.125 0.01200459292019214 -0.07999664296395764
v -0.125 0.014995406848839862 -0.07999664296395764
v 0.125 0.014995406848839862 -0.07999664296395764
v -0.125 0.01200459292019214 -0.07999664296395764
v -0.125 0.01200459292019214 0.07999664296395764
v -0.125 0.014995406848839862 0.07999664296395764
v -0.125 0.014995406848839862 -0.07999664296395764
v 0.125 0.01200459292019214 0.07999664296395764
v 0.125 0.01200459292019214 -0.07999664296395764
v 0.125 0.014995406848839862 -0.07999664296395764
v 0.125 0.01200459292019214 0.07999664296395764
v 0.125 0.014995406848839862 -0.07999664296395764
v 0.125 0.014995406848839862 0.07999664296395764
v -0.125 0.014995406848839862 0.07999664296395764
v 0.125 0.014995406848839862 0.07999664296395764
v 0.125 0.014995406848839862 -0.07999664296395764
v -0.125 0.014995406848839862 0.07999664296395764
v 0.125 0.014995406848839862 -0.07999664296395764
v -0.125 0.014995406848839862 -0.07999664296395764
v -0.125 0.01200459292019214 -0.07999664296395764
v 0.125 0.01200459292019214 -0.07999664296395764
v 0.125 0.01200459292019214 0.07999664296395764
v -0.125 0.01200459292019214 0.07999664296395764
f 207 208 209
f 207 209 210
f 211 212 213
f 211 213 214
f 215 216 217
f 215 217 218
f 219 220 221
f 222 223 224
f 225 226 227
f 228 229 230
f 231 232 233
f 231 233 234
