# Piezas extraídas de modelos de terceros; véase procedencia.json
mtllib espejo.mtl
o pieza_0
usemtl material_0
v -0.10494338861171584 0.02025300433389074 -0.06448622116752004
v -0.1049946597078538 0.02399579435196187 -0.06549455272489993
v 0.015005340803043159 0.025995367101342336 -0.06549455272489993
v 0.015056611899181118 0.02225257708327121 -0.06448622116752004
v -0.1049946597078538 0.02399579435196187 -0.05799188232337835
v -0.1049946597078538 0.02399579435196187 -0.06549455272489993
v -0.10494338861171584 0.02025300433389074 -0.06448622116752004
v 0.015005340803043159 0.025995367101342336 -0.05799188232337835
v 0.015056611899181118 0.02225257708327121 -0.06448622116752004
v 0.015005340803043159 0.025995367101342336 -0.06549455272489993
v -0.10489211751557788 0.017501455507820184 -0.0617517627068288
v -0.10494338861171584 0.02025300433389074 -0.06448622116752004
v 0.015056611899181118 0.02225257708327121 -0.06448622116752004
v 0.015107882995319078 0.01950102825720065 -0.0617517627068288
v -0.10494338861171584 0.02025300433389074 -0.06448622116752004
v -0.10489211751557788 0.017501455507820184 -0.0617517627068288
v 0.015107882995319078 0.01950102825720065 -0.0617517627068288
v 0.015056611899181118 0.02225257708327121 -0.06448622116752004
v -0.10487502715019856 0.01649312395044029 -0.05799188232337835
v -0.10489211751557788 0.017501455507820184 -0.0617517627068288
v 0.015107882995319078 0.01950102825720065 -0.0617517627068288
v 0.015124973360698398 0.01849269669982076 -0.05799188232337835
v -0.10489211751557788 0.017501455507820184 -0.0617517627068288
v -0.10487502715019856 0.01649312395044029 -0.05799188232337835
v 0.015124973360698398 0.01849269669982076 -0.05799188232337835
v 0.015107882995319078 0.01950102825720065 -0.0617517627068288
v -0.10489211751557788 0.017501455507820184 -0.054249092305307216
v -0.10487502715019856 0.01649312395044029 -0.05799188232337835
v 0.015124973360698398 0.01849269669982076 -0.05799188232337835
v 0.015107882995319078 0.01950102825720065 -0.054249092305307216
v -0.10487502715019856 0.01649312395044029 -0.05799188232337835
v -0.10489211751557788 0.017501455507820184 -0.054249092305307216
v 0.015107882995319078 0.01950102825720065 -0.054249092305307216
v 0.015124973360698398 0.01849269669982076 -0.05799188232337835
v -0.10494338861171584 0.02025300433389074 -0.051497543479236664
v -0.10489211751557788 0.017501455507820184 -0.054249092305307216
v 0.015107882995319078 0.01950102825720065 -0.054249092305307216
v 0.015056611899181118 0.02225257708327121 -0.051497543479236664
v -0.10489211751557788 0.017501455507820184 -0.054249092305307216
v -0.10494338861171584 0.02025300433389074 -0.051497543479236664
v 0.015056611899181118 0.02225257708327121 -0.051497543479236664
v 0.015107882995319078 0.01950102825720065 -0.054249092305307216
v -0.1049946597078538 0.02399579435196187 -0.05050630228723609
v -0.10494338861171584 0.02025300433389074 -0.051497543479236664
v 0.015056611899181118 0.02225257708327121 -0.051497543479236664
v 0.015005340803043159 0.025995367101342336 -0.05050630228723609
v -0.10494338861171584 0.02025300433389074 -0.051497543479236664
v -0.1049946597078538 0.02399579435196187 -0.05050630228723609
v 0.015005340803043159 0.025995367101342336 -0.05050630228723609
v 0.015056611899181118 0.02225257708327121 -0.051497543479236664
v -0.10506729376071591 0.02775567473541232 -0.051497543479236664
v -0.1049946597078538 0.02399579435196187 -0.05050630228723609
v 0.015005340803043159 0.025995367101342336 -0.05050630228723609
v 0.014936979341525877 0.029755247484792788 -0.051497543479236664
v -0.1049946597078538 0.02399579435196187 -0.05050630228723609
v -0.10506729376071591 0.02775567473541232 -0.051497543479236664
v 0.014936979341525877 0.029755247484792788 -0.051497543479236664
v 0.015005340803043159 0.025995367101342336 -0.05050630228723609
v -0.10511856485685386 0.030490133196103556 -0.054249092305307216
v -0.10506729376071591 0.02775567473541232 -0.051497543479236664
v 0.014936979341525877 0.029755247484792788 -0.051497543479236664
v 0.014885708245387916 0.03248970594548402 -0.054249092305307216
v -0.10506729376071591 0.02775567473541232 -0.051497543479236664
v -0.10511856485685386 0.030490133196103556 -0.054249092305307216
v 0.014885708245387916 0.03248970594548402 -0.054249092305307216
v 0.014936979341525877 0.029755247484792788 -0.051497543479236664
v -0.10513565522223318 0.031498464753483446 -0.05799188232337835
v -0.10511856485685386 0.030490133196103556 -0.054249092305307216
v 0.014885708245387916 0.03248970594548402 -0.054249092305307216
v 0.014868617880008596 0.03349803750286392 -0.05799188232337835
v -0.10511856485685386 0.030490133196103556 -0.054249092305307216
v -0.10513565522223318 0.031498464753483446 -0.05799188232337835
v 0.014868617880008596 0.03349803750286392 -0.05799188232337835
v 0.014885708245387916 0.03248970594548402 -0.054249092305307216
v -0.10511856485685386 0.030490133196103556 -0.0617517627068288
v -0.10513565522223318 0.031498464753483446 -0.05799188232337835
v 0.014868617880008596 0.03349803750286392 -0.05799188232337835
v 0.014885708245387916 0.03248970594548402 -0.0617517627068288
v -0.10513565522223318 0.031498464753483446 -0.05799188232337835
v -0.10511856485685386 0.030490133196103556 -0.0617517627068288
v 0.014885708245387916 0.03248970594548402 -0.0617517627068288
v 0.014868617880008596 0.03349803750286392 -0.05799188232337835
v -0.10506729376071591 0.02775567473541232 -0.06448622116752004
v -0.10511856485685386 0.030490133196103556 -0.0617517627068288
v 0.014885708245387916 0.03248970594548402 -0.0617517627068288
v 0.014936979341525877 0.029755247484792788 -0.06448622116752004
v -0.10511856485685386 0.030490133196103556 -0.0617517627068288
v -0.10506729376071591 0.02775567473541232 -0.06448622116752004
v 0.014936979341525877 0.029755247484792788 -0.06448622116752004
v 0.014885708245387916 0.03248970594548402 -0.0617517627068288
v -0.1049946597078538 0.02399579435196187 -0.06549455272489993
v -0.10506729376071591 0.02775567473541232 -0.06448622116752004
v 0.014936979341525877 0.029755247484792788 -0.06448622116752004
v 0.015005340803043159 0.025995367101342336 -0.06549455272489993
v -0.10506729376071591 0.02775567473541232 -0.06448622116752004
v -0.1049946597078538 0.02399579435196187 -0.06549455272489993
v 0.015005340803043159 0.025995367101342336 -0.06549455272489993
v 0.014936979341525877 0.029755247484792788 -0.06448622116752004
v 0.015774407245112566 0.02399579435196187 -0.061375774668483755
v 0.015791497610491888 0.025995367101342336 -0.061922666360622
v 0.05607776140089449 0.0279949398507228 -0.05539414678572168
v 0.05606067103551517 0.025260481390031567 -0.05464217070903159
v 0.015005340803043159 0.025995367101342336 -0.05799188232337835
v 0.015791497610491888 0.025995367101342336 -0.061922666360622
v 0.015774407245112566 0.02399579435196187 -0.061375774668483755
v 0.05500106838199731 0.0279949398507228 -0.049993591325856485
v 0.05606067103551517 0.025260481390031567 -0.05464217070903159
v 0.05607776140089449 0.0279949398507228 -0.05539414678572168
v 0.015552232495181405 0.02254311329471965 -0.05992309361124153
v 0.015774407245112566 0.02399579435196187 -0.061375774668483755
v 0.05606067103551517 0.025260481390031567 -0.05464217070903159
v 0.055770134824066724 0.02324381827527178 -0.05264259795965112
v 0.015774407245112566 0.02399579435196187 -0.061375774668483755
v 0.015552232495181405 0.02254311329471965 -0.05992309361124153
v 0.055770134824066724 0.02324381827527178 -0.05264259795965112
v 0.05606067103551517 0.025260481390031567 -0.05464217070903159
v 0.015193334822215679 0.021996221602581405 -0.05795770159261971
v 0.015552232495181405 0.02254311329471965 -0.05992309361124153
v 0.055770134824066724 0.02324381827527178 -0.05264259795965112
v 0.055257423862687116 0.022508932563961012 -0.04994232022971853
v 0.015552232495181405 0.02254311329471965 -0.05992309361124153
v 0.015193334822215679 0.021996221602581405 -0.05795770159261971
v 0.055257423862687116 0.022508932563961012 -0.04994232022971853
v 0.055770134824066724 0.02324381827527178 -0.05264259795965112
v 0.014766075687732675 0.02254311329471965 -0.05600939993937721
v 0.015193334822215679 0.021996221602581405 -0.05795770159261971
v 0.055257423862687116 0.022508932563961012 -0.04994232022971853
v 0.054693441805169545 0.02324381827527178 -0.047259132865165254
v 0.015193334822215679 0.021996221602581405 -0.05795770159261971
v 0.014766075687732675 0.02254311329471965 -0.05600939993937721
v 0.054693441805169545 0.02324381827527178 -0.047259132865165254
v 0.055257423862687116 0.022508932563961012 -0.04994232022971853
v 0.01440717801476695 0.02399579435196187 -0.05459089961289363
v 0.014766075687732675 0.02254311329471965 -0.05600939993937721
v 0.054693441805169545 0.02324381827527178 -0.047259132865165254
v 0.05419782120916926 0.025260481390031567 -0.045310831211922746
v 0.014766075687732675 0.02254311329471965 -0.05600939993937721
v 0.01440717801476695 0.02399579435196187 -0.05459089961289363
v 0.05419782120916926 0.025260481390031567 -0.045310831211922746
v 0.054693441805169545 0.02324381827527178 -0.047259132865165254
v 0.014219183995594426 0.025995367101342336 -0.05407818865151402
v 0.01440717801476695 0.02399579435196187 -0.05459089961289363
v 0.05419782120916926 0.025260481390031567 -0.045310831211922746
v 0.05392437536310014 0.0279949398507228 -0.04461012623137062
v 0.01440717801476695 0.02399579435196187 -0.05459089961289363
v 0.014219183995594426 0.025995367101342336 -0.05407818865151402
v 0.05392437536310014 0.0279949398507228 -0.04461012623137062
v 0.05419782120916926 0.025260481390031567 -0.045310831211922746
v 0.014219183995594426 0.0279949398507228 -0.054625080343652266
v 0.014219183995594426 0.025995367101342336 -0.05407818865151402
v 0.05392437536310014 0.0279949398507228 -0.04461012623137062
v 0.05394146572847946 0.03074648867679336 -0.0453621023080607
v 0.014219183995594426 0.025995367101342336 -0.05407818865151402
v 0.014219183995594426 0.0279949398507228 -0.054625080343652266
v 0.05394146572847946 0.03074648867679336 -0.0453621023080607
v 0.05392437536310014 0.0279949398507228 -0.04461012623137062
v 0.014441358745525589 0.029464711273344345 -0.05607776140089449
v 0.014219183995594426 0.0279949398507228 -0.054625080343652266
v 0.05394146572847946 0.03074648867679336 -0.0453621023080607
v 0.0542320019399279 0.03276315179155315 -0.04734458469206185
v 0.014219183995594426 0.0279949398507228 -0.054625080343652266
v 0.014441358745525589 0.029464711273344345 -0.05607776140089449
v 0.0542320019399279 0.03276315179155315 -0.04734458469206185
v 0.05394146572847946 0.03074648867679336 -0.0453621023080607
v 0.014800256418491316 0.029994512600103267 -0.05804315341951631
v 0.014441358745525589 0.029464711273344345 -0.05607776140089449
v 0.0542320019399279 0.03276315179155315 -0.04734458469206185
v 0.05472762253592819 0.03349803750286392 -0.05004486242199445
v 0.014441358745525589 0.029464711273344345 -0.05607776140089449
v 0.014800256418491316 0.029994512600103267 -0.05804315341951631
v 0.05472762253592819 0.03349803750286392 -0.05004486242199445
v 0.0542320019399279 0.03276315179155315 -0.04734458469206185
v 0.01522751555297432 0.029464711273344345 -0.05999145507275881
v 0.014800256418491316 0.029994512600103267 -0.05804315341951631
v 0.05472762253592819 0.03349803750286392 -0.05004486242199445
v 0.05530869495882507 0.03276315179155315 -0.05274514015192704
v 0.014800256418491316 0.029994512600103267 -0.05804315341951631
v 0.01522751555297432 0.029464711273344345 -0.05999145507275881
v 0.05530869495882507 0.03276315179155315 -0.05274514015192704
v 0.05472762253592819 0.03349803750286392 -0.05004486242199445
v 0.015586413225940045 0.0279949398507228 -0.0614099553992424
v 0.01522751555297432 0.029464711273344345 -0.05999145507275881
v 0.05530869495882507 0.03276315179155315 -0.05274514015192704
v 0.05580431555482536 0.03074648867679336 -0.054693441805169545
v 0.01522751555297432 0.029464711273344345 -0.05999145507275881
v 0.015586413225940045 0.0279949398507228 -0.0614099553992424
v 0.05580431555482536 0.03074648867679336 -0.054693441805169545
v 0.05530869495882507 0.03276315179155315 -0.05274514015192704
v 0.015791497610491888 0.025995367101342336 -0.061922666360622
v 0.015586413225940045 0.0279949398507228 -0.0614099553992424
v 0.05580431555482536 0.03074648867679336 -0.054693441805169545
v 0.05607776140089449 0.0279949398507228 -0.05539414678572168
v 0.015586413225940045 0.0279949398507228 -0.0614099553992424
v 0.015791497610491888 0.025995367101342336 -0.061922666360622
v 0.05607776140089449 0.0279949398507228 -0.05539414678572168
v 0.05580431555482536 0.03074648867679336 -0.054693441805169545
f 1 2 3
f 1 3 4
f 5 6 7
f 8 9 10
f 11 12 13
f 11 13 14
f 5 15 16
f 8 17 18
f 19 20 21
f 19 21 22
f 5 23 24
f 8 25 26
f 27 28 29
f 27 29 30
f 5 31 32
f 8 33 34
f 35 36 37
f 35 37 38
f 5 39 40
f 8 41 42
f 43 44 45
f 43 45 46
f 5 47 48
f 8 49 50
f 51 52 53
f 51 53 54
f 5 55 56
f 8 57 58
f 59 60 61
f 59 61 62
f 5 63 64
f 8 65 66
f 67 68 69
f 67 69 70
f 5 71 72
f 8 73 74
f 75 76 77
f 75 77 78
f 5 79 80
f 8 81 82
f 83 84 85
f 83 85 86
f 5 87 88
f 8 89 90
f 91 92 93
f 91 93 94
f 5 95 96
f 8 97 98
f 99 100 101
f 99 101 102
f 103 104 105
f 106 107 108
f 109 110 111
f 109 111 112
f 103 113 114
f 106 115 116
f 117 118 119
f 117 119 120
f 103 121 122
f 106 123 124
f 125 126 127
f 125 127 128
f 103 129 130
f 106 131 132
f 133 134 135
f 133 135 136
f 103 137 138
f 106 139 140
f 141 142 143
f 141 143 144
f 103 145 146
f 106 147 148
f 149 150 151
f 149 151 152
f 103 153 154
f 106 155 156
f 157 158 159
f 157 159 160
f 103 161 162
f 106 163 164
f 165 166 167
f 165 167 168
f 103 169 170
f 106 171 172
f 173 174 175
f 173 175 176
f 103 177 178
f 106 179 180
f 181 182 183
f 181 183 184
f 103 185 186
f 106 187 188
f 189 190 191
f 189 191 192
f 103 193 194
f 106 195 196
o pieza_1
usemtl material_1
v 0.0941764584227441 0.023004553159961298 -0.0368169196184006
v 0.09600512751833137 0.023004553159961298 -0.045994445827095554
v 0.09600512751833137 0.029003271408102695 -0.045994445827095554
v 0.0941764584227441 0.023004553159961298 -0.0368169196184006
v 0.09600512751833137 0.029003271408102695 -0.045994445827095554
v 0.0941764584227441 0.029003271408102695 -0.0368169196184006
v 0.07201025452576577 0.023004553159961298 -0.045994445827095554
v 0.09600512751833137 0.023004553159961298 -0.045994445827095554
v 0.0941764584227441 0.023004553159961298 -0.0368169196184006
v 0.07201025452576577 0.029003271408102695 -0.045994445827095554
v 0.0941764584227441 0.029003271408102695 -0.0368169196184006
v 0.09600512751833137 0.029003271408102695 -0.045994445827095554
v 0.08896389698205143 0.023004553159961298 -0.02901944041408574
v 0.0941764584227441 0.023004553159961298 -0.0368169196184006
v 0.0941764584227441 0.029003271408102695 -0.0368169196184006
v 0.08896389698205143 0.023004553159961298 -0.02901944041408574
v 0.0941764584227441 0.029003271408102695 -0.0368169196184006
v 0.08896389698205143 0.029003271408102695 -0.02901944041408574
v 0.0941764584227441 0.023004553159961298 -0.0368169196184006
v 0.08896389698205143 0.023004553159961298 -0.02901944041408574
v 0.08896389698205143 0.029003271408102695 -0.02901944041408574
v 0.0941764584227441 0.029003271408102695 -0.0368169196184006
v 0.08118778073446072 0.023004553159961298 -0.023823969338772392
v 0.08896389698205143 0.023004553159961298 -0.02901944041408574
v 0.08896389698205143 0.029003271408102695 -0.02901944041408574
v 0.08118778073446072 0.023004553159961298 -0.023823969338772392
v 0.08896389698205143 0.029003271408102695 -0.02901944041408574
v 0.08118778073446072 0.029003271408102695 -0.023823969338772392
v 0.08896389698205143 0.023004553159961298 -0.02901944041408574
v 0.08118778073446072 0.023004553159961298 -0.023823969338772392
v 0.08118778073446072 0.029003271408102695 -0.023823969338772392
v 0.08896389698205143 0.029003271408102695 -0.02901944041408574
v 0.07201025452576577 0.023004553159961298 -0.02199530024318513
v 0.08118778073446072 0.023004553159961298 -0.023823969338772392
v 0.08118778073446072 0.029003271408102695 -0.023823969338772392
v 0.07201025452576577 0.023004553159961298 -0.02199530024318513
v 0.08118778073446072 0.029003271408102695 -0.023823969338772392
v 0.07201025452576577 0.029003271408102695 -0.02199530024318513
v 0.08118778073446072 0.023004553159961298 -0.023823969338772392
v 0.07201025452576577 0.023004553159961298 -0.02199530024318513
v 0.07201025452576577 0.029003271408102695 -0.02199530024318513
v 0.08118778073446072 0.029003271408102695 -0.023823969338772392
v 0.06281136536034666 0.023004553159961298 -0.023823969338772392
v 0.07201025452576577 0.023004553159961298 -0.02199530024318513
v 0.07201025452576577 0.029003271408102695 -0.02199530024318513
v 0.06281136536034666 0.029003271408102695 -0.023823969338772392
v 0.07201025452576577 0.023004553159961298 -0.02199530024318513
v 0.06281136536034666 0.023004553159961298 -0.023823969338772392
v 0.07201025452576577 0.029003271408102695 -0.045994445827095554
v 0.06281136536034666 0.029003271408102695 -0.023823969338772392
v 0.07201025452576577 0.029003271408102695 -0.02199530024318513
v 0.05503524911275595 0.023004553159961298 -0.02901944041408574
v 0.06281136536034666 0.023004553159961298 -0.023823969338772392
v 0.06281136536034666 0.029003271408102695 -0.023823969338772392
v 0.05503524911275595 0.029003271408102695 -0.02901944041408574
v 0.06281136536034666 0.023004553159961298 -0.023823969338772392
v 0.05503524911275595 0.023004553159961298 -0.02901944041408574
v 0.05503524911275595 0.029003271408102695 -0.02901944041408574
v 0.06281136536034666 0.029003271408102695 -0.023823969338772392
v 0.049822687672063284 0.023004553159961298 -0.0368169196184006
v 0.05503524911275595 0.023004553159961298 -0.02901944041408574
v 0.05503524911275595 0.029003271408102695 -0.02901944041408574
v 0.049822687672063284 0.029003271408102695 -0.0368169196184006
v 0.05503524911275595 0.023004553159961298 -0.02901944041408574
v 0.049822687672063284 0.023004553159961298 -0.0368169196184006
v 0.049822687672063284 0.029003271408102695 -0.0368169196184006
v 0.05503524911275595 0.029003271408102695 -0.02901944041408574
v 0.047994018576476026 0.023004553159961298 -0.045994445827095554
v 0.049822687672063284 0.023004553159961298 -0.0368169196184006
v 0.049822687672063284 0.029003271408102695 -0.0368169196184006
v 0.047994018576476026 0.029003271408102695 -0.045994445827095554
v 0.049822687672063284 0.023004553159961298 -0.0368169196184006
v 0.047994018576476026 0.023004553159961298 -0.045994445827095554
v 0.047994018576476026 0.029003271408102695 -0.045994445827095554
v 0.049822687672063284 0.029003271408102695 -0.0368169196184006
v 0.049822687672063284 0.023004553159961298 -0.05518906240116984
v 0.047994018576476026 0.023004553159961298 -0.045994445827095554
v 0.047994018576476026 0.029003271408102695 -0.045994445827095554
v 0.049822687672063284 0.029003271408102695 -0.05518906240116984
v 0.07201025452576577 0.023004553159961298 -0.045994445827095554
v 0.047994018576476026 0.023004553159961298 -0.045994445827095554
v 0.049822687672063284 0.023004553159961298 -0.05518906240116984
v 0.049822687672063284 0.029003271408102695 -0.05518906240116984
v 0.047994018576476026 0.029003271408102695 -0.045994445827095554
v 0.05503524911275595 0.023004553159961298 -0.06296517864876053
v 0.049822687672063284 0.023004553159961298 -0.05518906240116984
v 0.049822687672063284 0.029003271408102695 -0.05518906240116984
v 0.05503524911275595 0.029003271408102695 -0.06296517864876053
v 0.049822687672063284 0.023004553159961298 -0.05518906240116984
v 0.05503524911275595 0.023004553159961298 -0.06296517864876053
v 0.05503524911275595 0.029003271408102695 -0.06296517864876053
v 0.049822687672063284 0.029003271408102695 -0.05518906240116984
v 0.06281136536034666 0.023004553159961298 -0.0681777400894532
v 0.05503524911275595 0.023004553159961298 -0.06296517864876053
v 0.05503524911275595 0.029003271408102695 -0.06296517864876053
v 0.06281136536034666 0.029003271408102695 -0.0681777400894532
v 0.05503524911275595 0.023004553159961298 -0.06296517864876053
v 0.06281136536034666 0.023004553159961298 -0.0681777400894532
v 0.06281136536034666 0.029003271408102695 -0.0681777400894532
v 0.05503524911275595 0.029003271408102695 -0.06296517864876053
v 0.07201025452576577 0.023004553159961298 -0.0700106817763853
v 0.06281136536034666 0.023004553159961298 -0.0681777400894532
v 0.06281136536034666 0.029003271408102695 -0.0681777400894532
v 0.07201025452576577 0.029003271408102695 -0.0700106817763853
v 0.06281136536034666 0.023004553159961298 -0.0681777400894532
v 0.07201025452576577 0.023004553159961298 -0.0700106817763853
v 0.07201025452576577 0.029003271408102695 -0.0700106817763853
v 0.06281136536034666 0.029003271408102695 -0.0681777400894532
v 0.08118778073446072 0.023004553159961298 -0.0681777400894532
v 0.07201025452576577 0.023004553159961298 -0.0700106817763853
v 0.07201025452576577 0.029003271408102695 -0.0700106817763853
v 0.08118778073446072 0.029003271408102695 -0.0681777400894532
v 0.07201025452576577 0.023004553159961298 -0.045994445827095554
v 0.07201025452576577 0.023004553159961298 -0.0700106817763853
v 0.08118778073446072 0.023004553159961298 -0.0681777400894532
v 0.08118778073446072 0.029003271408102695 -0.0681777400894532
v 0.07201025452576577 0.029003271408102695 -0.0700106817763853
v 0.08896389698205143 0.023004553159961298 -0.06296517864876053
v 0.08118778073446072 0.023004553159961298 -0.0681777400894532
v 0.08118778073446072 0.029003271408102695 -0.0681777400894532
v 0.08896389698205143 0.029003271408102695 -0.06296517864876053
v 0.08118778073446072 0.023004553159961298 -0.0681777400894532
v 0.08896389698205143 0.023004553159961298 -0.06296517864876053
v 0.08896389698205143 0.029003271408102695 -0.06296517864876053
v 0.08118778073446072 0.029003271408102695 -0.0681777400894532
v 0.0941764584227441 0.023004553159961298 -0.05518906240116984
v 0.08896389698205143 0.023004553159961298 -0.06296517864876053
v 0.08896389698205143 0.029003271408102695 -0.06296517864876053
v 0.0941764584227441 0.029003271408102695 -0.05518906240116984
v 0.08896389698205143 0.023004553159961298 -0.06296517864876053
v 0.0941764584227441 0.023004553159961298 -0.05518906240116984
v 0.0941764584227441 0.029003271408102695 -0.05518906240116984
v 0.08896389698205143 0.029003271408102695 -0.06296517864876053
v 0.09600512751833137 0.023004553159961298 -0.045994445827095554
v 0.0941764584227441 0.023004553159961298 -0.05518906240116984
v 0.0941764584227441 0.029003271408102695 -0.05518906240116984
v 0.09600512751833137 0.029003271408102695 -0.045994445827095554
v 0.0941764584227441 0.023004553159961298 -0.05518906240116984
v 0.09600512751833137 0.023004553159961298 -0.045994445827095554
v 0.09600512751833137 0.029003271408102695 -0.045994445827095554
v 0.0941764584227441 0.029003271408102695 -0.05518906240116984
f 197 198 199
f 200 201 202
f 203 204 205
f 206 207 208
f 209 210 211
f 212 213 214
f 203 215 216
f 206 217 218
f 219 220 221
f 222 223 224
f 203 225 226
f 206 227 228
f 229 230 231
f 232 233 234
f 203 235 236
f 206 237 238
f 239 240 241
f 239 241 242
f 203 243 244
f 245 246 247
f 248 249 250
f 248 250 251
f 203 252 253
f 206 254 255
f 256 257 258
f 256 258 259
f 203 260 261
f 206 262 263
f 264 265 266
f 264 266 267
f 203 268 269
f 206 270 271
f 272 273 274
f 272 274 275
f 276 277 278
f 206 279 280
f 281 282 283
f 281 283 284
f 203 285 286
f 206 287 288
f 289 290 291
f 289 291 292
f 203 293 294
f 206 295 296
f 297 298 299
f 297 299 300
f 203 301 302
f 206 303 304
f 305 306 307
f 305 307 308
f 309 310 311
f 206 312 313
f 314 315 316
f 314 316 317
f 203 318 319
f 206 320 321
f 322 323 324
f 322 324 325
f 203 326 327
f 206 328 329
f 330 331 332
f 330 332 333
f 203 334 335
f 206 336 337
o pieza_2
usemtl material_2
v 0.09140034389235908 0.028000428300826927 -0.037962615242086425
v 0.09300000220537186 0.028000428300826927 -0.04600000102072954
v 0.09300000220537186 0.031999574083358864 -0.04600000102072954
v 0.09140034389235908 0.028000428300826927 -0.037962615242086425
v 0.09300000220537186 0.031999574083358864 -0.04600000102072954
v 0.09140034389235908 0.031999574083358864 -0.037962615242086425
v 0.07200000062584877 0.028000428300826927 -0.04600000102072954
v 0.09300000220537186 0.028000428300826927 -0.04600000102072954
v 0.09140034389235908 0.028000428300826927 -0.037962615242086425
v 0.07200000062584877 0.031999574083358864 -0.04600000102072954
v 0.09140034389235908 0.031999574083358864 -0.037962615242086425
v 0.09300000220537186 0.031999574083358864 -0.04600000102072954
v 0.0868493928984874 0.028000428300826927 -0.031150608748090912
v 0.09140034389235908 0.028000428300826927 -0.037962615242086425
v 0.09140034389235908 0.031999574083358864 -0.037962615242086425
v 0.0868493928984874 0.028000428300826927 -0.031150608748090912
v 0.09140034389235908 0.031999574083358864 -0.037962615242086425
v 0.0868493928984874 0.031999574083358864 -0.031150608748090912
v 0.09140034389235908 0.028000428300826927 -0.037962615242086425
v 0.0868493928984874 0.028000428300826927 -0.031150608748090912
v 0.0868493928984874 0.031999574083358864 -0.031150608748090912
v 0.09140034389235908 0.031999574083358864 -0.037962615242086425
v 0.08003738640449189 0.028000428300826927 -0.02659965775421923
v 0.0868493928984874 0.028000428300826927 -0.031150608748090912
v 0.0868493928984874 0.031999574083358864 -0.031150608748090912
v 0.08003738640449189 0.028000428300826927 -0.02659965775421923
v 0.0868493928984874 0.031999574083358864 -0.031150608748090912
v 0.08003738640449189 0.031999574083358864 -0.02659965775421923
v 0.0868493928984874 0.028000428300826927 -0.031150608748090912
v 0.08003738640449189 0.028000428300826927 -0.02659965775421923
v 0.08003738640449189 0.031999574083358864 -0.02659965775421923
v 0.0868493928984874 0.031999574083358864 -0.031150608748090912
v 0.07200000062584877 0.028000428300826927 -0.024999999441206455
v 0.08003738640449189 0.028000428300826927 -0.02659965775421923
v 0.08003738640449189 0.031999574083358864 -0.02659965775421923
v 0.07200000062584877 0.028000428300826927 -0.024999999441206455
v 0.08003738640449189 0.031999574083358864 -0.02659965775421923
v 0.07200000062584877 0.031999574083358864 -0.024999999441206455
v 0.08003738640449189 0.028000428300826927 -0.02659965775421923
v 0.07200000062584877 0.028000428300826927 -0.024999999441206455
v 0.07200000062584877 0.031999574083358864 -0.024999999441206455
v 0.08003738640449189 0.031999574083358864 -0.02659965775421923
v 0.06396261484720565 0.028000428300826927 -0.02659965775421923
v 0.07200000062584877 0.028000428300826927 -0.024999999441206455
v 0.07200000062584877 0.031999574083358864 -0.024999999441206455
v 0.06396261484720565 0.031999574083358864 -0.02659965775421923
v 0.07200000062584877 0.028000428300826927 -0.024999999441206455
v 0.06396261484720565 0.028000428300826927 -0.02659965775421923
v 0.07200000062584877 0.031999574083358864 -0.04600000102072954
v 0.06396261484720565 0.031999574083358864 -0.02659965775421923
v 0.07200000062584877 0.031999574083358864 -0.024999999441206455
v 0.05715060835321014 0.028000428300826927 -0.031150608748090912
v 0.06396261484720565 0.028000428300826927 -0.02659965775421923
v 0.06396261484720565 0.031999574083358864 -0.02659965775421923
v 0.05715060835321014 0.031999574083358864 -0.031150608748090912
v 0.06396261484720565 0.028000428300826927 -0.02659965775421923
v 0.05715060835321014 0.028000428300826927 -0.031150608748090912
v 0.05715060835321014 0.031999574083358864 -0.031150608748090912
v 0.06396261484720565 0.031999574083358864 -0.02659965775421923
v 0.052599657359338456 0.028000428300826927 -0.037962615242086425
v 0.05715060835321014 0.028000428300826927 -0.031150608748090912
v 0.05715060835321014 0.031999574083358864 -0.031150608748090912
v 0.052599657359338456 0.031999574083358864 -0.037962615242086425
v 0.05715060835321014 0.028000428300826927 -0.031150608748090912
v 0.052599657359338456 0.028000428300826927 -0.037962615242086425
v 0.052599657359338456 0.031999574083358864 -0.037962615242086425
v 0.05715060835321014 0.031999574083358864 -0.031150608748090912
v 0.050999999046325684 0.028000428300826927 -0.04600000102072954
v 0.052599657359338456 0.028000428300826927 -0.037962615242086425
v 0.052599657359338456 0.031999574083358864 -0.037962615242086425
v 0.050999999046325684 0.031999574083358864 -0.04600000102072954
v 0.052599657359338456 0.028000428300826927 -0.037962615242086425
v 0.050999999046325684 0.028000428300826927 -0.04600000102072954
v 0.050999999046325684 0.031999574083358864 -0.04600000102072954
v 0.052599657359338456 0.031999574083358864 -0.037962615242086425
v 0.052599657359338456 0.028000428300826927 -0.05403738679937266
v 0.050999999046325684 0.028000428300826927 -0.04600000102072954
v 0.050999999046325684 0.031999574083358864 -0.04600000102072954
v 0.052599657359338456 0.031999574083358864 -0.05403738679937266
v 0.07200000062584877 0.028000428300826927 -0.04600000102072954
v 0.050999999046325684 0.028000428300826927 -0.04600000102072954
v 0.052599657359338456 0.028000428300826927 -0.05403738679937266
v 0.052599657359338456 0.031999574083358864 -0.05403738679937266
v 0.050999999046325684 0.031999574083358864 -0.04600000102072954
v 0.05715060835321014 0.028000428300826927 -0.06084939329336817
v 0.052599657359338456 0.028000428300826927 -0.05403738679937266
v 0.052599657359338456 0.031999574083358864 -0.05403738679937266
v 0.05715060835321014 0.031999574083358864 -0.06084939329336817
v 0.052599657359338456 0.028000428300826927 -0.05403738679937266
v 0.05715060835321014 0.028000428300826927 -0.06084939329336817
v 0.05715060835321014 0.031999574083358864 -0.06084939329336817
v 0.052599657359338456 0.031999574083358864 -0.05403738679937266
v 0.06396261484720565 0.028000428300826927 -0.06540034428723986
v 0.05715060835321014 0.028000428300826927 -0.06084939329336817
v 0.05715060835321014 0.031999574083358864 -0.06084939329336817
v 0.06396261484720565 0.031999574083358864 -0.06540034428723986
v 0.05715060835321014 0.028000428300826927 -0.06084939329336817
v 0.06396261484720565 0.028000428300826927 -0.06540034428723986
v 0.06396261484720565 0.031999574083358864 -0.06540034428723986
v 0.05715060835321014 0.031999574083358864 -0.06084939329336817
v 0.07200000062584877 0.028000428300826927 -0.06700000260025263
v 0.06396261484720565 0.028000428300826927 -0.06540034428723986
v 0.06396261484720565 0.031999574083358864 -0.06540034428723986
v 0.07200000062584877 0.031999574083358864 -0.06700000260025263
v 0.06396261484720565 0.028000428300826927 -0.06540034428723986
v 0.07200000062584877 0.028000428300826927 -0.06700000260025263
v 0.07200000062584877 0.031999574083358864 -0.06700000260025263
v 0.06396261484720565 0.031999574083358864 -0.06540034428723986
v 0.08003738640449189 0.028000428300826927 -0.06540034428723986
v 0.07200000062584877 0.028000428300826927 -0.06700000260025263
v 0.07200000062584877 0.031999574083358864 -0.06700000260025263
v 0.08003738640449189 0.031999574083358864 -0.06540034428723986
v 0.07200000062584877 0.028000428300826927 -0.04600000102072954
v 0.07200000062584877 0.028000428300826927 -0.06700000260025263
v 0.08003738640449189 0.028000428300826927 -0.06540034428723986
v 0.08003738640449189 0.031999574083358864 -0.06540034428723986
v 0.07200000062584877 0.031999574083358864 -0.06700000260025263
v 0.0868493928984874 0.028000428300826927 -0.06084939329336817
v 0.08003738640449189 0.028000428300826927 -0.06540034428723986
v 0.08003738640449189 0.031999574083358864 -0.06540034428723986
v 0.0868493928984874 0.031999574083358864 -0.06084939329336817
v 0.08003738640449189 0.028000428300826927 -0.06540034428723986
v 0.0868493928984874 0.028000428300826927 -0.06084939329336817
v 0.0868493928984874 0.031999574083358864 -0.06084939329336817
v 0.08003738640449189 0.031999574083358864 -0.06540034428723986
v 0.09140034389235908 0.028000428300826927 -0.05403738679937266
v 0.0868493928984874 0.028000428300826927 -0.06084939329336817
v 0.0868493928984874 0.031999574083358864 -0.06084939329336817
v 0.09140034389235908 0.031999574083358864 -0.05403738679937266
v 0.0868493928984874 0.028000428300826927 -0.06084939329336817
v 0.09140034389235908 0.028000428300826927 -0.05403738679937266
v 0.09140034389235908 0.031999574083358864 -0.05403738679937266
v 0.0868493928984874 0.031999574083358864 -0.06084939329336817
v 0.09300000220537186 0.028000428300826927 -0.04600000102072954
v 0.09140034389235908 0.028000428300826927 -0.05403738679937266
v 0.09140034389235908 0.031999574083358864 -0.05403738679937266
v 0.09300000220537186 0.031999574083358864 -0.04600000102072954
v 0.09140034389235908 0.028000428300826927 -0.05403738679937266
v 0.09300000220537186 0.028000428300826927 -0.04600000102072954
v 0.09300000220537186 0.031999574083358864 -0.04600000102072954
v 0.09140034389235908 0.031999574083358864 -0.05403738679937266
f 338 339 340
f 341 342 343
f 344 345 346
f 347 348 349
f 350 351 352
f 353 354 355
f 344 356 357
f 347 358 359
f 360 361 362
f 363 364 365
f 344 366 367
f 347 368 369
f 370 371 372
f 373 374 375
f 344 376 377
f 347 378 379
f 380 381 382
f 380 382 383
f 344 384 385
f 386 387 388
f 389 390 391
f 389 391 392
f 344 393 394
f 347 395 396
f 397 398 399
f 397 399 400
f 344 401 402
f 347 403 404
f 405 406 407
f 405 407 408
f 344 409 410
f 347 411 412
f 413 414 415
f 413 415 416
f 417 418 419
f 347 420 421
f 422 423 424
f 422 424 425
f 344 426 427
f 347 428 429
f 430 431 432
f 430 432 433
f 344 434 435
f 347 436 437
f 438 439 440
f 438 440 441
f 344 442 443
f 347 444 445
f 446 447 448
f 446 448 449
f 450 451 452
f 347 453 454
f 455 456 457
f 455 457 458
f 344 459 460
f 347 461 462
f 463 464 465
f 463 465 466
f 344 467 468
f 347 469 470
f 471 472 473
f 471 473 474
f 344 475 476
f 347 477 478
