# Piezas extraídas de modelos de terceros; véase procedencia.json
mtllib explorador.mtl
o pieza_0
usemtl material_0
v -0.10494338861171584 0.02025300433389074 -0.012493057092283084
v -0.1049946597078538 0.02399579435196187 -0.013501388649662978
v 0.029993591240706993 0.025995367101342336 -0.013501388649662978
v 0.030044862336844957 0.02225257708327121 -0.012493057092283084
v -0.1049946597078538 0.02399579435196187 -0.005998718248141399
v -0.1049946597078538 0.02399579435196187 -0.013501388649662978
v -0.10494338861171584 0.02025300433389074 -0.012493057092283084
v 0.029993591240706993 0.025995367101342336 -0.005998718248141399
v 0.030044862336844957 0.02225257708327121 -0.012493057092283084
v 0.029993591240706993 0.025995367101342336 -0.013501388649662978
v -0.1049092078809572 0.017501455507820184 -0.009741508266212529
v -0.10494338861171584 0.02025300433389074 -0.012493057092283084
v 0.030044862336844957 0.02225257708327121 -0.012493057092283084
v 0.030096133432982914 0.01950102825720065 -0.009741508266212529
v -0.10494338861171584 0.02025300433389074 -0.012493057092283084
v -0.1049092078809572 0.017501455507820184 -0.009741508266212529
v 0.030096133432982914 0.01950102825720065 -0.009741508266212529
v 0.030044862336844957 0.02225257708327121 -0.012493057092283084
v -0.10489211751557788 0.01649312395044029 -0.005998718248141399
v -0.1049092078809572 0.017501455507820184 -0.009741508266212529
v 0.030096133432982914 0.01950102825720065 -0.009741508266212529
v 0.030113223798362235 0.01849269669982076 -0.005998718248141399
v -0.1049092078809572 0.017501455507820184 -0.009741508266212529
v -0.10489211751557788 0.01649312395044029 -0.005998718248141399
v 0.030113223798362235 0.01849269669982076 -0.005998718248141399
v 0.030096133432982914 0.01950102825720065 -0.009741508266212529
v -0.1049092078809572 0.017501455507820184 -0.0022559282300702696
v -0.10489211751557788 0.01649312395044029 -0.005998718248141399
v 0.030113223798362235 0.01849269669982076 -0.005998718248141399
v 0.030096133432982914 0.01950102825720065 -0.0022559282300702696
v -0.10489211751557788 0.01649312395044029 -0.005998718248141399
v -0.1049092078809572 0.017501455507820184 -0.0022559282300702696
v 0.030096133432982914 0.01950102825720065 -0.0022559282300702696
v 0.030113223798362235 0.01849269669982076 -0.005998718248141399
v -0.10494338861171584 0.02025300433389074 0.0004956205960002865
v -0.1049092078809572 0.017501455507820184 -0.0022559282300702696
v 0.030096133432982914 0.01950102825720065 -0.0022559282300702696
v 0.030044862336844957 0.02225257708327121 0.0004956205960002865
v -0.1049092078809572 0.017501455507820184 -0.0022559282300702696
v -0.10494338861171584 0.02025300433389074 0.0004956205960002865
v 0.030044862336844957 0.02225257708327121 0.0004956205960002865
v 0.030096133432982914 0.01950102825720065 -0.0022559282300702696
v -0.1049946597078538 0.02399579435196187 0.0015039521533801797
v -0.10494338861171584 0.02025300433389074 0.0004956205960002865
v 0.030044862336844957 0.02225257708327121 0.0004956205960002865
v 0.029993591240706993 0.025995367101342336 0.0015039521533801797
v -0.10494338861171584 0.02025300433389074 0.0004956205960002865
v -0.1049946597078538 0.02399579435196187 0.0015039521533801797
v 0.029993591240706993 0.025995367101342336 0.0015039521533801797
v 0.030044862336844957 0.02225257708327121 0.0004956205960002865
v -0.10506729376071591 0.02775567473541232 0.0004956205960002865
v -0.1049946597078538 0.02399579435196187 0.0015039521533801797
v 0.029993591240706993 0.025995367101342336 0.0015039521533801797
v 0.029942320144569032 0.029755247484792788 0.0004956205960002865
v -0.1049946597078538 0.02399579435196187 0.0015039521533801797
v -0.10506729376071591 0.02775567473541232 0.0004956205960002865
v 0.029942320144569032 0.029755247484792788 0.0004956205960002865
v 0.029993591240706993 0.025995367101342336 0.0015039521533801797
v -0.10510147449147454 0.030490133196103556 -0.0022559282300702696
v -0.10506729376071591 0.02775567473541232 0.0004956205960002865
v 0.029942320144569032 0.029755247484792788 0.0004956205960002865
v 0.029908139413810392 0.03248970594548402 -0.0022559282300702696
v -0.10506729376071591 0.02775567473541232 0.0004956205960002865
v -0.10510147449147454 0.030490133196103556 -0.0022559282300702696
v 0.029908139413810392 0.03248970594548402 -0.0022559282300702696
v 0.029942320144569032 0.029755247484792788 0.0004956205960002865
v -0.10511856485685386 0.031498464753483446 -0.005998718248141399
v -0.10510147449147454 0.030490133196103556 -0.0022559282300702696
v 0.029908139413810392 0.03248970594548402 -0.0022559282300702696
v 0.029891049048431075 0.03349803750286392 -0.005998718248141399
v -0.10510147449147454 0.030490133196103556 -0.0022559282300702696
v -0.10511856485685386 0.031498464753483446 -0.005998718248141399
v 0.029891049048431075 0.03349803750286392 -0.005998718248141399
v 0.029908139413810392 0.03248970594548402 -0.0022559282300702696
v -0.10510147449147454 0.030490133196103556 -0.009741508266212529
v -0.10511856485685386 0.031498464753483446 -0.005998718248141399
v 0.029891049048431075 0.03349803750286392 -0.005998718248141399
v 0.029908139413810392 0.03248970594548402 -0.009741508266212529
v -0.10511856485685386 0.031498464753483446 -0.005998718248141399
v -0.10510147449147454 0.030490133196103556 -0.009741508266212529
v 0.029908139413810392 0.03248970594548402 -0.009741508266212529
v 0.029891049048431075 0.03349803750286392 -0.005998718248141399
v -0.10506729376071591 0.02775567473541232 -0.012493057092283084
v -0.10510147449147454 0.030490133196103556 -0.009741508266212529
v 0.029908139413810392 0.03248970594548402 -0.009741508266212529
v 0.029942320144569032 0.029755247484792788 -0.012493057092283084
v -0.10510147449147454 0.030490133196103556 -0.009741508266212529
v -0.10506729376071591 0.02775567473541232 -0.012493057092283084
v 0.029942320144569032 0.029755247484792788 -0.012493057092283084
v 0.029908139413810392 0.03248970594548402 -0.009741508266212529
v -0.1049946597078538 0.02399579435196187 -0.013501388649662978
v -0.10506729376071591 0.02775567473541232 -0.012493057092283084
v 0.029942320144569032 0.029755247484792788 -0.012493057092283084
v 0.029993591240706993 0.025995367101342336 -0.013501388649662978
v -0.10506729376071591 0.02775567473541232 -0.012493057092283084
v -0.1049946597078538 0.02399579435196187 -0.013501388649662978
v 0.029993591240706993 0.025995367101342336 -0.013501388649662978
v 0.029942320144569032 0.029755247484792788 -0.012493057092283084
v 0.030198675625258836 0.02555101760148001 -0.006750694324831489
v 0.030147404529120878 0.025995367101342336 -0.006887417247866051
v 0.08696432423267096 0.033993658098864205 -0.0014185003264835787
v 0.08722067971336075 0.03127629000355228 -0.000615253153655528
v 0.029993591240706993 0.025995367101342336 -0.005998718248141399
v 0.030147404529120878 0.025995367101342336 -0.006887417247866051
v 0.030198675625258836 0.02555101760148001 -0.006750694324831489
v 0.08600726377142902 0.033993658098864205 0.003999145498760933
v 0.08722067971336075 0.03127629000355228 -0.000615253153655528
v 0.08696432423267096 0.033993658098864205 -0.0014185003264835787
v 0.030181585259879518 0.025226300659272928 -0.006425977382624405
v 0.030198675625258836 0.02555101760148001 -0.006750694324831489
v 0.08722067971336075 0.03127629000355228 -0.000615253153655528
v 0.08713522788646416 0.02927671725417182 0.0014014099611042584
v 0.030198675625258836 0.02555101760148001 -0.006750694324831489
v 0.030181585259879518 0.025226300659272928 -0.006425977382624405
v 0.08713522788646416 0.02927671725417182 0.0014014099611042584
v 0.08722067971336075 0.03127629000355228 -0.000615253153655528
v 0.030113223798362235 0.025106668101617685 -0.0059816278827620785
v 0.030181585259879518 0.025226300659272928 -0.006425977382624405
v 0.08713522788646416 0.02927671725417182 0.0014014099611042584
v 0.08675923984811912 0.02855892190824037 0.004135868421795494
v 0.030181585259879518 0.025226300659272928 -0.006425977382624405
v 0.030113223798362235 0.025106668101617685 -0.0059816278827620785
v 0.08675923984811912 0.02855892190824037 0.004135868421795494
v 0.08713522788646416 0.02927671725417182 0.0014014099611042584
v 0.030027771971465635 0.025226300659272928 -0.005537278382899752
v 0.030113223798362235 0.025106668101617685 -0.0059816278827620785
v 0.08675923984811912 0.02855892190824037 0.004135868421795494
v 0.08617816742522223 0.02927671725417182 0.00681905578634877
v 0.030113223798362235 0.025106668101617685 -0.0059816278827620785
v 0.030027771971465635 0.025226300659272928 -0.005537278382899752
v 0.08617816742522223 0.02927671725417182 0.00681905578634877
v 0.08675923984811912 0.02855892190824037 0.004135868421795494
v 0.029925229779189714 0.02555101760148001 -0.005229651806071989
v 0.030027771971465635 0.025226300659272928 -0.005537278382899752
v 0.08617816742522223 0.02927671725417182 0.00681905578634877
v 0.08554582390618738 0.03127629000355228 0.008750267074211955
v 0.030027771971465635 0.025226300659272928 -0.005537278382899752
v 0.029925229779189714 0.02555101760148001 -0.005229651806071989
v 0.08554582390618738 0.03127629000355228 0.008750267074211955
v 0.08617816742522223 0.02927671725417182 0.00681905578634877
v 0.02983977795229311 0.025995367101342336 -0.005110019248416748
v 0.029925229779189714 0.02555101760148001 -0.005229651806071989
v 0.08554582390618738 0.03127629000355228 0.008750267074211955
v 0.08503311294480777 0.033993658098864205 0.009416791324005445
v 0.029925229779189714 0.02555101760148001 -0.005229651806071989
v 0.02983977795229311 0.025995367101342336 -0.005110019248416748
v 0.08503311294480777 0.033993658098864205 0.009416791324005445
v 0.08554582390618738 0.03127629000355228 0.008750267074211955
v 0.02980559722153447 0.026439716601204664 -0.005246742171451309
v 0.02983977795229311 0.025995367101342336 -0.005110019248416748
v 0.08503311294480777 0.033993658098864205 0.009416791324005445
v 0.0847938478294973 0.036728116559555435 0.008613544151177393
v 0.02983977795229311 0.025995367101342336 -0.005110019248416748
v 0.02980559722153447 0.026439716601204664 -0.005246742171451309
v 0.0847938478294973 0.036728116559555435 0.008613544151177393
v 0.08503311294480777 0.033993658098864205 0.009416791324005445
v 0.02980559722153447 0.026764433543411747 -0.005571459113658393
v 0.02980559722153447 0.026439716601204664 -0.005246742171451309
v 0.0847938478294973 0.036728116559555435 0.008613544151177393
v 0.08486220929101457 0.03871059894355658 0.0065968810364176065
v 0.02980559722153447 0.026439716601204664 -0.005246742171451309
v 0.02980559722153447 0.026764433543411747 -0.005571459113658393
v 0.08486220929101457 0.03871059894355658 0.0065968810364176065
v 0.0847938478294973 0.036728116559555435 0.008613544151177393
v 0.029873958683051753 0.02688406610106699 -0.006015808613520719
v 0.02980559722153447 0.026764433543411747 -0.005571459113658393
v 0.08486220929101457 0.03871059894355658 0.0065968810364176065
v 0.08523819732935962 0.03944548465486735 0.0038624225757263706
v 0.02980559722153447 0.026764433543411747 -0.005571459113658393
v 0.029873958683051753 0.02688406610106699 -0.006015808613520719
v 0.08523819732935962 0.03944548465486735 0.0038624225757263706
v 0.08486220929101457 0.03871059894355658 0.0065968810364176065
v 0.02997650087532767 0.026764433543411747 -0.006460158113383045
v 0.029873958683051753 0.02688406610106699 -0.006015808613520719
v 0.08523819732935962 0.03944548465486735 0.0038624225757263706
v 0.08583636011763583 0.03871059894355658 0.0011792352111730956
v 0.029873958683051753 0.02688406610106699 -0.006015808613520719
v 0.02997650087532767 0.026764433543411747 -0.006460158113383045
v 0.08583636011763583 0.03871059894355658 0.0011792352111730956
v 0.08523819732935962 0.03944548465486735 0.0038624225757263706
v 0.030079043067603596 0.026439716601204664 -0.00678487505559013
v 0.02997650087532767 0.026764433543411747 -0.006460158113383045
v 0.08583636011763583 0.03871059894355658 0.0011792352111730956
v 0.08646870363667067 0.036728116559555435 -0.0007519760766900898
v 0.02997650087532767 0.026764433543411747 -0.006460158113383045
v 0.030079043067603596 0.026439716601204664 -0.00678487505559013
v 0.08646870363667067 0.036728116559555435 -0.0007519760766900898
v 0.08583636011763583 0.03871059894355658 0.0011792352111730956
v 0.030147404529120878 0.025995367101342336 -0.006887417247866051
v 0.030079043067603596 0.026439716601204664 -0.00678487505559013
v 0.08646870363667067 0.036728116559555435 -0.0007519760766900898
v 0.08696432423267096 0.033993658098864205 -0.0014185003264835787
v 0.030079043067603596 0.026439716601204664 -0.00678487505559013
v 0.030147404529120878 0.025995367101342336 -0.006887417247866051
v 0.08696432423267096 0.033993658098864205 -0.0014185003264835787
v 0.08646870363667067 0.036728116559555435 -0.0007519760766900898
f 1 2 3
f 1 3 4
f 5 6 7
f 8 9 10
f 11 12 13
f 11 13 14
f 5 15 16
f 8 17 18
f 19 20 21
f 19 21 22
f 5 23 24
f 8 25 26
f 27 28 29
f 27 29 30
f 5 31 32
f 8 33 34
f 35 36 37
f 35 37 38
f 5 39 40
f 8 41 42
f 43 44 45
f 43 45 46
f 5 47 48
f 8 49 50
f 51 52 53
f 51 53 54
f 5 55 56
f 8 57 58
f 59 60 61
f 59 61 62
f 5 63 64
f 8 65 66
f 67 68 69
f 67 69 70
f 5 71 72
f 8 73 74
f 75 76 77
f 75 77 78
f 5 79 80
f 8 81 82
f 83 84 85
f 83 85 86
f 5 87 88
f 8 89 90
f 91 92 93
f 91 93 94
f 5 95 96
f 8 97 98
f 99 100 101
f 99 101 102
f 103 104 105
f 106 107 108
f 109 110 111
f 109 111 112
f 103 113 114
f 106 115 116
f 117 118 119
f 117 119 120
f 103 121 122
f 106 123 124
f 125 126 127
f 125 127 128
f 103 129 130
f 106 131 132
f 133 134 135
f 133 135 136
f 103 137 138
f 106 139 140
f 141 142 143
f 141 143 144
f 103 145 146
f 106 147 148
f 149 150 151
f 149 151 152
f 103 153 154
f 106 155 156
f 157 158 159
f 157 159 160
f 103 161 162
f 106 163 164
f 165 166 167
f 165 167 168
f 103 169 170
f 106 171 172
f 173 174 175
f 173 175 176
f 103 177 178
f 106 179 180
f 181 182 183
f 181 183 184
f 103 185 186
f 106 187 188
f 189 190 191
f 189 191 192
f 103 193 194
f 106 195 196
