# Piezas extraídas de modelos de terceros; véase procedencia.json
mtllib mostrador.mtl
o pieza_0
usemtl material_0
v 1.1457884219377685 0.8957579119808962 0.32572862266071706
v 1.1470518882038807 0.8900021212130524 0.3271324740675083
v 1.1470518882038807 0.8970213782470082 0.31997283189287334
v 1.149999976158142 0.8900021212130524 0.31997283189287334
v 1.1470518882038807 0.8970213782470082 -0.31997283189287334
v 1.149999976158142 0.8900021212130524 -0.31997283189287334
v 1.1457884219377685 0.8957579119808962 -0.32572862266071706
v 1.1470518882038807 0.8900021212130524 -0.3271324740675083
v 1.1470518882038807 0.009997866866018723 0.3271324740675083
v 1.149999976158142 0.009997866866018723 0.31997283189287334
v 1.149999976158142 0.009997866866018723 -0.31997283189287334
v 1.1470518882038807 0.009997866866018723 -0.3271324740675083
v 1.1457884219377685 0.004242076098175063 0.32572862266071706
v 1.1470518882038807 0.002978609832062995 0.31997283189287334
v 1.1470518882038807 0.002978609832062995 -0.31997283189287334
v 1.1457884219377685 0.004242076098175063 -0.32572862266071706
v -1.1457884219377685 0.8957579119808962 -0.32572862266071706
v -1.1470518882038807 0.8900021212130524 -0.3271324740675083
v -1.1470518882038807 0.8970213782470082 -0.31997283189287334
v -1.149999976158142 0.8900021212130524 -0.31997283189287334
v -1.1470518882038807 0.8970213782470082 0.31997283189287334
v -1.149999976158142 0.8900021212130524 0.31997283189287334
v -1.1457884219377685 0.8957579119808962 0.32572862266071706
v -1.1470518882038807 0.8900021212130524 0.3271324740675083
v -1.1470518882038807 0.009997866866018723 -0.3271324740675083
v -1.149999976158142 0.009997866866018723 -0.31997283189287334
v -1.149999976158142 0.009997866866018723 0.31997283189287334
v -1.1470518882038807 0.009997866866018723 0.3271324740675083
v -1.1457884219377685 0.004242076098175063 -0.32572862266071706
v -1.1470518882038807 0.002978609832062995 -0.31997283189287334
v -1.1470518882038807 0.002978609832062995 0.31997283189287334
v -1.1457884219377685 0.004242076098175063 0.32572862266071706
v -1.1457884219377685 0.8957579119808962 -0.32572862266071706
v -1.1470518882038807 0.8970213782470082 -0.31997283189287334
v -1.140032631169925 0.8970213782470082 -0.3271324740675083
v -1.140032631169925 0.8999694662012696 -0.31997283189287334
v 1.140032631169925 0.8970213782470082 -0.3271324740675083
v 1.140032631169925 0.8999694662012696 -0.31997283189287334
v 1.1470518882038807 0.8970213782470082 -0.31997283189287334
v -1.1470518882038807 0.8970213782470082 0.31997283189287334
v -1.140032631169925 0.8999694662012696 0.31997283189287334
v 1.140032631169925 0.8999694662012696 0.31997283189287334
v 1.1470518882038807 0.8970213782470082 0.31997283189287334
v -1.1457884219377685 0.8957579119808962 0.32572862266071706
v -1.140032631169925 0.8970213782470082 0.3271324740675083
v 1.140032631169925 0.8970213782470082 0.3271324740675083
v 1.1457884219377685 0.8957579119808962 0.32572862266071706
v -1.1457884219377685 0.004242076098175063 0.32572862266071706
v -1.1470518882038807 0.002978609832062995 0.31997283189287334
v -1.140032631169925 0.002978609832062995 0.3271324740675083
v -1.140032631169925 3.052187780155924e-05 0.31997283189287334
v 1.140032631169925 0.002978609832062995 0.3271324740675083
v 1.140032631169925 3.052187780155924e-05 0.31997283189287334
v 1.1457884219377685 0.004242076098175063 0.32572862266071706
v 1.1470518882038807 0.002978609832062995 0.31997283189287334
v -1.1470518882038807 0.002978609832062995 -0.31997283189287334
v -1.140032631169925 3.052187780155924e-05 -0.31997283189287334
v 1.140032631169925 3.052187780155924e-05 -0.31997283189287334
v 1.1470518882038807 0.002978609832062995 -0.31997283189287334
v -1.1457884219377685 0.004242076098175063 -0.32572862266071706
v -1.140032631169925 0.002978609832062995 -0.3271324740675083
v 1.140032631169925 0.002978609832062995 -0.3271324740675083
v 1.1457884219377685 0.004242076098175063 -0.32572862266071706
v -1.1457884219377685 0.8957579119808962 0.32572862266071706
v -1.1470518882038807 0.8900021212130524 0.3271324740675083
v -1.140032631169925 0.8970213782470082 0.3271324740675083
v -1.140032631169925 0.8900021212130524 0.32994017688109056
v 1.140032631169925 0.8970213782470082 0.3271324740675083
v 1.140032631169925 0.8900021212130524 0.32994017688109056
v 1.1457884219377685 0.8957579119808962 0.32572862266071706
v 1.1470518882038807 0.8900021212130524 0.3271324740675083
v -1.1470518882038807 0.009997866866018723 0.3271324740675083
v -1.140032631169925 0.009997866866018723 0.32994017688109056
v 1.140032631169925 0.009997866866018723 0.32994017688109056
v 1.1470518882038807 0.009997866866018723 0.3271324740675083
v -1.1457884219377685 0.004242076098175063 0.32572862266071706
v -1.140032631169925 0.002978609832062995 0.3271324740675083
v 1.140032631169925 0.002978609832062995 0.3271324740675083
v 1.1457884219377685 0.004242076098175063 0.32572862266071706
v 1.1457884219377685 0.8957579119808962 -0.32572862266071706
v 1.1470518882038807 0.8900021212130524 -0.3271324740675083
v 1.140032631169925 0.8970213782470082 -0.3271324740675083
v 1.140032631169925 0.8900021212130524 -0.32994017688109056
v -1.140032631169925 0.8970213782470082 -0.3271324740675083
v -1.140032631169925 0.8900021212130524 -0.32994017688109056
v -1.1457884219377685 0.8957579119808962 -0.32572862266071706
v -1.1470518882038807 0.8900021212130524 -0.3271324740675083
v 1.1470518882038807 0.009997866866018723 -0.3271324740675083
v 1.140032631169925 0.009997866866018723 -0.32994017688109056
v -1.140032631169925 0.009997866866018723 -0.32994017688109056
v -1.1470518882038807 0.009997866866018723 -0.3271324740675083
v 1.1457884219377685 0.004242076098175063 -0.32572862266071706
v 1.140032631169925 0.002978609832062995 -0.3271324740675083
v -1.140032631169925 0.002978609832062995 -0.3271324740675083
v -1.1457884219377685 0.004242076098175063 -0.32572862266071706
f 1 2 3
f 2 4 3
f 3 4 5
f 4 6 5
f 5 6 7
f 6 8 7
f 2 9 4
f 9 10 4
f 4 10 6
f 10 11 6
f 6 11 8
f 11 12 8
f 9 13 10
f 13 14 10
f 10 14 11
f 14 15 11
f 11 15 12
f 15 16 12
f 17 18 19
f 18 20 19
f 19 20 21
f 20 22 21
f 21 22 23
f 22 24 23
f 18 25 20
f 25 26 20
f 20 26 22
f 26 27 22
f 22 27 24
f 27 28 24
f 25 29 26
f 29 30 26
f 26 30 27
f 30 31 27
f 27 31 28
f 31 32 28
f 33 34 35
f 34 36 35
f 35 36 37
f 36 38 37
f 37 38 7
f 38 39 7
f 34 40 36
f 40 41 36
f 36 41 38
f 41 42 38
f 38 42 39
f 42 43 39
f 40 44 41
f 44 45 41
f 41 45 42
f 45 46 42
f 42 46 43
f 46 47 43
f 48 49 50
f 49 51 50
f 50 51 52
f 51 53 52
f 52 53 54
f 53 55 54
f 49 56 51
f 56 57 51
f 51 57 53
f 57 58 53
f 53 58 55
f 58 59 55
f 56 60 57
f 60 61 57
f 57 61 58
f 61 62 58
f 58 62 59
f 62 63 59
f 64 65 66
f 65 67 66
f 66 67 68
f 67 69 68
f 68 69 70
f 69 71 70
f 65 72 67
f 72 73 67
f 67 73 69
f 73 74 69
f 69 74 71
f 74 75 71
f 72 76 73
f 76 77 73
f 73 77 74
f 77 78 74
f 74 78 75
f 78 79 75
f 80 81 82
f 81 83 82
f 82 83 84
f 83 85 84
f 84 85 86
f 85 87 86
f 81 88 83
f 88 89 83
f 83 89 85
f 89 90 85
f 85 90 87
f 90 91 87
f 88 92 89
f 92 93 89
f 89 93 90
f 93 94 90
f 90 94 91
f 94 95 91
o pieza_1
usemtl material_1
v 1.1957518709958497 1.095707599287136 0.39574327912255175
v 1.197070270657601 1.0899945340862125 0.3970616787843033
v 1.197070270657601 1.0970259989488875 0.39003021392162823
v 1.2000000476837158 1.0899945340862125 0.39003021392162823
v 1.197070270657601 1.0970259989488875 0.32996978488627887
v 1.2000000476837158 1.0899945340862125 0.32996978488627887
v 1.1957518709958497 1.095707599287136 0.32425671968535535
v 1.197070270657601 1.0899945340862125 0.3229383200236038
v 1.197070270657601 0.010005477834716281 0.3970616787843033
v 1.2000000476837158 0.010005477834716281 0.39003021392162823
v 1.2000000476837158 0.010005477834716281 0.32996978488627887
v 1.197070270657601 0.010005477834716281 0.3229383200236038
v 1.1957518709958497 0.004292412633792764 0.39574327912255175
v 1.197070270657601 0.002974012972041251 0.39003021392162823
v 1.197070270657601 0.002974012972041251 0.32996978488627887
v 1.1957518709958497 0.004292412633792764 0.32425671968535535
v -1.1957518709958497 1.095707599287136 0.32425671968535535
v -1.197070270657601 1.0899945340862125 0.3229383200236038
v -1.197070270657601 1.0970259989488875 0.32996978488627887
v -1.2000000476837158 1.0899945340862125 0.32996978488627887
v -1.197070270657601 1.0970259989488875 0.39003021392162823
v -1.2000000476837158 1.0899945340862125 0.39003021392162823
v -1.1957518709958497 1.095707599287136 0.39574327912255175
v -1.197070270657601 1.0899945340862125 0.3970616787843033
v -1.197070270657601 0.010005477834716281 0.3229383200236038
v -1.2000000476837158 0.010005477834716281 0.32996978488627887
v -1.2000000476837158 0.010005477834716281 0.39003021392162823
v -1.197070270657601 0.010005477834716281 0.3970616787843033
v -1.1957518709958497 0.004292412633792764 0.32425671968535535
v -1.197070270657601 0.002974012972041251 0.32996978488627887
v -1.197070270657601 0.002974012972041251 0.39003021392162823
v -1.1957518709958497 0.004292412633792764 0.39574327912255175
v -1.197070270657601 1.0970259989488875 0.32996978488627887
v -1.1900388057949263 1.0970259989488875 0.3229383200236038
v -1.1900388057949263 1.0999557759750023 0.32996978488627887
v 1.1900388057949263 1.0970259989488875 0.3229383200236038
v 1.1900388057949263 1.0999557759750023 0.32996978488627887
v 1.197070270657601 1.0970259989488875 0.32996978488627887
v -1.197070270657601 1.0970259989488875 0.39003021392162823
v -1.1900388057949263 1.0999557759750023 0.39003021392162823
v 1.1900388057949263 1.0999557759750023 0.39003021392162823
v 1.197070270657601 1.0970259989488875 0.39003021392162823
v -1.1957518709958497 1.095707599287136 0.39574327912255175
v -1.1900388057949263 1.0970259989488875 0.3970616787843033
v 1.1900388057949263 1.0970259989488875 0.3970616787843033
v 1.1957518709958497 1.095707599287136 0.39574327912255175
v -1.1957518709958497 0.004292412633792764 0.39574327912255175
v -1.197070270657601 0.002974012972041251 0.39003021392162823
v -1.1900388057949263 0.002974012972041251 0.3970616787843033
v -1.1900388057949263 4.423594592650737e-05 0.39003021392162823
v 1.1900388057949263 0.002974012972041251 0.3970616787843033
v 1.1900388057949263 4.423594592650737e-05 0.39003021392162823
v 1.1957518709958497 0.004292412633792764 0.39574327912255175
v 1.197070270657601 0.002974012972041251 0.39003021392162823
v -1.197070270657601 0.002974012972041251 0.32996978488627887
v -1.1900388057949263 4.423594592650737e-05 0.32996978488627887
v 1.1900388057949263 4.423594592650737e-05 0.32996978488627887
v 1.197070270657601 0.002974012972041251 0.32996978488627887
v -1.1900388057949263 0.002974012972041251 0.3229383200236038
v 1.1900388057949263 0.002974012972041251 0.3229383200236038
v -1.1957518709958497 1.095707599287136 0.39574327912255175
v -1.197070270657601 1.0899945340862125 0.3970616787843033
v -1.1900388057949263 1.0970259989488875 0.3970616787843033
v -1.1900388057949263 1.0899945340862125 0.3999914558104179
v 1.1900388057949263 1.0970259989488875 0.3970616787843033
v 1.1900388057949263 1.0899945340862125 0.3999914558104179
v 1.1957518709958497 1.095707599287136 0.39574327912255175
v 1.197070270657601 1.0899945340862125 0.3970616787843033
v -1.197070270657601 0.010005477834716281 0.3970616787843033
v -1.1900388057949263 0.010005477834716281 0.3999914558104179
v 1.1900388057949263 0.010005477834716281 0.3999914558104179
v 1.197070270657601 0.010005477834716281 0.3970616787843033
v -1.1957518709958497 0.004292412633792764 0.39574327912255175
v -1.1900388057949263 0.002974012972041251 0.3970616787843033
v 1.1900388057949263 0.002974012972041251 0.3970616787843033
v 1.1957518709958497 0.004292412633792764 0.39574327912255175
v 1.1957518709958497 1.095707599287136 0.32425671968535535
v 1.197070270657601 1.0899945340862125 0.3229383200236038
v 1.1900388057949263 1.0970259989488875 0.3229383200236038
v 1.1900388057949263 1.0899945340862125 0.3200085429974892
v -1.1900388057949263 1.0970259989488875 0.3229383200236038
v -1.1900388057949263 1.0899945340862125 0.3200085429974892
v -1.1957518709958497 1.095707599287136 0.32425671968535535
v -1.197070270657601 1.0899945340862125 0.3229383200236038
v 1.197070270657601 0.010005477834716281 0.3229383200236038
v 1.1900388057949263 0.010005477834716281 0.3200085429974892
v -1.1900388057949263 0.010005477834716281 0.3200085429974892
v -1.197070270657601 0.010005477834716281 0.3229383200236038
v 1.1957518709958497 0.004292412633792764 0.32425671968535535
v 1.1900388057949263 0.002974012972041251 0.3229383200236038
v -1.1900388057949263 0.002974012972041251 0.3229383200236038
v -1.1957518709958497 0.004292412633792764 0.32425671968535535
f 96 97 98
f 97 99 98
f 98 99 100
f 99 101 100
f 100 101 102
f 101 103 102
f 97 104 99
f 104 105 99
f 99 105 101
f 105 106 101
f 101 106 103
f 106 107 103
f 104 108 105
f 108 109 105
f 105 109 106
f 109 110 106
f 106 110 107
f 110 111 107
f 112 113 114
f 113 115 114
f 114 115 116
f 115 117 116
f 116 117 118
f 117 119 118
f 113 120 115
f 120 121 115
f 115 121 117
f 121 122 117
f 117 122 119
f 122 123 119
f 120 124 121
f 124 125 121
f 121 125 122
f 125 126 122
f 122 126 123
f 126 127 123
f 112 128 129
f 128 130 129
f 129 130 131
f 130 132 131
f 131 132 102
f 132 133 102
f 128 134 130
f 134 135 130
f 130 135 132
f 135 136 132
f 132 136 133
f 136 137 133
f 134 138 135
f 138 139 135
f 135 139 136
f 139 140 136
f 136 140 137
f 140 141 137
f 142 143 144
f 143 145 144
f 144 145 146
f 145 147 146
f 146 147 148
f 147 149 148
f 143 150 145
f 150 151 145
f 145 151 147
f 151 152 147
f 147 152 149
f 152 153 149
f 150 124 151
f 124 154 151
f 151 154 152
f 154 155 152
f 152 155 153
f 155 111 153
f 156 157 158
f 157 159 158
f 158 159 160
f 159 161 160
f 160 161 162
f 161 163 162
f 157 164 159
f 164 165 159
f 159 165 161
f 165 166 161
f 161 166 163
f 166 167 163
f 164 168 165
f 168 169 165
f 165 169 166
f 169 170 166
f 166 170 167
f 170 171 167
f 172 173 174
f 173 175 174
f 174 175 176
f 175 177 176
f 176 177 178
f 177 179 178
f 173 180 175
f 180 181 175
f 175 181 177
f 181 182 177
f 177 182 179
f 182 183 179
f 180 184 181
f 184 185 181
f 181 185 182
f 185 186 182
f 182 186 183
f 186 187 183
o pieza_2
usemtl material_2
v -1.0 0.8000616616942563 0.41198163107594626
v 1.0 0.8000616616942563 0.41198163107594626
v 1.0 0.9199383669159732 0.41198163107594626
v -1.0 0.9199383669159732 0.41198163107594626
v 1.0 0.8000616616942563 0.40001837536135537
v -1.0 0.8000616616942563 0.40001837536135537
v -1.0 0.9199383669159732 0.40001837536135537
v 1.0 0.9199383669159732 0.40001837536135537
v -1.0 0.8000616616942563 0.40001837536135537
v -1.0 0.8000616616942563 0.41198163107594626
v -1.0 0.9199383669159732 0.41198163107594626
v -1.0 0.9199383669159732 0.40001837536135537
v 1.0 0.8000616616942563 0.41198163107594626
v 1.0 0.8000616616942563 0.40001837536135537
v 1.0 0.9199383669159732 0.40001837536135537
v 1.0 0.8000616616942563 0.41198163107594626
v 1.0 0.9199383669159732 0.40001837536135537
v 1.0 0.9199383669159732 0.41198163107594626
v -1.0 0.9199383669159732 0.41198163107594626
v 1.0 0.9199383669159732 0.41198163107594626
v 1.0 0.9199383669159732 0.40001837536135537
v -1.0 0.9199383669159732 0.41198163107594626
v 1.0 0.9199383669159732 0.40001837536135537
v -1.0 0.9199383669159732 0.40001837536135537
v -1.0 0.8000616616942563 0.40001837536135537
v 1.0 0.8000616616942563 0.40001837536135537
v 1.0 0.8000616616942563 0.41198163107594626
v -1.0 0.8000616616942563 0.41198163107594626
f 188 189 190
f 188 190 191
f 192 193 194
f 192 194 195
f 196 197 198
f 196 198 199
f 200 201 202
f 203 204 205
f 206 207 208
f 209 210 211
f 212 213 214
f 212 214 215
o pieza_3
usemtl material_3
v -0.9200000166893005 0.44000794236270074 0.4120060461221858
v -0.3199999928474426 0.44000794236270074 0.4120060461221858
v -0.3199999928474426 0.5999920790949714 0.4120060461221858
v -0.9200000166893005 0.5999920790949714 0.4120060461221858
v -0.3199999928474426 0.44000794236270074 0.39999396031511586
v -0.9200000166893005 0.44000794236270074 0.39999396031511586
v -0.9200000166893005 0.5999920790949714 0.39999396031511586
v -0.3199999928474426 0.5999920790949714 0.39999396031511586
v -0.9200000166893005 0.44000794236270074 0.39999396031511586
v -0.9200000166893005 0.44000794236270074 0.4120060461221858
v -0.9200000166893005 0.5999920790949714 0.4120060461221858
v -0.9200000166893005 0.5999920790949714 0.39999396031511586
v -0.3199999928474426 0.44000794236270074 0.4120060461221858
v -0.3199999928474426 0.44000794236270074 0.39999396031511586
v -0.3199999928474426 0.5999920790949714 0.39999396031511586
v -0.3199999928474426 0.44000794236270074 0.4120060461221858
v -0.3199999928474426 0.5999920790949714 0.39999396031511586
v -0.3199999928474426 0.5999920790949714 0.4120060461221858
v -0.9200000166893005 0.5999920790949714 0.4120060461221858
v -0.3199999928474426 0.5999920790949714 0.4120060461221858
v -0.3199999928474426 0.5999920790949714 0.39999396031511586
v -0.9200000166893005 0.5999920790949714 0.4120060461221858
v -0.3199999928474426 0.5999920790949714 0.39999396031511586
v -0.9200000166893005 0.5999920790949714 0.39999396031511586
v -0.9200000166893005 0.44000794236270074 0.39999396031511586
v -0.3199999928474426 0.44000794236270074 0.39999396031511586
v -0.3199999928474426 0.44000794236270074 0.4120060461221858
v -0.9200000166893005 0.44000794236270074 0.4120060461221858
f 216 217 218
f 216 218 219
f 220 221 222
f 220 222 223
f 224 225 226
f 224 226 227
f 228 229 230
f 231 232 233
f 234 235 236
f 237 238 239
f 240 241 242
f 240 242 243
o pieza_4
usemtl material_4
v 1.1474709580290738 0.9374289422737078 0.3174572108536218
v 1.148215609677751 0.9340035446897929 0.3182018625022989
v 1.148215609677751 0.9383225242521204 0.3140318132697068
v 1.1500027736345761 0.9340035446897929 0.3140318132697068
v 1.148215609677751 0.9383225242521204 -0.3740635426904254
v 1.1500027736345761 0.9340035446897929 -0.3740635426904254
v 1.1474709580290738 0.9374289422737078 -0.3774889402743403
v 1.148215609677751 0.9340035446897929 -0.37823359192301753
v 1.148215609677751 0.9060046426995315 0.3182018625022989
v 1.1500027736345761 0.9060046426995315 0.3140318132697068
v 1.1500027736345761 0.9060046426995315 -0.3740635426904254
v 1.148215609677751 0.9060046426995315 -0.37823359192301753
v 1.1474709580290738 0.9025792451156165 0.3174572108536218
v 1.148215609677751 0.9018345934669394 0.3140318132697068
v 1.148215609677751 0.9018345934669394 -0.3740635426904254
v 1.1474709580290738 0.9025792451156165 -0.3774889402743403
v -1.1474709580290738 0.9374289422737078 -0.3774889402743403
v -1.148215609677751 0.9340035446897929 -0.37823359192301753
v -1.148215609677751 0.9383225242521204 -0.3740635426904254
v -1.1500027736345761 0.9340035446897929 -0.3740635426904254
v -1.148215609677751 0.9383225242521204 0.3140318132697068
v -1.1500027736345761 0.9340035446897929 0.3140318132697068
v -1.1474709580290738 0.9374289422737078 0.3174572108536218
v -1.148215609677751 0.9340035446897929 0.3182018625022989
v -1.148215609677751 0.9060046426995315 -0.37823359192301753
v -1.1500027736345761 0.9060046426995315 -0.3740635426904254
v -1.1500027736345761 0.9060046426995315 0.3140318132697068
v -1.148215609677751 0.9060046426995315 0.3182018625022989
v -1.1474709580290738 0.9025792451156165 -0.3774889402743403
v -1.148215609677751 0.9018345934669394 -0.3740635426904254
v -1.148215609677751 0.9018345934669394 0.3140318132697068
v -1.1474709580290738 0.9025792451156165 0.3174572108536218
v -1.148215609677751 0.9383225242521204 -0.3740635426904254
v -1.144045560445159 0.9383225242521204 -0.37823359192301753
v -1.144045560445159 0.9399607578792101 -0.3740635426904254
v 1.144045560445159 0.9383225242521204 -0.37823359192301753
v 1.144045560445159 0.9399607578792101 -0.3740635426904254
v 1.148215609677751 0.9383225242521204 -0.3740635426904254
v -1.148215609677751 0.9383225242521204 0.3140318132697068
v -1.144045560445159 0.9399607578792101 0.3140318132697068
v 1.144045560445159 0.9399607578792101 0.3140318132697068
v 1.148215609677751 0.9383225242521204 0.3140318132697068
v -1.1474709580290738 0.9374289422737078 0.3174572108536218
v -1.144045560445159 0.9383225242521204 0.3182018625022989
v 1.144045560445159 0.9383225242521204 0.3182018625022989
v 1.1474709580290738 0.9374289422737078 0.3174572108536218
v -1.1474709580290738 0.9025792451156165 0.3174572108536218
v -1.148215609677751 0.9018345934669394 0.3140318132697068
v -1.144045560445159 0.9018345934669394 0.3182018625022989
v -1.144045560445159 0.9000474295101142 0.3140318132697068
v 1.144045560445159 0.9018345934669394 0.3182018625022989
v 1.144045560445159 0.9000474295101142 0.3140318132697068
v 1.1474709580290738 0.9025792451156165 0.3174572108536218
v 1.148215609677751 0.9018345934669394 0.3140318132697068
v -1.148215609677751 0.9018345934669394 -0.3740635426904254
v -1.144045560445159 0.9000474295101142 -0.3740635426904254
v 1.144045560445159 0.9000474295101142 -0.3740635426904254
v 1.148215609677751 0.9018345934669394 -0.3740635426904254
v -1.144045560445159 0.9018345934669394 -0.37823359192301753
v 1.144045560445159 0.9018345934669394 -0.37823359192301753
v -1.1474709580290738 0.9374289422737078 0.3174572108536218
v -1.148215609677751 0.9340035446897929 0.3182018625022989
v -1.144045560445159 0.9383225242521204 0.3182018625022989
v -1.144045560445159 0.9340035446897929 0.3199890264591241
v 1.144045560445159 0.9383225242521204 0.3182018625022989
v 1.144045560445159 0.9340035446897929 0.3199890264591241
v 1.1474709580290738 0.9374289422737078 0.3174572108536218
v 1.148215609677751 0.9340035446897929 0.3182018625022989
v -1.148215609677751 0.9060046426995315 0.3182018625022989
v -1.144045560445159 0.9060046426995315 0.3199890264591241
v 1.144045560445159 0.9060046426995315 0.3199890264591241
v 1.148215609677751 0.9060046426995315 0.3182018625022989
v -1.1474709580290738 0.9025792451156165 0.3174572108536218
v -1.144045560445159 0.9018345934669394 0.3182018625022989
v 1.144045560445159 0.9018345934669394 0.3182018625022989
v 1.1474709580290738 0.9025792451156165 0.3174572108536218
v 1.1474709580290738 0.9374289422737078 -0.3774889402743403
v 1.148215609677751 0.9340035446897929 -0.37823359192301753
v 1.144045560445159 0.9383225242521204 -0.37823359192301753
v 1.144045560445159 0.9340035446897929 -0.3800207558798427
v -1.144045560445159 0.9383225242521204 -0.37823359192301753
v -1.144045560445159 0.9340035446897929 -0.3800207558798427
v -1.1474709580290738 0.9374289422737078 -0.3774889402743403
v -1.148215609677751 0.9340035446897929 -0.37823359192301753
v 1.148215609677751 0.9060046426995315 -0.37823359192301753
v 1.144045560445159 0.9060046426995315 -0.3800207558798427
v -1.144045560445159 0.9060046426995315 -0.3800207558798427
v -1.148215609677751 0.9060046426995315 -0.37823359192301753
v 1.1474709580290738 0.9025792451156165 -0.3774889402743403
v 1.144045560445159 0.9018345934669394 -0.37823359192301753
v -1.144045560445159 0.9018345934669394 -0.37823359192301753
v -1.1474709580290738 0.9025792451156165 -0.3774889402743403
f 244 245 246
f 245 247 246
f 246 247 248
f 247 249 248
f 248 249 250
f 249 251 250
f 245 252 247
f 252 253 247
f 247 253 249
f 253 254 249
f 249 254 251
f 254 255 251
f 252 256 253
f 256 257 253
f 253 257 254
f 257 258 254
f 254 258 255
f 258 259 255
f 260 261 262
f 261 263 262
f 262 263 264
f 263 265 264
f 264 265 266
f 265 267 266
f 261 268 263
f 268 269 263
f 263 269 265
f 269 270 265
f 265 270 267
f 270 271 267
f 268 272 269
f 272 273 269
f 269 273 270
f 273 274 270
f 270 274 271
f 274 275 271
f 260 276 277
f 276 278 277
f 277 278 279
f 278 280 279
f 279 280 250
f 280 281 250
f 276 282 278
f 282 283 278
f 278 283 280
f 283 284 280
f 280 284 281
f 284 285 281
f 282 286 283
f 286 287 283
f 283 287 284
f 287 288 284
f 284 288 285
f 288 289 285
f 290 291 292
f 291 293 292
f 292 293 294
f 293 295 294
f 294 295 296
f 295 297 296
f 291 298 293
f 298 299 293
f 293 299 295
f 299 300 295
f 295 300 297
f 300 301 297
f 298 272 299
f 272 302 299
f 299 302 300
f 302 303 300
f 300 303 301
f 303 259 301
f 304 305 306
f 305 307 306
f 306 307 308
f 307 309 308
f 308 309 310
f 309 311 310
f 305 312 307
f 312 313 307
f 307 313 309
f 313 314 309
f 309 314 311
f 314 315 311
f 312 316 313
f 316 317 313
f 313 317 314
f 317 318 314
f 314 318 315
f 318 319 315
f 320 321 322
f 321 323 322
f 322 323 324
f 323 325 324
f 324 325 326
f 325 327 326
f 321 328 323
f 328 329 323
f 323 329 325
f 329 330 325
f 325 330 327
f 330 331 327
f 328 332 329
f 332 333 329
f 329 333 330
f 333 334 330
f 330 334 331
f 334 335 331
o pieza_5
usemtl material_5
v 1.2165746310263146 1.1466760555519904 0.4565953714089496
v 1.2176171433344625 1.142059215330192 0.4576378837170976
v 1.2176171433344625 1.1477185678601385 0.4519785311871512
v 1.2200000286102295 1.142059215330192 0.4519785311871512
v 1.2176171433344625 1.1477185678601385 0.20799341849807884
v 1.2200000286102295 1.142059215330192 0.20799341849807884
v 1.2165746310263146 1.1466760555519904 0.20337657827628042
v 1.2176171433344625 1.142059215330192 0.2023340659681324
v 1.2176171433344625 1.107954169820778 0.4576378837170976
v 1.2200000286102295 1.107954169820778 0.4519785311871512
v 1.2200000286102295 1.107954169820778 0.20799341849807884
v 1.2176171433344625 1.107954169820778 0.2023340659681324
v 1.2165746310263146 1.1033373295989797 0.4565953714089496
v 1.2176171433344625 1.1022948172908316 0.4519785311871512
v 1.2176171433344625 1.1022948172908316 0.20799341849807884
v 1.2165746310263146 1.1033373295989797 0.20337657827628042
v -1.2165746310263146 1.1466760555519904 0.20337657827628042
v -1.2176171433344625 1.142059215330192 0.2023340659681324
v -1.2176171433344625 1.1477185678601385 0.20799341849807884
v -1.2200000286102295 1.142059215330192 0.20799341849807884
v -1.2176171433344625 1.1477185678601385 0.4519785311871512
v -1.2200000286102295 1.142059215330192 0.4519785311871512
v -1.2165746310263146 1.1466760555519904 0.4565953714089496
v -1.2176171433344625 1.142059215330192 0.4576378837170976
v -1.2176171433344625 1.107954169820778 0.2023340659681324
v -1.2200000286102295 1.107954169820778 0.20799341849807884
v -1.2200000286102295 1.107954169820778 0.4519785311871512
v -1.2176171433344625 1.107954169820778 0.4576378837170976
v -1.2165746310263146 1.1033373295989797 0.20337657827628042
v -1.2176171433344625 1.1022948172908316 0.20799341849807884
v -1.2176171433344625 1.1022948172908316 0.4519785311871512
v -1.2165746310263146 1.1033373295989797 0.4565953714089496
v -1.2176171433344625 1.1477185678601385 0.20799341849807884
v -1.211957790804516 1.1477185678601385 0.2023340659681324
v -1.211957790804516 1.14995252280617 0.20799341849807884
v 1.211957790804516 1.1477185678601385 0.2023340659681324
v 1.211957790804516 1.14995252280617 0.20799341849807884
v 1.2176171433344625 1.1477185678601385 0.20799341849807884
v -1.2176171433344625 1.1477185678601385 0.4519785311871512
v -1.211957790804516 1.14995252280617 0.4519785311871512
v 1.211957790804516 1.14995252280617 0.4519785311871512
v 1.2176171433344625 1.1477185678601385 0.4519785311871512
v -1.2165746310263146 1.1466760555519904 0.4565953714089496
v -1.211957790804516 1.1477185678601385 0.4576378837170976
v 1.211957790804516 1.1477185678601385 0.4576378837170976
v 1.2165746310263146 1.1466760555519904 0.4565953714089496
v -1.2165746310263146 1.1033373295989797 0.4565953714089496
v -1.2176171433344625 1.1022948172908316 0.4519785311871512
v -1.211957790804516 1.1022948172908316 0.4576378837170976
v -1.211957790804516 1.1000608623448 0.4519785311871512
v 1.211957790804516 1.1022948172908316 0.4576378837170976
v 1.211957790804516 1.1000608623448 0.4519785311871512
v 1.2165746310263146 1.1033373295989797 0.4565953714089496
v 1.2176171433344625 1.1022948172908316 0.4519785311871512
v -1.2176171433344625 1.1022948172908316 0.20799341849807884
v -1.211957790804516 1.1000608623448 0.20799341849807884
v 1.211957790804516 1.1000608623448 0.20799341849807884
v 1.2176171433344625 1.1022948172908316 0.20799341849807884
v -1.211957790804516 1.1022948172908316 0.2023340659681324
v 1.211957790804516 1.1022948172908316 0.2023340659681324
v -1.2165746310263146 1.1466760555519904 0.4565953714089496
v -1.2176171433344625 1.142059215330192 0.4576378837170976
v -1.211957790804516 1.1477185678601385 0.4576378837170976
v -1.211957790804516 1.142059215330192 0.46002076899286454
v 1.211957790804516 1.1477185678601385 0.4576378837170976
v 1.211957790804516 1.142059215330192 0.46002076899286454
v 1.2165746310263146 1.1466760555519904 0.4565953714089496
v 1.2176171433344625 1.142059215330192 0.4576378837170976
v -1.2176171433344625 1.107954169820778 0.4576378837170976
v -1.211957790804516 1.107954169820778 0.46002076899286454
v 1.211957790804516 1.107954169820778 0.46002076899286454
v 1.2176171433344625 1.107954169820778 0.4576378837170976
v -1.2165746310263146 1.1033373295989797 0.4565953714089496
v -1.211957790804516 1.1022948172908316 0.4576378837170976
v 1.211957790804516 1.1022948172908316 0.4576378837170976
v 1.2165746310263146 1.1033373295989797 0.4565953714089496
v 1.2165746310263146 1.1466760555519904 0.20337657827628042
v 1.2176171433344625 1.142059215330192 0.2023340659681324
v 1.211957790804516 1.1477185678601385 0.2023340659681324
v 1.211957790804516 1.142059215330192 0.19995118069236545
v -1.211957790804516 1.1477185678601385 0.2023340659681324
v -1.211957790804516 1.142059215330192 0.19995118069236545
v -1.2165746310263146 1.1466760555519904 0.20337657827628042
v -1.2176171433344625 1.142059215330192 0.2023340659681324
v 1.2176171433344625 1.107954169820778 0.2023340659681324
v 1.211957790804516 1.107954169820778 0.19995118069236545
v -1.211957790804516 1.107954169820778 0.19995118069236545
v -1.2176171433344625 1.107954169820778 0.2023340659681324
v 1.2165746310263146 1.1033373295989797 0.20337657827628042
v 1.211957790804516 1.1022948172908316 0.2023340659681324
v -1.211957790804516 1.1022948172908316 0.2023340659681324
v -1.2165746310263146 1.1033373295989797 0.20337657827628042
f 336 337 338
f 337 339 338
f 338 339 340
f 339 341 340
f 340 341 342
f 341 343 342
f 337 344 339
f 344 345 339
f 339 345 341
f 345 346 341
f 341 346 343
f 346 347 343
f 344 348 345
f 348 349 345
f 345 349 346
f 349 350 346
f 346 350 347
f 350 351 347
f 352 353 354
f 353 355 354
f 354 355 356
f 355 357 356
f 356 357 358
f 357 359 358
f 353 360 355
f 360 361 355
f 355 361 357
f 361 362 357
f 357 362 359
f 362 363 359
f 360 364 361
f 364 365 361
f 361 365 362
f 365 366 362
f 362 366 363
f 366 367 363
f 352 368 369
f 368 370 369
f 369 370 371
f 370 372 371
f 371 372 342
f 372 373 342
f 368 374 370
f 374 375 370
f 370 375 372
f 375 376 372
f 372 376 373
f 376 377 373
f 374 378 375
f 378 379 375
f 375 379 376
f 379 380 376
f 376 380 377
f 380 381 377
f 382 383 384
f 383 385 384
f 384 385 386
f 385 387 386
f 386 387 388
f 387 389 388
f 383 390 385
f 390 391 385
f 385 391 387
f 391 392 387
f 387 392 389
f 392 393 389
f 390 364 391
f 364 394 391
f 391 394 392
f 394 395 392
f 392 395 393
f 395 351 393
f 396 397 398
f 397 399 398
f 398 399 400
f 399 401 400
f 400 401 402
f 401 403 402
f 397 404 399
f 404 405 399
f 399 405 401
f 405 406 401
f 401 406 403
f 406 407 403
f 404 408 405
f 408 409 405
f 405 409 406
f 409 410 406
f 406 410 407
f 410 411 407
f 412 413 414
f 413 415 414
f 414 415 416
f 415 417 416
f 416 417 418
f 417 419 418
f 413 420 415
f 420 421 415
f 415 421 417
f 421 422 417
f 417 422 419
f 422 423 419
f 420 424 421
f 424 425 421
f 421 425 422
f 425 426 422
f 422 426 423
f 426 427 423
