# Piezas extraídas de modelos de terceros; véase procedencia.json
mtllib puerta.mtl
o pieza_7
usemtl material_7
v -0.391111354689231 2.1374119161651626 0.8856867927423868
v -0.3917583470377109 2.134047555953067 0.8865925820302587
v -0.3874881975377435 2.1381883069833383 0.8862043866211708
v -0.38735879906804754 2.134047555953067 0.8878865667272186
v -0.35759715103797174 2.1381883069833383 0.8834870187575552
v -0.35746775256827573 2.134047555953067 0.885298597333299
v -0.3542327908258762 2.1374119161651626 0.8824518309999874
v -0.3534564000077003 2.134047555953067 0.8832282218181632
v -0.3917583470377109 0.02595238690098034 0.8865925820302587
v -0.38735879906804754 0.02595238690098034 0.8878865667272186
v -0.35746775256827573 0.02595238690098034 0.885298597333299
v -0.3534564000077003 0.02595238690098034 0.8832282218181632
v -0.391111354689231 0.022588026688884932 0.8856867927423868
v -0.3874881975377435 0.021811635870709 0.8862043866211708
v -0.35759715103797174 0.021811635870709 0.8834870187575552
v -0.3542327908258762 0.022588026688884932 0.8824518309999874
v -0.43044848947680947 2.1374119161651626 0.010888438362702313
v -0.42980149712832955 2.134047555953067 0.00998264907483043
v -0.43407164662829695 2.1381883069833383 0.01037084448391834
v -0.4342010450979929 2.134047555953067 0.008688664377870636
v -0.4639626931280687 2.1381883069833383 0.013088212347534045
v -0.4640920915977647 2.134047555953067 0.011276633771790279
v -0.4673270533401642 2.1374119161651626 0.014123400105101824
v -0.46810344415834015 2.134047555953067 0.013347009286926004
v -0.42980149712832955 0.02595238690098034 0.00998264907483043
v -0.4342010450979929 0.02595238690098034 0.008688664377870636
v -0.4640920915977647 0.02595238690098034 0.011276633771790279
v -0.46810344415834015 0.02595238690098034 0.013347009286926004
v -0.43044848947680947 0.022588026688884932 0.010888438362702313
v -0.43407164662829695 0.021811635870709 0.01037084448391834
v -0.4639626931280687 0.021811635870709 0.013088212347534045
v -0.4673270533401642 0.022588026688884932 0.014123400105101824
v -0.43407164662829695 2.1381883069833383 0.01037084448391834
v -0.4294133017192416 2.1381883069833383 0.014252798574797831
v -0.433683451219209 2.139999885559082 0.014640993983885797
v -0.35384459541678825 2.1381883069833383 0.8789580723181958
v -0.35798534644705965 2.139999885559082 0.8793462677272837
v -0.35759715103797174 2.1381883069833383 0.8834870187575552
v -0.4639626931280687 2.1381883069833383 0.013088212347534045
v -0.4635744977189808 2.139999885559082 0.01722896337780544
v -0.38787639294683146 2.139999885559082 0.8819342371212033
v -0.3874881975377435 2.1381883069833383 0.8862043866211708
v -0.4673270533401642 2.1374119161651626 0.014123400105101824
v -0.4677152487492522 2.1381883069833383 0.01761715878689335
v -0.39214654244679886 2.1381883069833383 0.8823224325302914
v -0.391111354689231 2.1374119161651626 0.8856867927423868
v -0.4673270533401642 0.022588026688884932 0.014123400105101824
v -0.4639626931280687 0.021811635870709 0.013088212347534045
v -0.4677152487492522 0.021811635870709 0.01761715878689335
v -0.4635744977189808 0.020000057294965234 0.01722896337780544
v -0.39214654244679886 0.021811635870709 0.8823224325302914
v -0.38787639294683146 0.020000057294965234 0.8819342371212033
v -0.391111354689231 0.022588026688884932 0.8856867927423868
v -0.3874881975377435 0.021811635870709 0.8862043866211708
v -0.43407164662829695 0.021811635870709 0.01037084448391834
v -0.433683451219209 0.020000057294965234 0.014640993983885797
v -0.35798534644705965 0.020000057294965234 0.8793462677272837
v -0.35759715103797174 0.021811635870709 0.8834870187575552
v -0.4294133017192416 0.021811635870709 0.014252798574797831
v -0.35384459541678825 0.021811635870709 0.8789580723181958
v -0.4673270533401642 2.1374119161651626 0.014123400105101824
v -0.46810344415834015 2.134047555953067 0.013347009286926004
v -0.4677152487492522 2.1381883069833383 0.01761715878689335
v -0.46952682732499595 2.134047555953067 0.017746557256589357
v -0.39214654244679886 2.1381883069833383 0.8823224325302914
v -0.3938287225528466 2.134047555953067 0.8824518309999874
v -0.391111354689231 2.1374119161651626 0.8856867927423868
v -0.3917583470377109 2.134047555953067 0.8865925820302587
v -0.46810344415834015 0.02595238690098034 0.013347009286926004
v -0.46952682732499595 0.02595238690098034 0.017746557256589357
v -0.3938287225528466 0.02595238690098034 0.8824518309999874
v -0.3917583470377109 0.02595238690098034 0.8865925820302587
v -0.4673270533401642 0.022588026688884932 0.014123400105101824
v -0.4677152487492522 0.021811635870709 0.01761715878689335
v -0.39214654244679886 0.021811635870709 0.8823224325302914
v -0.391111354689231 0.022588026688884932 0.8856867927423868
v -0.3542327908258762 2.1374119161651626 0.8824518309999874
v -0.3534564000077003 2.134047555953067 0.8832282218181632
v -0.35384459541678825 2.1381883069833383 0.8789580723181958
v -0.3520330168410445 2.134047555953067 0.8788286738484998
v -0.4294133017192416 2.1381883069833383 0.014252798574797831
v -0.4277311216131938 2.134047555953067 0.014123400105101824
v -0.43044848947680947 2.1374119161651626 0.010888438362702313
v -0.42980149712832955 2.134047555953067 0.00998264907483043
v -0.3534564000077003 0.02595238690098034 0.8832282218181632
v -0.3520330168410445 0.02595238690098034 0.8788286738484998
v -0.4277311216131938 0.02595238690098034 0.014123400105101824
v -0.42980149712832955 0.02595238690098034 0.00998264907483043
v -0.3542327908258762 0.022588026688884932 0.8824518309999874
v -0.35384459541678825 0.021811635870709 0.8789580723181958
v -0.4294133017192416 0.021811635870709 0.014252798574797831
v -0.43044848947680947 0.022588026688884932 0.010888438362702313
f 1 2 3
f 2 4 3
f 3 4 5
f 4 6 5
f 5 6 7
f 6 8 7
f 2 9 4
f 9 10 4
f 4 10 6
f 10 11 6
f 6 11 8
f 11 12 8
f 9 13 10
f 13 14 10
f 10 14 11
f 14 15 11
f 11 15 12
f 15 16 12
f 17 18 19
f 18 20 19
f 19 20 21
f 20 22 21
f 21 22 23
f 22 24 23
f 18 25 20
f 25 26 20
f 20 26 22
f 26 27 22
f 22 27 24
f 27 28 24
f 25 29 26
f 29 30 26
f 26 30 27
f 30 31 27
f 27 31 28
f 31 32 28
f 17 33 34
f 33 35 34
f 34 35 36
f 35 37 36
f 36 37 7
f 37 38 7
f 33 39 35
f 39 40 35
f 35 40 37
f 40 41 37
f 37 41 38
f 41 42 38
f 39 43 40
f 43 44 40
f 40 44 41
f 44 45 41
f 41 45 42
f 45 46 42
f 47 48 49
f 48 50 49
f 49 50 51
f 50 52 51
f 51 52 53
f 52 54 53
f 48 55 50
f 55 56 50
f 50 56 52
f 56 57 52
f 52 57 54
f 57 58 54
f 55 29 56
f 29 59 56
f 56 59 57
f 59 60 57
f 57 60 58
f 60 16 58
f 61 62 63
f 62 64 63
f 63 64 65
f 64 66 65
f 65 66 67
f 66 68 67
f 62 69 64
f 69 70 64
f 64 70 66
f 70 71 66
f 66 71 68
f 71 72 68
f 69 73 70
f 73 74 70
f 70 74 71
f 74 75 71
f 71 75 72
f 75 76 72
f 77 78 79
f 78 80 79
f 79 80 81
f 80 82 81
f 81 82 83
f 82 84 83
f 78 85 80
f 85 86 80
f 80 86 82
f 86 87 82
f 82 87 84
f 87 88 84
f 85 89 86
f 89 90 86
f 86 90 87
f 90 91 87
f 87 91 88
f 91 92 88
o pieza_8
usemtl material_8
v -0.4269827018909139 1.1499999952316284 0.5501037323622591
v -0.40603479615419447 1.1499999952316284 0.7891552265867976
v -0.40603479615419447 1.7500000190734863 0.7891552265867976
v -0.4269827018909139 1.7500000190734863 0.5501037323622591
v -0.35622858671024615 1.1499999952316284 0.7847971832604521
v -0.3771764924469656 1.1499999952316284 0.5457456890359136
v -0.3771764924469656 1.7500000190734863 0.5457456890359136
v -0.35622858671024615 1.7500000190734863 0.7847971832604521
v -0.3771764924469656 1.1499999952316284 0.5457456890359136
v -0.4269827018909139 1.1499999952316284 0.5501037323622591
v -0.4269827018909139 1.7500000190734863 0.5501037323622591
v -0.3771764924469656 1.7500000190734863 0.5457456890359136
v -0.40603479615419447 1.1499999952316284 0.7891552265867976
v -0.35622858671024615 1.1499999952316284 0.7847971832604521
v -0.35622858671024615 1.7500000190734863 0.7847971832604521
v -0.40603479615419447 1.1499999952316284 0.7891552265867976
v -0.35622858671024615 1.7500000190734863 0.7847971832604521
v -0.40603479615419447 1.7500000190734863 0.7891552265867976
v -0.4269827018909139 1.7500000190734863 0.5501037323622591
v -0.40603479615419447 1.7500000190734863 0.7891552265867976
v -0.35622858671024615 1.7500000190734863 0.7847971832604521
v -0.4269827018909139 1.7500000190734863 0.5501037323622591
v -0.35622858671024615 1.7500000190734863 0.7847971832604521
v -0.3771764924469656 1.7500000190734863 0.5457456890359136
v -0.3771764924469656 1.1499999952316284 0.5457456890359136
v -0.35622858671024615 1.1499999952316284 0.7847971832604521
v -0.40603479615419447 1.1499999952316284 0.7891552265867976
v -0.4269827018909139 1.1499999952316284 0.5501037323622591
f 93 94 95
f 93 95 96
f 97 98 99
f 97 99 100
f 101 102 103
f 101 103 104
f 105 106 107
f 108 109 110
f 111 112 113
f 114 115 116
f 117 118 119
f 117 119 120
o pieza_9
usemtl material_9
v -0.46856614274839725 0.20002299504937204 0.051814010781482844
v -0.39885112526207944 0.20002299504937204 0.8487700819969177
v -0.39885112526207944 0.3999770073348138 0.8487700819969177
v -0.46856614274839725 0.3999770073348138 0.051814010781482844
v -0.3529937014176432 0.20002299504937204 0.8447612240488966
v -0.422708718903961 0.20002299504937204 0.04780515283346176
v -0.422708718903961 0.3999770073348138 0.04780515283346176
v -0.3529937014176432 0.3999770073348138 0.8447612240488966
v -0.422708718903961 0.20002299504937204 0.04780515283346176
v -0.46856614274839725 0.20002299504937204 0.051814010781482844
v -0.46856614274839725 0.3999770073348138 0.051814010781482844
v -0.422708718903961 0.3999770073348138 0.04780515283346176
v -0.39885112526207944 0.20002299504937204 0.8487700819969177
v -0.3529937014176432 0.20002299504937204 0.8447612240488966
v -0.3529937014176432 0.3999770073348138 0.8447612240488966
v -0.39885112526207944 0.20002299504937204 0.8487700819969177
v -0.3529937014176432 0.3999770073348138 0.8447612240488966
v -0.39885112526207944 0.3999770073348138 0.8487700819969177
v -0.46856614274839725 0.3999770073348138 0.051814010781482844
v -0.39885112526207944 0.3999770073348138 0.8487700819969177
v -0.3529937014176432 0.3999770073348138 0.8447612240488966
v -0.46856614274839725 0.3999770073348138 0.051814010781482844
v -0.3529937014176432 0.3999770073348138 0.8447612240488966
v -0.422708718903961 0.3999770073348138 0.04780515283346176
v -0.422708718903961 0.20002299504937204 0.04780515283346176
v -0.3529937014176432 0.20002299504937204 0.8447612240488966
v -0.39885112526207944 0.20002299504937204 0.8487700819969177
v -0.46856614274839725 0.20002299504937204 0.051814010781482844
f 121 122 123
f 121 123 124
f 125 126 127
f 125 127 128
f 129 130 131
f 129 131 132
f 133 134 135
f 136 137 138
f 139 140 141
f 142 143 144
f 145 146 147
f 145 147 148
o pieza_10
usemtl material_10
v -0.4335377834971304 1.051563453017714 0.8142329418195717
v -0.4342212483648876 1.0482412946731727 0.8150375270436404
v -0.43016371642845563 1.052316129517649 0.8146828174287284
v -0.4300166417100775 1.0482412946731727 0.8163611995090435
v -0.41772941413498677 1.052316129517649 0.8135927342219258
v -0.41758233941660866 1.0482412946731727 0.8152797677562632
v -0.4144764674226234 1.051563453017714 0.8125632111932788
v -0.4136718821985548 1.0482412946731727 0.8132380246070138
v -0.4342212483648876 1.0357572465190759 0.8150375270436404
v -0.4300166417100775 1.0357572465190759 0.8163611995090435
v -0.41758233941660866 1.0357572465190759 0.8152797677562632
v -0.4136718821985548 1.0357572465190759 0.8132380246070138
v -0.4335377834971304 1.0324350881745346 0.8142329418195717
v -0.43016371642845563 1.0316910631286216 0.8146828174287284
v -0.41772941413498677 1.0316910631286216 0.8135927342219258
v -0.4144764674226234 1.0324350881745346 0.8125632111932788
v -0.4236405200956843 1.051563453017714 0.7078265459364987
v -0.4229657066819494 1.0482412946731727 0.7070219607124302
v -0.4270232386183814 1.052316129517649 0.7073766703273422
v -0.42717031333675953 1.0482412946731727 0.705698288247027
v -0.43945754091185024 1.052316129517649 0.7084667535341448
v -0.43960461563022835 1.0482412946731727 0.7067797199998074
v -0.4427018361701914 1.051563453017714 0.7094962765627917
v -0.44351507284828223 1.0482412946731727 0.7088214631490567
v -0.4229657066819494 1.0357572465190759 0.7070219607124302
v -0.42717031333675953 1.0357572465190759 0.705698288247027
v -0.43960461563022835 1.0357572465190759 0.7067797199998074
v -0.44351507284828223 1.0357572465190759 0.7088214631490567
v -0.4236405200956843 1.0324350881745346 0.7078265459364987
v -0.4270232386183814 1.0316910631286216 0.7073766703273422
v -0.43945754091185024 1.0316910631286216 0.7084667535341448
v -0.4427018361701914 1.0324350881745346 0.7094962765627917
v -0.4270232386183814 1.052316129517649 0.7073766703273422
v -0.4226109970670374 1.052316129517649 0.7110794926488622
v -0.4266685290034694 1.0540031630519866 0.7114342022637742
v -0.41402659181346674 1.052316129517649 0.8091804926705818
v -0.41808412374989873 1.0540031630519866 0.8095352022854938
v -0.41772941413498677 1.052316129517649 0.8135927342219258
v -0.43945754091185024 1.052316129517649 0.7084667535341448
v -0.4391028312969383 1.0540031630519866 0.7125156340165545
v -0.4305184260433676 1.0540031630519866 0.8106252854922964
v -0.43016371642845563 1.052316129517649 0.8146828174287284
v -0.4427018361701914 1.051563453017714 0.7094962765627917
v -0.44316036323337027 1.052316129517649 0.7128789950854887
v -0.4345759579797996 1.052316129517649 0.8109799951072084
v -0.4335377834971304 1.051563453017714 0.8142329418195717
v -0.4427018361701914 1.0324350881745346 0.7094962765627917
v -0.43945754091185024 1.0316910631286216 0.7084667535341448
v -0.44316036323337027 1.0316910631286216 0.7128789950854887
v -0.4391028312969383 1.0300040295942843 0.7125156340165545
v -0.4345759579797996 1.0316910631286216 0.8109799951072084
v -0.4305184260433676 1.0300040295942843 0.8106252854922964
v -0.4335377834971304 1.0324350881745346 0.8142329418195717
v -0.43016371642845563 1.0316910631286216 0.8146828174287284
v -0.4270232386183814 1.0316910631286216 0.7073766703273422
v -0.4266685290034694 1.0300040295942843 0.7114342022637742
v -0.41808412374989873 1.0300040295942843 0.8095352022854938
v -0.41772941413498677 1.0316910631286216 0.8135927342219258
v -0.4226109970670374 1.0316910631286216 0.7110794926488622
v -0.41402659181346674 1.0316910631286216 0.8091804926705818
v -0.4427018361701914 1.051563453017714 0.7094962765627917
v -0.44351507284828223 1.0482412946731727 0.7088214631490567
v -0.44316036323337027 1.052316129517649 0.7128789950854887
v -0.4448387453136854 1.0482412946731727 0.7130260698038668
v -0.4345759579797996 1.052316129517649 0.8109799951072084
v -0.4362543400601147 1.0482412946731727 0.8111270698255865
v -0.4335377834971304 1.051563453017714 0.8142329418195717
v -0.4342212483648876 1.0482412946731727 0.8150375270436404
v -0.44351507284828223 1.0357572465190759 0.7088214631490567
v -0.4448387453136854 1.0357572465190759 0.7130260698038668
v -0.4362543400601147 1.0357572465190759 0.8111270698255865
v -0.4342212483648876 1.0357572465190759 0.8150375270436404
v -0.4427018361701914 1.0324350881745346 0.7094962765627917
v -0.44316036323337027 1.0316910631286216 0.7128789950854887
v -0.4345759579797996 1.0316910631286216 0.8109799951072084
v -0.4335377834971304 1.0324350881745346 0.8142329418195717
v -0.4144764674226234 1.051563453017714 0.8125632111932788
v -0.4136718821985548 1.0482412946731727 0.8132380246070138
v -0.41402659181346674 1.052316129517649 0.8091804926705818
v -0.4123482097331516 1.0482412946731727 0.8090334179522036
v -0.4226109970670374 1.052316129517649 0.7110794926488622
v -0.42093261498672224 1.0482412946731727 0.710932417930484
v -0.4236405200956843 1.051563453017714 0.7078265459364987
v -0.4229657066819494 1.0482412946731727 0.7070219607124302
v -0.4136718821985548 1.0357572465190759 0.8132380246070138
v -0.4123482097331516 1.0357572465190759 0.8090334179522036
v -0.42093261498672224 1.0357572465190759 0.710932417930484
v -0.4229657066819494 1.0357572465190759 0.7070219607124302
v -0.4144764674226234 1.0324350881745346 0.8125632111932788
v -0.41402659181346674 1.0316910631286216 0.8091804926705818
v -0.4226109970670374 1.0316910631286216 0.7110794926488622
v -0.4236405200956843 1.0324350881745346 0.7078265459364987
f 149 150 151
f 150 152 151
f 151 152 153
f 152 154 153
f 153 154 155
f 154 156 155
f 150 157 152
f 157 158 152
f 152 158 154
f 158 159 154
f 154 159 156
f 159 160 156
f 157 161 158
f 161 162 158
f 158 162 159
f 162 163 159
f 159 163 160
f 163 164 160
f 165 166 167
f 166 168 167
f 167 168 169
f 168 170 169
f 169 170 171
f 170 172 171
f 166 173 168
f 173 174 168
f 168 174 170
f 174 175 170
f 170 175 172
f 175 176 172
f 173 177 174
f 177 178 174
f 174 178 175
f 178 179 175
f 175 179 176
f 179 180 176
f 165 181 182
f 181 183 182
f 182 183 184
f 183 185 184
f 184 185 155
f 185 186 155
f 181 187 183
f 187 188 183
f 183 188 185
f 188 189 185
f 185 189 186
f 189 190 186
f 187 191 188
f 191 192 188
f 188 192 189
f 192 193 189
f 189 193 190
f 193 194 190
f 195 196 197
f 196 198 197
f 197 198 199
f 198 200 199
f 199 200 201
f 200 202 201
f 196 203 198
f 203 204 198
f 198 204 200
f 204 205 200
f 200 205 202
f 205 206 202
f 203 177 204
f 177 207 204
f 204 207 205
f 207 208 205
f 205 208 206
f 208 164 206
f 209 210 211
f 210 212 211
f 211 212 213
f 212 214 213
f 213 214 215
f 214 216 215
f 210 217 212
f 217 218 212
f 212 218 214
f 218 219 214
f 214 219 216
f 219 220 216
f 217 221 218
f 221 222 218
f 218 222 219
f 222 223 219
f 219 223 220
f 223 224 220
f 225 226 227
f 226 228 227
f 227 228 229
f 228 230 229
f 229 230 231
f 230 232 231
f 226 233 228
f 233 234 228
f 228 234 230
f 234 235 230
f 230 235 232
f 235 236 232
f 233 237 234
f 237 238 234
f 234 238 235
f 238 239 235
f 235 239 236
f 239 240 236
o pieza_11
usemtl material_11
v -0.3438827654646256 1.051563453017714 0.8063860730213973
v -0.3445575788783605 1.0482412946731727 0.8071993096994882
v -0.34050004694192854 1.052316129517649 0.8068446000845761
v -0.3403529722235504 1.0482412946731727 0.8085229821648914
v -0.32806574464845967 1.052316129517649 0.8057545168777736
v -0.32791866993008156 1.0482412946731727 0.8074328989580887
v -0.32482144939011853 1.051563453017714 0.8047163423951044
v -0.3240082127120277 1.0482412946731727 0.8053998072628616
v -0.3445575788783605 1.0357572465190759 0.8071993096994882
v -0.3403529722235504 1.0357572465190759 0.8085229821648914
v -0.32791866993008156 1.0357572465190759 0.8074328989580887
v -0.3240082127120277 1.0357572465190759 0.8053998072628616
v -0.3438827654646256 1.0324350881745346 0.8063860730213973
v -0.34050004694192854 1.0316910631286216 0.8068446000845761
v -0.32806574464845967 1.0316910631286216 0.8057545168777736
v -0.32482144939011853 1.0324350881745346 0.8047163423951044
v -0.3339855020631795 1.051563453017714 0.6999883285923466
v -0.3333020371954223 1.0482412946731727 0.6991750919142558
v -0.3373595691318543 1.052316129517649 0.6995298015291677
v -0.33750664385023244 1.0482412946731727 0.6978514194488525
v -0.34979387142532314 1.052316129517649 0.7006198847359704
v -0.34994094614370125 1.0482412946731727 0.6989415026556551
v -0.3530468181376865 1.051563453017714 0.7016580592186394
v -0.35385140336175513 1.0482412946731727 0.7009745943508823
v -0.3333020371954223 1.0357572465190759 0.6991750919142558
v -0.33750664385023244 1.0357572465190759 0.6978514194488525
v -0.34994094614370125 1.0357572465190759 0.6989415026556551
v -0.35385140336175513 1.0357572465190759 0.7009745943508823
v -0.3339855020631795 1.0324350881745346 0.6999883285923466
v -0.3373595691318543 1.0316910631286216 0.6995298015291677
v -0.34979387142532314 1.0316910631286216 0.7006198847359704
v -0.3530468181376865 1.0324350881745346 0.7016580592186394
v -0.3373595691318543 1.052316129517649 0.6995298015291677
v -0.3329473275805103 1.052316129517649 0.7032326238506877
v -0.3370048595169423 1.0540031630519866 0.7035873334655997
v -0.32436292232693964 1.052316129517649 0.801340112462924
v -0.32842045426337163 1.0540031630519866 0.801694822077836
v -0.32806574464845967 1.052316129517649 0.8057545168777736
v -0.34979387142532314 1.052316129517649 0.7006198847359704
v -0.3494391618104112 1.0540031630519866 0.7046774166724024
v -0.3408547565568405 1.0540031630519866 0.8027849052846386
v -0.34050004694192854 1.052316129517649 0.8068446000845761
v -0.3530468181376865 1.051563453017714 0.7016580592186394
v -0.35349669374684317 1.052316129517649 0.7050321262873143
v -0.3449122884932725 1.052316129517649 0.8031396148995505
v -0.3438827654646256 1.051563453017714 0.8063860730213973
v -0.3530468181376865 1.0324350881745346 0.7016580592186394
v -0.34979387142532314 1.0316910631286216 0.7006198847359704
v -0.35349669374684317 1.0316910631286216 0.7050321262873143
v -0.3494391618104112 1.0300040295942843 0.7046774166724024
v -0.3449122884932725 1.0316910631286216 0.8031396148995505
v -0.3408547565568405 1.0300040295942843 0.8027849052846386
v -0.3438827654646256 1.0324350881745346 0.8063860730213973
v -0.34050004694192854 1.0316910631286216 0.8068446000845761
v -0.3373595691318543 1.0316910631286216 0.6995298015291677
v -0.3370048595169423 1.0300040295942843 0.7035873334655997
v -0.32842045426337163 1.0300040295942843 0.801694822077836
v -0.32806574464845967 1.0316910631286216 0.8057545168777736
v -0.3329473275805103 1.0316910631286216 0.7032326238506877
v -0.32436292232693964 1.0316910631286216 0.801340112462924
v -0.3530468181376865 1.051563453017714 0.7016580592186394
v -0.35385140336175513 1.0482412946731727 0.7009745943508823
v -0.35349669374684317 1.052316129517649 0.7050321262873143
v -0.3551750758271583 1.0482412946731727 0.7051792010056924
v -0.3449122884932725 1.052316129517649 0.8031396148995505
v -0.34659067057358767 1.0482412946731727 0.8032866896179287
v -0.3438827654646256 1.051563453017714 0.8063860730213973
v -0.3445575788783605 1.0482412946731727 0.8071993096994882
v -0.35385140336175513 1.0357572465190759 0.7009745943508823
v -0.3551750758271583 1.0357572465190759 0.7051792010056924
v -0.34659067057358767 1.0357572465190759 0.8032866896179287
v -0.3445575788783605 1.0357572465190759 0.8071993096994882
v -0.3530468181376865 1.0324350881745346 0.7016580592186394
v -0.35349669374684317 1.0316910631286216 0.7050321262873143
v -0.3449122884932725 1.0316910631286216 0.8031396148995505
v -0.3438827654646256 1.0324350881745346 0.8063860730213973
v -0.32482144939011853 1.051563453017714 0.8047163423951044
v -0.3240082127120277 1.0482412946731727 0.8053998072628616
v -0.32436292232693964 1.052316129517649 0.801340112462924
v -0.3226845402466245 1.0482412946731727 0.8011930377445459
v -0.3329473275805103 1.052316129517649 0.7032326238506877
v -0.3312689455001952 1.0482412946731727 0.7030855491323096
v -0.3339855020631795 1.051563453017714 0.6999883285923466
v -0.3333020371954223 1.0482412946731727 0.6991750919142558
v -0.3240082127120277 1.0357572465190759 0.8053998072628616
v -0.3226845402466245 1.0357572465190759 0.8011930377445459
v -0.3312689455001952 1.0357572465190759 0.7030855491323096
v -0.3333020371954223 1.0357572465190759 0.6991750919142558
v -0.32482144939011853 1.0324350881745346 0.8047163423951044
v -0.32436292232693964 1.0316910631286216 0.801340112462924
v -0.3329473275805103 1.0316910631286216 0.7032326238506877
v -0.3339855020631795 1.0324350881745346 0.6999883285923466
f 241 242 243
f 242 244 243
f 243 244 245
f 244 246 245
f 245 246 247
f 246 248 247
f 242 249 244
f 249 250 244
f 244 250 246
f 250 251 246
f 246 251 248
f 251 252 248
f 249 253 250
f 253 254 250
f 250 254 251
f 254 255 251
f 251 255 252
f 255 256 252
f 257 258 259
f 258 260 259
f 259 260 261
f 260 262 261
f 261 262 263
f 262 264 263
f 258 265 260
f 265 266 260
f 260 266 262
f 266 267 262
f 262 267 264
f 267 268 264
f 265 269 266
f 269 270 266
f 266 270 267
f 270 271 267
f 267 271 268
f 271 272 268
f 257 273 274
f 273 275 274
f 274 275 276
f 275 277 276
f 276 277 247
f 277 278 247
f 273 279 275
f 279 280 275
f 275 280 277
f 280 281 277
f 277 281 278
f 281 282 278
f 279 283 280
f 283 284 280
f 280 284 281
f 284 285 281
f 281 285 282
f 285 286 282
f 287 288 289
f 288 290 289
f 289 290 291
f 290 292 291
f 291 292 293
f 292 294 293
f 288 295 290
f 295 296 290
f 290 296 292
f 296 297 292
f 292 297 294
f 297 298 294
f 295 269 296
f 269 299 296
f 296 299 297
f 299 300 297
f 297 300 298
f 300 256 298
f 301 302 303
f 302 304 303
f 303 304 305
f 304 306 305
f 305 306 307
f 306 308 307
f 302 309 304
f 309 310 304
f 304 310 306
f 310 311 306
f 306 311 308
f 311 312 308
f 309 313 310
f 313 314 310
f 310 314 311
f 314 315 311
f 311 315 312
f 315 316 312
f 317 318 319
f 318 320 319
f 319 320 321
f 320 322 321
f 321 322 323
f 322 324 323
f 318 325 320
f 325 326 320
f 320 326 322
f 326 327 322
f 322 327 324
f 327 328 324
f 325 329 326
f 329 330 326
f 326 330 327
f 330 331 327
f 327 331 328
f 331 332 328
o pieza_12
usemtl material_12
v -0.42396062389450734 1.0279968922611238 0.8368932627673319
v -0.4086713417736983 1.0279968922611238 0.8395925164222717
v -0.4086713417736983 1.039996458989975 0.8395925164222717
v -0.42396062389450734 1.0279968922611238 0.8368932627673319
v -0.4086713417736983 1.039996458989975 0.8395925164222717
v -0.42396062389450734 1.039996458989975 0.8368932627673319
v -0.41128408088841567 1.0279968922611238 0.8097082313659386
v -0.4086713417736983 1.0279968922611238 0.8395925164222717
v -0.42396062389450734 1.0279968922611238 0.8368932627673319
v -0.41128408088841567 1.039996458989975 0.8097082313659386
v -0.42396062389450734 1.039996458989975 0.8368932627673319
v -0.4086713417736983 1.039996458989975 0.8395925164222717
v -0.4358563731750915 1.0279968922611238 0.8269181362796857
v -0.42396062389450734 1.0279968922611238 0.8368932627673319
v -0.42396062389450734 1.039996458989975 0.8368932627673319
v -0.4358563731750915 1.0279968922611238 0.8269181362796857
v -0.42396062389450734 1.039996458989975 0.8368932627673319
v -0.4358563731750915 1.039996458989975 0.8269181362796857
v -0.42396062389450734 1.0279968922611238 0.8368932627673319
v -0.4358563731750915 1.0279968922611238 0.8269181362796857
v -0.4358563731750915 1.039996458989975 0.8269181362796857
v -0.42396062389450734 1.039996458989975 0.8368932627673319
v -0.44117052880825436 1.0279968922611238 0.812320970480656
v -0.4358563731750915 1.0279968922611238 0.8269181362796857
v -0.4358563731750915 1.039996458989975 0.8269181362796857
v -0.44117052880825436 1.0279968922611238 0.812320970480656
v -0.4358563731750915 1.039996458989975 0.8269181362796857
v -0.44117052880825436 1.039996458989975 0.812320970480656
v -0.4358563731750915 1.0279968922611238 0.8269181362796857
v -0.44117052880825436 1.0279968922611238 0.812320970480656
v -0.44117052880825436 1.039996458989975 0.812320970480656
v -0.4358563731750915 1.039996458989975 0.8269181362796857
v -0.4384712751533145 1.0279968922611238 0.797031688359847
v -0.44117052880825436 1.0279968922611238 0.812320970480656
v -0.44117052880825436 1.039996458989975 0.812320970480656
v -0.4384712751533145 1.039996458989975 0.797031688359847
v -0.44117052880825436 1.0279968922611238 0.812320970480656
v -0.4384712751533145 1.0279968922611238 0.797031688359847
v -0.4384712751533145 1.039996458989975 0.797031688359847
v -0.44117052880825436 1.039996458989975 0.812320970480656
v -0.42848533434814046 1.0279968922611238 0.7851337762157572
v -0.4384712751533145 1.0279968922611238 0.797031688359847
v -0.4384712751533145 1.039996458989975 0.797031688359847
v -0.42848533434814046 1.039996458989975 0.7851337762157572
v -0.4384712751533145 1.0279968922611238 0.797031688359847
v -0.42848533434814046 1.0279968922611238 0.7851337762157572
v -0.42848533434814046 1.039996458989975 0.7851337762157572
v -0.4384712751533145 1.039996458989975 0.797031688359847
v -0.4138968200031331 1.0279968922611238 0.7798217834461
v -0.42848533434814046 1.0279968922611238 0.7851337762157572
v -0.42848533434814046 1.039996458989975 0.7851337762157572
v -0.4138968200031331 1.039996458989975 0.7798217834461
v -0.42848533434814046 1.0279968922611238 0.7851337762157572
v -0.4138968200031331 1.0279968922611238 0.7798217834461
v -0.4138968200031331 1.039996458989975 0.7798217834461
v -0.42848533434814046 1.039996458989975 0.7851337762157572
v -0.3985988864283018 1.0279968922611238 0.7825123856470175
v -0.4138968200031331 1.0279968922611238 0.7798217834461
v -0.4138968200031331 1.039996458989975 0.7798217834461
v -0.3985988864283018 1.039996458989975 0.7825123856470175
v -0.41128408088841567 1.0279968922611238 0.8097082313659386
v -0.4138968200031331 1.0279968922611238 0.7798217834461
v -0.3985988864283018 1.0279968922611238 0.7825123856470175
v -0.3985988864283018 1.039996458989975 0.7825123856470175
v -0.4138968200031331 1.039996458989975 0.7798217834461
v -0.3867031371477176 1.0279968922611238 0.7924983264521916
v -0.3985988864283018 1.0279968922611238 0.7825123856470175
v -0.3985988864283018 1.039996458989975 0.7825123856470175
v -0.3867031371477176 1.039996458989975 0.7924983264521916
v -0.3985988864283018 1.0279968922611238 0.7825123856470175
v -0.3867031371477176 1.0279968922611238 0.7924983264521916
v -0.3867031371477176 1.039996458989975 0.7924983264521916
v -0.3985988864283018 1.039996458989975 0.7825123856470175
v -0.3813997958320826 1.0279968922611238 0.8070954922512212
v -0.3867031371477176 1.0279968922611238 0.7924983264521916
v -0.3867031371477176 1.039996458989975 0.7924983264521916
v -0.3813997958320826 1.039996458989975 0.8070954922512212
v -0.3867031371477176 1.0279968922611238 0.7924983264521916
v -0.3813997958320826 1.0279968922611238 0.8070954922512212
v -0.3813997958320826 1.039996458989975 0.8070954922512212
v -0.3867031371477176 1.039996458989975 0.7924983264521916
v -0.3840903980330002 1.0279968922611238 0.8223847743720303
v -0.3813997958320826 1.0279968922611238 0.8070954922512212
v -0.3813997958320826 1.039996458989975 0.8070954922512212
v -0.3840903980330002 1.039996458989975 0.8223847743720303
v -0.3813997958320826 1.0279968922611238 0.8070954922512212
v -0.3840903980330002 1.0279968922611238 0.8223847743720303
v -0.3840903980330002 1.039996458989975 0.8223847743720303
v -0.3813997958320826 1.039996458989975 0.8070954922512212
v -0.3940741759746687 1.0279968922611238 0.8342805236526145
v -0.3840903980330002 1.0279968922611238 0.8223847743720303
v -0.3840903980330002 1.039996458989975 0.8223847743720303
v -0.3940741759746687 1.039996458989975 0.8342805236526145
v -0.3840903980330002 1.0279968922611238 0.8223847743720303
v -0.3940741759746687 1.0279968922611238 0.8342805236526145
v -0.3940741759746687 1.039996458989975 0.8342805236526145
v -0.3840903980330002 1.039996458989975 0.8223847743720303
v -0.4086713417736983 1.0279968922611238 0.8395925164222717
v -0.3940741759746687 1.0279968922611238 0.8342805236526145
v -0.3940741759746687 1.039996458989975 0.8342805236526145
v -0.4086713417736983 1.039996458989975 0.8395925164222717
v -0.3940741759746687 1.0279968922611238 0.8342805236526145
v -0.4086713417736983 1.0279968922611238 0.8395925164222717
v -0.4086713417736983 1.039996458989975 0.8395925164222717
v -0.3940741759746687 1.039996458989975 0.8342805236526145
f 333 334 335
f 336 337 338
f 339 340 341
f 342 343 344
f 345 346 347
f 348 349 350
f 339 351 352
f 342 353 354
f 355 356 357
f 358 359 360
f 339 361 362
f 342 363 364
f 365 366 367
f 365 367 368
f 339 369 370
f 342 371 372
f 373 374 375
f 373 375 376
f 339 377 378
f 342 379 380
f 381 382 383
f 381 383 384
f 339 385 386
f 342 387 388
f 389 390 391
f 389 391 392
f 393 394 395
f 342 396 397
f 398 399 400
f 398 400 401
f 339 402 403
f 342 404 405
f 406 407 408
f 406 408 409
f 339 410 411
f 342 412 413
f 414 415 416
f 414 416 417
f 339 418 419
f 342 420 421
f 422 423 424
f 422 424 425
f 339 426 427
f 342 428 429
f 430 431 432
f 430 432 433
f 339 434 435
f 342 436 437
