# Piezas extraídas de modelos de terceros; véase procedencia.json
mtllib soporte-rayos.mtl
o pieza_0
usemtl material_0
v 0.11493149279667672 0.35492417550652333 0.009927673363404915
v 0.11649159909407929 0.3480025771448078 0.011487779660807468
v 0.11649159909407929 0.3564842818039259 0.003006075001689368
v 0.12000733159526814 0.3480025771448078 0.003006075001689368
v 0.11649159909407929 0.3564842818039259 -0.043006074107619696
v 0.12000733159526814 0.3480025771448078 -0.043006074107619696
v 0.11493149279667672 0.35492417550652333 -0.049927672469335244
v 0.11649159909407929 0.3480025771448078 -0.051487778766737796
v 0.11649159909407929 0.011997430007749721 0.011487779660807468
v 0.12000733159526814 0.011997430007749721 0.003006075001689368
v 0.12000733159526814 0.011997430007749721 -0.043006074107619696
v 0.11649159909407929 0.011997430007749721 -0.051487778766737796
v 0.11493149279667672 0.0050758316460341735 0.009927673363404915
v 0.11649159909407929 0.0035157253486316487 0.003006075001689368
v 0.11649159909407929 0.0035157253486316487 -0.043006074107619696
v 0.11493149279667672 0.0050758316460341735 -0.049927672469335244
v -0.11493149279667672 0.35492417550652333 -0.049927672469335244
v -0.11649159909407929 0.3480025771448078 -0.051487778766737796
v -0.11649159909407929 0.3564842818039259 -0.043006074107619696
v -0.12000733159526814 0.3480025771448078 -0.043006074107619696
v -0.11649159909407929 0.3564842818039259 0.003006075001689368
v -0.12000733159526814 0.3480025771448078 0.003006075001689368
v -0.11493149279667672 0.35492417550652333 0.009927673363404915
v -0.11649159909407929 0.3480025771448078 0.011487779660807468
v -0.11649159909407929 0.011997430007749721 -0.051487778766737796
v -0.12000733159526814 0.011997430007749721 -0.043006074107619696
v -0.12000733159526814 0.011997430007749721 0.003006075001689368
v -0.11649159909407929 0.011997430007749721 0.011487779660807468
v -0.11493149279667672 0.0050758316460341735 -0.049927672469335244
v -0.11649159909407929 0.0035157253486316487 -0.043006074107619696
v -0.11649159909407929 0.0035157253486316487 0.003006075001689368
v -0.11493149279667672 0.0050758316460341735 0.009927673363404915
v -0.11649159909407929 0.3564842818039259 -0.043006074107619696
v -0.10800989443496119 0.3564842818039259 -0.051487778766737796
v -0.10800989443496119 0.36000001430511475 -0.043006074107619696
v 0.10800989443496119 0.3564842818039259 -0.051487778766737796
v 0.10800989443496119 0.36000001430511475 -0.043006074107619696
v 0.11649159909407929 0.3564842818039259 -0.043006074107619696
v -0.11649159909407929 0.3564842818039259 0.003006075001689368
v -0.10800989443496119 0.36000001430511475 0.003006075001689368
v 0.10800989443496119 0.36000001430511475 0.003006075001689368
v 0.11649159909407929 0.3564842818039259 0.003006075001689368
v -0.11493149279667672 0.35492417550652333 0.009927673363404915
v -0.10800989443496119 0.3564842818039259 0.011487779660807468
v 0.10800989443496119 0.3564842818039259 0.011487779660807468
v 0.11493149279667672 0.35492417550652333 0.009927673363404915
v -0.11493149279667672 0.0050758316460341735 0.009927673363404915
v -0.11649159909407929 0.0035157253486316487 0.003006075001689368
v -0.10800989443496119 0.0035157253486316487 0.011487779660807468
v -0.10800989443496119 -7.1525572131747595e-09 0.003006075001689368
v 0.10800989443496119 0.0035157253486316487 0.011487779660807468
v 0.10800989443496119 -7.1525572131747595e-09 0.003006075001689368
v 0.11493149279667672 0.0050758316460341735 0.009927673363404915
v 0.11649159909407929 0.0035157253486316487 0.003006075001689368
v -0.11649159909407929 0.0035157253486316487 -0.043006074107619696
v -0.10800989443496119 -7.1525572131747595e-09 -0.043006074107619696
v 0.10800989443496119 -7.1525572131747595e-09 -0.043006074107619696
v 0.11649159909407929 0.0035157253486316487 -0.043006074107619696
v -0.10800989443496119 0.0035157253486316487 -0.051487778766737796
v 0.10800989443496119 0.0035157253486316487 -0.051487778766737796
v -0.11493149279667672 0.35492417550652333 0.009927673363404915
v -0.11649159909407929 0.3480025771448078 0.011487779660807468
v -0.10800989443496119 0.3564842818039259 0.011487779660807468
v -0.10800989443496119 0.3480025771448078 0.015003512161996316
v 0.10800989443496119 0.3564842818039259 0.011487779660807468
v 0.10800989443496119 0.3480025771448078 0.015003512161996316
v 0.11493149279667672 0.35492417550652333 0.009927673363404915
v 0.11649159909407929 0.3480025771448078 0.011487779660807468
v -0.11649159909407929 0.011997430007749721 0.011487779660807468
v -0.10800989443496119 0.011997430007749721 0.015003512161996316
v 0.10800989443496119 0.011997430007749721 0.015003512161996316
v 0.11649159909407929 0.011997430007749721 0.011487779660807468
v -0.11493149279667672 0.0050758316460341735 0.009927673363404915
v -0.10800989443496119 0.0035157253486316487 0.011487779660807468
v 0.10800989443496119 0.0035157253486316487 0.011487779660807468
v 0.11493149279667672 0.0050758316460341735 0.009927673363404915
v 0.11493149279667672 0.35492417550652333 -0.049927672469335244
v 0.11649159909407929 0.3480025771448078 -0.051487778766737796
v 0.10800989443496119 0.3564842818039259 -0.051487778766737796
v 0.10800989443496119 0.3480025771448078 -0.055003511267926644
v -0.10800989443496119 0.3564842818039259 -0.051487778766737796
v -0.10800989443496119 0.3480025771448078 -0.055003511267926644
v -0.11493149279667672 0.35492417550652333 -0.049927672469335244
v -0.11649159909407929 0.3480025771448078 -0.051487778766737796
v 0.11649159909407929 0.011997430007749721 -0.051487778766737796
v 0.10800989443496119 0.011997430007749721 -0.055003511267926644
v -0.10800989443496119 0.011997430007749721 -0.055003511267926644
v -0.11649159909407929 0.011997430007749721 -0.051487778766737796
v 0.11493149279667672 0.0050758316460341735 -0.049927672469335244
v 0.10800989443496119 0.0035157253486316487 -0.051487778766737796
v -0.10800989443496119 0.0035157253486316487 -0.051487778766737796
v -0.11493149279667672 0.0050758316460341735 -0.049927672469335244
f 1 2 3
f 2 4 3
f 3 4 5
f 4 6 5
f 5 6 7
f 6 8 7
f 2 9 4
f 9 10 4
f 4 10 6
f 10 11 6
f 6 11 8
f 11 12 8
f 9 13 10
f 13 14 10
f 10 14 11
f 14 15 11
f 11 15 12
f 15 16 12
f 17 18 19
f 18 20 19
f 19 20 21
f 20 22 21
f 21 22 23
f 22 24 23
f 18 25 20
f 25 26 20
f 20 26 22
f 26 27 22
f 22 27 24
f 27 28 24
f 25 29 26
f 29 30 26
f 26 30 27
f 30 31 27
f 27 31 28
f 31 32 28
f 17 33 34
f 33 35 34
f 34 35 36
f 35 37 36
f 36 37 7
f 37 38 7
f 33 39 35
f 39 40 35
f 35 40 37
f 40 41 37
f 37 41 38
f 41 42 38
f 39 43 40
f 43 44 40
f 40 44 41
f 44 45 41
f 41 45 42
f 45 46 42
f 47 48 49
f 48 50 49
f 49 50 51
f 50 52 51
f 51 52 53
f 52 54 53
f 48 55 50
f 55 56 50
f 50 56 52
f 56 57 52
f 52 57 54
f 57 58 54
f 55 29 56
f 29 59 56
f 56 59 57
f 59 60 57
f 57 60 58
f 60 16 58
f 61 62 63
f 62 64 63
f 63 64 65
f 64 66 65
f 65 66 67
f 66 68 67
f 62 69 64
f 69 70 64
f 64 70 66
f 70 71 66
f 66 71 68
f 71 72 68
f 69 73 70
f 73 74 70
f 70 74 71
f 74 75 71
f 71 75 72
f 75 76 72
f 77 78 79
f 78 80 79
f 79 80 81
f 80 82 81
f 81 82 83
f 82 84 83
f 78 85 80
f 85 86 80
f 80 86 82
f 86 87 82
f 82 87 84
f 87 88 84
f 85 89 86
f 89 90 86
f 86 90 87
f 90 91 87
f 87 91 88
f 91 92 88
o pieza_1
usemtl material_1
v -0.07500000298023224 0.05499801724054544 0.034997864008483835
v 0.07500000298023224 0.05499801724054544 0.034997864008483835
v 0.07500000298023224 0.16500198901794227 0.034997864008483835
v -0.07500000298023224 0.16500198901794227 0.034997864008483835
v 0.07500000298023224 0.05499801724054544 0.015002135805251652
v -0.07500000298023224 0.05499801724054544 0.015002135805251652
v -0.07500000298023224 0.16500198901794227 0.015002135805251652
v 0.07500000298023224 0.16500198901794227 0.015002135805251652
v -0.07500000298023224 0.05499801724054544 0.015002135805251652
v -0.07500000298023224 0.05499801724054544 0.034997864008483835
v -0.07500000298023224 0.16500198901794227 0.034997864008483835
v -0.07500000298023224 0.16500198901794227 0.015002135805251652
v 0.07500000298023224 0.05499801724054544 0.034997864008483835
v 0.07500000298023224 0.05499801724054544 0.015002135805251652
v 0.07500000298023224 0.16500198901794227 0.015002135805251652
v 0.07500000298023224 0.05499801724054544 0.034997864008483835
v 0.07500000298023224 0.16500198901794227 0.015002135805251652
v 0.07500000298023224 0.16500198901794227 0.034997864008483835
v -0.07500000298023224 0.16500198901794227 0.034997864008483835
v 0.07500000298023224 0.16500198901794227 0.034997864008483835
v 0.07500000298023224 0.16500198901794227 0.015002135805251652
v -0.07500000298023224 0.16500198901794227 0.034997864008483835
v 0.07500000298023224 0.16500198901794227 0.015002135805251652
v -0.07500000298023224 0.16500198901794227 0.015002135805251652
v -0.07500000298023224 0.05499801724054544 0.015002135805251652
v 0.07500000298023224 0.05499801724054544 0.015002135805251652
v 0.07500000298023224 0.05499801724054544 0.034997864008483835
v -0.07500000298023224 0.05499801724054544 0.034997864008483835
f 93 94 95
f 93 95 96
f 97 98 99
f 97 99 100
f 101 102 103
f 101 103 104
f 105 106 107
f 108 109 110
f 111 112 113
f 114 115 116
f 117 118 119
f 117 119 120
o pieza_2
usemtl material_2
v -0.04500000178813934 0.11250235972081926 0.041999146281396366
v 0.04500000178813934 0.11250235972081926 0.041999146281396366
v 0.04500000178813934 0.14749763074243757 0.041999146281396366
v -0.04500000178813934 0.14749763074243757 0.041999146281396366
v 0.04500000178813934 0.11250235972081926 0.0340008550001035
v -0.04500000178813934 0.11250235972081926 0.0340008550001035
v -0.04500000178813934 0.14749763074243757 0.0340008550001035
v 0.04500000178813934 0.14749763074243757 0.0340008550001035
v -0.04500000178813934 0.11250235972081926 0.0340008550001035
v -0.04500000178813934 0.11250235972081926 0.041999146281396366
v -0.04500000178813934 0.14749763074243757 0.041999146281396366
v -0.04500000178813934 0.14749763074243757 0.0340008550001035
v 0.04500000178813934 0.11250235972081926 0.041999146281396366
v 0.04500000178813934 0.11250235972081926 0.0340008550001035
v 0.04500000178813934 0.14749763074243757 0.0340008550001035
v 0.04500000178813934 0.11250235972081926 0.041999146281396366
v 0.04500000178813934 0.14749763074243757 0.0340008550001035
v 0.04500000178813934 0.14749763074243757 0.041999146281396366
v -0.04500000178813934 0.14749763074243757 0.041999146281396366
v 0.04500000178813934 0.14749763074243757 0.041999146281396366
v 0.04500000178813934 0.14749763074243757 0.0340008550001035
v -0.04500000178813934 0.14749763074243757 0.041999146281396366
v 0.04500000178813934 0.14749763074243757 0.0340008550001035
v -0.04500000178813934 0.14749763074243757 0.0340008550001035
v -0.04500000178813934 0.11250235972081926 0.0340008550001035
v 0.04500000178813934 0.11250235972081926 0.0340008550001035
v 0.04500000178813934 0.11250235972081926 0.041999146281396366
v -0.04500000178813934 0.11250235972081926 0.041999146281396366
f 121 122 123
f 121 123 124
f 125 126 127
f 125 127 128
f 129 130 131
f 129 131 132
f 133 134 135
f 136 137 138
f 139 140 141
f 142 143 144
f 145 146 147
f 145 147 148
o pieza_3
usemtl material_3
v -0.12300000339746475 0.3175074291238525 0.018006990235521138
v 0.12300000339746475 0.3175074291238525 0.018006990235521138
v 0.12300000339746475 0.3424925672998688 0.018006990235521138
v -0.12300000339746475 0.3424925672998688 0.018006990235521138
v 0.12300000339746475 0.3175074291238525 -0.058006989341451466
v -0.12300000339746475 0.3175074291238525 -0.058006989341451466
v -0.12300000339746475 0.3424925672998688 -0.058006989341451466
v 0.12300000339746475 0.3424925672998688 -0.058006989341451466
v -0.12300000339746475 0.3175074291238525 -0.058006989341451466
v -0.12300000339746475 0.3175074291238525 0.018006990235521138
v -0.12300000339746475 0.3424925672998688 0.018006990235521138
v -0.12300000339746475 0.3424925672998688 -0.058006989341451466
v 0.12300000339746475 0.3175074291238525 0.018006990235521138
v 0.12300000339746475 0.3175074291238525 -0.058006989341451466
v 0.12300000339746475 0.3424925672998688 -0.058006989341451466
v 0.12300000339746475 0.3175074291238525 0.018006990235521138
v 0.12300000339746475 0.3424925672998688 -0.058006989341451466
v 0.12300000339746475 0.3424925672998688 0.018006990235521138
v -0.12300000339746475 0.3424925672998688 0.018006990235521138
v 0.12300000339746475 0.3424925672998688 0.018006990235521138
v 0.12300000339746475 0.3424925672998688 -0.058006989341451466
v -0.12300000339746475 0.3424925672998688 0.018006990235521138
v 0.12300000339746475 0.3424925672998688 -0.058006989341451466
v -0.12300000339746475 0.3424925672998688 -0.058006989341451466
v -0.12300000339746475 0.3175074291238525 -0.058006989341451466
v 0.12300000339746475 0.3175074291238525 -0.058006989341451466
v 0.12300000339746475 0.3175074291238525 0.018006990235521138
v -0.12300000339746475 0.3175074291238525 0.018006990235521138
f 149 150 151
f 149 151 152
f 153 154 155
f 153 155 156
f 157 158 159
f 157 159 160
f 161 162 163
f 164 165 166
f 167 168 169
f 170 171 172
f 173 174 175
f 173 175 176
