# Piezas extraídas de modelos de terceros; véase procedencia.json
mtllib paciente-0.mtl
o pieza_0
usemtl material_0
v 0.14304635517982908 0.8897593675050244 0.6317283104700736
v 0.15013885666126625 0.8415559346533911 0.6188122395650706
v 0.16620379977584682 0.8622791511567949 0.5414721426781178
v 0.14304635517982908 0.8897593675050244 0.6317283104700736
v 0.16620379977584682 0.8622791511567949 0.5414721426781178
v 0.15851313551886675 0.9145270501209796 0.555471925011794
v 0.12202520621075028 0.9203817537857708 0.6399335541443135
v 0.14304635517982908 0.8897593675050244 0.6317283104700736
v 0.15851313551886675 0.9145270501209796 0.555471925011794
v 0.12202520621075028 0.9203817537857708 0.6399335541443135
v 0.15851313551886675 0.9145270501209796 0.555471925011794
v 0.13569749822315927 0.9466557936783396 0.5640807959018153
v 0.08741721705434 0.9409548798786982 0.645446106666697
v 0.12202520621075028 0.9203817537857708 0.6399335541443135
v 0.13569749822315927 0.9466557936783396 0.5640807959018153
v 0.08741721705434 0.9409548798786982 0.645446106666697
v 0.13569749822315927 0.9466557936783396 0.5640807959018153
v 0.09809869518903454 0.96803368598754 0.569808984881945
v 0.03836786945982274 0.9514374757214336 0.6482549097573398
v 0.08741721705434 0.9409548798786982 0.645446106666697
v 0.09809869518903454 0.96803368598754 0.569808984881945
v 0.03836786945982274 0.9514374757214336 0.6482549097573398
v 0.09809869518903454 0.96803368598754 0.569808984881945
v 0.043922238089863896 0.9789289824540051 0.572728370771432
v -0.03836786945982274 0.9514374757214336 0.6482549097573398
v 0.03836786945982274 0.9514374757214336 0.6482549097573398
v 0.043922238089863896 0.9789289824540051 0.572728370771432
v -0.03836786945982274 0.9514374757214336 0.6482549097573398
v 0.043922238089863896 0.9789289824540051 0.572728370771432
v -0.043922238089863896 0.9789289824540051 0.572728370771432
v -0.08741721705434 0.9409548798786982 0.645446106666697
v -0.03836786945982274 0.9514374757214336 0.6482549097573398
v -0.043922238089863896 0.9789289824540051 0.572728370771432
v -0.08741721705434 0.9409548798786982 0.645446106666697
v -0.043922238089863896 0.9789289824540051 0.572728370771432
v -0.09809869518903454 0.96803368598754 0.569808984881945
v -0.12202520621075028 0.9203817537857708 0.6399335541443135
v -0.08741721705434 0.9409548798786982 0.645446106666697
v -0.09809869518903454 0.96803368598754 0.569808984881945
v -0.12202520621075028 0.9203817537857708 0.6399335541443135
v -0.09809869518903454 0.96803368598754 0.569808984881945
v -0.13569749822315927 0.9466557936783396 0.5640807959018153
v -0.14304635517982908 0.8897593675050244 0.6317283104700736
v -0.12202520621075028 0.9203817537857708 0.6399335541443135
v -0.13569749822315927 0.9466557936783396 0.5640807959018153
v -0.14304635517982908 0.8897593675050244 0.6317283104700736
v -0.13569749822315927 0.9466557936783396 0.5640807959018153
v -0.15851313551886675 0.9145270501209796 0.555471925011794
v -0.15013885666126625 0.8415559346533911 0.6188122395650706
v -0.14304635517982908 0.8897593675050244 0.6317283104700736
v -0.15851313551886675 0.9145270501209796 0.555471925011794
v -0.15013885666126625 0.8415559346533911 0.6188122395650706
v -0.15851313551886675 0.9145270501209796 0.555471925011794
v -0.16620379977584682 0.8622791511567949 0.5414721426781178
v -0.14304635517982908 0.7934350419265037 0.6059182852198364
v -0.15013885666126625 0.8415559346533911 0.6188122395650706
v -0.16620379977584682 0.8622791511567949 0.5414721426781178
v -0.14304635517982908 0.7934350419265037 0.6059182852198364
v -0.16620379977584682 0.8622791511567949 0.5414721426781178
v -0.15851313551886675 0.8101137923173561 0.5274944769042105
v -0.12202520621075028 0.7628126556457573 0.5977130415455966
v -0.14304635517982908 0.7934350419265037 0.6059182852198364
v -0.15851313551886675 0.8101137923173561 0.5274944769042105
v -0.12202520621075028 0.7628126556457573 0.5977130415455966
v -0.15851313551886675 0.8101137923173561 0.5274944769042105
v -0.13569749822315927 0.7779231436664367 0.5188690185943626
v -0.08741721705434 0.7421569894280838 0.5921783724634441
v -0.12202520621075028 0.7628126556457573 0.5977130415455966
v -0.13569749822315927 0.7779231436664367 0.5188690185943626
v -0.08741721705434 0.7421569894280838 0.5921783724634441
v -0.13569749822315927 0.7779231436664367 0.5188690185943626
v -0.09809869518903454 0.7565246163260497 0.5131353004742907
v -0.03836786945982274 0.7316743935853486 0.5893695693728014
v -0.08741721705434 0.7421569894280838 0.5921783724634441
v -0.09809869518903454 0.7565246163260497 0.5131353004742907
v -0.03836786945982274 0.7316743935853486 0.5893695693728014
v -0.09809869518903454 0.7565246163260497 0.5131353004742907
v -0.043922238089863896 0.7456293198595847 0.5102159145848036
v 0.03836786945982274 0.7316743935853486 0.5893695693728014
v -0.03836786945982274 0.7316743935853486 0.5893695693728014
v -0.043922238089863896 0.7456293198595847 0.5102159145848036
v 0.03836786945982274 0.7316743935853486 0.5893695693728014
v -0.043922238089863896 0.7456293198595847 0.5102159145848036
v 0.043922238089863896 0.7456293198595847 0.5102159145848036
v 0.08741721705434 0.7421569894280838 0.5921783724634441
v 0.03836786945982274 0.7316743935853486 0.5893695693728014
v 0.043922238089863896 0.7456293198595847 0.5102159145848036
v 0.08741721705434 0.7421569894280838 0.5921783724634441
v 0.043922238089863896 0.7456293198595847 0.5102159145848036
v 0.09809869518903454 0.7565246163260497 0.5131353004742907
v 0.12202520621075028 0.7628126556457573 0.5977130415455966
v 0.08741721705434 0.7421569894280838 0.5921783724634441
v 0.09809869518903454 0.7565246163260497 0.5131353004742907
v 0.12202520621075028 0.7628126556457573 0.5977130415455966
v 0.09809869518903454 0.7565246163260497 0.5131353004742907
v 0.13569749822315927 0.7779231436664367 0.5188690185943626
v 0.14304635517982908 0.7934350419265037 0.6059182852198364
v 0.12202520621075028 0.7628126556457573 0.5977130415455966
v 0.13569749822315927 0.7779231436664367 0.5188690185943626
v 0.14304635517982908 0.7934350419265037 0.6059182852198364
v 0.13569749822315927 0.7779231436664367 0.5188690185943626
v 0.15851313551886675 0.8101137923173561 0.5274944769042105
v 0.15013885666126625 0.8415559346533911 0.6188122395650706
v 0.14304635517982908 0.7934350419265037 0.6059182852198364
v 0.15851313551886675 0.8101137923173561 0.5274944769042105
v 0.15013885666126625 0.8415559346533911 0.6188122395650706
v 0.15851313551886675 0.8101137923173561 0.5274944769042105
v 0.16620379977584682 0.8622791511567949 0.5414721426781178
v 0.15851313551886675 0.9145270501209796 0.555471925011794
v 0.16620379977584682 0.8622791511567949 0.5414721426781178
v 0.1521897004631276 0.8830078968001408 0.4641114107599787
v 0.15851313551886675 0.9145270501209796 0.555471925011794
v 0.1521897004631276 0.8830078968001408 0.4641114107599787
v 0.1453535544569231 0.9336875333941524 0.47769097845804687
v 0.13569749822315927 0.9466557936783396 0.5640807959018153
v 0.15851313551886675 0.9145270501209796 0.555471925011794
v 0.1453535544569231 0.9336875333941524 0.47769097845804687
v 0.13569749822315927 0.9466557936783396 0.5640807959018153
v 0.1453535544569231 0.9336875333941524 0.47769097845804687
v 0.12493056826338718 0.9639178540823558 0.4857911684733848
v 0.09809869518903454 0.96803368598754 0.569808984881945
v 0.13569749822315927 0.9466557936783396 0.5640807959018153
v 0.12493056826338718 0.9639178540823558 0.4857911684733848
v 0.09809869518903454 0.96803368598754 0.569808984881945
v 0.12493056826338718 0.9639178540823558 0.4857911684733848
v 0.0910916455326749 0.983892564270875 0.4911433759374443
v 0.043922238089863896 0.9789289824540051 0.572728370771432
v 0.09809869518903454 0.96803368598754 0.569808984881945
v 0.0910916455326749 0.983892564270875 0.4911433759374443
v 0.043922238089863896 0.9789289824540051 0.572728370771432
v 0.0910916455326749 0.983892564270875 0.4911433759374443
v 0.04170049063784743 0.9939624594898806 0.49384159622924284
v -0.043922238089863896 0.9789289824540051 0.572728370771432
v 0.043922238089863896 0.9789289824540051 0.572728370771432
v 0.04170049063784743 0.9939624594898806 0.49384159622924284
v -0.043922238089863896 0.9789289824540051 0.572728370771432
v 0.04170049063784743 0.9939624594898806 0.49384159622924284
v -0.04170049063784743 0.9939624594898806 0.49384159622924284
v -0.09809869518903454 0.96803368598754 0.569808984881945
v -0.043922238089863896 0.9789289824540051 0.572728370771432
v -0.04170049063784743 0.9939624594898806 0.49384159622924284
v -0.09809869518903454 0.96803368598754 0.569808984881945
v -0.04170049063784743 0.9939624594898806 0.49384159622924284
v -0.0910916455326749 0.983892564270875 0.4911433759374443
v -0.13569749822315927 0.9466557936783396 0.5640807959018153
v -0.09809869518903454 0.96803368598754 0.569808984881945
v -0.0910916455326749 0.983892564270875 0.4911433759374443
v -0.13569749822315927 0.9466557936783396 0.5640807959018153
v -0.0910916455326749 0.983892564270875 0.4911433759374443
v -0.12493056826338718 0.9639178540823558 0.4857911684733848
v -0.15851313551886675 0.9145270501209796 0.555471925011794
v -0.13569749822315927 0.9466557936783396 0.5640807959018153
v -0.12493056826338718 0.9639178540823558 0.4857911684733848
v -0.15851313551886675 0.9145270501209796 0.555471925011794
v -0.12493056826338718 0.9639178540823558 0.4857911684733848
v -0.1453535544569231 0.9336875333941524 0.47769097845804687
v -0.16620379977584682 0.8622791511567949 0.5414721426781178
v -0.15851313551886675 0.9145270501209796 0.555471925011794
v -0.1453535544569231 0.9336875333941524 0.47769097845804687
v -0.16620379977584682 0.8622791511567949 0.5414721426781178
v -0.1453535544569231 0.9336875333941524 0.47769097845804687
v -0.1521897004631276 0.8830078968001408 0.4641114107599787
v -0.15851313551886675 0.8101137923173561 0.5274944769042105
v -0.16620379977584682 0.8622791511567949 0.5414721426781178
v -0.1521897004631276 0.8830078968001408 0.4641114107599787
v -0.15851313551886675 0.8101137923173561 0.5274944769042105
v -0.1521897004631276 0.8830078968001408 0.4641114107599787
v -0.1453535544569231 0.832328260206129 0.45053184306191046
v -0.13569749822315927 0.7779231436664367 0.5188690185943626
v -0.15851313551886675 0.8101137923173561 0.5274944769042105
v -0.1453535544569231 0.832328260206129 0.45053184306191046
v -0.13569749822315927 0.7779231436664367 0.5188690185943626
v -0.1453535544569231 0.832328260206129 0.45053184306191046
v -0.12493056826338718 0.8021185745491124 0.44243718218651473
v -0.09809869518903454 0.7565246163260497 0.5131353004742907
v -0.13569749822315927 0.7779231436664367 0.5188690185943626
v -0.12493056826338718 0.8021185745491124 0.44243718218651473
v -0.09809869518903454 0.7565246163260497 0.5131353004742907
v -0.12493056826338718 0.8021185745491124 0.44243718218651473
v -0.0910916455326749 0.7821232293294066 0.4370794455825131
v -0.043922238089863896 0.7456293198595847 0.5102159145848036
v -0.09809869518903454 0.7565246163260497 0.5131353004742907
v -0.0910916455326749 0.7821232293294066 0.4370794455825131
v -0.043922238089863896 0.7456293198595847 0.5102159145848036
v -0.0910916455326749 0.7821232293294066 0.4370794455825131
v -0.04170049063784743 0.772053334110401 0.43438122529071455
v 0.043922238089863896 0.7456293198595847 0.5102159145848036
v -0.043922238089863896 0.7456293198595847 0.5102159145848036
v -0.04170049063784743 0.772053334110401 0.43438122529071455
v 0.043922238089863896 0.7456293198595847 0.5102159145848036
v -0.04170049063784743 0.772053334110401 0.43438122529071455
v 0.04170049063784743 0.772053334110401 0.43438122529071455
v 0.09809869518903454 0.7565246163260497 0.5131353004742907
v 0.043922238089863896 0.7456293198595847 0.5102159145848036
v 0.04170049063784743 0.772053334110401 0.43438122529071455
v 0.09809869518903454 0.7565246163260497 0.5131353004742907
v 0.04170049063784743 0.772053334110401 0.43438122529071455
v 0.0910916455326749 0.7821232293294066 0.4370794455825131
v 0.13569749822315927 0.7779231436664367 0.5188690185943626
v 0.09809869518903454 0.7565246163260497 0.5131353004742907
v 0.0910916455326749 0.7821232293294066 0.4370794455825131
v 0.13569749822315927 0.7779231436664367 0.5188690185943626
v 0.0910916455326749 0.7821232293294066 0.4370794455825131
v 0.12493056826338718 0.8021185745491124 0.44243718218651473
v 0.15851313551886675 0.8101137923173561 0.5274944769042105
v 0.13569749822315927 0.7779231436664367 0.5188690185943626
v 0.12493056826338718 0.8021185745491124 0.44243718218651473
v 0.15851313551886675 0.8101137923173561 0.5274944769042105
v 0.12493056826338718 0.8021185745491124 0.44243718218651473
v 0.1453535544569231 0.832328260206129 0.45053184306191046
v 0.16620379977584682 0.8622791511567949 0.5414721426781178
v 0.15851313551886675 0.8101137923173561 0.5274944769042105
v 0.1453535544569231 0.832328260206129 0.45053184306191046
v 0.16620379977584682 0.8622791511567949 0.5414721426781178
v 0.1453535544569231 0.832328260206129 0.45053184306191046
v 0.1521897004631276 0.8830078968001408 0.4641114107599787
v 0.1453535544569231 0.9336875333941524 0.47769097845804687
v 0.1521897004631276 0.8830078968001408 0.4641114107599787
v 0.12817773761633433 0.9037532298633134 0.38668877374828003
v 0.1453535544569231 0.9336875333941524 0.47769097845804687
v 0.12817773761633433 0.9037532298633134 0.38668877374828003
v 0.12253791716121559 0.948407437350871 0.39865383258322284
v 0.12493056826338718 0.9639178540823558 0.4857911684733848
v 0.1453535544569231 0.9336875333941524 0.47769097845804687
v 0.12253791716121559 0.948407437350871 0.39865383258322284
v 0.12493056826338718 0.9639178540823558 0.4857911684733848
v 0.12253791716121559 0.948407437350871 0.39865383258322284
v 0.10578935944601459 0.9740774161468606 0.40553208267133234
v 0.0910916455326749 0.983892564270875 0.4911433759374443
v 0.12493056826338718 0.9639178540823558 0.4857911684733848
v 0.10578935944601459 0.9740774161468606 0.40553208267133234
v 0.0910916455326749 0.983892564270875 0.4911433759374443
v 0.10578935944601459 0.9740774161468606 0.40553208267133234
v 0.07776116082057616 0.9909362366262203 0.41004939000411805
v 0.04170049063784743 0.9939624594898806 0.49384159622924284
v 0.0910916455326749 0.983892564270875 0.4911433759374443
v 0.07776116082057616 0.9909362366262203 0.41004939000411805
v 0.04170049063784743 0.9939624594898806 0.49384159622924284
v 0.07776116082057616 0.9909362366262203 0.41004939000411805
v 0.03631702565796139 0.999437869475053 0.4123273956603086
v -0.04170049063784743 0.9939624594898806 0.49384159622924284
v 0.04170049063784743 0.9939624594898806 0.49384159622924284
v 0.03631702565796139 0.999437869475053 0.4123273956603086
v -0.04170049063784743 0.9939624594898806 0.49384159622924284
v 0.03631702565796139 0.999437869475053 0.4123273956603086
v -0.03631702565796139 0.999437869475053 0.4123273956603086
v -0.0910916455326749 0.983892564270875 0.4911433759374443
v -0.04170049063784743 0.9939624594898806 0.49384159622924284
v -0.03631702565796139 0.999437869475053 0.4123273956603086
v -0.0910916455326749 0.983892564270875 0.4911433759374443
v -0.03631702565796139 0.999437869475053 0.4123273956603086
v -0.07776116082057616 0.9909362366262203 0.41004939000411805
v -0.12493056826338718 0.9639178540823558 0.4857911684733848
v -0.0910916455326749 0.983892564270875 0.4911433759374443
v -0.07776116082057616 0.9909362366262203 0.41004939000411805
v -0.12493056826338718 0.9639178540823558 0.4857911684733848
v -0.07776116082057616 0.9909362366262203 0.41004939000411805
v -0.10578935944601459 0.9740774161468606 0.40553208267133234
v -0.1453535544569231 0.9336875333941524 0.47769097845804687
v -0.12493056826338718 0.9639178540823558 0.4857911684733848
v -0.10578935944601459 0.9740774161468606 0.40553208267133234
v -0.1453535544569231 0.9336875333941524 0.47769097845804687
v -0.10578935944601459 0.9740774161468606 0.40553208267133234
v -0.12253791716121559 0.948407437350871 0.39865383258322284
v -0.1521897004631276 0.8830078968001408 0.4641114107599787
v -0.1453535544569231 0.9336875333941524 0.47769097845804687
v -0.12253791716121559 0.948407437350871 0.39865383258322284
v -0.1521897004631276 0.8830078968001408 0.4641114107599787
v -0.12253791716121559 0.948407437350871 0.39865383258322284
v -0.12817773761633433 0.9037532298633134 0.38668877374828003
v -0.1453535544569231 0.832328260206129 0.45053184306191046
v -0.1521897004631276 0.8830078968001408 0.4641114107599787
v -0.12817773761633433 0.9037532298633134 0.38668877374828003
v -0.1453535544569231 0.832328260206129 0.45053184306191046
v -0.12817773761633433 0.9037532298633134 0.38668877374828003
v -0.12253791716121559 0.8590990223757559 0.37472371491333717
v -0.12493056826338718 0.8021185745491124 0.44243718218651473
v -0.1453535544569231 0.832328260206129 0.45053184306191046
v -0.12253791716121559 0.8590990223757559 0.37472371491333717
v -0.12493056826338718 0.8021185745491124 0.44243718218651473
v -0.12253791716121559 0.8590990223757559 0.37472371491333717
v -0.10578935944601459 0.8334290435797662 0.36784546482522773
v -0.0910916455326749 0.7821232293294066 0.4370794455825131
v -0.12493056826338718 0.8021185745491124 0.44243718218651473
v -0.10578935944601459 0.8334290435797662 0.36784546482522773
v -0.0910916455326749 0.7821232293294066 0.4370794455825131
v -0.10578935944601459 0.8334290435797662 0.36784546482522773
v -0.07776116082057616 0.8165908581315929 0.3633336866323842
v -0.04170049063784743 0.772053334110401 0.43438122529071455
v -0.0910916455326749 0.7821232293294066 0.4370794455825131
v -0.07776116082057616 0.8165908581315929 0.3633336866323842
v -0.04170049063784743 0.772053334110401 0.43438122529071455
v -0.07776116082057616 0.8165908581315929 0.3633336866323842
v -0.03631702565796139 0.8080685902515738 0.3610501518362514
v 0.04170049063784743 0.772053334110401 0.43438122529071455
v -0.04170049063784743 0.772053334110401 0.43438122529071455
v -0.03631702565796139 0.8080685902515738 0.3610501518362514
v 0.04170049063784743 0.772053334110401 0.43438122529071455
v -0.03631702565796139 0.8080685902515738 0.3610501518362514
v 0.03631702565796139 0.8080685902515738 0.3610501518362514
v 0.0910916455326749 0.7821232293294066 0.4370794455825131
v 0.04170049063784743 0.772053334110401 0.43438122529071455
v 0.03631702565796139 0.8080685902515738 0.3610501518362514
v 0.0910916455326749 0.7821232293294066 0.4370794455825131
v 0.03631702565796139 0.8080685902515738 0.3610501518362514
v 0.07776116082057616 0.8165908581315929 0.3633336866323842
v 0.12493056826338718 0.8021185745491124 0.44243718218651473
v 0.0910916455326749 0.7821232293294066 0.4370794455825131
v 0.07776116082057616 0.8165908581315929 0.3633336866323842
v 0.12493056826338718 0.8021185745491124 0.44243718218651473
v 0.07776116082057616 0.8165908581315929 0.3633336866323842
v 0.10578935944601459 0.8334290435797662 0.36784546482522773
v 0.1453535544569231 0.832328260206129 0.45053184306191046
v 0.12493056826338718 0.8021185745491124 0.44243718218651473
v 0.10578935944601459 0.8334290435797662 0.36784546482522773
v 0.1453535544569231 0.832328260206129 0.45053184306191046
v 0.10578935944601459 0.8334290435797662 0.36784546482522773
v 0.12253791716121559 0.8590990223757559 0.37472371491333717
v 0.1521897004631276 0.8830078968001408 0.4641114107599787
v 0.1453535544569231 0.832328260206129 0.45053184306191046
v 0.12253791716121559 0.8590990223757559 0.37472371491333717
v 0.1521897004631276 0.8830078968001408 0.4641114107599787
v 0.12253791716121559 0.8590990223757559 0.37472371491333717
v 0.12817773761633433 0.9037532298633134 0.38668877374828003
v 0.12253791716121559 0.948407437350871 0.39865383258322284
v 0.12817773761633433 0.9037532298633134 0.38668877374828003
v 0.13219397339497943 0.9244764463667172 0.3093486768613273
v 0.12253791716121559 0.948407437350871 0.39865383258322284
v 0.13219397339497943 0.9244764463667172 0.3093486768613273
v 0.12638324928970562 0.9700385952264802 0.32155701785372737
v 0.10578935944601459 0.9740774161468606 0.40553208267133234
v 0.12253791716121559 0.948407437350871 0.39865383258322284
v 0.12638324928970562 0.9700385952264802 0.32155701785372737
v 0.10578935944601459 0.9740774161468606 0.40553208267133234
v 0.12638324928970562 0.9700385952264802 0.32155701785372737
v 0.10912198062403929 0.9962038147709456 0.32856796730044985
v 0.07776116082057616 0.9909362366262203 0.41004939000411805
v 0.10578935944601459 0.9740774161468606 0.40553208267133234
v 0.10912198062403929 0.9962038147709456 0.32856796730044985
v 0.07776116082057616 0.9909362366262203 0.41004939000411805
v 0.10912198062403929 0.9962038147709456 0.32856796730044985
v 0.08023926374782528 1.013475335874035 0.3331958574320798
v 0.03631702565796139 0.999437869475053 0.4123273956603086
v 0.07776116082057616 0.9909362366262203 0.41004939000411805
v 0.08023926374782528 1.013475335874035 0.3331958574320798
v 0.03631702565796139 0.999437869475053 0.4123273956603086
v 0.08023926374782528 1.013475335874035 0.3331958574320798
v 0.03742789938396962 1.0220595088476134 0.33549597964803923
v -0.03631702565796139 0.999437869475053 0.4123273956603086
v 0.03631702565796139 0.999437869475053 0.4123273956603086
v 0.03742789938396962 1.0220595088476134 0.33549597964803923
v -0.03631702565796139 0.999437869475053 0.4123273956603086
v 0.03742789938396962 1.0220595088476134 0.33549597964803923
v -0.03742789938396962 1.0220595088476134 0.33549597964803923
v -0.07776116082057616 0.9909362366262203 0.41004939000411805
v -0.03631702565796139 0.999437869475053 0.4123273956603086
v -0.03742789938396962 1.0220595088476134 0.33549597964803923
v -0.07776116082057616 0.9909362366262203 0.41004939000411805
v -0.03742789938396962 1.0220595088476134 0.33549597964803923
v -0.08023926374782528 1.013475335874035 0.3331958574320798
v -0.10578935944601459 0.9740774161468606 0.40553208267133234
v -0.07776116082057616 0.9909362366262203 0.41004939000411805
v -0.08023926374782528 1.013475335874035 0.3331958574320798
v -0.10578935944601459 0.9740774161468606 0.40553208267133234
v -0.08023926374782528 1.013475335874035 0.3331958574320798
v -0.10912198062403929 0.9962038147709456 0.32856796730044985
v -0.12253791716121559 0.948407437350871 0.39865383258322284
v -0.10578935944601459 0.9740774161468606 0.40553208267133234
v -0.10912198062403929 0.9962038147709456 0.32856796730044985
v -0.12253791716121559 0.948407437350871 0.39865383258322284
v -0.10912198062403929 0.9962038147709456 0.32856796730044985
v -0.12638324928970562 0.9700385952264802 0.32155701785372737
v -0.12817773761633433 0.9037532298633134 0.38668877374828003
v -0.12253791716121559 0.948407437350871 0.39865383258322284
v -0.12638324928970562 0.9700385952264802 0.32155701785372737
v -0.12817773761633433 0.9037532298633134 0.38668877374828003
v -0.12638324928970562 0.9700385952264802 0.32155701785372737
v -0.13219397339497943 0.9244764463667172 0.3093486768613273
v -0.12253791716121559 0.8590990223757559 0.37472371491333717
v -0.12817773761633433 0.9037532298633134 0.38668877374828003
v -0.13219397339497943 0.9244764463667172 0.3093486768613273
v -0.12253791716121559 0.8590990223757559 0.37472371491333717
v -0.13219397339497943 0.9244764463667172 0.3093486768613273
v -0.12638324928970562 0.8789142975069543 0.2971403358689272
v -0.10578935944601459 0.8334290435797662 0.36784546482522773
v -0.12253791716121559 0.8590990223757559 0.37472371491333717
v -0.12638324928970562 0.8789142975069543 0.2971403358689272
v -0.10578935944601459 0.8334290435797662 0.36784546482522773
v -0.12638324928970562 0.8789142975069543 0.2971403358689272
v -0.10912198062403929 0.8527490779624889 0.29012938642220465
v -0.07776116082057616 0.8165908581315929 0.3633336866323842
v -0.10578935944601459 0.8334290435797662 0.36784546482522773
v -0.10912198062403929 0.8527490779624889 0.29012938642220465
v -0.07776116082057616 0.8165908581315929 0.3633336866323842
v -0.10912198062403929 0.8527490779624889 0.29012938642220465
v -0.08023926374782528 0.8355807320153318 0.2855291419902858
v -0.03631702565796139 0.8080685902515738 0.3610501518362514
v -0.07776116082057616 0.8165908581315929 0.3633336866323842
v -0.08023926374782528 0.8355807320153318 0.2855291419902858
v -0.03631702565796139 0.8080685902515738 0.3610501518362514
v -0.08023926374782528 0.8355807320153318 0.2855291419902858
v -0.03742789938396962 0.8268933838858209 0.2832013740746153
v 0.03631702565796139 0.8080685902515738 0.3610501518362514
v -0.03631702565796139 0.8080685902515738 0.3610501518362514
v -0.03742789938396962 0.8268933838858209 0.2832013740746153
v 0.03631702565796139 0.8080685902515738 0.3610501518362514
v -0.03742789938396962 0.8268933838858209 0.2832013740746153
v 0.03742789938396962 0.8268933838858209 0.2832013740746153
v 0.07776116082057616 0.8165908581315929 0.3633336866323842
v 0.03631702565796139 0.8080685902515738 0.3610501518362514
v 0.03742789938396962 0.8268933838858209 0.2832013740746153
v 0.07776116082057616 0.8165908581315929 0.3633336866323842
v 0.03742789938396962 0.8268933838858209 0.2832013740746153
v 0.08023926374782528 0.8355807320153318 0.2855291419902858
v 0.10578935944601459 0.8334290435797662 0.36784546482522773
v 0.07776116082057616 0.8165908581315929 0.3633336866323842
v 0.08023926374782528 0.8355807320153318 0.2855291419902858
v 0.10578935944601459 0.8334290435797662 0.36784546482522773
v 0.08023926374782528 0.8355807320153318 0.2855291419902858
v 0.10912198062403929 0.8527490779624889 0.29012938642220465
v 0.12253791716121559 0.8590990223757559 0.37472371491333717
v 0.10578935944601459 0.8334290435797662 0.36784546482522773
v 0.10912198062403929 0.8527490779624889 0.29012938642220465
v 0.12253791716121559 0.8590990223757559 0.37472371491333717
v 0.10912198062403929 0.8527490779624889 0.29012938642220465
v 0.12638324928970562 0.8789142975069543 0.2971403358689272
v 0.12817773761633433 0.9037532298633134 0.38668877374828003
v 0.12253791716121559 0.8590990223757559 0.37472371491333717
v 0.12638324928970562 0.8789142975069543 0.2971403358689272
v 0.12817773761633433 0.9037532298633134 0.38668877374828003
v 0.12638324928970562 0.8789142975069543 0.2971403358689272
v 0.13219397339497943 0.9244764463667172 0.3093486768613273
v 0.12638324928970562 0.9700385952264802 0.32155701785372737
v 0.13219397339497943 0.9244764463667172 0.3093486768613273
v 0.15013885666126625 0.9509774716023373 0.23355673915819342
v 0.12638324928970562 0.9700385952264802 0.32155701785372737
v 0.15013885666126625 0.9509774716023373 0.23355673915819342
v 0.14338816248013933 1.0025650495685543 0.24737958901371887
v 0.10912198062403929 0.9962038147709456 0.32856796730044985
v 0.12638324928970562 0.9700385952264802 0.32155701785372737
v 0.14338816248013933 1.0025650495685543 0.24737958901371887
v 0.10912198062403929 0.9962038147709456 0.32856796730044985
v 0.14338816248013933 1.0025650495685543 0.24737958901371887
v 0.1233069835869136 1.0332906110052333 0.2556124783876698
v 0.08023926374782528 1.013475335874035 0.3331958574320798
v 0.10912198062403929 0.9962038147709456 0.32856796730044985
v 0.1233069835869136 1.0332906110052333 0.2556124783876698
v 0.08023926374782528 1.013475335874035 0.3331958574320798
v 0.1233069835869136 1.0332906110052333 0.2556124783876698
v 0.08989531998158913 1.0535954816927364 0.26105315209080465
v 0.03742789938396962 1.0220595088476134 0.33549597964803923
v 0.08023926374782528 1.013475335874035 0.3331958574320798
v 0.08989531998158913 1.0535954816927364 0.26105315209080465
v 0.03742789938396962 1.0220595088476134 0.33549597964803923
v 0.08989531998158913 1.0535954816927364 0.26105315209080465
v 0.041102327862304534 1.0638304571612338 0.2637956055021409
v -0.03742789938396962 1.0220595088476134 0.33549597964803923
v 0.03742789938396962 1.0220595088476134 0.33549597964803923
v 0.041102327862304534 1.0638304571612338 0.2637956055021409
v -0.03742789938396962 1.0220595088476134 0.33549597964803923
v 0.041102327862304534 1.0638304571612338 0.2637956055021409
v -0.041102327862304534 1.0638304571612338 0.2637956055021409
v -0.08023926374782528 1.013475335874035 0.3331958574320798
v -0.03742789938396962 1.0220595088476134 0.33549597964803923
v -0.041102327862304534 1.0638304571612338 0.2637956055021409
v -0.08023926374782528 1.013475335874035 0.3331958574320798
v -0.041102327862304534 1.0638304571612338 0.2637956055021409
v -0.08989531998158913 1.0535954816927364 0.26105315209080465
v -0.10912198062403929 0.9962038147709456 0.32856796730044985
v -0.08023926374782528 1.013475335874035 0.3331958574320798
v -0.08989531998158913 1.0535954816927364 0.26105315209080465
v -0.10912198062403929 0.9962038147709456 0.32856796730044985
v -0.08989531998158913 1.0535954816927364 0.26105315209080465
v -0.1233069835869136 1.0332906110052333 0.2556124783876698
v -0.12638324928970562 0.9700385952264802 0.32155701785372737
v -0.10912198062403929 0.9962038147709456 0.32856796730044985
v -0.1233069835869136 1.0332906110052333 0.2556124783876698
v -0.12638324928970562 0.9700385952264802 0.32155701785372737
v -0.1233069835869136 1.0332906110052333 0.2556124783876698
v -0.14338816248013933 1.0025650495685543 0.24737958901371887
v -0.13219397339497943 0.9244764463667172 0.3093486768613273
v -0.12638324928970562 0.9700385952264802 0.32155701785372737
v -0.14338816248013933 1.0025650495685543 0.24737958901371887
v -0.13219397339497943 0.9244764463667172 0.3093486768613273
v -0.14338816248013933 1.0025650495685543 0.24737958901371887
v -0.15013885666126625 0.9509774716023373 0.23355673915819342
v -0.12638324928970562 0.8789142975069543 0.2971403358689272
v -0.13219397339497943 0.9244764463667172 0.3093486768613273
v -0.15013885666126625 0.9509774716023373 0.23355673915819342
v -0.12638324928970562 0.8789142975069543 0.2971403358689272
v -0.15013885666126625 0.9509774716023373 0.23355673915819342
v -0.14338816248013933 0.8993898936361201 0.21973388930266796
v -0.10912198062403929 0.8527490779624889 0.29012938642220465
v -0.12638324928970562 0.8789142975069543 0.2971403358689272
v -0.14338816248013933 0.8993898936361201 0.21973388930266796
v -0.10912198062403929 0.8527490779624889 0.29012938642220465
v -0.14338816248013933 0.8993898936361201 0.21973388930266796
v -0.1233069835869136 0.8687675073553737 0.21152864562842805
v -0.08023926374782528 0.8355807320153318 0.2855291419902858
v -0.10912198062403929 0.8527490779624889 0.29012938642220465
v -0.1233069835869136 0.8687675073553737 0.21152864562842805
v -0.08023926374782528 0.8355807320153318 0.2855291419902858
v -0.1233069835869136 0.8687675073553737 0.21152864562842805
v -0.08989531998158913 0.8483594615119381 0.20606032622558215
v -0.03742789938396962 0.8268933838858209 0.2832013740746153
v -0.08023926374782528 0.8355807320153318 0.2855291419902858
v -0.08989531998158913 0.8483594615119381 0.20606032622558215
v -0.03742789938396962 0.8268933838858209 0.2832013740746153
v -0.08989531998158913 0.8483594615119381 0.20606032622558215
v -0.041102327862304534 0.8381244860434406 0.2033178728142459
v 0.03742789938396962 0.8268933838858209 0.2832013740746153
v -0.03742789938396962 0.8268933838858209 0.2832013740746153
v -0.041102327862304534 0.8381244860434406 0.2033178728142459
v 0.03742789938396962 0.8268933838858209 0.2832013740746153
v -0.041102327862304534 0.8381244860434406 0.2033178728142459
v 0.041102327862304534 0.8381244860434406 0.2033178728142459
v 0.08023926374782528 0.8355807320153318 0.2855291419902858
v 0.03742789938396962 0.8268933838858209 0.2832013740746153
v 0.041102327862304534 0.8381244860434406 0.2033178728142459
v 0.08023926374782528 0.8355807320153318 0.2855291419902858
v 0.041102327862304534 0.8381244860434406 0.2033178728142459
v 0.08989531998158913 0.8483594615119381 0.20606032622558215
v 0.10912198062403929 0.8527490779624889 0.29012938642220465
v 0.08023926374782528 0.8355807320153318 0.2855291419902858
v 0.08989531998158913 0.8483594615119381 0.20606032622558215
v 0.10912198062403929 0.8527490779624889 0.29012938642220465
v 0.08989531998158913 0.8483594615119381 0.20606032622558215
v 0.1233069835869136 0.8687675073553737 0.21152864562842805
v 0.12638324928970562 0.8789142975069543 0.2971403358689272
v 0.10912198062403929 0.8527490779624889 0.29012938642220465
v 0.1233069835869136 0.8687675073553737 0.21152864562842805
v 0.12638324928970562 0.8789142975069543 0.2971403358689272
v 0.1233069835869136 0.8687675073553737 0.21152864562842805
v 0.14338816248013933 0.8993898936361201 0.21973388930266796
v 0.13219397339497943 0.9244764463667172 0.3093486768613273
v 0.12638324928970562 0.8789142975069543 0.2971403358689272
v 0.14338816248013933 0.8993898936361201 0.21973388930266796
v 0.13219397339497943 0.9244764463667172 0.3093486768613273
v 0.14338816248013933 0.8993898936361201 0.21973388930266796
v 0.15013885666126625 0.9509774716023373 0.23355673915819342
v 0.14338816248013933 1.0025650495685543 0.24737958901371887
v 0.15013885666126625 0.9509774716023373 0.23355673915819342
v 0.15620593624177276 0.968506376113735 0.17606182889624455
v 0.14338816248013933 1.0025650495685543 0.24737958901371887
v 0.15620593624177276 0.968506376113735 0.17606182889624455
v 0.14894253111018046 1.0224050775728386 0.19050394242529756
v 0.1233069835869136 1.0332906110052333 0.2556124783876698
v 0.14338816248013933 1.0025650495685543 0.24737958901371887
v 0.14894253111018046 1.0224050775728386 0.19050394242529756
v 0.1233069835869136 1.0332906110052333 0.2556124783876698
v 0.14894253111018046 1.0224050775728386 0.19050394242529756
v 0.1275795748407914 1.055606842751896 0.19940032859231374
v 0.08989531998158913 1.0535954816927364 0.26105315209080465
v 0.1233069835869136 1.0332906110052333 0.2556124783876698
v 0.1275795748407914 1.055606842751896 0.19940032859231374
v 0.08989531998158913 1.0535954816927364 0.26105315209080465
v 0.1275795748407914 1.055606842751896 0.19940032859231374
v 0.09220251925868314 1.07772759618381 0.20532756661036305
v 0.041102327862304534 1.0638304571612338 0.2637956055021409
v 0.08989531998158913 1.0535954816927364 0.26105315209080465
v 0.09220251925868314 1.07772759618381 0.20532756661036305
v 0.041102327862304534 1.0638304571612338 0.2637956055021409
v 0.09220251925868314 1.07772759618381 0.20532756661036305
v 0.04127323151245965 1.0889530531492588 0.2083354187389254
v -0.041102327862304534 1.0638304571612338 0.2637956055021409
v 0.041102327862304534 1.0638304571612338 0.2637956055021409
v 0.04127323151245965 1.0889530531492588 0.2083354187389254
v -0.041102327862304534 1.0638304571612338 0.2637956055021409
v 0.04127323151245965 1.0889530531492588 0.2083354187389254
v -0.04127323151245965 1.0889530531492588 0.2083354187389254
v -0.08989531998158913 1.0535954816927364 0.26105315209080465
v -0.041102327862304534 1.0638304571612338 0.2637956055021409
v -0.04127323151245965 1.0889530531492588 0.2083354187389254
v -0.08989531998158913 1.0535954816927364 0.26105315209080465
v -0.04127323151245965 1.0889530531492588 0.2083354187389254
v -0.09220251925868314 1.07772759618381 0.20532756661036305
v -0.1233069835869136 1.0332906110052333 0.2556124783876698
v -0.08989531998158913 1.0535954816927364 0.26105315209080465
v -0.09220251925868314 1.07772759618381 0.20532756661036305
v -0.1233069835869136 1.0332906110052333 0.2556124783876698
v -0.09220251925868314 1.07772759618381 0.20532756661036305
v -0.1275795748407914 1.055606842751896 0.19940032859231374
v -0.14338816248013933 1.0025650495685543 0.24737958901371887
v -0.1233069835869136 1.0332906110052333 0.2556124783876698
v -0.1275795748407914 1.055606842751896 0.19940032859231374
v -0.14338816248013933 1.0025650495685543 0.24737958901371887
v -0.1275795748407914 1.055606842751896 0.19940032859231374
v -0.14894253111018046 1.0224050775728386 0.19050394242529756
v -0.15013885666126625 0.9509774716023373 0.23355673915819342
v -0.14338816248013933 1.0025650495685543 0.24737958901371887
v -0.14894253111018046 1.0224050775728386 0.19050394242529756
v -0.15013885666126625 0.9509774716023373 0.23355673915819342
v -0.14894253111018046 1.0224050775728386 0.19050394242529756
v -0.15620593624177276 0.968506376113735 0.17606182889624455
v -0.14338816248013933 0.8993898936361201 0.21973388930266796
v -0.15013885666126625 0.9509774716023373 0.23355673915819342
v -0.15620593624177276 0.968506376113735 0.17606182889624455
v -0.14338816248013933 0.8993898936361201 0.21973388930266796
v -0.15620593624177276 0.968506376113735 0.17606182889624455
v -0.14894253111018046 0.9146076746546313 0.16161971536719155
v -0.1233069835869136 0.8687675073553737 0.21152864562842805
v -0.14338816248013933 0.8993898936361201 0.21973388930266796
v -0.14894253111018046 0.9146076746546313 0.16161971536719155
v -0.1233069835869136 0.8687675073553737 0.21152864562842805
v -0.14894253111018046 0.9146076746546313 0.16161971536719155
v -0.1275795748407914 0.8814265445067605 0.15272885834011757
v -0.08989531998158913 0.8483594615119381 0.20606032622558215
v -0.1233069835869136 0.8687675073553737 0.21152864562842805
v -0.1275795748407914 0.8814265445067605 0.15272885834011757
v -0.08989531998158913 0.8483594615119381 0.20606032622558215
v -0.1275795748407914 0.8814265445067605 0.15272885834011757
v -0.09220251925868314 0.8592026159189141 0.1467739746223572
v -0.041102327862304534 0.8381244860434406 0.2033178728142459
v -0.08989531998158913 0.8483594615119381 0.20606032622558215
v -0.09220251925868314 0.8592026159189141 0.1467739746223572
v -0.041102327862304534 0.8381244860434406 0.2033178728142459
v -0.09220251925868314 0.8592026159189141 0.1467739746223572
v -0.04127323151245965 0.8480596990782113 0.14378823905356372
v 0.041102327862304534 0.8381244860434406 0.2033178728142459
v -0.041102327862304534 0.8381244860434406 0.2033178728142459
v -0.04127323151245965 0.8480596990782113 0.14378823905356372
v 0.041102327862304534 0.8381244860434406 0.2033178728142459
v -0.04127323151245965 0.8480596990782113 0.14378823905356372
v 0.04127323151245965 0.8480596990782113 0.14378823905356372
v 0.08989531998158913 0.8483594615119381 0.20606032622558215
v 0.041102327862304534 0.8381244860434406 0.2033178728142459
v 0.04127323151245965 0.8480596990782113 0.14378823905356372
v 0.08989531998158913 0.8483594615119381 0.20606032622558215
v 0.04127323151245965 0.8480596990782113 0.14378823905356372
v 0.09220251925868314 0.8592026159189141 0.1467739746223572
v 0.1233069835869136 0.8687675073553737 0.21152864562842805
v 0.08989531998158913 0.8483594615119381 0.20606032622558215
v 0.09220251925868314 0.8592026159189141 0.1467739746223572
v 0.1233069835869136 0.8687675073553737 0.21152864562842805
v 0.09220251925868314 0.8592026159189141 0.1467739746223572
v 0.1275795748407914 0.8814265445067605 0.15272885834011757
v 0.14338816248013933 0.8993898936361201 0.21973388930266796
v 0.1233069835869136 0.8687675073553737 0.21152864562842805
v 0.1275795748407914 0.8814265445067605 0.15272885834011757
v 0.14338816248013933 0.8993898936361201 0.21973388930266796
v 0.1275795748407914 0.8814265445067605 0.15272885834011757
v 0.14894253111018046 0.9146076746546313 0.16161971536719155
v 0.15013885666126625 0.9509774716023373 0.23355673915819342
v 0.14338816248013933 0.8993898936361201 0.21973388930266796
v 0.14894253111018046 0.9146076746546313 0.16161971536719155
v 0.15013885666126625 0.9509774716023373 0.23355673915819342
v 0.14894253111018046 0.9146076746546313 0.16161971536719155
v 0.15620593624177276 0.968506376113735 0.17606182889624455
v 0.14894253111018046 1.0224050775728386 0.19050394242529756
v 0.15620593624177276 0.968506376113735 0.17606182889624455
v 0.16022217202041789 0.9763010750450533 0.11593652955038596
v 0.14894253111018046 1.0224050775728386 0.19050394242529756
v 0.16022217202041789 0.9763010750450533 0.11593652955038596
v 0.15295876688882562 1.0252473690194002 0.12905164949330852
v 0.1275795748407914 1.055606842751896 0.19940032859231374
v 0.14894253111018046 1.0224050775728386 0.19050394242529756
v 0.15295876688882562 1.0252473690194002 0.12905164949330852
v 0.1275795748407914 1.055606842751896 0.19940032859231374
v 0.15295876688882562 1.0252473690194002 0.12905164949330852
v 0.131510358794359 1.0543840330547196 0.13685879509170928
v 0.09220251925868314 1.07772759618381 0.20532756661036305
v 0.1275795748407914 1.055606842751896 0.19940032859231374
v 0.131510358794359 1.0543840330547196 0.13685879509170928
v 0.09220251925868314 1.07772759618381 0.20532756661036305
v 0.131510358794359 1.0543840330547196 0.13685879509170928
v 0.09587694773701806 1.0737190572764577 0.14203959921756024
v 0.04127323151245965 1.0889530531492588 0.2083354187389254
v 0.09220251925868314 1.07772759618381 0.20532756661036305
v 0.09587694773701806 1.0737190572764577 0.14203959921756024
v 0.04127323151245965 1.0889530531492588 0.2083354187389254
v 0.09587694773701806 1.0737190572764577 0.14203959921756024
v 0.04383678626478633 1.0834587919964795 0.14464935327028344
v -0.04127323151245965 1.0889530531492588 0.2083354187389254
v 0.04127323151245965 1.0889530531492588 0.2083354187389254
v 0.04383678626478633 1.0834587919964795 0.14464935327028344
v -0.04127323151245965 1.0889530531492588 0.2083354187389254
v 0.04383678626478633 1.0834587919964795 0.14464935327028344
v -0.04383678626478633 1.0834587919964795 0.14464935327028344
v -0.09220251925868314 1.07772759618381 0.20532756661036305
v -0.04127323151245965 1.0889530531492588 0.2083354187389254
v -0.04383678626478633 1.0834587919964795 0.14464935327028344
v -0.09220251925868314 1.07772759618381 0.20532756661036305
v -0.04383678626478633 1.0834587919964795 0.14464935327028344
v -0.09587694773701806 1.0737190572764577 0.14203959921756024
v -0.1275795748407914 1.055606842751896 0.19940032859231374
v -0.09220251925868314 1.07772759618381 0.20532756661036305
v -0.09587694773701806 1.0737190572764577 0.14203959921756024
v -0.1275795748407914 1.055606842751896 0.19940032859231374
v -0.09587694773701806 1.0737190572764577 0.14203959921756024
v -0.131510358794359 1.0543840330547196 0.13685879509170928
v -0.14894253111018046 1.0224050775728386 0.19050394242529756
v -0.1275795748407914 1.055606842751896 0.19940032859231374
v -0.131510358794359 1.0543840330547196 0.13685879509170928
v -0.14894253111018046 1.0224050775728386 0.19050394242529756
v -0.131510358794359 1.0543840330547196 0.13685879509170928
v -0.15295876688882562 1.0252473690194002 0.12905164949330852
v -0.15620593624177276 0.968506376113735 0.17606182889624455
v -0.14894253111018046 1.0224050775728386 0.19050394242529756
v -0.15295876688882562 1.0252473690194002 0.12905164949330852
v -0.15620593624177276 0.968506376113735 0.17606182889624455
v -0.15295876688882562 1.0252473690194002 0.12905164949330852
v -0.16022217202041789 0.9763010750450533 0.11593652955038596
v -0.14894253111018046 0.9146076746546313 0.16161971536719155
v -0.15620593624177276 0.968506376113735 0.17606182889624455
v -0.16022217202041789 0.9763010750450533 0.11593652955038596
v -0.14894253111018046 0.9146076746546313 0.16161971536719155
v -0.16022217202041789 0.9763010750450533 0.11593652955038596
v -0.15295876688882562 0.9273547810707065 0.1028214096074634
v -0.1275795748407914 0.8814265445067605 0.15272885834011757
v -0.14894253111018046 0.9146076746546313 0.16161971536719155
v -0.15295876688882562 0.9273547810707065 0.1028214096074634
v -0.1275795748407914 0.8814265445067605 0.15272885834011757
v -0.15295876688882562 0.9273547810707065 0.1028214096074634
v -0.131510358794359 0.8982181170353869 0.09501426400906261
v -0.09220251925868314 0.8592026159189141 0.1467739746223572
v -0.1275795748407914 0.8814265445067605 0.15272885834011757
v -0.131510358794359 0.8982181170353869 0.09501426400906261
v -0.09220251925868314 0.8592026159189141 0.1467739746223572
v -0.131510358794359 0.8982181170353869 0.09501426400906261
v -0.09587694773701806 0.8788830928136488 0.08983345988321167
v -0.04127323151245965 0.8480596990782113 0.14378823905356372
v -0.09220251925868314 0.8592026159189141 0.1467739746223572
v -0.09587694773701806 0.8788830928136488 0.08983345988321167
v -0.04127323151245965 0.8480596990782113 0.14378823905356372
v -0.09587694773701806 0.8788830928136488 0.08983345988321167
v -0.04383678626478633 0.8692258982183729 0.0872458223902573
v 0.04127323151245965 0.8480596990782113 0.14378823905356372
v -0.04127323151245965 0.8480596990782113 0.14378823905356372
v -0.04383678626478633 0.8692258982183729 0.0872458223902573
v 0.04127323151245965 0.8480596990782113 0.14378823905356372
v -0.04383678626478633 0.8692258982183729 0.0872458223902573
v 0.04383678626478633 0.8692258982183729 0.0872458223902573
v 0.09220251925868314 0.8592026159189141 0.1467739746223572
v 0.04127323151245965 0.8480596990782113 0.14378823905356372
v 0.04383678626478633 0.8692258982183729 0.0872458223902573
v 0.09220251925868314 0.8592026159189141 0.1467739746223572
v 0.04383678626478633 0.8692258982183729 0.0872458223902573
v 0.09587694773701806 0.8788830928136488 0.08983345988321167
v 0.1275795748407914 0.8814265445067605 0.15272885834011757
v 0.09220251925868314 0.8592026159189141 0.1467739746223572
v 0.09587694773701806 0.8788830928136488 0.08983345988321167
v 0.1275795748407914 0.8814265445067605 0.15272885834011757
v 0.09587694773701806 0.8788830928136488 0.08983345988321167
v 0.131510358794359 0.8982181170353869 0.09501426400906261
v 0.14894253111018046 0.9146076746546313 0.16161971536719155
v 0.1275795748407914 0.8814265445067605 0.15272885834011757
v 0.131510358794359 0.8982181170353869 0.09501426400906261
v 0.14894253111018046 0.9146076746546313 0.16161971536719155
v 0.131510358794359 0.8982181170353869 0.09501426400906261
v 0.15295876688882562 0.9273547810707065 0.1028214096074634
v 0.15620593624177276 0.968506376113735 0.17606182889624455
v 0.14894253111018046 0.9146076746546313 0.16161971536719155
v 0.15295876688882562 0.9273547810707065 0.1028214096074634
v 0.15620593624177276 0.968506376113735 0.17606182889624455
v 0.15295876688882562 0.9273547810707065 0.1028214096074634
v 0.16022217202041789 0.9763010750450533 0.11593652955038596
v 0.15295876688882562 1.0252473690194002 0.12905164949330852
v 0.16022217202041789 0.9763010750450533 0.11593652955038596
v 0.1742362713331371 0.9918490165625482 0.05791082185398498
v 0.15295876688882562 1.0252473690194002 0.12905164949330852
v 0.1742362713331371 0.9918490165625482 0.05791082185398498
v 0.1668019625513897 1.039309588291468 0.0706278437210684
v 0.131510358794359 1.0543840330547196 0.13685879509170928
v 0.15295876688882562 1.0252473690194002 0.12905164949330852
v 0.1668019625513897 1.039309588291468 0.0706278437210684
v 0.131510358794359 1.0543840330547196 0.13685879509170928
v 0.1668019625513897 1.039309588291468 0.0706278437210684
v 0.14458448803122512 1.0656398880854252 0.0776830262873286
v 0.09587694773701806 1.0737190572764577 0.14203959921756024
v 0.131510358794359 1.0543840330547196 0.13685879509170928
v 0.14458448803122512 1.0656398880854252 0.0776830262873286
v 0.09587694773701806 1.0737190572764577 0.14203959921756024
v 0.14458448803122512 1.0656398880854252 0.0776830262873286
v 0.10724204047233304 1.0828288690637686 0.08228879985918967
v 0.04383678626478633 1.0834587919964795 0.14464935327028344
v 0.09587694773701806 1.0737190572764577 0.14203959921756024
v 0.10724204047233304 1.0828288690637686 0.08228879985918967
v 0.04383678626478633 1.0834587919964795 0.14464935327028344
v 0.10724204047233304 1.0828288690637686 0.08228879985918967
v 0.05118564322145617 1.0914130420373473 0.08458892207514912
v -0.04383678626478633 1.0834587919964795 0.14464935327028344
v 0.04383678626478633 1.0834587919964795 0.14464935327028344
v 0.05118564322145617 1.0914130420373473 0.08458892207514912
v -0.04383678626478633 1.0834587919964795 0.14464935327028344
v 0.05118564322145617 1.0914130420373473 0.08458892207514912
v -0.05118564322145617 1.0914130420373473 0.08458892207514912
v -0.09587694773701806 1.0737190572764577 0.14203959921756024
v -0.04383678626478633 1.0834587919964795 0.14464935327028344
v -0.05118564322145617 1.0914130420373473 0.08458892207514912
v -0.09587694773701806 1.0737190572764577 0.14203959921756024
v -0.05118564322145617 1.0914130420373473 0.08458892207514912
v -0.10724204047233304 1.0828288690637686 0.08228879985918967
v -0.131510358794359 1.0543840330547196 0.13685879509170928
v -0.09587694773701806 1.0737190572764577 0.14203959921756024
v -0.10724204047233304 1.0828288690637686 0.08228879985918967
v -0.131510358794359 1.0543840330547196 0.13685879509170928
v -0.10724204047233304 1.0828288690637686 0.08228879985918967
v -0.14458448803122512 1.0656398880854252 0.0776830262873286
v -0.15295876688882562 1.0252473690194002 0.12905164949330852
v -0.131510358794359 1.0543840330547196 0.13685879509170928
v -0.14458448803122512 1.0656398880854252 0.0776830262873286
v -0.15295876688882562 1.0252473690194002 0.12905164949330852
v -0.14458448803122512 1.0656398880854252 0.0776830262873286
v -0.1668019625513897 1.039309588291468 0.0706278437210684
v -0.16022217202041789 0.9763010750450533 0.11593652955038596
v -0.15295876688882562 1.0252473690194002 0.12905164949330852
v -0.1668019625513897 1.039309588291468 0.0706278437210684
v -0.16022217202041789 0.9763010750450533 0.11593652955038596
v -0.1668019625513897 1.039309588291468 0.0706278437210684
v -0.1742362713331371 0.9918490165625482 0.05791082185398498
v -0.15295876688882562 0.9273547810707065 0.1028214096074634
v -0.16022217202041789 0.9763010750450533 0.11593652955038596
v -0.1742362713331371 0.9918490165625482 0.05791082185398498
v -0.15295876688882562 0.9273547810707065 0.1028214096074634
v -0.1742362713331371 0.9918490165625482 0.05791082185398498
v -0.1668019625513897 0.9443884448336285 0.04519379998690157
v -0.131510358794359 0.8982181170353869 0.09501426400906261
v -0.15295876688882562 0.9273547810707065 0.1028214096074634
v -0.1668019625513897 0.9443884448336285 0.04519379998690157
v -0.131510358794359 0.8982181170353869 0.09501426400906261
v -0.1668019625513897 0.9443884448336285 0.04519379998690157
v -0.14458448803122512 0.9180581450396712 0.03813861742064136
v -0.09587694773701806 0.8788830928136488 0.08983345988321167
v -0.131510358794359 0.8982181170353869 0.09501426400906261
v -0.14458448803122512 0.9180581450396712 0.03813861742064136
v -0.09587694773701806 0.8788830928136488 0.08983345988321167
v -0.14458448803122512 0.9180581450396712 0.03813861742064136
v -0.10724204047233304 0.9008691640613277 0.03353284384878028
v -0.04383678626478633 0.8692258982183729 0.0872458223902573
v -0.09587694773701806 0.8788830928136488 0.08983345988321167
v -0.10724204047233304 0.9008691640613277 0.03353284384878028
v -0.04383678626478633 0.8692258982183729 0.0872458223902573
v -0.10724204047233304 0.9008691640613277 0.03353284384878028
v -0.05118564322145617 0.8923675312124951 0.03125483819258969
v 0.04383678626478633 0.8692258982183729 0.0872458223902573
v -0.04383678626478633 0.8692258982183729 0.0872458223902573
v -0.05118564322145617 0.8923675312124951 0.03125483819258969
v 0.04383678626478633 0.8692258982183729 0.0872458223902573
v -0.05118564322145617 0.8923675312124951 0.03125483819258969
v 0.05118564322145617 0.8923675312124951 0.03125483819258969
v 0.09587694773701806 0.8788830928136488 0.08983345988321167
v 0.04383678626478633 0.8692258982183729 0.0872458223902573
v 0.05118564322145617 0.8923675312124951 0.03125483819258969
v 0.09587694773701806 0.8788830928136488 0.08983345988321167
v 0.05118564322145617 0.8923675312124951 0.03125483819258969
v 0.10724204047233304 0.9008691640613277 0.03353284384878028
v 0.131510358794359 0.8982181170353869 0.09501426400906261
v 0.09587694773701806 0.8788830928136488 0.08983345988321167
v 0.10724204047233304 0.9008691640613277 0.03353284384878028
v 0.131510358794359 0.8982181170353869 0.09501426400906261
v 0.10724204047233304 0.9008691640613277 0.03353284384878028
v 0.14458448803122512 0.9180581450396712 0.03813861742064136
v 0.15295876688882562 0.9273547810707065 0.1028214096074634
v 0.131510358794359 0.8982181170353869 0.09501426400906261
v 0.14458448803122512 0.9180581450396712 0.03813861742064136
v 0.15295876688882562 0.9273547810707065 0.1028214096074634
v 0.14458448803122512 0.9180581450396712 0.03813861742064136
v 0.1668019625513897 0.9443884448336285 0.04519379998690157
v 0.16022217202041789 0.9763010750450533 0.11593652955038596
v 0.15295876688882562 0.9273547810707065 0.1028214096074634
v 0.1668019625513897 0.9443884448336285 0.04519379998690157
v 0.16022217202041789 0.9763010750450533 0.11593652955038596
v 0.1668019625513897 0.9443884448336285 0.04519379998690157
v 0.1742362713331371 0.9918490165625482 0.05791082185398498
v 0.1668019625513897 1.039309588291468 0.0706278437210684
v 0.1742362713331371 0.9918490165625482 0.05791082185398498
v 0.15013885666126625 1.0022216830941346 0.01919950334813557
v 0.1668019625513897 1.039309588291468 0.0706278437210684
v 0.15013885666126625 1.0022216830941346 0.01919950334813557
v 0.14415722890583732 1.0479489122033894 0.031452077460073335
v 0.14458448803122512 1.0656398880854252 0.0776830262873286
v 0.1668019625513897 1.039309588291468 0.0706278437210684
v 0.14415722890583732 1.0479489122033894 0.031452077460073335
v 0.14458448803122512 1.0656398880854252 0.0776830262873286
v 0.14415722890583732 1.0479489122033894 0.031452077460073335
v 0.12595599016431785 1.0715553878807305 0.03777741355396178
v 0.10724204047233304 1.0828288690637686 0.08228879985918967
v 0.14458448803122512 1.0656398880854252 0.0776830262873286
v 0.12595599016431785 1.0715553878807305 0.03777741355396178
v 0.10724204047233304 1.0828288690637686 0.08228879985918967
v 0.12595599016431785 1.0715553878807305 0.03777741355396178
v 0.0950224294862425 1.0866808657404252 0.04183027313160184
v 0.05118564322145617 1.0914130420373473 0.08458892207514912
v 0.10724204047233304 1.0828288690637686 0.08228879985918967
v 0.0950224294862425 1.0866808657404252 0.04183027313160184
v 0.05118564322145617 1.0914130420373473 0.08458892207514912
v 0.0950224294862425 1.0866808657404252 0.04183027313160184
v 0.047254859267888576 1.0941920170923065 0.043842880070566345
v -0.05118564322145617 1.0914130420373473 0.08458892207514912
v 0.05118564322145617 1.0914130420373473 0.08458892207514912
v 0.047254859267888576 1.0941920170923065 0.043842880070566345
v -0.05118564322145617 1.0914130420373473 0.08458892207514912
v 0.047254859267888576 1.0941920170923065 0.043842880070566345
v -0.047254859267888576 1.0941920170923065 0.043842880070566345
v -0.10724204047233304 1.0828288690637686 0.08228879985918967
v -0.05118564322145617 1.0914130420373473 0.08458892207514912
v -0.047254859267888576 1.0941920170923065 0.043842880070566345
v -0.10724204047233304 1.0828288690637686 0.08228879985918967
v -0.047254859267888576 1.0941920170923065 0.043842880070566345
v -0.0950224294862425 1.0866808657404252 0.04183027313160184
v -0.14458448803122512 1.0656398880854252 0.0776830262873286
v -0.10724204047233304 1.0828288690637686 0.08228879985918967
v -0.0950224294862425 1.0866808657404252 0.04183027313160184
v -0.14458448803122512 1.0656398880854252 0.0776830262873286
v -0.0950224294862425 1.0866808657404252 0.04183027313160184
v -0.12595599016431785 1.0715553878807305 0.03777741355396178
v -0.1668019625513897 1.039309588291468 0.0706278437210684
v -0.14458448803122512 1.0656398880854252 0.0776830262873286
v -0.12595599016431785 1.0715553878807305 0.03777741355396178
v -0.1668019625513897 1.039309588291468 0.0706278437210684
v -0.12595599016431785 1.0715553878807305 0.03777741355396178
v -0.14415722890583732 1.0479489122033894 0.031452077460073335
v -0.1742362713331371 0.9918490165625482 0.05791082185398498
v -0.1668019625513897 1.039309588291468 0.0706278437210684
v -0.14415722890583732 1.0479489122033894 0.031452077460073335
v -0.1742362713331371 0.9918490165625482 0.05791082185398498
v -0.14415722890583732 1.0479489122033894 0.031452077460073335
v -0.15013885666126625 1.0022216830941346 0.01919950334813557
v -0.1668019625513897 0.9443884448336285 0.04519379998690157
v -0.1742362713331371 0.9918490165625482 0.05791082185398498
v -0.15013885666126625 1.0022216830941346 0.01919950334813557
v -0.1668019625513897 0.9443884448336285 0.04519379998690157
v -0.15013885666126625 1.0022216830941346 0.01919950334813557
v -0.14415722890583732 0.9564944539848798 0.006946929236197798
v -0.14458448803122512 0.9180581450396712 0.03813861742064136
v -0.1668019625513897 0.9443884448336285 0.04519379998690157
v -0.14415722890583732 0.9564944539848798 0.006946929236197798
v -0.14458448803122512 0.9180581450396712 0.03813861742064136
v -0.14415722890583732 0.9564944539848798 0.006946929236197798
v -0.12595599016431785 0.9328879783075388 0.000621593142309352
v -0.10724204047233304 0.9008691640613277 0.03353284384878028
v -0.14458448803122512 0.9180581450396712 0.03813861742064136
v -0.12595599016431785 0.9328879783075388 0.000621593142309352
v -0.10724204047233304 0.9008691640613277 0.03353284384878028
v -0.12595599016431785 0.9328879783075388 0.000621593142309352
v -0.0950224294862425 0.9177831354790305 -0.003425737295388507
v -0.05118564322145617 0.8923675312124951 0.03125483819258969
v -0.10724204047233304 0.9008691640613277 0.03353284384878028
v -0.0950224294862425 0.9177831354790305 -0.003425737295388507
v -0.05118564322145617 0.8923675312124951 0.03125483819258969
v -0.0950224294862425 0.9177831354790305 -0.003425737295388507
v -0.047254859267888576 0.9103338892207087 -0.005421756814526377
v 0.05118564322145617 0.8923675312124951 0.03125483819258969
v -0.05118564322145617 0.8923675312124951 0.03125483819258969
v -0.047254859267888576 0.9103338892207087 -0.005421756814526377
v 0.05118564322145617 0.8923675312124951 0.03125483819258969
v -0.047254859267888576 0.9103338892207087 -0.005421756814526377
v 0.047254859267888576 0.9103338892207087 -0.005421756814526377
v 0.10724204047233304 0.9008691640613277 0.03353284384878028
v 0.05118564322145617 0.8923675312124951 0.03125483819258969
v 0.047254859267888576 0.9103338892207087 -0.005421756814526377
v 0.10724204047233304 0.9008691640613277 0.03353284384878028
v 0.047254859267888576 0.9103338892207087 -0.005421756814526377
v 0.0950224294862425 0.9177831354790305 -0.003425737295388507
v 0.14458448803122512 0.9180581450396712 0.03813861742064136
v 0.10724204047233304 0.9008691640613277 0.03353284384878028
v 0.0950224294862425 0.9177831354790305 -0.003425737295388507
v 0.14458448803122512 0.9180581450396712 0.03813861742064136
v 0.0950224294862425 0.9177831354790305 -0.003425737295388507
v 0.12595599016431785 0.9328879783075388 0.000621593142309352
v 0.1668019625513897 0.9443884448336285 0.04519379998690157
v 0.14458448803122512 0.9180581450396712 0.03813861742064136
v 0.12595599016431785 0.9328879783075388 0.000621593142309352
v 0.1668019625513897 0.9443884448336285 0.04519379998690157
v 0.12595599016431785 0.9328879783075388 0.000621593142309352
v 0.14415722890583732 0.9564944539848798 0.006946929236197798
v 0.1742362713331371 0.9918490165625482 0.05791082185398498
v 0.1668019625513897 0.9443884448336285 0.04519379998690157
v 0.14415722890583732 0.9564944539848798 0.006946929236197798
v 0.1742362713331371 0.9918490165625482 0.05791082185398498
v 0.14415722890583732 0.9564944539848798 0.006946929236197798
v 0.15013885666126625 1.0022216830941346 0.01919950334813557
v 0.14415722890583732 1.0479489122033894 0.031452077460073335
v 0.15013885666126625 1.0022216830941346 0.01919950334813557
v 0.09809869518903454 1.008707364246347 -0.00500538823361353
v 0.14415722890583732 1.0479489122033894 0.031452077460073335
v 0.09809869518903454 1.008707364246347 -0.00500538823361353
v 0.09391155576023426 1.0442821580118504 0.0045268490267568184
v 0.12595599016431785 1.0715553878807305 0.03777741355396178
v 0.14415722890583732 1.0479489122033894 0.031452077460073335
v 0.09391155576023426 1.0442821580118504 0.0045268490267568184
v 0.12595599016431785 1.0715553878807305 0.03777741355396178
v 0.09391155576023426 1.0442821580118504 0.0045268490267568184
v 0.08143558929891107 1.0640917879508778 0.009834823371278594
v 0.0950224294862425 1.0866808657404252 0.04183027313160184
v 0.12595599016431785 1.0715553878807305 0.03777741355396178
v 0.08143558929891107 1.0640917879508778 0.009834823371278594
v 0.0950224294862425 1.0866808657404252 0.04183027313160184
v 0.08143558929891107 1.0640917879508778 0.009834823371278594
v 0.06041444032983224 1.0768855072864996 0.013262890135448912
v 0.047254859267888576 1.0941920170923065 0.043842880070566345
v 0.0950224294862425 1.0866808657404252 0.04183027313160184
v 0.06041444032983224 1.0768855072864996 0.013262890135448912
v 0.047254859267888576 1.0941920170923065 0.043842880070566345
v 0.06041444032983224 1.0768855072864996 0.013262890135448912
v 0.028797265051136445 1.0833236370166834 0.014987981797418486
v -0.047254859267888576 1.0941920170923065 0.043842880070566345
v 0.047254859267888576 1.0941920170923065 0.043842880070566345
v 0.028797265051136445 1.0833236370166834 0.014987981797418486
v -0.047254859267888576 1.0941920170923065 0.043842880070566345
v 0.028797265051136445 1.0833236370166834 0.014987981797418486
v -0.028797265051136445 1.0833236370166834 0.014987981797418486
v -0.0950224294862425 1.0866808657404252 0.04183027313160184
v -0.047254859267888576 1.0941920170923065 0.043842880070566345
v -0.028797265051136445 1.0833236370166834 0.014987981797418486
v -0.0950224294862425 1.0866808657404252 0.04183027313160184
v -0.028797265051136445 1.0833236370166834 0.014987981797418486
v -0.06041444032983224 1.0768855072864996 0.013262890135448912
v -0.12595599016431785 1.0715553878807305 0.03777741355396178
v -0.0950224294862425 1.0866808657404252 0.04183027313160184
v -0.06041444032983224 1.0768855072864996 0.013262890135448912
v -0.12595599016431785 1.0715553878807305 0.03777741355396178
v -0.06041444032983224 1.0768855072864996 0.013262890135448912
v -0.08143558929891107 1.0640917879508778 0.009834823371278594
v -0.14415722890583732 1.0479489122033894 0.031452077460073335
v -0.12595599016431785 1.0715553878807305 0.03777741355396178
v -0.08143558929891107 1.0640917879508778 0.009834823371278594
v -0.14415722890583732 1.0479489122033894 0.031452077460073335
v -0.08143558929891107 1.0640917879508778 0.009834823371278594
v -0.09391155576023426 1.0442821580118504 0.0045268490267568184
v -0.15013885666126625 1.0022216830941346 0.01919950334813557
v -0.14415722890583732 1.0479489122033894 0.031452077460073335
v -0.09391155576023426 1.0442821580118504 0.0045268490267568184
v -0.15013885666126625 1.0022216830941346 0.01919950334813557
v -0.09391155576023426 1.0442821580118504 0.0045268490267568184
v -0.09809869518903454 1.008707364246347 -0.00500538823361353
v -0.14415722890583732 0.9564944539848798 0.006946929236197798
v -0.15013885666126625 1.0022216830941346 0.01919950334813557
v -0.09809869518903454 1.008707364246347 -0.00500538823361353
v -0.14415722890583732 0.9564944539848798 0.006946929236197798
v -0.09809869518903454 1.008707364246347 -0.00500538823361353
v -0.09391155576023426 0.9731325704808438 -0.01453762549398388
v -0.12595599016431785 0.9328879783075388 0.000621593142309352
v -0.14415722890583732 0.9564944539848798 0.006946929236197798
v -0.09391155576023426 0.9731325704808438 -0.01453762549398388
v -0.12595599016431785 0.9328879783075388 0.000621593142309352
v -0.09391155576023426 0.9731325704808438 -0.01453762549398388
v -0.08143558929891107 0.9533229405418164 -0.019845599838505663
v -0.0950224294862425 0.9177831354790305 -0.003425737295388507
v -0.12595599016431785 0.9328879783075388 0.000621593142309352
v -0.08143558929891107 0.9533229405418164 -0.019845599838505663
v -0.0950224294862425 0.9177831354790305 -0.003425737295388507
v -0.08143558929891107 0.9533229405418164 -0.019845599838505663
v -0.06041444032983224 0.9405292212061945 -0.02327366660267598
v -0.047254859267888576 0.9103338892207087 -0.005421756814526377
v -0.0950224294862425 0.9177831354790305 -0.003425737295388507
v -0.06041444032983224 0.9405292212061945 -0.02327366660267598
v -0.047254859267888576 0.9103338892207087 -0.005421756814526377
v -0.06041444032983224 0.9405292212061945 -0.02327366660267598
v -0.028797265051136445 0.9340910914760107 -0.02499875826464555
v 0.047254859267888576 0.9103338892207087 -0.005421756814526377
v -0.047254859267888576 0.9103338892207087 -0.005421756814526377
v -0.028797265051136445 0.9340910914760107 -0.02499875826464555
v 0.047254859267888576 0.9103338892207087 -0.005421756814526377
v -0.028797265051136445 0.9340910914760107 -0.02499875826464555
v 0.028797265051136445 0.9340910914760107 -0.02499875826464555
v 0.0950224294862425 0.9177831354790305 -0.003425737295388507
v 0.047254859267888576 0.9103338892207087 -0.005421756814526377
v 0.028797265051136445 0.9340910914760107 -0.02499875826464555
v 0.0950224294862425 0.9177831354790305 -0.003425737295388507
v 0.028797265051136445 0.9340910914760107 -0.02499875826464555
v 0.06041444032983224 0.9405292212061945 -0.02327366660267598
v 0.12595599016431785 0.9328879783075388 0.000621593142309352
v 0.0950224294862425 0.9177831354790305 -0.003425737295388507
v 0.06041444032983224 0.9405292212061945 -0.02327366660267598
v 0.12595599016431785 0.9328879783075388 0.000621593142309352
v 0.06041444032983224 0.9405292212061945 -0.02327366660267598
v 0.08143558929891107 0.9533229405418164 -0.019845599838505663
v 0.14415722890583732 0.9564944539848798 0.006946929236197798
v 0.12595599016431785 0.9328879783075388 0.000621593142309352
v 0.08143558929891107 0.9533229405418164 -0.019845599838505663
v 0.14415722890583732 0.9564944539848798 0.006946929236197798
v 0.08143558929891107 0.9533229405418164 -0.019845599838505663
v 0.09391155576023426 0.9731325704808438 -0.01453762549398388
v 0.15013885666126625 1.0022216830941346 0.01919950334813557
v 0.14415722890583732 0.9564944539848798 0.006946929236197798
v 0.09391155576023426 0.9731325704808438 -0.01453762549398388
v 0.15013885666126625 1.0022216830941346 0.01919950334813557
v 0.09391155576023426 0.9731325704808438 -0.01453762549398388
v 0.09809869518903454 1.008707364246347 -0.00500538823361353
v 0.0 0.8415559346533911 0.6188122395650706
v 0.15013885666126625 0.8415559346533911 0.6188122395650706
v 0.14304635517982908 0.8897593675050244 0.6317283104700736
v 0.0 0.8415559346533911 0.6188122395650706
v 0.14304635517982908 0.8897593675050244 0.6317283104700736
v 0.12202520621075028 0.9203817537857708 0.6399335541443135
v 0.0 0.8415559346533911 0.6188122395650706
v 0.12202520621075028 0.9203817537857708 0.6399335541443135
v 0.08741721705434 0.9409548798786982 0.645446106666697
v 0.0 0.8415559346533911 0.6188122395650706
v 0.08741721705434 0.9409548798786982 0.645446106666697
v 0.03836786945982274 0.9514374757214336 0.6482549097573398
v 0.0 0.8415559346533911 0.6188122395650706
v 0.03836786945982274 0.9514374757214336 0.6482549097573398
v -0.03836786945982274 0.9514374757214336 0.6482549097573398
v 0.0 0.8415559346533911 0.6188122395650706
v -0.03836786945982274 0.9514374757214336 0.6482549097573398
v -0.08741721705434 0.9409548798786982 0.645446106666697
v 0.0 0.8415559346533911 0.6188122395650706
v -0.08741721705434 0.9409548798786982 0.645446106666697
v -0.12202520621075028 0.9203817537857708 0.6399335541443135
v 0.0 0.8415559346533911 0.6188122395650706
v -0.12202520621075028 0.9203817537857708 0.6399335541443135
v -0.14304635517982908 0.8897593675050244 0.6317283104700736
v 0.0 0.8415559346533911 0.6188122395650706
v -0.14304635517982908 0.8897593675050244 0.6317283104700736
v -0.15013885666126625 0.8415559346533911 0.6188122395650706
v 0.0 0.8415559346533911 0.6188122395650706
v -0.15013885666126625 0.8415559346533911 0.6188122395650706
v -0.14304635517982908 0.7934350419265037 0.6059182852198364
v 0.0 0.8415559346533911 0.6188122395650706
v -0.14304635517982908 0.7934350419265037 0.6059182852198364
v -0.12202520621075028 0.7628126556457573 0.5977130415455966
v 0.0 0.8415559346533911 0.6188122395650706
v -0.12202520621075028 0.7628126556457573 0.5977130415455966
v -0.08741721705434 0.7421569894280838 0.5921783724634441
v 0.0 0.8415559346533911 0.6188122395650706
v -0.08741721705434 0.7421569894280838 0.5921783724634441
v -0.03836786945982274 0.7316743935853486 0.5893695693728014
v 0.0 0.8415559346533911 0.6188122395650706
v -0.03836786945982274 0.7316743935853486 0.5893695693728014
v 0.03836786945982274 0.7316743935853486 0.5893695693728014
v 0.0 0.8415559346533911 0.6188122395650706
v 0.03836786945982274 0.7316743935853486 0.5893695693728014
v 0.08741721705434 0.7421569894280838 0.5921783724634441
v 0.0 0.8415559346533911 0.6188122395650706
v 0.08741721705434 0.7421569894280838 0.5921783724634441
v 0.12202520621075028 0.7628126556457573 0.5977130415455966
v 0.0 0.8415559346533911 0.6188122395650706
v 0.12202520621075028 0.7628126556457573 0.5977130415455966
v 0.14304635517982908 0.7934350419265037 0.6059182852198364
v 0.0 0.8415559346533911 0.6188122395650706
v 0.14304635517982908 0.7934350419265037 0.6059182852198364
v 0.15013885666126625 0.8415559346533911 0.6188122395650706
v 0.0 1.008707364246347 -0.00500538823361353
v 0.09391155576023426 1.0442821580118504 0.0045268490267568184
v 0.09809869518903454 1.008707364246347 -0.00500538823361353
v 0.0 1.008707364246347 -0.00500538823361353
v 0.08143558929891107 1.0640917879508778 0.009834823371278594
v 0.09391155576023426 1.0442821580118504 0.0045268490267568184
v 0.0 1.008707364246347 -0.00500538823361353
v 0.06041444032983224 1.0768855072864996 0.013262890135448912
v 0.08143558929891107 1.0640917879508778 0.009834823371278594
v 0.0 1.008707364246347 -0.00500538823361353
v 0.028797265051136445 1.0833236370166834 0.014987981797418486
v 0.06041444032983224 1.0768855072864996 0.013262890135448912
v 0.0 1.008707364246347 -0.00500538823361353
v -0.028797265051136445 1.0833236370166834 0.014987981797418486
v 0.028797265051136445 1.0833236370166834 0.014987981797418486
v 0.0 1.008707364246347 -0.00500538823361353
v -0.06041444032983224 1.0768855072864996 0.013262890135448912
v -0.028797265051136445 1.0833236370166834 0.014987981797418486
v 0.0 1.008707364246347 -0.00500538823361353
v -0.08143558929891107 1.0640917879508778 0.009834823371278594
v -0.06041444032983224 1.0768855072864996 0.013262890135448912
v 0.0 1.008707364246347 -0.00500538823361353
v -0.09391155576023426 1.0442821580118504 0.0045268490267568184
v -0.08143558929891107 1.0640917879508778 0.009834823371278594
v 0.0 1.008707364246347 -0.00500538823361353
v -0.09809869518903454 1.008707364246347 -0.00500538823361353
v -0.09391155576023426 1.0442821580118504 0.0045268490267568184
v 0.0 1.008707364246347 -0.00500538823361353
v -0.09391155576023426 0.9731325704808438 -0.01453762549398388
v -0.09809869518903454 1.008707364246347 -0.00500538823361353
v 0.0 1.008707364246347 -0.00500538823361353
v -0.08143558929891107 0.9533229405418164 -0.019845599838505663
v -0.09391155576023426 0.9731325704808438 -0.01453762549398388
v 0.0 1.008707364246347 -0.00500538823361353
v -0.06041444032983224 0.9405292212061945 -0.02327366660267598
v -0.08143558929891107 0.9533229405418164 -0.019845599838505663
v 0.0 1.008707364246347 -0.00500538823361353
v -0.028797265051136445 0.9340910914760107 -0.02499875826464555
v -0.06041444032983224 0.9405292212061945 -0.02327366660267598
v 0.0 1.008707364246347 -0.00500538823361353
v 0.028797265051136445 0.9340910914760107 -0.02499875826464555
v -0.028797265051136445 0.9340910914760107 -0.02499875826464555
v 0.0 1.008707364246347 -0.00500538823361353
v 0.06041444032983224 0.9405292212061945 -0.02327366660267598
v 0.028797265051136445 0.9340910914760107 -0.02499875826464555
v 0.0 1.008707364246347 -0.00500538823361353
v 0.08143558929891107 0.9533229405418164 -0.019845599838505663
v 0.06041444032983224 0.9405292212061945 -0.02327366660267598
v 0.0 1.008707364246347 -0.00500538823361353
v 0.09391155576023426 0.9731325704808438 -0.01453762549398388
v 0.08143558929891107 0.9533229405418164 -0.019845599838505663
v 0.0 1.008707364246347 -0.00500538823361353
v 0.09809869518903454 1.008707364246347 -0.00500538823361353
v 0.09391155576023426 0.9731325704808438 -0.01453762549398388
f 1 2 3
f 4 5 6
f 7 8 9
f 10 11 12
f 13 14 15
f 16 17 18
f 19 20 21
f 22 23 24
f 25 26 27
f 28 29 30
f 31 32 33
f 34 35 36
f 37 38 39
f 40 41 42
f 43 44 45
f 46 47 48
f 49 50 51
f 52 53 54
f 55 56 57
f 58 59 60
f 61 62 63
f 64 65 66
f 67 68 69
f 70 71 72
f 73 74 75
f 76 77 78
f 79 80 81
f 82 83 84
f 85 86 87
f 88 89 90
f 91 92 93
f 94 95 96
f 97 98 99
f 100 101 102
f 103 104 105
f 106 107 108
f 109 110 111
f 112 113 114
f 115 116 117
f 118 119 120
f 121 122 123
f 124 125 126
f 127 128 129
f 130 131 132
f 133 134 135
f 136 137 138
f 139 140 141
f 142 143 144
f 145 146 147
f 148 149 150
f 151 152 153
f 154 155 156
f 157 158 159
f 160 161 162
f 163 164 165
f 166 167 168
f 169 170 171
f 172 173 174
f 175 176 177
f 178 179 180
f 181 182 183
f 184 185 186
f 187 188 189
f 190 191 192
f 193 194 195
f 196 197 198
f 199 200 201
f 202 203 204
f 205 206 207
f 208 209 210
f 211 212 213
f 214 215 216
f 217 218 219
f 220 221 222
f 223 224 225
f 226 227 228
f 229 230 231
f 232 233 234
f 235 236 237
f 238 239 240
f 241 242 243
f 244 245 246
f 247 248 249
f 250 251 252
f 253 254 255
f 256 257 258
f 259 260 261
f 262 263 264
f 265 266 267
f 268 269 270
f 271 272 273
f 274 275 276
f 277 278 279
f 280 281 282
f 283 284 285
f 286 287 288
f 289 290 291
f 292 293 294
f 295 296 297
f 298 299 300
f 301 302 303
f 304 305 306
f 307 308 309
f 310 311 312
f 313 314 315
f 316 317 318
f 319 320 321
f 322 323 324
f 325 326 327
f 328 329 330
f 331 332 333
f 334 335 336
f 337 338 339
f 340 341 342
f 343 344 345
f 346 347 348
f 349 350 351
f 352 353 354
f 355 356 357
f 358 359 360
f 361 362 363
f 364 365 366
f 367 368 369
f 370 371 372
f 373 374 375
f 376 377 378
f 379 380 381
f 382 383 384
f 385 386 387
f 388 389 390
f 391 392 393
f 394 395 396
f 397 398 399
f 400 401 402
f 403 404 405
f 406 407 408
f 409 410 411
f 412 413 414
f 415 416 417
f 418 419 420
f 421 422 423
f 424 425 426
f 427 428 429
f 430 431 432
f 433 434 435
f 436 437 438
f 439 440 441
f 442 443 444
f 445 446 447
f 448 449 450
f 451 452 453
f 454 455 456
f 457 458 459
f 460 461 462
f 463 464 465
f 466 467 468
f 469 470 471
f 472 473 474
f 475 476 477
f 478 479 480
f 481 482 483
f 484 485 486
f 487 488 489
f 490 491 492
f 493 494 495
f 496 497 498
f 499 500 501
f 502 503 504
f 505 506 507
f 508 509 510
f 511 512 513
f 514 515 516
f 517 518 519
f 520 521 522
f 523 524 525
f 526 527 528
f 529 530 531
f 532 533 534
f 535 536 537
f 538 539 540
f 541 542 543
f 544 545 546
f 547 548 549
f 550 551 552
f 553 554 555
f 556 557 558
f 559 560 561
f 562 563 564
f 565 566 567
f 568 569 570
f 571 572 573
f 574 575 576
f 577 578 579
f 580 581 582
f 583 584 585
f 586 587 588
f 589 590 591
f 592 593 594
f 595 596 597
f 598 599 600
f 601 602 603
f 604 605 606
f 607 608 609
f 610 611 612
f 613 614 615
f 616 617 618
f 619 620 621
f 622 623 624
f 625 626 627
f 628 629 630
f 631 632 633
f 634 635 636
f 637 638 639
f 640 641 642
f 643 644 645
f 646 647 648
f 649 650 651
f 652 653 654
f 655 656 657
f 658 659 660
f 661 662 663
f 664 665 666
f 667 668 669
f 670 671 672
f 673 674 675
f 676 677 678
f 679 680 681
f 682 683 684
f 685 686 687
f 688 689 690
f 691 692 693
f 694 695 696
f 697 698 699
f 700 701 702
f 703 704 705
f 706 707 708
f 709 710 711
f 712 713 714
f 715 716 717
f 718 719 720
f 721 722 723
f 724 725 726
f 727 728 729
f 730 731 732
f 733 734 735
f 736 737 738
f 739 740 741
f 742 743 744
f 745 746 747
f 748 749 750
f 751 752 753
f 754 755 756
f 757 758 759
f 760 761 762
f 763 764 765
f 766 767 768
f 769 770 771
f 772 773 774
f 775 776 777
f 778 779 780
f 781 782 783
f 784 785 786
f 787 788 789
f 790 791 792
f 793 794 795
f 796 797 798
f 799 800 801
f 802 803 804
f 805 806 807
f 808 809 810
f 811 812 813
f 814 815 816
f 817 818 819
f 820 821 822
f 823 824 825
f 826 827 828
f 829 830 831
f 832 833 834
f 835 836 837
f 838 839 840
f 841 842 843
f 844 845 846
f 847 848 849
f 850 851 852
f 853 854 855
f 856 857 858
f 859 860 861
f 862 863 864
f 865 866 867
f 868 869 870
f 871 872 873
f 874 875 876
f 877 878 879
f 880 881 882
f 883 884 885
f 886 887 888
f 889 890 891
f 892 893 894
f 895 896 897
f 898 899 900
f 901 902 903
f 904 905 906
f 907 908 909
f 910 911 912
f 913 914 915
f 916 917 918
f 919 920 921
f 922 923 924
f 925 926 927
f 928 929 930
f 931 932 933
f 934 935 936
f 937 938 939
f 940 941 942
f 943 944 945
f 946 947 948
f 949 950 951
f 952 953 954
f 955 956 957
f 958 959 960
f 961 962 963
f 964 965 966
f 967 968 969
f 970 971 972
f 973 974 975
f 976 977 978
f 979 980 981
f 982 983 984
f 985 986 987
f 988 989 990
f 991 992 993
f 994 995 996
f 997 998 999
f 1000 1001 1002
f 1003 1004 1005
f 1006 1007 1008
f 1009 1010 1011
f 1012 1013 1014
f 1015 1016 1017
f 1018 1019 1020
f 1021 1022 1023
f 1024 1025 1026
f 1027 1028 1029
f 1030 1031 1032
f 1033 1034 1035
f 1036 1037 1038
f 1039 1040 1041
f 1042 1043 1044
f 1045 1046 1047
f 1048 1049 1050
f 1051 1052 1053
f 1054 1055 1056
f 1057 1058 1059
f 1060 1061 1062
f 1063 1064 1065
f 1066 1067 1068
f 1069 1070 1071
f 1072 1073 1074
f 1075 1076 1077
f 1078 1079 1080
f 1081 1082 1083
f 1084 1085 1086
f 1087 1088 1089
f 1090 1091 1092
f 1093 1094 1095
f 1096 1097 1098
f 1099 1100 1101
f 1102 1103 1104
f 1105 1106 1107
f 1108 1109 1110
f 1111 1112 1113
f 1114 1115 1116
f 1117 1118 1119
f 1120 1121 1122
f 1123 1124 1125
f 1126 1127 1128
f 1129 1130 1131
f 1132 1133 1134
f 1135 1136 1137
f 1138 1139 1140
f 1141 1142 1143
f 1144 1145 1146
f 1147 1148 1149
f 1150 1151 1152
f 1153 1154 1155
f 1156 1157 1158
f 1159 1160 1161
f 1162 1163 1164
f 1165 1166 1167
f 1168 1169 1170
f 1171 1172 1173
f 1174 1175 1176
f 1177 1178 1179
f 1180 1181 1182
f 1183 1184 1185
f 1186 1187 1188
