# Piezas extraídas de modelos de terceros; véase procedencia.json
mtllib paciente-6.mtl
o pieza_0
usemtl material_0
v -0.08032471557290283 0.8165064492476735 1.5772967340000363
v -0.07630847979425769 0.8262906832190536 1.5827998315350313
v -0.07229224401561256 0.8223171733529472 1.638787867325846
v -0.08032471557290283 0.8165064492476735 1.5772967340000363
v -0.07229224401561256 0.8223171733529472 1.638787867325846
v -0.07647938344441281 0.8118065988684078 1.655536425041047
v -0.0918607119583729 0.8106529992298608 1.574066655012105
v -0.08032471557290283 0.8165064492476735 1.5772967340000363
v -0.07647938344441281 0.8118065988684078 1.655536425041047
v -0.0918607119583729 0.8106529992298608 1.574066655012105
v -0.07647938344441281 0.8118065988684078 1.655536425041047
v -0.08886989808065845 0.805995874763134 1.6647481317844075
v -0.11134372807605573 0.8086448813405382 1.5728703294610191
v -0.0918607119583729 0.8106529992298608 1.574066655012105
v -0.08886989808065845 0.805995874763134 1.6647481317844075
v -0.11134372807605573 0.8086448813405382 1.5728703294610191
v -0.08886989808065845 0.805995874763134 1.6647481317844075
v -0.11134372807605573 0.8040304827863503 1.6678585782172308
v -0.130741292368661 0.8106529992298608 1.574066655012105
v -0.11134372807605573 0.8086448813405382 1.5728703294610191
v -0.11134372807605573 0.8040304827863503 1.6678585782172308
v -0.130741292368661 0.8106529992298608 1.574066655012105
v -0.11134372807605573 0.8040304827863503 1.6678585782172308
v -0.13373210624637547 0.805995874763134 1.6647481317844075
v -0.14236274057920864 0.8165064492476735 1.5772967340000363
v -0.130741292368661 0.8106529992298608 1.574066655012105
v -0.13373210624637547 0.805995874763134 1.6647481317844075
v -0.14236274057920864 0.8165064492476735 1.5772967340000363
v -0.13373210624637547 0.805995874763134 1.6647481317844075
v -0.14612262088262112 0.8118065988684078 1.655536425041047
v -0.14637897635785377 0.8262906832190536 1.5827998315350313
v -0.14236274057920864 0.8165064492476735 1.5772967340000363
v -0.14612262088262112 0.8118065988684078 1.655536425041047
v -0.14637897635785377 0.8262906832190536 1.5827998315350313
v -0.14612262088262112 0.8118065988684078 1.655536425041047
v -0.15039521213649892 0.8223171733529472 1.638787867325846
v -0.14236274057920864 0.8361176431029725 1.588302929070026
v -0.14637897635785377 0.8262906832190536 1.5827998315350313
v -0.15039521213649892 0.8223171733529472 1.638787867325846
v -0.14236274057920864 0.8361176431029725 1.588302929070026
v -0.15039521213649892 0.8223171733529472 1.638787867325846
v -0.14612262088262112 0.8327850219249479 1.6221589421657536
v -0.130741292368661 0.8419283672082464 1.5915330080579575
v -0.14236274057920864 0.8361176431029725 1.588302929070026
v -0.14612262088262112 0.8327850219249479 1.6221589421657536
v -0.130741292368661 0.8419283672082464 1.5915330080579575
v -0.14612262088262112 0.8327850219249479 1.6221589421657536
v -0.13373210624637547 0.8385957460302217 1.6129472354223928
v -0.11134372807605573 0.8439792110101078 1.5926097010539346
v -0.130741292368661 0.8419283672082464 1.5915330080579575
v -0.13373210624637547 0.8385957460302217 1.6129472354223928
v -0.11134372807605573 0.8439792110101078 1.5926097010539346
v -0.13373210624637547 0.8385957460302217 1.6129472354223928
v -0.11134372807605573 0.8406038639195442 1.6097171564344612
v -0.0918607119583729 0.8419283672082464 1.5915330080579575
v -0.11134372807605573 0.8439792110101078 1.5926097010539346
v -0.11134372807605573 0.8406038639195442 1.6097171564344612
v -0.0918607119583729 0.8419283672082464 1.5915330080579575
v -0.11134372807605573 0.8406038639195442 1.6097171564344612
v -0.08886989808065845 0.8385957460302217 1.6129472354223928
v -0.08032471557290283 0.8361176431029725 1.588302929070026
v -0.0918607119583729 0.8419283672082464 1.5915330080579575
v -0.08886989808065845 0.8385957460302217 1.6129472354223928
v -0.08032471557290283 0.8361176431029725 1.588302929070026
v -0.08886989808065845 0.8385957460302217 1.6129472354223928
v -0.07647938344441281 0.8327850219249479 1.6221589421657536
v -0.07630847979425769 0.8262906832190536 1.5827998315350313
v -0.08032471557290283 0.8361176431029725 1.588302929070026
v -0.07647938344441281 0.8327850219249479 1.6221589421657536
v -0.07630847979425769 0.8262906832190536 1.5827998315350313
v -0.07647938344441281 0.8327850219249479 1.6221589421657536
v -0.07229224401561256 0.8223171733529472 1.638787867325846
v -0.07647938344441281 0.8118065988684078 1.655536425041047
v -0.07229224401561256 0.8223171733529472 1.638787867325846
v -0.07032685203882875 0.84792067644181 1.6869997870346032
v -0.07647938344441281 0.8118065988684078 1.655536425041047
v -0.07032685203882875 0.84792067644181 1.6869997870346032
v -0.07477034694286168 0.8456027956865813 1.7085336469541472
v -0.08886989808065845 0.805995874763134 1.6647481317844075
v -0.07647938344441281 0.8118065988684078 1.655536425041047
v -0.07477034694286168 0.8456027956865813 1.7085336469541472
v -0.08886989808065845 0.805995874763134 1.6647481317844075
v -0.07477034694286168 0.8456027956865813 1.7085336469541472
v -0.08775902435465022 0.8441501146602628 1.7203772699098967
v -0.11134372807605573 0.8040304827863503 1.6678585782172308
v -0.08886989808065845 0.805995874763134 1.6647481317844075
v -0.08775902435465022 0.8441501146602628 1.7203772699098967
v -0.11134372807605573 0.8040304827863503 1.6678585782172308
v -0.08775902435465022 0.8441501146602628 1.7203772699098967
v -0.11134372807605573 0.8433810482345648 1.7242055116733712
v -0.13373210624637547 0.805995874763134 1.6647481317844075
v -0.11134372807605573 0.8040304827863503 1.6678585782172308
v -0.11134372807605573 0.8433810482345648 1.7242055116733712
v -0.13373210624637547 0.805995874763134 1.6647481317844075
v -0.11134372807605573 0.8433810482345648 1.7242055116733712
v -0.13492843179746125 0.8435092259721811 1.7197791071343538
v -0.14612262088262112 0.8118065988684078 1.655536425041047
v -0.13373210624637547 0.805995874763134 1.6647481317844075
v -0.13492843179746125 0.8435092259721811 1.7197791071343538
v -0.14612262088262112 0.8118065988684078 1.655536425041047
v -0.13492843179746125 0.8435092259721811 1.7197791071343538
v -0.14791710920924978 0.8445346478731118 1.7076962190683873
v -0.15039521213649892 0.8223171733529472 1.638787867325846
v -0.14612262088262112 0.8118065988684078 1.655536425041047
v -0.14791710920924978 0.8445346478731118 1.7076962190683873
v -0.15039521213649892 0.8223171733529472 1.638787867325846
v -0.14791710920924978 0.8445346478731118 1.7076962190683873
v -0.15236060411328273 0.846767076803263 1.6860427265937346
v -0.14612262088262112 0.8327850219249479 1.6221589421657536
v -0.15039521213649892 0.8223171733529472 1.638787867325846
v -0.15236060411328273 0.846767076803263 1.6860427265937346
v -0.14612262088262112 0.8327850219249479 1.6221589421657536
v -0.15236060411328273 0.846767076803263 1.6860427265937346
v -0.14791710920924978 0.849074276080357 1.6643892341190818
v -0.13373210624637547 0.8385957460302217 1.6129472354223928
v -0.14612262088262112 0.8327850219249479 1.6221589421657536
v -0.14791710920924978 0.849074276080357 1.6643892341190818
v -0.13373210624637547 0.8385957460302217 1.6129472354223928
v -0.14791710920924978 0.849074276080357 1.6643892341190818
v -0.13492843179746125 0.8505269571066755 1.652665243718441
v -0.11134372807605573 0.8406038639195442 1.6097171564344612
v -0.13373210624637547 0.8385957460302217 1.6129472354223928
v -0.13492843179746125 0.8505269571066755 1.652665243718441
v -0.11134372807605573 0.8406038639195442 1.6097171564344612
v -0.13492843179746125 0.8505269571066755 1.652665243718441
v -0.11134372807605573 0.8512532976198347 1.6488370019549667
v -0.08886989808065845 0.8385957460302217 1.6129472354223928
v -0.11134372807605573 0.8406038639195442 1.6097171564344612
v -0.11134372807605573 0.8512532976198347 1.6488370019549667
v -0.08886989808065845 0.8385957460302217 1.6129472354223928
v -0.11134372807605573 0.8512532976198347 1.6488370019549667
v -0.08775902435465022 0.8511678457947571 1.6531437739388755
v -0.07647938344441281 0.8327850219249479 1.6221589421657536
v -0.08886989808065845 0.8385957460302217 1.6129472354223928
v -0.08775902435465022 0.8511678457947571 1.6531437739388755
v -0.07647938344441281 0.8327850219249479 1.6221589421657536
v -0.08775902435465022 0.8511678457947571 1.6531437739388755
v -0.07477034694286168 0.8500996979812877 1.6652266620048417
v -0.07229224401561256 0.8223171733529472 1.638787867325846
v -0.07647938344441281 0.8327850219249479 1.6221589421657536
v -0.07477034694286168 0.8500996979812877 1.6652266620048417
v -0.07229224401561256 0.8223171733529472 1.638787867325846
v -0.07477034694286168 0.8500996979812877 1.6652266620048417
v -0.07032685203882875 0.84792067644181 1.6869997870346032
v -0.07477034694286168 0.8456027956865813 1.7085336469541472
v -0.07032685203882875 0.84792067644181 1.6869997870346032
v -0.07331766591654323 0.8882539378784166 1.6926225171247065
v -0.07477034694286168 0.8456027956865813 1.7085336469541472
v -0.07331766591654323 0.8882539378784166 1.6926225171247065
v -0.07793206447073125 0.8875703232777961 1.7118833584971875
v -0.08775902435465022 0.8441501146602628 1.7203772699098967
v -0.07477034694286168 0.8456027956865813 1.7085336469541472
v -0.07793206447073125 0.8875703232777961 1.7118833584971875
v -0.08775902435465022 0.8441501146602628 1.7203772699098967
v -0.07793206447073125 0.8875703232777961 1.7118833584971875
v -0.09134800100790759 0.887014886414792 1.722291390791634
v -0.11134372807605573 0.8433810482345648 1.7242055116733712
v -0.08775902435465022 0.8441501146602628 1.7203772699098967
v -0.09134800100790759 0.887014886414792 1.722291390791634
v -0.11134372807605573 0.8433810482345648 1.7242055116733712
v -0.09134800100790759 0.887014886414792 1.722291390791634
v -0.11544541567977844 0.8864167236392491 1.725641102334674
v -0.13492843179746125 0.8435092259721811 1.7197791071343538
v -0.11134372807605573 0.8433810482345648 1.7242055116733712
v -0.11544541567977844 0.8864167236392491 1.725641102334674
v -0.13492843179746125 0.8435092259721811 1.7197791071343538
v -0.11544541567977844 0.8864167236392491 1.725641102334674
v -0.13954283035164927 0.8860321904264001 1.721693228016091
v -0.14791710920924978 0.8445346478731118 1.7076962190683873
v -0.13492843179746125 0.8435092259721811 1.7197791071343538
v -0.13954283035164927 0.8860321904264001 1.721693228016091
v -0.14791710920924978 0.8445346478731118 1.7076962190683873
v -0.13954283035164927 0.8860321904264001 1.721693228016091
v -0.15287331506374807 0.8860749163389389 1.7108066655012104
v -0.15236060411328273 0.846767076803263 1.6860427265937346
v -0.14791710920924978 0.8445346478731118 1.7076962190683873
v -0.15287331506374807 0.8860749163389389 1.7108066655012104
v -0.15236060411328273 0.846767076803263 1.6860427265937346
v -0.15287331506374807 0.8860749163389389 1.7108066655012104
v -0.15731680996778097 0.8865449013768655 1.6915458241287291
v -0.14791710920924978 0.849074276080357 1.6643892341190818
v -0.15236060411328273 0.846767076803263 1.6860427265937346
v -0.15731680996778097 0.8865449013768655 1.6915458241287291
v -0.14791710920924978 0.849074276080357 1.6643892341190818
v -0.15731680996778097 0.8865449013768655 1.6915458241287291
v -0.15270241141359292 0.8871857900649471 1.6724046153113568
v -0.13492843179746125 0.8505269571066755 1.652665243718441
v -0.14791710920924978 0.849074276080357 1.6643892341190818
v -0.15270241141359292 0.8871857900649471 1.6724046153113568
v -0.13492843179746125 0.8505269571066755 1.652665243718441
v -0.15270241141359292 0.8871857900649471 1.6724046153113568
v -0.13937192670149418 0.8877839528404899 1.6618769504618016
v -0.11134372807605573 0.8512532976198347 1.6488370019549667
v -0.13492843179746125 0.8505269571066755 1.652665243718441
v -0.13937192670149418 0.8877839528404899 1.6618769504618016
v -0.11134372807605573 0.8512532976198347 1.6488370019549667
v -0.13937192670149418 0.8877839528404899 1.6618769504618016
v -0.11518906020454578 0.8883821156160329 1.6585272389187615
v -0.08775902435465022 0.8511678457947571 1.6531437739388755
v -0.11134372807605573 0.8512532976198347 1.6488370019549667
v -0.11518906020454578 0.8883821156160329 1.6585272389187615
v -0.08775902435465022 0.8511678457947571 1.6531437739388755
v -0.11518906020454578 0.8883821156160329 1.6585272389187615
v -0.0910916455326749 0.8887666488288819 1.6624751132373445
v -0.07477034694286168 0.8500996979812877 1.6652266620048417
v -0.08775902435465022 0.8511678457947571 1.6531437739388755
v -0.0910916455326749 0.8887666488288819 1.6624751132373445
v -0.07477034694286168 0.8500996979812877 1.6652266620048417
v -0.0910916455326749 0.8887666488288819 1.6624751132373445
v -0.07776116082057616 0.8887239229163431 1.6733616757522252
v -0.07032685203882875 0.84792067644181 1.6869997870346032
v -0.07477034694286168 0.8500996979812877 1.6652266620048417
v -0.07776116082057616 0.8887239229163431 1.6733616757522252
v -0.07032685203882875 0.84792067644181 1.6869997870346032
v -0.07776116082057616 0.8887239229163431 1.6733616757522252
v -0.07331766591654323 0.8882539378784166 1.6926225171247065
v -0.07793206447073125 0.8875703232777961 1.7118833584971875
v -0.07331766591654323 0.8882539378784166 1.6926225171247065
v -0.0852809214274011 0.9207256314078879 1.7036287121946956
v -0.07793206447073125 0.8875703232777961 1.7118833584971875
v -0.0852809214274011 0.9207256314078879 1.7036287121946956
v -0.08878444625558089 0.9200420168072675 1.7163097630362047
v -0.09134800100790759 0.887014886414792 1.722291390791634
v -0.07793206447073125 0.8875703232777961 1.7118833584971875
v -0.08878444625558089 0.9200420168072675 1.7163097630362047
v -0.09134800100790759 0.887014886414792 1.722291390791634
v -0.08878444625558089 0.9200420168072675 1.7163097630362047
v -0.09895321343981009 0.9195720317693409 1.7232484512325024
v -0.11544541567977844 0.8864167236392491 1.725641102334674
v -0.09134800100790759 0.887014886414792 1.722291390791634
v -0.09895321343981009 0.9195720317693409 1.7232484512325024
v -0.11544541567977844 0.8864167236392491 1.725641102334674
v -0.09895321343981009 0.9195720317693409 1.7232484512325024
v -0.11741080765656223 0.9192729503815694 1.7255214697795656
v -0.13954283035164927 0.8860321904264001 1.721693228016091
v -0.11544541567977844 0.8864167236392491 1.725641102334674
v -0.11741080765656223 0.9192729503815694 1.7255214697795656
v -0.13954283035164927 0.8860321904264001 1.721693228016091
v -0.11741080765656223 0.9192729503815694 1.7255214697795656
v -0.13578295004823682 0.9192302244690307 1.7228895535671769
v -0.15287331506374807 0.8860749163389389 1.7108066655012104
v -0.13954283035164927 0.8860321904264001 1.721693228016091
v -0.13578295004823682 0.9192302244690307 1.7228895535671769
v -0.15287331506374807 0.8860749163389389 1.7108066655012104
v -0.13578295004823682 0.9192302244690307 1.7228895535671769
v -0.145951717232466 0.9194865799442633 1.7158312328157708
v -0.15731680996778097 0.8865449013768655 1.6915458241287291
v -0.15287331506374807 0.8860749163389389 1.7108066655012104
v -0.145951717232466 0.9194865799442633 1.7158312328157708
v -0.15731680996778097 0.8865449013768655 1.6915458241287291
v -0.145951717232466 0.9194865799442633 1.7158312328157708
v -0.14936979023556826 0.9201274686323451 1.7030305494191527
v -0.15270241141359292 0.8871857900649471 1.6724046153113568
v -0.15731680996778097 0.8865449013768655 1.6915458241287291
v -0.14936979023556826 0.9201274686323451 1.7030305494191527
v -0.15270241141359292 0.8871857900649471 1.6724046153113568
v -0.14936979023556826 0.9201274686323451 1.7030305494191527
v -0.14586626540738842 0.9208110832329655 1.6903494985776435
v -0.13937192670149418 0.8877839528404899 1.6618769504618016
v -0.15270241141359292 0.8871857900649471 1.6724046153113568
v -0.14586626540738842 0.9208110832329655 1.6903494985776435
v -0.13937192670149418 0.8877839528404899 1.6618769504618016
v -0.14586626540738842 0.9208110832329655 1.6903494985776435
v -0.13569749822315927 0.9212810682708921 1.6834108103813459
v -0.11518906020454578 0.8883821156160329 1.6585272389187615
v -0.13937192670149418 0.8877839528404899 1.6618769504618016
v -0.13569749822315927 0.9212810682708921 1.6834108103813459
v -0.11518906020454578 0.8883821156160329 1.6585272389187615
v -0.13569749822315927 0.9212810682708921 1.6834108103813459
v -0.11723990400640712 0.9215801496586634 1.681137791834283
v -0.0910916455326749 0.8887666488288819 1.6624751132373445
v -0.11518906020454578 0.8883821156160329 1.6585272389187615
v -0.11723990400640712 0.9215801496586634 1.681137791834283
v -0.0910916455326749 0.8887666488288819 1.6624751132373445
v -0.11723990400640712 0.9215801496586634 1.681137791834283
v -0.09886776161473254 0.9216228755712023 1.6836500754915629
v -0.07776116082057616 0.8887239229163431 1.6733616757522252
v -0.0910916455326749 0.8887666488288819 1.6624751132373445
v -0.09886776161473254 0.9216228755712023 1.6836500754915629
v -0.07776116082057616 0.8887239229163431 1.6733616757522252
v -0.09886776161473254 0.9216228755712023 1.6836500754915629
v -0.08878444625558089 0.9213665200959695 1.690828028798078
v -0.07331766591654323 0.8882539378784166 1.6926225171247065
v -0.07776116082057616 0.8887239229163431 1.6733616757522252
v -0.08878444625558089 0.9213665200959695 1.690828028798078
v -0.07331766591654323 0.8882539378784166 1.6926225171247065
v -0.08878444625558089 0.9213665200959695 1.690828028798078
v -0.0852809214274011 0.9207256314078879 1.7036287121946956
v -0.08878444625558089 0.9200420168072675 1.7163097630362047
v -0.0852809214274011 0.9207256314078879 1.7036287121946956
v -0.10134586454198165 0.9354340267993623 1.7117637259420788
v -0.08878444625558089 0.9200420168072675 1.7163097630362047
v -0.10134586454198165 0.9354340267993623 1.7117637259420788
v -0.10305490104353279 0.9350067676739745 1.7181042513628337
v -0.09895321343981009 0.9195720317693409 1.7232484512325024
v -0.08878444625558089 0.9200420168072675 1.7163097630362047
v -0.10305490104353279 0.9350067676739745 1.7181042513628337
v -0.09895321343981009 0.9195720317693409 1.7232484512325024
v -0.10305490104353279 0.9350067676739745 1.7181042513628337
v -0.10818201054818614 0.9347504121987418 1.7215735954609825
v -0.11741080765656223 0.9192729503815694 1.7255214697795656
v -0.09895321343981009 0.9195720317693409 1.7232484512325024
v -0.10818201054818614 0.9347504121987418 1.7215735954609825
v -0.11741080765656223 0.9192729503815694 1.7255214697795656
v -0.10818201054818614 0.9347504121987418 1.7215735954609825
v -0.11732535583148468 0.9346649603736643 1.7227699210120684
v -0.13578295004823682 0.9192302244690307 1.7228895535671769
v -0.11741080765656223 0.9192729503815694 1.7255214697795656
v -0.11732535583148468 0.9346649603736643 1.7227699210120684
v -0.13578295004823682 0.9192302244690307 1.7228895535671769
v -0.11732535583148468 0.9346649603736643 1.7227699210120684
v -0.12655415293986075 0.9347504121987418 1.721453962905874
v -0.145951717232466 0.9194865799442633 1.7158312328157708
v -0.13578295004823682 0.9192302244690307 1.7228895535671769
v -0.12655415293986075 0.9347504121987418 1.721453962905874
v -0.145951717232466 0.9194865799442633 1.7158312328157708
v -0.12655415293986075 0.9347504121987418 1.721453962905874
v -0.13159581061943657 0.9350067676739745 1.717984618807725
v -0.14936979023556826 0.9201274686323451 1.7030305494191527
v -0.145951717232466 0.9194865799442633 1.7158312328157708
v -0.13159581061943657 0.9350067676739745 1.717984618807725
v -0.14936979023556826 0.9201274686323451 1.7030305494191527
v -0.13159581061943657 0.9350067676739745 1.717984618807725
v -0.13339029894606524 0.935476752711901 1.7116440933869703
v -0.14586626540738842 0.9208110832329655 1.6903494985776435
v -0.14936979023556826 0.9201274686323451 1.7030305494191527
v -0.13339029894606524 0.935476752711901 1.7116440933869703
v -0.14586626540738842 0.9208110832329655 1.6903494985776435
v -0.13339029894606524 0.935476752711901 1.7116440933869703
v -0.13159581061943657 0.9359040118372889 1.7053035679662156
v -0.13569749822315927 0.9212810682708921 1.6834108103813459
v -0.14586626540738842 0.9208110832329655 1.6903494985776435
v -0.13159581061943657 0.9359040118372889 1.7053035679662156
v -0.13569749822315927 0.9212810682708921 1.6834108103813459
v -0.13159581061943657 0.9359040118372889 1.7053035679662156
v -0.12655415293986075 0.9361603673125215 1.701834223868067
v -0.11723990400640712 0.9215801496586634 1.681137791834283
v -0.13569749822315927 0.9212810682708921 1.6834108103813459
v -0.12655415293986075 0.9361603673125215 1.701834223868067
v -0.11723990400640712 0.9215801496586634 1.681137791834283
v -0.12655415293986075 0.9361603673125215 1.701834223868067
v -0.11732535583148468 0.9362458191375991 1.7007575308720897
v -0.09886776161473254 0.9216228755712023 1.6836500754915629
v -0.11723990400640712 0.9215801496586634 1.681137791834283
v -0.11732535583148468 0.9362458191375991 1.7007575308720897
v -0.09886776161473254 0.9216228755712023 1.6836500754915629
v -0.11732535583148468 0.9362458191375991 1.7007575308720897
v -0.1080965587231086 0.9361603673125215 1.7019538564231755
v -0.08878444625558089 0.9213665200959695 1.690828028798078
v -0.09886776161473254 0.9216228755712023 1.6836500754915629
v -0.1080965587231086 0.9361603673125215 1.7019538564231755
v -0.08878444625558089 0.9213665200959695 1.690828028798078
v -0.1080965587231086 0.9361603673125215 1.7019538564231755
v -0.10305490104353279 0.9359040118372889 1.7054232005213243
v -0.0852809214274011 0.9207256314078879 1.7036287121946956
v -0.08878444625558089 0.9213665200959695 1.690828028798078
v -0.10305490104353279 0.9359040118372889 1.7054232005213243
v -0.0852809214274011 0.9207256314078879 1.7036287121946956
v -0.10305490104353279 0.9359040118372889 1.7054232005213243
v -0.10134586454198165 0.9354340267993623 1.7117637259420788
v -0.11134372807605573 0.8262906832190536 1.5827998315350313
v -0.07630847979425769 0.8262906832190536 1.5827998315350313
v -0.08032471557290283 0.8165064492476735 1.5772967340000363
v -0.11134372807605573 0.8262906832190536 1.5827998315350313
v -0.08032471557290283 0.8165064492476735 1.5772967340000363
v -0.0918607119583729 0.8106529992298608 1.574066655012105
v -0.11134372807605573 0.8262906832190536 1.5827998315350313
v -0.0918607119583729 0.8106529992298608 1.574066655012105
v -0.11134372807605573 0.8086448813405382 1.5728703294610191
v -0.11134372807605573 0.8262906832190536 1.5827998315350313
v -0.11134372807605573 0.8086448813405382 1.5728703294610191
v -0.130741292368661 0.8106529992298608 1.574066655012105
v -0.11134372807605573 0.8262906832190536 1.5827998315350313
v -0.130741292368661 0.8106529992298608 1.574066655012105
v -0.14236274057920864 0.8165064492476735 1.5772967340000363
v -0.11134372807605573 0.8262906832190536 1.5827998315350313
v -0.14236274057920864 0.8165064492476735 1.5772967340000363
v -0.14637897635785377 0.8262906832190536 1.5827998315350313
v -0.11134372807605573 0.8262906832190536 1.5827998315350313
v -0.14637897635785377 0.8262906832190536 1.5827998315350313
v -0.14236274057920864 0.8361176431029725 1.588302929070026
v -0.11134372807605573 0.8262906832190536 1.5827998315350313
v -0.14236274057920864 0.8361176431029725 1.588302929070026
v -0.130741292368661 0.8419283672082464 1.5915330080579575
v -0.11134372807605573 0.8262906832190536 1.5827998315350313
v -0.130741292368661 0.8419283672082464 1.5915330080579575
v -0.11134372807605573 0.8439792110101078 1.5926097010539346
v -0.11134372807605573 0.8262906832190536 1.5827998315350313
v -0.11134372807605573 0.8439792110101078 1.5926097010539346
v -0.0918607119583729 0.8419283672082464 1.5915330080579575
v -0.11134372807605573 0.8262906832190536 1.5827998315350313
v -0.0918607119583729 0.8419283672082464 1.5915330080579575
v -0.08032471557290283 0.8361176431029725 1.588302929070026
v -0.11134372807605573 0.8262906832190536 1.5827998315350313
v -0.08032471557290283 0.8361176431029725 1.588302929070026
v -0.07630847979425769 0.8262906832190536 1.5827998315350313
v -0.11732535583148468 0.935476752711901 1.7117637259420788
v -0.10305490104353279 0.9350067676739745 1.7181042513628337
v -0.10134586454198165 0.9354340267993623 1.7117637259420788
v -0.11732535583148468 0.935476752711901 1.7117637259420788
v -0.10818201054818614 0.9347504121987418 1.7215735954609825
v -0.10305490104353279 0.9350067676739745 1.7181042513628337
v -0.11732535583148468 0.935476752711901 1.7117637259420788
v -0.11732535583148468 0.9346649603736643 1.7227699210120684
v -0.10818201054818614 0.9347504121987418 1.7215735954609825
v -0.11732535583148468 0.935476752711901 1.7117637259420788
v -0.12655415293986075 0.9347504121987418 1.721453962905874
v -0.11732535583148468 0.9346649603736643 1.7227699210120684
v -0.11732535583148468 0.935476752711901 1.7117637259420788
v -0.13159581061943657 0.9350067676739745 1.717984618807725
v -0.12655415293986075 0.9347504121987418 1.721453962905874
v -0.11732535583148468 0.935476752711901 1.7117637259420788
v -0.13339029894606524 0.935476752711901 1.7116440933869703
v -0.13159581061943657 0.9350067676739745 1.717984618807725
v -0.11732535583148468 0.935476752711901 1.7117637259420788
v -0.13159581061943657 0.9359040118372889 1.7053035679662156
v -0.13339029894606524 0.935476752711901 1.7116440933869703
v -0.11732535583148468 0.935476752711901 1.7117637259420788
v -0.12655415293986075 0.9361603673125215 1.701834223868067
v -0.13159581061943657 0.9359040118372889 1.7053035679662156
v -0.11732535583148468 0.935476752711901 1.7117637259420788
v -0.11732535583148468 0.9362458191375991 1.7007575308720897
v -0.12655415293986075 0.9361603673125215 1.701834223868067
v -0.11732535583148468 0.935476752711901 1.7117637259420788
v -0.1080965587231086 0.9361603673125215 1.7019538564231755
v -0.11732535583148468 0.9362458191375991 1.7007575308720897
v -0.11732535583148468 0.935476752711901 1.7117637259420788
v -0.10305490104353279 0.9359040118372889 1.7054232005213243
v -0.1080965587231086 0.9361603673125215 1.7019538564231755
v -0.11732535583148468 0.935476752711901 1.7117637259420788
v -0.10134586454198165 0.9354340267993623 1.7117637259420788
v -0.10305490104353279 0.9359040118372889 1.7054232005213243
f 1 2 3
f 4 5 6
f 7 8 9
f 10 11 12
f 13 14 15
f 16 17 18
f 19 20 21
f 22 23 24
f 25 26 27
f 28 29 30
f 31 32 33
f 34 35 36
f 37 38 39
f 40 41 42
f 43 44 45
f 46 47 48
f 49 50 51
f 52 53 54
f 55 56 57
f 58 59 60
f 61 62 63
f 64 65 66
f 67 68 69
f 70 71 72
f 73 74 75
f 76 77 78
f 79 80 81
f 82 83 84
f 85 86 87
f 88 89 90
f 91 92 93
f 94 95 96
f 97 98 99
f 100 101 102
f 103 104 105
f 106 107 108
f 109 110 111
f 112 113 114
f 115 116 117
f 118 119 120
f 121 122 123
f 124 125 126
f 127 128 129
f 130 131 132
f 133 134 135
f 136 137 138
f 139 140 141
f 142 143 144
f 145 146 147
f 148 149 150
f 151 152 153
f 154 155 156
f 157 158 159
f 160 161 162
f 163 164 165
f 166 167 168
f 169 170 171
f 172 173 174
f 175 176 177
f 178 179 180
f 181 182 183
f 184 185 186
f 187 188 189
f 190 191 192
f 193 194 195
f 196 197 198
f 199 200 201
f 202 203 204
f 205 206 207
f 208 209 210
f 211 212 213
f 214 215 216
f 217 218 219
f 220 221 222
f 223 224 225
f 226 227 228
f 229 230 231
f 232 233 234
f 235 236 237
f 238 239 240
f 241 242 243
f 244 245 246
f 247 248 249
f 250 251 252
f 253 254 255
f 256 257 258
f 259 260 261
f 262 263 264
f 265 266 267
f 268 269 270
f 271 272 273
f 274 275 276
f 277 278 279
f 280 281 282
f 283 284 285
f 286 287 288
f 289 290 291
f 292 293 294
f 295 296 297
f 298 299 300
f 301 302 303
f 304 305 306
f 307 308 309
f 310 311 312
f 313 314 315
f 316 317 318
f 319 320 321
f 322 323 324
f 325 326 327
f 328 329 330
f 331 332 333
f 334 335 336
f 337 338 339
f 340 341 342
f 343 344 345
f 346 347 348
f 349 350 351
f 352 353 354
f 355 356 357
f 358 359 360
f 361 362 363
f 364 365 366
f 367 368 369
f 370 371 372
f 373 374 375
f 376 377 378
f 379 380 381
f 382 383 384
f 385 386 387
f 388 389 390
f 391 392 393
f 394 395 396
f 397 398 399
f 400 401 402
f 403 404 405
f 406 407 408
f 409 410 411
f 412 413 414
f 415 416 417
f 418 419 420
f 421 422 423
f 424 425 426
f 427 428 429
f 430 431 432
