# Piezas extraídas de modelos de terceros; véase procedencia.json
mtllib paciente-8.mtl
o pieza_0
usemtl material_0
v 0.16851099905294084 0.8282988011083762 1.5776556316653623
v 0.17252723483158597 0.8380830350797563 1.583158729200357
v 0.1765648335665005 0.8340667993011112 1.6392663975462802
v 0.16851099905294084 0.8282988011083762 1.5776556316653623
v 0.1765648335665005 0.8340667993011112 1.6392663975462802
v 0.17227087935635332 0.8235989507291106 1.6558953227063729
v 0.1568895508423932 0.8224453510905636 1.5744255526774307
v 0.16851099905294084 0.8282988011083762 1.5776556316653623
v 0.17227087935635332 0.8235989507291106 1.6558953227063729
v 0.1568895508423932 0.8224453510905636 1.5744255526774307
v 0.17227087935635332 0.8235989507291106 1.6558953227063729
v 0.15988036472010766 0.8177882266238368 1.6651070294497332
v 0.13749198654978792 0.820437233201241 1.5732292271263448
v 0.1568895508423932 0.8224453510905636 1.5744255526774307
v 0.15988036472010766 0.8177882266238368 1.6651070294497332
v 0.13749198654978792 0.820437233201241 1.5732292271263448
v 0.15988036472010766 0.8177882266238368 1.6651070294497332
v 0.13749198654978792 0.815822834647053 1.6682174758825563
v 0.11800897043210512 0.8224453510905636 1.5744255526774307
v 0.13749198654978792 0.820437233201241 1.5732292271263448
v 0.13749198654978792 0.815822834647053 1.6682174758825563
v 0.11800897043210512 0.8224453510905636 1.5744255526774307
v 0.13749198654978792 0.815822834647053 1.6682174758825563
v 0.1151036083794682 0.8177882266238368 1.6651070294497332
v 0.10647297404663504 0.8282988011083762 1.5776556316653623
v 0.11800897043210512 0.8224453510905636 1.5744255526774307
v 0.1151036083794682 0.8177882266238368 1.6651070294497332
v 0.10647297404663504 0.8282988011083762 1.5776556316653623
v 0.1151036083794682 0.8177882266238368 1.6651070294497332
v 0.10271309374322256 0.8235989507291106 1.6558953227063729
v 0.10245673826798989 0.8380830350797563 1.583158729200357
v 0.10647297404663504 0.8282988011083762 1.5776556316653623
v 0.10271309374322256 0.8235989507291106 1.6558953227063729
v 0.10245673826798989 0.8380830350797563 1.583158729200357
v 0.10271309374322256 0.8235989507291106 1.6558953227063729
v 0.09844050248934474 0.8340667993011112 1.6392663975462802
v 0.10647297404663504 0.84792067644181 1.5886618267353514
v 0.10245673826798989 0.8380830350797563 1.583158729200357
v 0.09844050248934474 0.8340667993011112 1.6392663975462802
v 0.10647297404663504 0.84792067644181 1.5886618267353514
v 0.09844050248934474 0.8340667993011112 1.6392663975462802
v 0.10271309374322256 0.8445773737856506 1.6225178398310793
v 0.11800897043210512 0.8537314005470839 1.5918919057232832
v 0.10647297404663504 0.84792067644181 1.5886618267353514
v 0.10271309374322256 0.8445773737856506 1.6225178398310793
v 0.11800897043210512 0.8537314005470839 1.5918919057232832
v 0.10271309374322256 0.8445773737856506 1.6225178398310793
v 0.1151036083794682 0.8503987793690592 1.6133061330877188
v 0.13749198654978792 0.8557822443489451 1.5930882312743688
v 0.11800897043210512 0.8537314005470839 1.5918919057232832
v 0.1151036083794682 0.8503987793690592 1.6133061330877188
v 0.13749198654978792 0.8557822443489451 1.5930882312743688
v 0.1151036083794682 0.8503987793690592 1.6133061330877188
v 0.13749198654978792 0.852364171345843 1.6101956866548957
v 0.1568895508423932 0.8537314005470839 1.5918919057232832
v 0.13749198654978792 0.8557822443489451 1.5930882312743688
v 0.13749198654978792 0.852364171345843 1.6101956866548957
v 0.1568895508423932 0.8537314005470839 1.5918919057232832
v 0.13749198654978792 0.852364171345843 1.6101956866548957
v 0.15988036472010766 0.8503987793690592 1.6133061330877188
v 0.16851099905294084 0.84792067644181 1.5886618267353514
v 0.1568895508423932 0.8537314005470839 1.5918919057232832
v 0.15988036472010766 0.8503987793690592 1.6133061330877188
v 0.16851099905294084 0.84792067644181 1.5886618267353514
v 0.15988036472010766 0.8503987793690592 1.6133061330877188
v 0.17227087935635332 0.8445773737856506 1.6225178398310793
v 0.17252723483158597 0.8380830350797563 1.583158729200357
v 0.16851099905294084 0.84792067644181 1.5886618267353514
v 0.17227087935635332 0.8445773737856506 1.6225178398310793
v 0.17252723483158597 0.8380830350797563 1.583158729200357
v 0.17227087935635332 0.8445773737856506 1.6225178398310793
v 0.1765648335665005 0.8340667993011112 1.6392663975462802
v 0.17227087935635332 0.8235989507291106 1.6558953227063729
v 0.1765648335665005 0.8340667993011112 1.6392663975462802
v 0.17853022554328432 0.8585594286639657 1.6864016242590603
v 0.17227087935635332 0.8235989507291106 1.6558953227063729
v 0.17853022554328432 0.8585594286639657 1.6864016242590603
v 0.174065367682982 0.8563376812119493 1.7080551167337132
v 0.15988036472010766 0.8177882266238368 1.6651070294497332
v 0.17227087935635332 0.8235989507291106 1.6558953227063729
v 0.174065367682982 0.8563376812119493 1.7080551167337132
v 0.15988036472010766 0.8177882266238368 1.6651070294497332
v 0.174065367682982 0.8563376812119493 1.7080551167337132
v 0.16107669027119345 0.8552695333984799 1.7201380047996793
v 0.13749198654978792 0.815822834647053 1.6682174758825563
v 0.15988036472010766 0.8177882266238368 1.6651070294497332
v 0.16107669027119345 0.8552695333984799 1.7201380047996793
v 0.13749198654978792 0.815822834647053 1.6682174758825563
v 0.16107669027119345 0.8552695333984799 1.7201380047996793
v 0.13749198654978792 0.8551840815734023 1.724564409338697
v 0.1151036083794682 0.8177882266238368 1.6651070294497332
v 0.13749198654978792 0.815822834647053 1.6682174758825563
v 0.13749198654978792 0.8551840815734023 1.724564409338697
v 0.1151036083794682 0.8177882266238368 1.6651070294497332
v 0.13749198654978792 0.8551840815734023 1.724564409338697
v 0.11390728282838243 0.8559531479991003 1.7207361675752224
v 0.10271309374322256 0.8235989507291106 1.6558953227063729
v 0.1151036083794682 0.8177882266238368 1.6651070294497332
v 0.11390728282838243 0.8559531479991003 1.7207361675752224
v 0.10271309374322256 0.8235989507291106 1.6558953227063729
v 0.11390728282838243 0.8559531479991003 1.7207361675752224
v 0.10091860541659388 0.8574058290254187 1.7088925446194732
v 0.09844050248934474 0.8340667993011112 1.6392663975462802
v 0.10271309374322256 0.8235989507291106 1.6558953227063729
v 0.10091860541659388 0.8574058290254187 1.7088925446194732
v 0.09844050248934474 0.8340667993011112 1.6392663975462802
v 0.10091860541659388 0.8574058290254187 1.7088925446194732
v 0.09647511051256095 0.8597130283025127 1.687358684699929
v 0.10271309374322256 0.8445773737856506 1.6225178398310793
v 0.09844050248934474 0.8340667993011112 1.6392663975462802
v 0.09647511051256095 0.8597130283025127 1.687358684699929
v 0.10271309374322256 0.8445773737856506 1.6225178398310793
v 0.09647511051256095 0.8597130283025127 1.687358684699929
v 0.10091860541659388 0.8618920498419904 1.6657051922252761
v 0.1151036083794682 0.8503987793690592 1.6133061330877188
v 0.10271309374322256 0.8445773737856506 1.6225178398310793
v 0.10091860541659388 0.8618920498419904 1.6657051922252761
v 0.1151036083794682 0.8503987793690592 1.6133061330877188
v 0.10091860541659388 0.8618920498419904 1.6657051922252761
v 0.11390728282838243 0.86296019765546 1.6536223041593097
v 0.13749198654978792 0.852364171345843 1.6101956866548957
v 0.1151036083794682 0.8503987793690592 1.6133061330877188
v 0.11390728282838243 0.86296019765546 1.6536223041593097
v 0.13749198654978792 0.852364171345843 1.6101956866548957
v 0.11390728282838243 0.86296019765546 1.6536223041593097
v 0.13749198654978792 0.8630456494805374 1.6491958996202922
v 0.15988036472010766 0.8503987793690592 1.6133061330877188
v 0.13749198654978792 0.852364171345843 1.6101956866548957
v 0.13749198654978792 0.8630456494805374 1.6491958996202922
v 0.15988036472010766 0.8503987793690592 1.6133061330877188
v 0.13749198654978792 0.8630456494805374 1.6491958996202922
v 0.16107669027119345 0.8623193089673782 1.6530241413837667
v 0.17227087935635332 0.8445773737856506 1.6225178398310793
v 0.15988036472010766 0.8503987793690592 1.6133061330877188
v 0.16107669027119345 0.8623193089673782 1.6530241413837667
v 0.17227087935635332 0.8445773737856506 1.6225178398310793
v 0.16107669027119345 0.8623193089673782 1.6530241413837667
v 0.174065367682982 0.8608666279410597 1.6647481317844075
v 0.1765648335665005 0.8340667993011112 1.6392663975462802
v 0.17227087935635332 0.8445773737856506 1.6225178398310793
v 0.174065367682982 0.8608666279410597 1.6647481317844075
v 0.1765648335665005 0.8340667993011112 1.6392663975462802
v 0.174065367682982 0.8608666279410597 1.6647481317844075
v 0.17853022554328432 0.8585594286639657 1.6864016242590603
v 0.174065367682982 0.8563376812119493 1.7080551167337132
v 0.17853022554328432 0.8585594286639657 1.6864016242590603
v 0.18348643139778256 0.8983372532375682 1.6919047217940548
v 0.174065367682982 0.8563376812119493 1.7080551167337132
v 0.18348643139778256 0.8983372532375682 1.6919047217940548
v 0.17904293649374964 0.8978672681996416 1.7112851957216448
v 0.16107669027119345 0.8552695333984799 1.7201380047996793
v 0.174065367682982 0.8563376812119493 1.7080551167337132
v 0.17904293649374964 0.8978672681996416 1.7112851957216448
v 0.16107669027119345 0.8552695333984799 1.7201380047996793
v 0.17904293649374964 0.8978672681996416 1.7112851957216448
v 0.16577654065045905 0.8978245422871028 1.7220521256814167
v 0.13749198654978792 0.8551840815734023 1.724564409338697
v 0.16107669027119345 0.8552695333984799 1.7201380047996793
v 0.16577654065045905 0.8978245422871028 1.7220521256814167
v 0.13749198654978792 0.8551840815734023 1.724564409338697
v 0.16577654065045905 0.8978245422871028 1.7220521256814167
v 0.14159367415351062 0.8982090754999519 1.726
v 0.11390728282838243 0.8559531479991003 1.7207361675752224
v 0.13749198654978792 0.8551840815734023 1.724564409338697
v 0.14159367415351062 0.8982090754999519 1.726
v 0.11390728282838243 0.8559531479991003 1.7207361675752224
v 0.14159367415351062 0.8982090754999519 1.726
v 0.11749625948163979 0.898764512362956 1.7226502884569597
v 0.10091860541659388 0.8574058290254187 1.7088925446194732
v 0.11390728282838243 0.8559531479991003 1.7207361675752224
v 0.11749625948163979 0.898764512362956 1.7226502884569597
v 0.10091860541659388 0.8574058290254187 1.7088925446194732
v 0.11749625948163979 0.898764512362956 1.7226502884569597
v 0.104165774769541 0.8993626751384989 1.7122422561625132
v 0.09647511051256095 0.8597130283025127 1.687358684699929
v 0.10091860541659388 0.8574058290254187 1.7088925446194732
v 0.104165774769541 0.8993626751384989 1.7122422561625132
v 0.09647511051256095 0.8597130283025127 1.687358684699929
v 0.104165774769541 0.8993626751384989 1.7122422561625132
v 0.09946592439027543 0.9000035638265805 1.6929814147900322
v 0.10091860541659388 0.8618920498419904 1.6657051922252761
v 0.09647511051256095 0.8597130283025127 1.687358684699929
v 0.09946592439027543 0.9000035638265805 1.6929814147900322
v 0.10091860541659388 0.8618920498419904 1.6657051922252761
v 0.09946592439027543 0.9000035638265805 1.6929814147900322
v 0.10399487111938589 0.9005162747770459 1.673720573417551
v 0.11390728282838243 0.86296019765546 1.6536223041593097
v 0.10091860541659388 0.8618920498419904 1.6657051922252761
v 0.10399487111938589 0.9005162747770459 1.673720573417551
v 0.11390728282838243 0.86296019765546 1.6536223041593097
v 0.10399487111938589 0.9005162747770459 1.673720573417551
v 0.11723990400640712 0.9005590006895846 1.662953643457779
v 0.13749198654978792 0.8630456494805374 1.6491958996202922
v 0.11390728282838243 0.86296019765546 1.6536223041593097
v 0.11723990400640712 0.9005590006895846 1.662953643457779
v 0.13749198654978792 0.8630456494805374 1.6491958996202922
v 0.11723990400640712 0.9005590006895846 1.662953643457779
v 0.14133731867827798 0.9001744674767357 1.6590057691391955
v 0.16107669027119345 0.8623193089673782 1.6530241413837667
v 0.13749198654978792 0.8630456494805374 1.6491958996202922
v 0.14133731867827798 0.9001744674767357 1.6590057691391955
v 0.16107669027119345 0.8623193089673782 1.6530241413837667
v 0.14133731867827798 0.9001744674767357 1.6590057691391955
v 0.16552018517522638 0.8995763047011928 1.6622358481271275
v 0.174065367682982 0.8608666279410597 1.6647481317844075
v 0.16107669027119345 0.8623193089673782 1.6530241413837667
v 0.16552018517522638 0.8995763047011928 1.6622358481271275
v 0.174065367682982 0.8608666279410597 1.6647481317844075
v 0.16552018517522638 0.8995763047011928 1.6622358481271275
v 0.17887203284359454 0.8989781419256498 1.6727635129766822
v 0.17853022554328432 0.8585594286639657 1.6864016242590603
v 0.174065367682982 0.8608666279410597 1.6647481317844075
v 0.17887203284359454 0.8989781419256498 1.6727635129766822
v 0.17853022554328432 0.8585594286639657 1.6864016242590603
v 0.17887203284359454 0.8989781419256498 1.6727635129766822
v 0.18348643139778256 0.8983372532375682 1.6919047217940548
v 0.17904293649374964 0.8978672681996416 1.7112851957216448
v 0.18348643139778256 0.8983372532375682 1.6919047217940548
v 0.17553941166556983 0.9318770945805089 1.7033894470844784
v 0.17904293649374964 0.8978672681996416 1.7112851957216448
v 0.17553941166556983 0.9318770945805089 1.7033894470844784
v 0.1720999757061982 0.9312789318049661 1.7161901304810963
v 0.16577654065045905 0.8978245422871028 1.7220521256814167
v 0.17904293649374964 0.8978672681996416 1.7112851957216448
v 0.1720999757061982 0.9312789318049661 1.7161901304810963
v 0.16577654065045905 0.8978245422871028 1.7220521256814167
v 0.1720999757061982 0.9312789318049661 1.7161901304810963
v 0.16193120852196902 0.9309798504171947 1.7232484512325024
v 0.14159367415351062 0.8982090754999519 1.726
v 0.16577654065045905 0.8978245422871028 1.7220521256814167
v 0.16193120852196902 0.9309798504171947 1.7232484512325024
v 0.14159367415351062 0.8982090754999519 1.726
v 0.16193120852196902 0.9309798504171947 1.7232484512325024
v 0.14355906613029443 0.9310653022422722 1.7258803674448913
v 0.11749625948163979 0.898764512362956 1.7226502884569597
v 0.14159367415351062 0.8982090754999519 1.726
v 0.14355906613029443 0.9310653022422722 1.7258803674448913
v 0.11749625948163979 0.898764512362956 1.7226502884569597
v 0.14355906613029443 0.9310653022422722 1.7258803674448913
v 0.12518692373861984 0.9313643836300437 1.7236073488978283
v 0.104165774769541 0.8993626751384989 1.7122422561625132
v 0.11749625948163979 0.898764512362956 1.7226502884569597
v 0.12518692373861984 0.9313643836300437 1.7236073488978283
v 0.104165774769541 0.8993626751384989 1.7122422561625132
v 0.12518692373861984 0.9313643836300437 1.7236073488978283
v 0.11501815655439064 0.9318343686679702 1.7166686607015307
v 0.09946592439027543 0.9000035638265805 1.6929814147900322
v 0.104165774769541 0.8993626751384989 1.7122422561625132
v 0.11501815655439064 0.9318343686679702 1.7166686607015307
v 0.09946592439027543 0.9000035638265805 1.6929814147900322
v 0.11501815655439064 0.9318343686679702 1.7166686607015307
v 0.1114291799011333 0.9325179832685907 1.7039876098600213
v 0.10399487111938589 0.9005162747770459 1.673720573417551
v 0.09946592439027543 0.9000035638265805 1.6929814147900322
v 0.1114291799011333 0.9325179832685907 1.7039876098600213
v 0.10399487111938589 0.9005162747770459 1.673720573417551
v 0.1114291799011333 0.9325179832685907 1.7039876098600213
v 0.11493270472931309 0.9331588719566724 1.6911869264634034
v 0.11723990400640712 0.9005590006895846 1.662953643457779
v 0.10399487111938589 0.9005162747770459 1.673720573417551
v 0.11493270472931309 0.9331588719566724 1.6911869264634034
v 0.11723990400640712 0.9005590006895846 1.662953643457779
v 0.11493270472931309 0.9331588719566724 1.6911869264634034
v 0.12501602008846474 0.933415227431905 1.6841286057119973
v 0.14133731867827798 0.9001744674767357 1.6590057691391955
v 0.11723990400640712 0.9005590006895846 1.662953643457779
v 0.12501602008846474 0.933415227431905 1.6841286057119973
v 0.14133731867827798 0.9001744674767357 1.6590057691391955
v 0.12501602008846474 0.933415227431905 1.6841286057119973
v 0.14347361430521688 0.9333725015193662 1.6814966894996086
v 0.16552018517522638 0.8995763047011928 1.6622358481271275
v 0.14133731867827798 0.9001744674767357 1.6590057691391955
v 0.14347361430521688 0.9333725015193662 1.6814966894996086
v 0.16552018517522638 0.8995763047011928 1.6622358481271275
v 0.14347361430521688 0.9333725015193662 1.6814966894996086
v 0.16184575669689147 0.9330734201315948 1.6837697080466716
v 0.17887203284359454 0.8989781419256498 1.6727635129766822
v 0.16552018517522638 0.8995763047011928 1.6622358481271275
v 0.16184575669689147 0.9330734201315948 1.6837697080466716
v 0.17887203284359454 0.8989781419256498 1.6727635129766822
v 0.16184575669689147 0.9330734201315948 1.6837697080466716
v 0.17201452388112065 0.9326034350936682 1.6907083962429692
v 0.18348643139778256 0.8983372532375682 1.6919047217940548
v 0.17887203284359454 0.8989781419256498 1.6727635129766822
v 0.17201452388112065 0.9326034350936682 1.6907083962429692
v 0.18348643139778256 0.8983372532375682 1.6919047217940548
v 0.17201452388112065 0.9326034350936682 1.6907083962429692
v 0.17553941166556983 0.9318770945805089 1.7033894470844784
v 0.1720999757061982 0.9312789318049661 1.7161901304810963
v 0.17553941166556983 0.9318770945805089 1.7033894470844784
v 0.15953855741979742 0.947226378660065 1.7120029910522963
v 0.1720999757061982 0.9312789318049661 1.7161901304810963
v 0.15953855741979742 0.947226378660065 1.7120029910522963
v 0.15774406909316877 0.9467991195346772 1.7183435164730507
v 0.16193120852196902 0.9309798504171947 1.7232484512325024
v 0.1720999757061982 0.9312789318049661 1.7161901304810963
v 0.15774406909316877 0.9467991195346772 1.7183435164730507
v 0.16193120852196902 0.9309798504171947 1.7232484512325024
v 0.15774406909316877 0.9467991195346772 1.7183435164730507
v 0.15270241141359292 0.9465427640594446 1.7218128605711995
v 0.14355906613029443 0.9310653022422722 1.7258803674448913
v 0.16193120852196902 0.9309798504171947 1.7232484512325024
v 0.15270241141359292 0.9465427640594446 1.7218128605711995
v 0.14355906613029443 0.9310653022422722 1.7258803674448913
v 0.15270241141359292 0.9465427640594446 1.7218128605711995
v 0.14347361430521688 0.946457312234367 1.7231288186773939
v 0.12518692373861984 0.9313643836300437 1.7236073488978283
v 0.14355906613029443 0.9310653022422722 1.7258803674448913
v 0.14347361430521688 0.946457312234367 1.7231288186773939
v 0.12518692373861984 0.9313643836300437 1.7236073488978283
v 0.14347361430521688 0.946457312234367 1.7231288186773939
v 0.13433026902191836 0.9465427640594446 1.721932493126308
v 0.11501815655439064 0.9318343686679702 1.7166686607015307
v 0.12518692373861984 0.9313643836300437 1.7236073488978283
v 0.13433026902191836 0.9465427640594446 1.721932493126308
v 0.11501815655439064 0.9318343686679702 1.7166686607015307
v 0.13433026902191836 0.9465427640594446 1.721932493126308
v 0.129203159517265 0.9467991195346772 1.7184631490281594
v 0.1114291799011333 0.9325179832685907 1.7039876098600213
v 0.11501815655439064 0.9318343686679702 1.7166686607015307
v 0.129203159517265 0.9467991195346772 1.7184631490281594
v 0.1114291799011333 0.9325179832685907 1.7039876098600213
v 0.129203159517265 0.9467991195346772 1.7184631490281594
v 0.12749412301571386 0.947226378660065 1.7121226236074047
v 0.11493270472931309 0.9331588719566724 1.6911869264634034
v 0.1114291799011333 0.9325179832685907 1.7039876098600213
v 0.12749412301571386 0.947226378660065 1.7121226236074047
v 0.11493270472931309 0.9331588719566724 1.6911869264634034
v 0.12749412301571386 0.947226378660065 1.7121226236074047
v 0.129203159517265 0.9476963636979916 1.70578209818665
v 0.12501602008846474 0.933415227431905 1.6841286057119973
v 0.11493270472931309 0.9331588719566724 1.6911869264634034
v 0.129203159517265 0.9476963636979916 1.70578209818665
v 0.12501602008846474 0.933415227431905 1.6841286057119973
v 0.129203159517265 0.9476963636979916 1.70578209818665
v 0.13424481719684078 0.9479527191732242 1.7023127540885012
v 0.14347361430521688 0.9333725015193662 1.6814966894996086
v 0.12501602008846474 0.933415227431905 1.6841286057119973
v 0.13424481719684078 0.9479527191732242 1.7023127540885012
v 0.14347361430521688 0.9333725015193662 1.6814966894996086
v 0.13424481719684078 0.9479527191732242 1.7023127540885012
v 0.14347361430521688 0.9480381709983018 1.7011164285374156
v 0.16184575669689147 0.9330734201315948 1.6837697080466716
v 0.14347361430521688 0.9333725015193662 1.6814966894996086
v 0.14347361430521688 0.9480381709983018 1.7011164285374156
v 0.16184575669689147 0.9330734201315948 1.6837697080466716
v 0.14347361430521688 0.9480381709983018 1.7011164285374156
v 0.15270241141359292 0.9479527191732242 1.7023127540885012
v 0.17201452388112065 0.9326034350936682 1.6907083962429692
v 0.16184575669689147 0.9330734201315948 1.6837697080466716
v 0.15270241141359292 0.9479527191732242 1.7023127540885012
v 0.17201452388112065 0.9326034350936682 1.6907083962429692
v 0.15270241141359292 0.9479527191732242 1.7023127540885012
v 0.15774406909316877 0.9476963636979916 1.70578209818665
v 0.17553941166556983 0.9318770945805089 1.7033894470844784
v 0.17201452388112065 0.9326034350936682 1.6907083962429692
v 0.15774406909316877 0.9476963636979916 1.70578209818665
v 0.17553941166556983 0.9318770945805089 1.7033894470844784
v 0.15774406909316877 0.9476963636979916 1.70578209818665
v 0.15953855741979742 0.947226378660065 1.7120029910522963
v 0.13749198654978792 0.8380830350797563 1.583158729200357
v 0.17252723483158597 0.8380830350797563 1.583158729200357
v 0.16851099905294084 0.8282988011083762 1.5776556316653623
v 0.13749198654978792 0.8380830350797563 1.583158729200357
v 0.16851099905294084 0.8282988011083762 1.5776556316653623
v 0.1568895508423932 0.8224453510905636 1.5744255526774307
v 0.13749198654978792 0.8380830350797563 1.583158729200357
v 0.1568895508423932 0.8224453510905636 1.5744255526774307
v 0.13749198654978792 0.820437233201241 1.5732292271263448
v 0.13749198654978792 0.8380830350797563 1.583158729200357
v 0.13749198654978792 0.820437233201241 1.5732292271263448
v 0.11800897043210512 0.8224453510905636 1.5744255526774307
v 0.13749198654978792 0.8380830350797563 1.583158729200357
v 0.11800897043210512 0.8224453510905636 1.5744255526774307
v 0.10647297404663504 0.8282988011083762 1.5776556316653623
v 0.13749198654978792 0.8380830350797563 1.583158729200357
v 0.10647297404663504 0.8282988011083762 1.5776556316653623
v 0.10245673826798989 0.8380830350797563 1.583158729200357
v 0.13749198654978792 0.8380830350797563 1.583158729200357
v 0.10245673826798989 0.8380830350797563 1.583158729200357
v 0.10647297404663504 0.84792067644181 1.5886618267353514
v 0.13749198654978792 0.8380830350797563 1.583158729200357
v 0.10647297404663504 0.84792067644181 1.5886618267353514
v 0.11800897043210512 0.8537314005470839 1.5918919057232832
v 0.13749198654978792 0.8380830350797563 1.583158729200357
v 0.11800897043210512 0.8537314005470839 1.5918919057232832
v 0.13749198654978792 0.8557822443489451 1.5930882312743688
v 0.13749198654978792 0.8380830350797563 1.583158729200357
v 0.13749198654978792 0.8557822443489451 1.5930882312743688
v 0.1568895508423932 0.8537314005470839 1.5918919057232832
v 0.13749198654978792 0.8380830350797563 1.583158729200357
v 0.1568895508423932 0.8537314005470839 1.5918919057232832
v 0.16851099905294084 0.84792067644181 1.5886618267353514
v 0.13749198654978792 0.8380830350797563 1.583158729200357
v 0.16851099905294084 0.84792067644181 1.5886618267353514
v 0.17252723483158597 0.8380830350797563 1.583158729200357
v 0.14347361430521688 0.947226378660065 1.7121226236074047
v 0.15774406909316877 0.9467991195346772 1.7183435164730507
v 0.15953855741979742 0.947226378660065 1.7120029910522963
v 0.14347361430521688 0.947226378660065 1.7121226236074047
v 0.15270241141359292 0.9465427640594446 1.7218128605711995
v 0.15774406909316877 0.9467991195346772 1.7183435164730507
v 0.14347361430521688 0.947226378660065 1.7121226236074047
v 0.14347361430521688 0.946457312234367 1.7231288186773939
v 0.15270241141359292 0.9465427640594446 1.7218128605711995
v 0.14347361430521688 0.947226378660065 1.7121226236074047
v 0.13433026902191836 0.9465427640594446 1.721932493126308
v 0.14347361430521688 0.946457312234367 1.7231288186773939
v 0.14347361430521688 0.947226378660065 1.7121226236074047
v 0.129203159517265 0.9467991195346772 1.7184631490281594
v 0.13433026902191836 0.9465427640594446 1.721932493126308
v 0.14347361430521688 0.947226378660065 1.7121226236074047
v 0.12749412301571386 0.947226378660065 1.7121226236074047
v 0.129203159517265 0.9467991195346772 1.7184631490281594
v 0.14347361430521688 0.947226378660065 1.7121226236074047
v 0.129203159517265 0.9476963636979916 1.70578209818665
v 0.12749412301571386 0.947226378660065 1.7121226236074047
v 0.14347361430521688 0.947226378660065 1.7121226236074047
v 0.13424481719684078 0.9479527191732242 1.7023127540885012
v 0.129203159517265 0.9476963636979916 1.70578209818665
v 0.14347361430521688 0.947226378660065 1.7121226236074047
v 0.14347361430521688 0.9480381709983018 1.7011164285374156
v 0.13424481719684078 0.9479527191732242 1.7023127540885012
v 0.14347361430521688 0.947226378660065 1.7121226236074047
v 0.15270241141359292 0.9479527191732242 1.7023127540885012
v 0.14347361430521688 0.9480381709983018 1.7011164285374156
v 0.14347361430521688 0.947226378660065 1.7121226236074047
v 0.15774406909316877 0.9476963636979916 1.70578209818665
v 0.15270241141359292 0.9479527191732242 1.7023127540885012
v 0.14347361430521688 0.947226378660065 1.7121226236074047
v 0.15953855741979742 0.947226378660065 1.7120029910522963
v 0.15774406909316877 0.9476963636979916 1.70578209818665
f 1 2 3
f 4 5 6
f 7 8 9
f 10 11 12
f 13 14 15
f 16 17 18
f 19 20 21
f 22 23 24
f 25 26 27
f 28 29 30
f 31 32 33
f 34 35 36
f 37 38 39
f 40 41 42
f 43 44 45
f 46 47 48
f 49 50 51
f 52 53 54
f 55 56 57
f 58 59 60
f 61 62 63
f 64 65 66
f 67 68 69
f 70 71 72
f 73 74 75
f 76 77 78
f 79 80 81
f 82 83 84
f 85 86 87
f 88 89 90
f 91 92 93
f 94 95 96
f 97 98 99
f 100 101 102
f 103 104 105
f 106 107 108
f 109 110 111
f 112 113 114
f 115 116 117
f 118 119 120
f 121 122 123
f 124 125 126
f 127 128 129
f 130 131 132
f 133 134 135
f 136 137 138
f 139 140 141
f 142 143 144
f 145 146 147
f 148 149 150
f 151 152 153
f 154 155 156
f 157 158 159
f 160 161 162
f 163 164 165
f 166 167 168
f 169 170 171
f 172 173 174
f 175 176 177
f 178 179 180
f 181 182 183
f 184 185 186
f 187 188 189
f 190 191 192
f 193 194 195
f 196 197 198
f 199 200 201
f 202 203 204
f 205 206 207
f 208 209 210
f 211 212 213
f 214 215 216
f 217 218 219
f 220 221 222
f 223 224 225
f 226 227 228
f 229 230 231
f 232 233 234
f 235 236 237
f 238 239 240
f 241 242 243
f 244 245 246
f 247 248 249
f 250 251 252
f 253 254 255
f 256 257 258
f 259 260 261
f 262 263 264
f 265 266 267
f 268 269 270
f 271 272 273
f 274 275 276
f 277 278 279
f 280 281 282
f 283 284 285
f 286 287 288
f 289 290 291
f 292 293 294
f 295 296 297
f 298 299 300
f 301 302 303
f 304 305 306
f 307 308 309
f 310 311 312
f 313 314 315
f 316 317 318
f 319 320 321
f 322 323 324
f 325 326 327
f 328 329 330
f 331 332 333
f 334 335 336
f 337 338 339
f 340 341 342
f 343 344 345
f 346 347 348
f 349 350 351
f 352 353 354
f 355 356 357
f 358 359 360
f 361 362 363
f 364 365 366
f 367 368 369
f 370 371 372
f 373 374 375
f 376 377 378
f 379 380 381
f 382 383 384
f 385 386 387
f 388 389 390
f 391 392 393
f 394 395 396
f 397 398 399
f 400 401 402
f 403 404 405
f 406 407 408
f 409 410 411
f 412 413 414
f 415 416 417
f 418 419 420
f 421 422 423
f 424 425 426
f 427 428 429
f 430 431 432
