# Piezas extraídas de modelos de terceros; véase procedencia.json
mtllib paciente-2.mtl
o pieza_0
usemtl material_0
v 0.04246955706354544 1.0329783016743999 -0.029553660065672813
v 0.04520401546602723 1.0164702767252103 -0.03397697201944096
v 0.043324075314320996 1.0294305807497508 -0.08234548512056618
v 0.04246955706354544 1.0329783016743999 -0.029553660065672813
v 0.043324075314320996 1.0294305807497508 -0.08234548512056618
v 0.04067506873691675 1.0452782847009727 -0.07809910564494876
v 0.034607989156410265 1.0475053636296865 -0.02566114554635684
v 0.04246955706354544 1.0329783016743999 -0.029553660065672813
v 0.04067506873691675 1.0452782847009727 -0.07809910564494876
v 0.034607989156410265 1.0475053636296865 -0.02566114554635684
v 0.04067506873691675 1.0452782847009727 -0.07809910564494876
v 0.03315530813009181 1.059145025658292 -0.07438352360378352
v 0.022559281820474838 1.0583181199714056 -0.02276387621663871
v 0.034607989156410265 1.0475053636296865 -0.02566114554635684
v 0.03315530813009181 1.059145025658292 -0.07438352360378352
v 0.022559281820474838 1.0583181199714056 -0.02276387621663871
v 0.03315530813009181 1.059145025658292 -0.07438352360378352
v 0.02161931174462172 1.0695450813762812 -0.07159683707290959
v 0.00786156790713517 1.064013388578876 -0.02123783359258869
v 0.022559281820474838 1.0583181199714056 -0.02276387621663871
v 0.02161931174462172 1.0695450813762812 -0.07159683707290959
v 0.00786156790713517 1.064013388578876 -0.02123783359258869
v 0.02161931174462172 1.0695450813762812 -0.07159683707290959
v 0.007519760606824946 1.0749927296095136 -0.0701371441281661
v -0.00786156790713517 1.064013388578876 -0.02123783359258869
v 0.00786156790713517 1.064013388578876 -0.02123783359258869
v 0.007519760606824946 1.0749927296095136 -0.0701371441281661
v -0.00786156790713517 1.064013388578876 -0.02123783359258869
v 0.007519760606824946 1.0749927296095136 -0.0701371441281661
v -0.007519760606824946 1.0749927296095136 -0.0701371441281661
v -0.022559281820474838 1.0583181199714056 -0.02276387621663871
v -0.00786156790713517 1.064013388578876 -0.02123783359258869
v -0.007519760606824946 1.0749927296095136 -0.0701371441281661
v -0.022559281820474838 1.0583181199714056 -0.02276387621663871
v -0.007519760606824946 1.0749927296095136 -0.0701371441281661
v -0.02161931174462172 1.0695450813762812 -0.07159683707290959
v -0.034607989156410265 1.0475053636296865 -0.02566114554635684
v -0.022559281820474838 1.0583181199714056 -0.02276387621663871
v -0.02161931174462172 1.0695450813762812 -0.07159683707290959
v -0.034607989156410265 1.0475053636296865 -0.02566114554635684
v -0.02161931174462172 1.0695450813762812 -0.07159683707290959
v -0.03315530813009181 1.059145025658292 -0.07438352360378352
v -0.04246955706354544 1.0329783016743999 -0.029553660065672813
v -0.034607989156410265 1.0475053636296865 -0.02566114554635684
v -0.03315530813009181 1.059145025658292 -0.07438352360378352
v -0.04246955706354544 1.0329783016743999 -0.029553660065672813
v -0.03315530813009181 1.059145025658292 -0.07438352360378352
v -0.04067506873691675 1.0452782847009727 -0.07809910564494876
v -0.04520401546602723 1.0164702767252103 -0.03397697201944096
v -0.04246955706354544 1.0329783016743999 -0.029553660065672813
v -0.04067506873691675 1.0452782847009727 -0.07809910564494876
v -0.04520401546602723 1.0164702767252103 -0.03397697201944096
v -0.04067506873691675 1.0452782847009727 -0.07809910564494876
v -0.043324075314320996 1.0294305807497508 -0.08234548512056618
v -0.04246955706354544 0.9999622517760208 -0.038400283973209104
v -0.04520401546602723 1.0164702767252103 -0.03397697201944096
v -0.043324075314320996 1.0294305807497508 -0.08234548512056618
v -0.04246955706354544 0.9999622517760208 -0.038400283973209104
v -0.043324075314320996 1.0294305807497508 -0.08234548512056618
v -0.04067506873691675 1.0135828767985289 -0.08659186459618361
v -0.034607989156410265 0.9854351898207341 -0.04229279849252507
v -0.04246955706354544 0.9999622517760208 -0.038400283973209104
v -0.04067506873691675 1.0135828767985289 -0.08659186459618361
v -0.034607989156410265 0.9854351898207341 -0.04229279849252507
v -0.04067506873691675 1.0135828767985289 -0.08659186459618361
v -0.03315530813009181 0.9997161358412098 -0.09030744663734884
v -0.022559281820474838 0.9747049736037608 -0.04516795126247437
v -0.034607989156410265 0.9854351898207341 -0.04229279849252507
v -0.03315530813009181 0.9997161358412098 -0.09030744663734884
v -0.022559281820474838 0.9747049736037608 -0.04516795126247437
v -0.03315530813009181 0.9997161358412098 -0.09030744663734884
v -0.02161931174462172 0.9893986202479663 -0.09307201660845395
v -0.00786156790713517 0.9689271648715446 -0.04671611044629322
v -0.022559281820474838 0.9747049736037608 -0.04516795126247437
v -0.02161931174462172 0.9893986202479663 -0.09307201660845395
v -0.00786156790713517 0.9689271648715446 -0.04671611044629322
v -0.02161931174462172 0.9893986202479663 -0.09307201660845395
v -0.007519760606824946 0.9838684318899878 -0.09455382611296627
v 0.00786156790713517 0.9689271648715446 -0.04671611044629322
v -0.00786156790713517 0.9689271648715446 -0.04671611044629322
v -0.007519760606824946 0.9838684318899878 -0.09455382611296627
v 0.00786156790713517 0.9689271648715446 -0.04671611044629322
v -0.007519760606824946 0.9838684318899878 -0.09455382611296627
v 0.007519760606824946 0.9838684318899878 -0.09455382611296627
v 0.022559281820474838 0.9747049736037608 -0.04516795126247437
v 0.00786156790713517 0.9689271648715446 -0.04671611044629322
v 0.007519760606824946 0.9838684318899878 -0.09455382611296627
v 0.022559281820474838 0.9747049736037608 -0.04516795126247437
v 0.007519760606824946 0.9838684318899878 -0.09455382611296627
v 0.02161931174462172 0.9893986202479663 -0.09307201660845395
v 0.034607989156410265 0.9854351898207341 -0.04229279849252507
v 0.022559281820474838 0.9747049736037608 -0.04516795126247437
v 0.02161931174462172 0.9893986202479663 -0.09307201660845395
v 0.034607989156410265 0.9854351898207341 -0.04229279849252507
v 0.02161931174462172 0.9893986202479663 -0.09307201660845395
v 0.03315530813009181 0.9997161358412098 -0.09030744663734884
v 0.04246955706354544 0.9999622517760208 -0.038400283973209104
v 0.034607989156410265 0.9854351898207341 -0.04229279849252507
v 0.03315530813009181 0.9997161358412098 -0.09030744663734884
v 0.04246955706354544 0.9999622517760208 -0.038400283973209104
v 0.03315530813009181 0.9997161358412098 -0.09030744663734884
v 0.04067506873691675 1.0135828767985289 -0.08659186459618361
v 0.04520401546602723 1.0164702767252103 -0.03397697201944096
v 0.04246955706354544 0.9999622517760208 -0.038400283973209104
v 0.04067506873691675 1.0135828767985289 -0.08659186459618361
v 0.04520401546602723 1.0164702767252103 -0.03397697201944096
v 0.04067506873691675 1.0135828767985289 -0.08659186459618361
v 0.043324075314320996 1.0294305807497508 -0.08234548512056618
v 0.04067506873691675 1.0452782847009727 -0.07809910564494876
v 0.043324075314320996 1.0294305807497508 -0.08234548512056618
v 0.0489638957694397 1.0384983702549755 -0.11618693626640454
v 0.04067506873691675 1.0452782847009727 -0.07809910564494876
v 0.0489638957694397 1.0384983702549755 -0.11618693626640454
v 0.04597308189172524 1.056409577324846 -0.1113876427965661
v 0.03315530813009181 1.059145025658292 -0.07438352360378352
v 0.04067506873691675 1.0452782847009727 -0.07809910564494876
v 0.04597308189172524 1.056409577324846 -0.1113876427965661
v 0.03315530813009181 1.059145025658292 -0.07438352360378352
v 0.04597308189172524 1.056409577324846 -0.1113876427965661
v 0.037513351209047176 1.072092201026576 -0.10718549644048636
v 0.02161931174462172 1.0695450813762812 -0.07159683707290959
v 0.03315530813009181 1.059145025658292 -0.07438352360378352
v 0.037513351209047176 1.072092201026576 -0.10718549644048636
v 0.02161931174462172 1.0695450813762812 -0.07159683707290959
v 0.037513351209047176 1.072092201026576 -0.10718549644048636
v 0.024439221972181076 1.0838128987405007 -0.10404494495331097
v 0.007519760606824946 1.0749927296095136 -0.0701371441281661
v 0.02161931174462172 1.0695450813762812 -0.07159683707290959
v 0.024439221972181076 1.0838128987405007 -0.10404494495331097
v 0.007519760606824946 1.0749927296095136 -0.0701371441281661
v 0.024439221972181076 1.0838128987405007 -0.10404494495331097
v 0.008459730682678064 1.0900034080964467 -0.10238620297064792
v -0.007519760606824946 1.0749927296095136 -0.0701371441281661
v 0.007519760606824946 1.0749927296095136 -0.0701371441281661
v 0.008459730682678064 1.0900034080964467 -0.10238620297064792
v -0.007519760606824946 1.0749927296095136 -0.0701371441281661
v 0.008459730682678064 1.0900034080964467 -0.10238620297064792
v -0.008459730682678064 1.0900034080964467 -0.10238620297064792
v -0.02161931174462172 1.0695450813762812 -0.07159683707290959
v -0.007519760606824946 1.0749927296095136 -0.0701371441281661
v -0.008459730682678064 1.0900034080964467 -0.10238620297064792
v -0.02161931174462172 1.0695450813762812 -0.07159683707290959
v -0.008459730682678064 1.0900034080964467 -0.10238620297064792
v -0.024439221972181076 1.0838128987405007 -0.10404494495331097
v -0.03315530813009181 1.059145025658292 -0.07438352360378352
v -0.02161931174462172 1.0695450813762812 -0.07159683707290959
v -0.024439221972181076 1.0838128987405007 -0.10404494495331097
v -0.03315530813009181 1.059145025658292 -0.07438352360378352
v -0.024439221972181076 1.0838128987405007 -0.10404494495331097
v -0.037513351209047176 1.072092201026576 -0.10718549644048636
v -0.04067506873691675 1.0452782847009727 -0.07809910564494876
v -0.03315530813009181 1.059145025658292 -0.07438352360378352
v -0.037513351209047176 1.072092201026576 -0.10718549644048636
v -0.04067506873691675 1.0452782847009727 -0.07809910564494876
v -0.037513351209047176 1.072092201026576 -0.10718549644048636
v -0.04597308189172524 1.056409577324846 -0.1113876427965661
v -0.043324075314320996 1.0294305807497508 -0.08234548512056618
v -0.04067506873691675 1.0452782847009727 -0.07809910564494876
v -0.04597308189172524 1.056409577324846 -0.1113876427965661
v -0.043324075314320996 1.0294305807497508 -0.08234548512056618
v -0.04597308189172524 1.056409577324846 -0.1113876427965661
v -0.0489638957694397 1.0384983702549755 -0.11618693626640454
v -0.04067506873691675 1.0135828767985289 -0.08659186459618361
v -0.043324075314320996 1.0294305807497508 -0.08234548512056618
v -0.0489638957694397 1.0384983702549755 -0.11618693626640454
v -0.04067506873691675 1.0135828767985289 -0.08659186459618361
v -0.0489638957694397 1.0384983702549755 -0.11618693626640454
v -0.04597308189172524 1.020587163185105 -0.12098622973624298
v -0.03315530813009181 0.9997161358412098 -0.09030744663734884
v -0.04067506873691675 1.0135828767985289 -0.08659186459618361
v -0.04597308189172524 1.020587163185105 -0.12098622973624298
v -0.03315530813009181 0.9997161358412098 -0.09030744663734884
v -0.04597308189172524 1.020587163185105 -0.12098622973624298
v -0.037513351209047176 1.0049045394833749 -0.12518837609232272
v -0.02161931174462172 0.9893986202479663 -0.09307201660845395
v -0.03315530813009181 0.9997161358412098 -0.09030744663734884
v -0.037513351209047176 1.0049045394833749 -0.12518837609232272
v -0.02161931174462172 0.9893986202479663 -0.09307201660845395
v -0.037513351209047176 1.0049045394833749 -0.12518837609232272
v -0.024439221972181076 0.9931838417694503 -0.1283289275794981
v -0.007519760606824946 0.9838684318899878 -0.09455382611296627
v -0.02161931174462172 0.9893986202479663 -0.09307201660845395
v -0.024439221972181076 0.9931838417694503 -0.1283289275794981
v -0.007519760606824946 0.9838684318899878 -0.09455382611296627
v -0.024439221972181076 0.9931838417694503 -0.1283289275794981
v -0.008459730682678064 0.9869933324135043 -0.12998766956216115
v 0.007519760606824946 0.9838684318899878 -0.09455382611296627
v -0.007519760606824946 0.9838684318899878 -0.09455382611296627
v -0.008459730682678064 0.9869933324135043 -0.12998766956216115
v 0.007519760606824946 0.9838684318899878 -0.09455382611296627
v -0.008459730682678064 0.9869933324135043 -0.12998766956216115
v 0.008459730682678064 0.9869933324135043 -0.12998766956216115
v 0.02161931174462172 0.9893986202479663 -0.09307201660845395
v 0.007519760606824946 0.9838684318899878 -0.09455382611296627
v 0.008459730682678064 0.9869933324135043 -0.12998766956216115
v 0.02161931174462172 0.9893986202479663 -0.09307201660845395
v 0.008459730682678064 0.9869933324135043 -0.12998766956216115
v 0.024439221972181076 0.9931838417694503 -0.1283289275794981
v 0.03315530813009181 0.9997161358412098 -0.09030744663734884
v 0.02161931174462172 0.9893986202479663 -0.09307201660845395
v 0.024439221972181076 0.9931838417694503 -0.1283289275794981
v 0.03315530813009181 0.9997161358412098 -0.09030744663734884
v 0.024439221972181076 0.9931838417694503 -0.1283289275794981
v 0.037513351209047176 1.0049045394833749 -0.12518837609232272
v 0.04067506873691675 1.0135828767985289 -0.08659186459618361
v 0.03315530813009181 0.9997161358412098 -0.09030744663734884
v 0.037513351209047176 1.0049045394833749 -0.12518837609232272
v 0.04067506873691675 1.0135828767985289 -0.08659186459618361
v 0.037513351209047176 1.0049045394833749 -0.12518837609232272
v 0.04597308189172524 1.020587163185105 -0.12098622973624298
v 0.043324075314320996 1.0294305807497508 -0.08234548512056618
v 0.04067506873691675 1.0135828767985289 -0.08659186459618361
v 0.04597308189172524 1.020587163185105 -0.12098622973624298
v 0.043324075314320996 1.0294305807497508 -0.08234548512056618
v 0.04597308189172524 1.020587163185105 -0.12098622973624298
v 0.0489638957694397 1.0384983702549755 -0.11618693626640454
v 0.04597308189172524 1.056409577324846 -0.1113876427965661
v 0.0489638957694397 1.0384983702549755 -0.11618693626640454
v 0.06400341698308959 1.048871036786562 -0.15489825477225394
v 0.04597308189172524 1.056409577324846 -0.1113876427965661
v 0.06400341698308959 1.048871036786562 -0.15489825477225394
v 0.060158084854599565 1.072229892089665 -0.14863926835767202
v 0.037513351209047176 1.072092201026576 -0.10718549644048636
v 0.04597308189172524 1.056409577324846 -0.1113876427965661
v 0.060158084854599565 1.072229892089665 -0.14863926835767202
v 0.037513351209047176 1.072092201026576 -0.10718549644048636
v 0.060158084854599565 1.072229892089665 -0.14863926835767202
v 0.04904934759451727 1.0928649232761518 -0.14311012841546183
v 0.024439221972181076 1.0838128987405007 -0.10404494495331097
v 0.037513351209047176 1.072092201026576 -0.10718549644048636
v 0.04904934759451727 1.0928649232761518 -0.14311012841546183
v 0.024439221972181076 1.0838128987405007 -0.10404494495331097
v 0.04904934759451727 1.0928649232761518 -0.14311012841546183
v 0.03195898257900602 1.108134846354152 -0.1390185648582263
v 0.008459730682678064 1.0900034080964467 -0.10238620297064792
v 0.024439221972181076 1.0838128987405007 -0.10404494495331097
v 0.03195898257900602 1.108134846354152 -0.1390185648582263
v 0.008459730682678064 1.0900034080964467 -0.10238620297064792
v 0.03195898257900602 1.108134846354152 -0.1390185648582263
v 0.011108737260082307 1.116223778579255 -0.13685114200087992
v -0.008459730682678064 1.0900034080964467 -0.10238620297064792
v 0.008459730682678064 1.0900034080964467 -0.10238620297064792
v 0.011108737260082307 1.116223778579255 -0.13685114200087992
v -0.008459730682678064 1.0900034080964467 -0.10238620297064792
v 0.011108737260082307 1.116223778579255 -0.13685114200087992
v -0.011108737260082307 1.116223778579255 -0.13685114200087992
v -0.024439221972181076 1.0838128987405007 -0.10404494495331097
v -0.008459730682678064 1.0900034080964467 -0.10238620297064792
v -0.011108737260082307 1.116223778579255 -0.13685114200087992
v -0.024439221972181076 1.0838128987405007 -0.10404494495331097
v -0.011108737260082307 1.116223778579255 -0.13685114200087992
v -0.03195898257900602 1.108134846354152 -0.1390185648582263
v -0.037513351209047176 1.072092201026576 -0.10718549644048636
v -0.024439221972181076 1.0838128987405007 -0.10404494495331097
v -0.03195898257900602 1.108134846354152 -0.1390185648582263
v -0.037513351209047176 1.072092201026576 -0.10718549644048636
v -0.03195898257900602 1.108134846354152 -0.1390185648582263
v -0.04904934759451727 1.0928649232761518 -0.14311012841546183
v -0.04597308189172524 1.056409577324846 -0.1113876427965661
v -0.037513351209047176 1.072092201026576 -0.10718549644048636
v -0.04904934759451727 1.0928649232761518 -0.14311012841546183
v -0.04597308189172524 1.056409577324846 -0.1113876427965661
v -0.04904934759451727 1.0928649232761518 -0.14311012841546183
v -0.060158084854599565 1.072229892089665 -0.14863926835767202
v -0.0489638957694397 1.0384983702549755 -0.11618693626640454
v -0.04597308189172524 1.056409577324846 -0.1113876427965661
v -0.060158084854599565 1.072229892089665 -0.14863926835767202
v -0.0489638957694397 1.0384983702549755 -0.11618693626640454
v -0.060158084854599565 1.072229892089665 -0.14863926835767202
v -0.06400341698308959 1.048871036786562 -0.15489825477225394
v -0.04597308189172524 1.020587163185105 -0.12098622973624298
v -0.0489638957694397 1.0384983702549755 -0.11618693626640454
v -0.06400341698308959 1.048871036786562 -0.15489825477225394
v -0.04597308189172524 1.020587163185105 -0.12098622973624298
v -0.06400341698308959 1.048871036786562 -0.15489825477225394
v -0.060158084854599565 1.025512181483459 -0.1611572411868359
v -0.037513351209047176 1.0049045394833749 -0.12518837609232272
v -0.04597308189172524 1.020587163185105 -0.12098622973624298
v -0.060158084854599565 1.025512181483459 -0.1611572411868359
v -0.037513351209047176 1.0049045394833749 -0.12518837609232272
v -0.060158084854599565 1.025512181483459 -0.1611572411868359
v -0.04904934759451727 1.004877150296972 -0.16668638112904607
v -0.024439221972181076 0.9931838417694503 -0.1283289275794981
v -0.037513351209047176 1.0049045394833749 -0.12518837609232272
v -0.04904934759451727 1.004877150296972 -0.16668638112904607
v -0.024439221972181076 0.9931838417694503 -0.1283289275794981
v -0.04904934759451727 1.004877150296972 -0.16668638112904607
v -0.03195898257900602 0.9896897673437176 -0.17075582812651277
v -0.008459730682678064 0.9869933324135043 -0.12998766956216115
v -0.024439221972181076 0.9931838417694503 -0.1283289275794981
v -0.03195898257900602 0.9896897673437176 -0.17075582812651277
v -0.008459730682678064 0.9869933324135043 -0.12998766956216115
v -0.03195898257900602 0.9896897673437176 -0.17075582812651277
v -0.011108737260082307 0.9815182949938688 -0.172945367543628
v 0.008459730682678064 0.9869933324135043 -0.12998766956216115
v -0.008459730682678064 0.9869933324135043 -0.12998766956216115
v -0.011108737260082307 0.9815182949938688 -0.172945367543628
v 0.008459730682678064 0.9869933324135043 -0.12998766956216115
v -0.011108737260082307 0.9815182949938688 -0.172945367543628
v 0.011108737260082307 0.9815182949938688 -0.172945367543628
v 0.024439221972181076 0.9931838417694503 -0.1283289275794981
v 0.008459730682678064 0.9869933324135043 -0.12998766956216115
v 0.011108737260082307 0.9815182949938688 -0.172945367543628
v 0.024439221972181076 0.9931838417694503 -0.1283289275794981
v 0.011108737260082307 0.9815182949938688 -0.172945367543628
v 0.03195898257900602 0.9896897673437176 -0.17075582812651277
v 0.037513351209047176 1.0049045394833749 -0.12518837609232272
v 0.024439221972181076 0.9931838417694503 -0.1283289275794981
v 0.03195898257900602 0.9896897673437176 -0.17075582812651277
v 0.037513351209047176 1.0049045394833749 -0.12518837609232272
v 0.03195898257900602 0.9896897673437176 -0.17075582812651277
v 0.04904934759451727 1.004877150296972 -0.16668638112904607
v 0.04597308189172524 1.020587163185105 -0.12098622973624298
v 0.037513351209047176 1.0049045394833749 -0.12518837609232272
v 0.04904934759451727 1.004877150296972 -0.16668638112904607
v 0.04597308189172524 1.020587163185105 -0.12098622973624298
v 0.04904934759451727 1.004877150296972 -0.16668638112904607
v 0.060158084854599565 1.025512181483459 -0.1611572411868359
v 0.0489638957694397 1.0384983702549755 -0.11618693626640454
v 0.04597308189172524 1.020587163185105 -0.12098622973624298
v 0.060158084854599565 1.025512181483459 -0.1611572411868359
v 0.0489638957694397 1.0384983702549755 -0.11618693626640454
v 0.060158084854599565 1.025512181483459 -0.1611572411868359
v 0.06400341698308959 1.048871036786562 -0.15489825477225394
v 0.060158084854599565 1.072229892089665 -0.14863926835767202
v 0.06400341698308959 1.048871036786562 -0.15489825477225394
v 0.07716299804503325 1.060531992924683 -0.19841753554455477
v 0.060158084854599565 1.072229892089665 -0.14863926835767202
v 0.07716299804503325 1.060531992924683 -0.19841753554455477
v 0.07254859949084522 1.088760715587797 -0.19085367210361126
v 0.04904934759451727 1.0928649232761518 -0.14311012841546183
v 0.060158084854599565 1.072229892089665 -0.14863926835767202
v 0.07254859949084522 1.088760715587797 -0.19085367210361126
v 0.04904934759451727 1.0928649232761518 -0.14311012841546183
v 0.07254859949084522 1.088760715587797 -0.19085367210361126
v 0.059132662953668896 1.1135227530115812 -0.18421870417295902
v 0.03195898257900602 1.108134846354152 -0.1390185648582263
v 0.04904934759451727 1.0928649232761518 -0.14311012841546183
v 0.059132662953668896 1.1135227530115812 -0.18421870417295902
v 0.03195898257900602 1.108134846354152 -0.1390185648582263
v 0.059132662953668896 1.1135227530115812 -0.18421870417295902
v 0.03862422493505541 1.1319292008299275 -0.17928671134450755
v 0.011108737260082307 1.116223778579255 -0.13685114200087992
v 0.03195898257900602 1.108134846354152 -0.1390185648582263
v 0.03862422493505541 1.1319292008299275 -0.17928671134450755
v 0.011108737260082307 1.116223778579255 -0.13685114200087992
v 0.03862422493505541 1.1319292008299275 -0.17928671134450755
v 0.013415936537176324 1.1417721107058818 -0.1766493115920733
v -0.011108737260082307 1.116223778579255 -0.13685114200087992
v 0.011108737260082307 1.116223778579255 -0.13685114200087992
v 0.013415936537176324 1.1417721107058818 -0.1766493115920733
v -0.011108737260082307 1.116223778579255 -0.13685114200087992
v 0.013415936537176324 1.1417721107058818 -0.1766493115920733
v -0.013415936537176324 1.1417721107058818 -0.1766493115920733
v -0.03195898257900602 1.108134846354152 -0.1390185648582263
v -0.011108737260082307 1.116223778579255 -0.13685114200087992
v -0.013415936537176324 1.1417721107058818 -0.1766493115920733
v -0.03195898257900602 1.108134846354152 -0.1390185648582263
v -0.013415936537176324 1.1417721107058818 -0.1766493115920733
v -0.03862422493505541 1.1319292008299275 -0.17928671134450755
v -0.04904934759451727 1.0928649232761518 -0.14311012841546183
v -0.03195898257900602 1.108134846354152 -0.1390185648582263
v -0.03862422493505541 1.1319292008299275 -0.17928671134450755
v -0.04904934759451727 1.0928649232761518 -0.14311012841546183
v -0.03862422493505541 1.1319292008299275 -0.17928671134450755
v -0.059132662953668896 1.1135227530115812 -0.18421870417295902
v -0.060158084854599565 1.072229892089665 -0.14863926835767202
v -0.04904934759451727 1.0928649232761518 -0.14311012841546183
v -0.059132662953668896 1.1135227530115812 -0.18421870417295902
v -0.060158084854599565 1.072229892089665 -0.14863926835767202
v -0.059132662953668896 1.1135227530115812 -0.18421870417295902
v -0.07254859949084522 1.088760715587797 -0.19085367210361126
v -0.06400341698308959 1.048871036786562 -0.15489825477225394
v -0.060158084854599565 1.072229892089665 -0.14863926835767202
v -0.07254859949084522 1.088760715587797 -0.19085367210361126
v -0.06400341698308959 1.048871036786562 -0.15489825477225394
v -0.07254859949084522 1.088760715587797 -0.19085367210361126
v -0.07716299804503325 1.060531992924683 -0.19841753554455477
v -0.060158084854599565 1.025512181483459 -0.1611572411868359
v -0.06400341698308959 1.048871036786562 -0.15489825477225394
v -0.07716299804503325 1.060531992924683 -0.19841753554455477
v -0.060158084854599565 1.025512181483459 -0.1611572411868359
v -0.07716299804503325 1.060531992924683 -0.19841753554455477
v -0.07254859949084522 1.0323032702615689 -0.20598139898549833
v -0.04904934759451727 1.004877150296972 -0.16668638112904607
v -0.060158084854599565 1.025512181483459 -0.1611572411868359
v -0.07254859949084522 1.0323032702615689 -0.20598139898549833
v -0.04904934759451727 1.004877150296972 -0.16668638112904607
v -0.07254859949084522 1.0323032702615689 -0.20598139898549833
v -0.059132662953668896 1.0075412328377849 -0.21261636691615055
v -0.03195898257900602 0.9896897673437176 -0.17075582812651277
v -0.04904934759451727 1.004877150296972 -0.16668638112904607
v -0.059132662953668896 1.0075412328377849 -0.21261636691615055
v -0.03195898257900602 0.9896897673437176 -0.17075582812651277
v -0.059132662953668896 1.0075412328377849 -0.21261636691615055
v -0.03862422493505541 0.9891347850194385 -0.21754835974460202
v -0.011108737260082307 0.9815182949938688 -0.172945367543628
v -0.03195898257900602 0.9896897673437176 -0.17075582812651277
v -0.03862422493505541 0.9891347850194385 -0.21754835974460202
v -0.011108737260082307 0.9815182949938688 -0.172945367543628
v -0.03862422493505541 0.9891347850194385 -0.21754835974460202
v -0.013415936537176324 0.9793125101746708 -0.22018023035709408
v 0.011108737260082307 0.9815182949938688 -0.172945367543628
v -0.011108737260082307 0.9815182949938688 -0.172945367543628
v -0.013415936537176324 0.9793125101746708 -0.22018023035709408
v 0.011108737260082307 0.9815182949938688 -0.172945367543628
v -0.013415936537176324 0.9793125101746708 -0.22018023035709408
v 0.013415936537176324 0.9793125101746708 -0.22018023035709408
v 0.03195898257900602 0.9896897673437176 -0.17075582812651277
v 0.011108737260082307 0.9815182949938688 -0.172945367543628
v 0.013415936537176324 0.9793125101746708 -0.22018023035709408
v 0.03195898257900602 0.9896897673437176 -0.17075582812651277
v 0.013415936537176324 0.9793125101746708 -0.22018023035709408
v 0.03862422493505541 0.9891347850194385 -0.21754835974460202
v 0.04904934759451727 1.004877150296972 -0.16668638112904607
v 0.03195898257900602 0.9896897673437176 -0.17075582812651277
v 0.03862422493505541 0.9891347850194385 -0.21754835974460202
v 0.04904934759451727 1.004877150296972 -0.16668638112904607
v 0.03862422493505541 0.9891347850194385 -0.21754835974460202
v 0.059132662953668896 1.0075412328377849 -0.21261636691615055
v 0.060158084854599565 1.025512181483459 -0.1611572411868359
v 0.04904934759451727 1.004877150296972 -0.16668638112904607
v 0.059132662953668896 1.0075412328377849 -0.21261636691615055
v 0.060158084854599565 1.025512181483459 -0.1611572411868359
v 0.059132662953668896 1.0075412328377849 -0.21261636691615055
v 0.07254859949084522 1.0323032702615689 -0.20598139898549833
v 0.06400341698308959 1.048871036786562 -0.15489825477225394
v 0.060158084854599565 1.025512181483459 -0.1611572411868359
v 0.07254859949084522 1.0323032702615689 -0.20598139898549833
v 0.06400341698308959 1.048871036786562 -0.15489825477225394
v 0.07254859949084522 1.0323032702615689 -0.20598139898549833
v 0.07716299804503325 1.060531992924683 -0.19841753554455477
v 0.07254859949084522 1.088760715587797 -0.19085367210361126
v 0.07716299804503325 1.060531992924683 -0.19841753554455477
v 0.08092287834844573 1.0721874199228623 -0.24191618128566894
v 0.07254859949084522 1.088760715587797 -0.19085367210361126
v 0.08092287834844573 1.0721874199228623 -0.24191618128566894
v 0.07605212431902503 1.1017367845819115 -0.23399845288842397
v 0.059132662953668896 1.1135227530115812 -0.18421870417295902
v 0.07254859949084522 1.088760715587797 -0.19085367210361126
v 0.07605212431902503 1.1017367845819115 -0.23399845288842397
v 0.059132662953668896 1.1135227530115812 -0.18421870417295902
v 0.07605212431902503 1.1017367845819115 -0.23399845288842397
v 0.06203802500630581 1.1278194640016308 -0.2270096200014703
v 0.03862422493505541 1.1319292008299275 -0.17928671134450755
v 0.059132662953668896 1.1135227530115812 -0.18421870417295902
v 0.06203802500630581 1.1278194640016308 -0.2270096200014703
v 0.03862422493505541 1.1319292008299275 -0.17928671134450755
v 0.06203802500630581 1.1278194640016308 -0.2270096200014703
v 0.04050416508676164 1.1471338531921824 -0.22183434501556157
v 0.013415936537176324 1.1417721107058818 -0.1766493115920733
v 0.03862422493505541 1.1319292008299275 -0.17928671134450755
v 0.04050416508676164 1.1471338531921824 -0.22183434501556157
v 0.013415936537176324 1.1417721107058818 -0.1766493115920733
v 0.04050416508676164 1.1471338531921824 -0.22183434501556157
v 0.014014099312719217 1.1573894636918665 -0.21908636246428312
v -0.013415936537176324 1.1417721107058818 -0.1766493115920733
v 0.013415936537176324 1.1417721107058818 -0.1766493115920733
v 0.014014099312719217 1.1573894636918665 -0.21908636246428312
v -0.013415936537176324 1.1417721107058818 -0.1766493115920733
v 0.014014099312719217 1.1573894636918665 -0.21908636246428312
v -0.014014099312719217 1.1573894636918665 -0.21908636246428312
v -0.03862422493505541 1.1319292008299275 -0.17928671134450755
v -0.013415936537176324 1.1417721107058818 -0.1766493115920733
v -0.014014099312719217 1.1573894636918665 -0.21908636246428312
v -0.03862422493505541 1.1319292008299275 -0.17928671134450755
v -0.014014099312719217 1.1573894636918665 -0.21908636246428312
v -0.04050416508676164 1.1471338531921824 -0.22183434501556157
v -0.059132662953668896 1.1135227530115812 -0.18421870417295902
v -0.03862422493505541 1.1319292008299275 -0.17928671134450755
v -0.04050416508676164 1.1471338531921824 -0.22183434501556157
v -0.059132662953668896 1.1135227530115812 -0.18421870417295902
v -0.04050416508676164 1.1471338531921824 -0.22183434501556157
v -0.06203802500630581 1.1278194640016308 -0.2270096200014703
v -0.07254859949084522 1.088760715587797 -0.19085367210361126
v -0.059132662953668896 1.1135227530115812 -0.18421870417295902
v -0.06203802500630581 1.1278194640016308 -0.2270096200014703
v -0.07254859949084522 1.088760715587797 -0.19085367210361126
v -0.06203802500630581 1.1278194640016308 -0.2270096200014703
v -0.07605212431902503 1.1017367845819115 -0.23399845288842397
v -0.07716299804503325 1.060531992924683 -0.19841753554455477
v -0.07254859949084522 1.088760715587797 -0.19085367210361126
v -0.07605212431902503 1.1017367845819115 -0.23399845288842397
v -0.07716299804503325 1.060531992924683 -0.19841753554455477
v -0.07605212431902503 1.1017367845819115 -0.23399845288842397
v -0.08092287834844573 1.0721874199228623 -0.24191618128566894
v -0.07254859949084522 1.0323032702615689 -0.20598139898549833
v -0.07716299804503325 1.060531992924683 -0.19841753554455477
v -0.08092287834844573 1.0721874199228623 -0.24191618128566894
v -0.07254859949084522 1.0323032702615689 -0.20598139898549833
v -0.08092287834844573 1.0721874199228623 -0.24191618128566894
v -0.07605212431902503 1.042638055263813 -0.24983390968291394
v -0.059132662953668896 1.0075412328377849 -0.21261636691615055
v -0.07254859949084522 1.0323032702615689 -0.20598139898549833
v -0.07605212431902503 1.042638055263813 -0.24983390968291394
v -0.059132662953668896 1.0075412328377849 -0.21261636691615055
v -0.07605212431902503 1.042638055263813 -0.24983390968291394
v -0.06203802500630581 1.0166379159688397 -0.2568006260100988
v -0.03862422493505541 0.9891347850194385 -0.21754835974460202
v -0.059132662953668896 1.0075412328377849 -0.21261636691615055
v -0.06203802500630581 1.0166379159688397 -0.2568006260100988
v -0.03862422493505541 0.9891347850194385 -0.21754835974460202
v -0.06203802500630581 1.0166379159688397 -0.2568006260100988
v -0.04050416508676164 0.997323526778288 -0.2619759009960075
v -0.013415936537176324 0.9793125101746708 -0.22018023035709408
v -0.03862422493505541 0.9891347850194385 -0.21754835974460202
v -0.04050416508676164 0.997323526778288 -0.2619759009960075
v -0.013415936537176324 0.9793125101746708 -0.22018023035709408
v -0.04050416508676164 0.997323526778288 -0.2619759009960075
v -0.014014099312719217 0.9870060111850445 -0.2647404709671126
v 0.013415936537176324 0.9793125101746708 -0.22018023035709408
v -0.013415936537176324 0.9793125101746708 -0.22018023035709408
v -0.014014099312719217 0.9870060111850445 -0.2647404709671126
v 0.013415936537176324 0.9793125101746708 -0.22018023035709408
v -0.014014099312719217 0.9870060111850445 -0.2647404709671126
v 0.014014099312719217 0.9870060111850445 -0.2647404709671126
v 0.03862422493505541 0.9891347850194385 -0.21754835974460202
v 0.013415936537176324 0.9793125101746708 -0.22018023035709408
v 0.014014099312719217 0.9870060111850445 -0.2647404709671126
v 0.03862422493505541 0.9891347850194385 -0.21754835974460202
v 0.014014099312719217 0.9870060111850445 -0.2647404709671126
v 0.04050416508676164 0.997323526778288 -0.2619759009960075
v 0.059132662953668896 1.0075412328377849 -0.21261636691615055
v 0.03862422493505541 0.9891347850194385 -0.21754835974460202
v 0.04050416508676164 0.997323526778288 -0.2619759009960075
v 0.059132662953668896 1.0075412328377849 -0.21261636691615055
v 0.04050416508676164 0.997323526778288 -0.2619759009960075
v 0.06203802500630581 1.0166379159688397 -0.2568006260100988
v 0.07254859949084522 1.0323032702615689 -0.20598139898549833
v 0.059132662953668896 1.0075412328377849 -0.21261636691615055
v 0.06203802500630581 1.0166379159688397 -0.2568006260100988
v 0.07254859949084522 1.0323032702615689 -0.20598139898549833
v 0.06203802500630581 1.0166379159688397 -0.2568006260100988
v 0.07605212431902503 1.042638055263813 -0.24983390968291394
v 0.07716299804503325 1.060531992924683 -0.19841753554455477
v 0.07254859949084522 1.0323032702615689 -0.20598139898549833
v 0.07605212431902503 1.042638055263813 -0.24983390968291394
v 0.07716299804503325 1.060531992924683 -0.19841753554455477
v 0.07605212431902503 1.042638055263813 -0.24983390968291394
v 0.08092287834844573 1.0721874199228623 -0.24191618128566894
v 0.07605212431902503 1.1017367845819115 -0.23399845288842397
v 0.08092287834844573 1.0721874199228623 -0.24191618128566894
v 0.07622302796918014 1.0825600864544485 -0.28062749979151824
v 0.07605212431902503 1.1017367845819115 -0.23399845288842397
v 0.07622302796918014 1.0825600864544485 -0.28062749979151824
v 0.0716086294149921 1.1104586486185786 -0.2731521025896501
v 0.06203802500630581 1.1278194640016308 -0.2270096200014703
v 0.07605212431902503 1.1017367845819115 -0.23399845288842397
v 0.0716086294149921 1.1104586486185786 -0.2731521025896501
v 0.06203802500630581 1.1278194640016308 -0.2270096200014703
v 0.0716086294149921 1.1104586486185786 -0.2731521025896501
v 0.05836359652797089 1.134973065668125 -0.26658348433830437
v 0.04050416508676164 1.1471338531921824 -0.22183434501556157
v 0.06203802500630581 1.1278194640016308 -0.2270096200014703
v 0.05836359652797089 1.134973065668125 -0.26658348433830437
v 0.04050416508676164 1.1471338531921824 -0.22183434501556157
v 0.05836359652797089 1.134973065668125 -0.26658348433830437
v 0.03811151398459007 1.1531318931122334 -0.2617178411891594
v 0.014014099312719217 1.1573894636918665 -0.21908636246428312
v 0.04050416508676164 1.1471338531921824 -0.22183434501556157
v 0.03811151398459007 1.1531318931122334 -0.2617178411891594
v 0.014014099312719217 1.1573894636918665 -0.21908636246428312
v 0.03811151398459007 1.1531318931122334 -0.2617178411891594
v 0.013245032887021212 1.1628097227386958 -0.25912467455626287
v -0.014014099312719217 1.1573894636918665 -0.21908636246428312
v 0.014014099312719217 1.1573894636918665 -0.21908636246428312
v 0.013245032887021212 1.1628097227386958 -0.25912467455626287
v -0.014014099312719217 1.1573894636918665 -0.21908636246428312
v 0.013245032887021212 1.1628097227386958 -0.25912467455626287
v -0.013245032887021212 1.1628097227386958 -0.25912467455626287
v -0.04050416508676164 1.1471338531921824 -0.22183434501556157
v -0.014014099312719217 1.1573894636918665 -0.21908636246428312
v -0.013245032887021212 1.1628097227386958 -0.25912467455626287
v -0.04050416508676164 1.1471338531921824 -0.22183434501556157
v -0.013245032887021212 1.1628097227386958 -0.25912467455626287
v -0.03811151398459007 1.1531318931122334 -0.2617178411891594
v -0.06203802500630581 1.1278194640016308 -0.2270096200014703
v -0.04050416508676164 1.1471338531921824 -0.22183434501556157
v -0.03811151398459007 1.1531318931122334 -0.2617178411891594
v -0.06203802500630581 1.1278194640016308 -0.2270096200014703
v -0.03811151398459007 1.1531318931122334 -0.2617178411891594
v -0.05836359652797089 1.134973065668125 -0.26658348433830437
v -0.07605212431902503 1.1017367845819115 -0.23399845288842397
v -0.06203802500630581 1.1278194640016308 -0.2270096200014703
v -0.05836359652797089 1.134973065668125 -0.26658348433830437
v -0.07605212431902503 1.1017367845819115 -0.23399845288842397
v -0.05836359652797089 1.134973065668125 -0.26658348433830437
v -0.0716086294149921 1.1104586486185786 -0.2731521025896501
v -0.08092287834844573 1.0721874199228623 -0.24191618128566894
v -0.07605212431902503 1.1017367845819115 -0.23399845288842397
v -0.0716086294149921 1.1104586486185786 -0.2731521025896501
v -0.08092287834844573 1.0721874199228623 -0.24191618128566894
v -0.0716086294149921 1.1104586486185786 -0.2731521025896501
v -0.07622302796918014 1.0825600864544485 -0.28062749979151824
v -0.07605212431902503 1.042638055263813 -0.24983390968291394
v -0.08092287834844573 1.0721874199228623 -0.24191618128566894
v -0.07622302796918014 1.0825600864544485 -0.28062749979151824
v -0.07605212431902503 1.042638055263813 -0.24983390968291394
v -0.07622302796918014 1.0825600864544485 -0.28062749979151824
v -0.0716086294149921 1.054744064415064 -0.2880807804336176
v -0.06203802500630581 1.0166379159688397 -0.2568006260100988
v -0.07605212431902503 1.042638055263813 -0.24983390968291394
v -0.0716086294149921 1.054744064415064 -0.2880807804336176
v -0.06203802500630581 1.0166379159688397 -0.2568006260100988
v -0.0716086294149921 1.054744064415064 -0.2880807804336176
v -0.05836359652797089 1.030229647365518 -0.29464939868496326
v -0.04050416508676164 0.997323526778288 -0.2619759009960075
v -0.06203802500630581 1.0166379159688397 -0.2568006260100988
v -0.05836359652797089 1.030229647365518 -0.29464939868496326
v -0.04050416508676164 0.997323526778288 -0.2619759009960075
v -0.05836359652797089 1.030229647365518 -0.29464939868496326
v -0.03811151398459007 1.0119882797966633 -0.29953715839387707
v -0.014014099312719217 0.9870060111850445 -0.2647404709671126
v -0.04050416508676164 0.997323526778288 -0.2619759009960075
v -0.03811151398459007 1.0119882797966633 -0.29953715839387707
v -0.014014099312719217 0.9870060111850445 -0.2647404709671126
v -0.03811151398459007 1.0119882797966633 -0.29953715839387707
v -0.013245032887021212 1.0023310852013876 -0.30212479588683144
v 0.014014099312719217 0.9870060111850445 -0.2647404709671126
v -0.014014099312719217 0.9870060111850445 -0.2647404709671126
v -0.013245032887021212 1.0023310852013876 -0.30212479588683144
v 0.014014099312719217 0.9870060111850445 -0.2647404709671126
v -0.013245032887021212 1.0023310852013876 -0.30212479588683144
v 0.013245032887021212 1.0023310852013876 -0.30212479588683144
v 0.04050416508676164 0.997323526778288 -0.2619759009960075
v 0.014014099312719217 0.9870060111850445 -0.2647404709671126
v 0.013245032887021212 1.0023310852013876 -0.30212479588683144
v 0.04050416508676164 0.997323526778288 -0.2619759009960075
v 0.013245032887021212 1.0023310852013876 -0.30212479588683144
v 0.03811151398459007 1.0119882797966633 -0.29953715839387707
v 0.06203802500630581 1.0166379159688397 -0.2568006260100988
v 0.04050416508676164 0.997323526778288 -0.2619759009960075
v 0.03811151398459007 1.0119882797966633 -0.29953715839387707
v 0.06203802500630581 1.0166379159688397 -0.2568006260100988
v 0.03811151398459007 1.0119882797966633 -0.29953715839387707
v 0.05836359652797089 1.030229647365518 -0.29464939868496326
v 0.07605212431902503 1.042638055263813 -0.24983390968291394
v 0.06203802500630581 1.0166379159688397 -0.2568006260100988
v 0.05836359652797089 1.030229647365518 -0.29464939868496326
v 0.07605212431902503 1.042638055263813 -0.24983390968291394
v 0.05836359652797089 1.030229647365518 -0.29464939868496326
v 0.0716086294149921 1.054744064415064 -0.2880807804336176
v 0.08092287834844573 1.0721874199228623 -0.24191618128566894
v 0.07605212431902503 1.042638055263813 -0.24983390968291394
v 0.0716086294149921 1.054744064415064 -0.2880807804336176
v 0.08092287834844573 1.0721874199228623 -0.24191618128566894
v 0.0716086294149921 1.054744064415064 -0.2880807804336176
v 0.07622302796918014 1.0825600864544485 -0.28062749979151824
v 0.0716086294149921 1.1104586486185786 -0.2731521025896501
v 0.07622302796918014 1.0825600864544485 -0.28062749979151824
v 0.05836359652797089 1.0916278759596731 -0.3144689509373566
v 0.0716086294149921 1.1104586486185786 -0.2731521025896501
v 0.05836359652797089 1.0916278759596731 -0.3144689509373566
v 0.05486007169979109 1.1129232281441275 -0.3087628785169957
v 0.05836359652797089 1.134973065668125 -0.26658348433830437
v 0.0716086294149921 1.1104586486185786 -0.2731521025896501
v 0.05486007169979109 1.1129232281441275 -0.3087628785169957
v 0.05836359652797089 1.134973065668125 -0.26658348433830437
v 0.05486007169979109 1.1129232281441275 -0.3087628785169957
v 0.0446913045155619 1.1317423765862036 -0.30372030288970003
v 0.03811151398459007 1.1531318931122334 -0.2617178411891594
v 0.05836359652797089 1.134973065668125 -0.26658348433830437
v 0.0446913045155619 1.1317423765862036 -0.30372030288970003
v 0.03811151398459007 1.1531318931122334 -0.2617178411891594
v 0.0446913045155619 1.1317423765862036 -0.30372030288970003
v 0.02913907235144667 1.1456091175435228 -0.3000047208485348
v 0.013245032887021212 1.1628097227386958 -0.25912467455626287
v 0.03811151398459007 1.1531318931122334 -0.2617178411891594
v 0.02913907235144667 1.1456091175435228 -0.3000047208485348
v 0.013245032887021212 1.1628097227386958 -0.25912467455626287
v 0.02913907235144667 1.1456091175435228 -0.3000047208485348
v 0.010168767184229188 1.153037728770658 -0.2980142304693391
v -0.013245032887021212 1.1628097227386958 -0.25912467455626287
v 0.013245032887021212 1.1628097227386958 -0.25912467455626287
v 0.010168767184229188 1.153037728770658 -0.2980142304693391
v -0.013245032887021212 1.1628097227386958 -0.25912467455626287
v 0.010168767184229188 1.153037728770658 -0.2980142304693391
v -0.010168767184229188 1.153037728770658 -0.2980142304693391
v -0.03811151398459007 1.1531318931122334 -0.2617178411891594
v -0.013245032887021212 1.1628097227386958 -0.25912467455626287
v -0.010168767184229188 1.153037728770658 -0.2980142304693391
v -0.03811151398459007 1.1531318931122334 -0.2617178411891594
v -0.010168767184229188 1.153037728770658 -0.2980142304693391
v -0.02913907235144667 1.1456091175435228 -0.3000047208485348
v -0.05836359652797089 1.134973065668125 -0.26658348433830437
v -0.03811151398459007 1.1531318931122334 -0.2617178411891594
v -0.02913907235144667 1.1456091175435228 -0.3000047208485348
v -0.05836359652797089 1.134973065668125 -0.26658348433830437
v -0.02913907235144667 1.1456091175435228 -0.3000047208485348
v -0.0446913045155619 1.1317423765862036 -0.30372030288970003
v -0.0716086294149921 1.1104586486185786 -0.2731521025896501
v -0.05836359652797089 1.134973065668125 -0.26658348433830437
v -0.0446913045155619 1.1317423765862036 -0.30372030288970003
v -0.0716086294149921 1.1104586486185786 -0.2731521025896501
v -0.0446913045155619 1.1317423765862036 -0.30372030288970003
v -0.05486007169979109 1.1129232281441275 -0.3087628785169957
v -0.07622302796918014 1.0825600864544485 -0.28062749979151824
v -0.0716086294149921 1.1104586486185786 -0.2731521025896501
v -0.05486007169979109 1.1129232281441275 -0.3087628785169957
v -0.07622302796918014 1.0825600864544485 -0.28062749979151824
v -0.05486007169979109 1.1129232281441275 -0.3087628785169957
v -0.05836359652797089 1.0916278759596731 -0.3144689509373566
v -0.0716086294149921 1.054744064415064 -0.2880807804336176
v -0.07622302796918014 1.0825600864544485 -0.28062749979151824
v -0.05836359652797089 1.0916278759596731 -0.3144689509373566
v -0.0716086294149921 1.054744064415064 -0.2880807804336176
v -0.05836359652797089 1.0916278759596731 -0.3144689509373566
v -0.05486007169979109 1.0703325237752186 -0.3201750233577175
v -0.05836359652797089 1.030229647365518 -0.29464939868496326
v -0.0716086294149921 1.054744064415064 -0.2880807804336176
v -0.05486007169979109 1.0703325237752186 -0.3201750233577175
v -0.05836359652797089 1.030229647365518 -0.29464939868496326
v -0.05486007169979109 1.0703325237752186 -0.3201750233577175
v -0.0446913045155619 1.0515133753331427 -0.32521759898501323
v -0.03811151398459007 1.0119882797966633 -0.29953715839387707
v -0.05836359652797089 1.030229647365518 -0.29464939868496326
v -0.0446913045155619 1.0515133753331427 -0.32521759898501323
v -0.03811151398459007 1.0119882797966633 -0.29953715839387707
v -0.0446913045155619 1.0515133753331427 -0.32521759898501323
v -0.02913907235144667 1.0376466343758235 -0.32893318102617847
v -0.013245032887021212 1.0023310852013876 -0.30212479588683144
v -0.03811151398459007 1.0119882797966633 -0.29953715839387707
v -0.02913907235144667 1.0376466343758235 -0.32893318102617847
v -0.013245032887021212 1.0023310852013876 -0.30212479588683144
v -0.02913907235144667 1.0376466343758235 -0.32893318102617847
v -0.010168767184229188 1.0302180231486884 -0.33092367140537415
v 0.013245032887021212 1.0023310852013876 -0.30212479588683144
v -0.013245032887021212 1.0023310852013876 -0.30212479588683144
v -0.010168767184229188 1.0302180231486884 -0.33092367140537415
v 0.013245032887021212 1.0023310852013876 -0.30212479588683144
v -0.010168767184229188 1.0302180231486884 -0.33092367140537415
v 0.010168767184229188 1.0302180231486884 -0.33092367140537415
v 0.03811151398459007 1.0119882797966633 -0.29953715839387707
v 0.013245032887021212 1.0023310852013876 -0.30212479588683144
v 0.010168767184229188 1.0302180231486884 -0.33092367140537415
v 0.03811151398459007 1.0119882797966633 -0.29953715839387707
v 0.010168767184229188 1.0302180231486884 -0.33092367140537415
v 0.02913907235144667 1.0376466343758235 -0.32893318102617847
v 0.05836359652797089 1.030229647365518 -0.29464939868496326
v 0.03811151398459007 1.0119882797966633 -0.29953715839387707
v 0.02913907235144667 1.0376466343758235 -0.32893318102617847
v 0.05836359652797089 1.030229647365518 -0.29464939868496326
v 0.02913907235144667 1.0376466343758235 -0.32893318102617847
v 0.0446913045155619 1.0515133753331427 -0.32521759898501323
v 0.0716086294149921 1.054744064415064 -0.2880807804336176
v 0.05836359652797089 1.030229647365518 -0.29464939868496326
v 0.0446913045155619 1.0515133753331427 -0.32521759898501323
v 0.0716086294149921 1.054744064415064 -0.2880807804336176
v 0.0446913045155619 1.0515133753331427 -0.32521759898501323
v 0.05486007169979109 1.0703325237752186 -0.3201750233577175
v 0.07622302796918014 1.0825600864544485 -0.28062749979151824
v 0.0716086294149921 1.054744064415064 -0.2880807804336176
v 0.05486007169979109 1.0703325237752186 -0.3201750233577175
v 0.07622302796918014 1.0825600864544485 -0.28062749979151824
v 0.05486007169979109 1.0703325237752186 -0.3201750233577175
v 0.05836359652797089 1.0916278759596731 -0.3144689509373566
v 0.05486007169979109 1.1129232281441275 -0.3087628785169957
v 0.05836359652797089 1.0916278759596731 -0.3144689509373566
v 0.028199102275593548 1.0962944700708985 -0.3318849172587516
v 0.05486007169979109 1.1129232281441275 -0.3087628785169957
v 0.028199102275593548 1.0962944700708985 -0.3318849172587516
v 0.026490065774042424 1.1066119856641419 -0.3291203472876465
v 0.0446913045155619 1.1317423765862036 -0.30372030288970003
v 0.05486007169979109 1.1129232281441275 -0.3087628785169957
v 0.026490065774042424 1.1066119856641419 -0.3291203472876465
v 0.0446913045155619 1.1317423765862036 -0.30372030288970003
v 0.026490065774042424 1.1066119856641419 -0.3291203472876465
v 0.02161931174462172 1.115691399386196 -0.326687525713074
v 0.02913907235144667 1.1456091175435228 -0.3000047208485348
v 0.0446913045155619 1.1317423765862036 -0.30372030288970003
v 0.02161931174462172 1.115691399386196 -0.326687525713074
v 0.02913907235144667 1.1456091175435228 -0.3000047208485348
v 0.02161931174462172 1.115691399386196 -0.326687525713074
v 0.014099551137796774 1.1224596896153638 -0.3248739678120291
v 0.010168767184229188 1.153037728770658 -0.2980142304693391
v 0.02913907235144667 1.1456091175435228 -0.3000047208485348
v 0.014099551137796774 1.1224596896153638 -0.3248739678120291
v 0.010168767184229188 1.153037728770658 -0.2980142304693391
v 0.014099551137796774 1.1224596896153638 -0.3248739678120291
v 0.004870754029420703 1.1260089149794397 -0.32392295574196894
v -0.010168767184229188 1.153037728770658 -0.2980142304693391
v 0.010168767184229188 1.153037728770658 -0.2980142304693391
v 0.004870754029420703 1.1260089149794397 -0.32392295574196894
v -0.010168767184229188 1.153037728770658 -0.2980142304693391
v 0.004870754029420703 1.1260089149794397 -0.32392295574196894
v -0.004870754029420703 1.1260089149794397 -0.32392295574196894
v -0.02913907235144667 1.1456091175435228 -0.3000047208485348
v -0.010168767184229188 1.153037728770658 -0.2980142304693391
v -0.004870754029420703 1.1260089149794397 -0.32392295574196894
v -0.02913907235144667 1.1456091175435228 -0.3000047208485348
v -0.004870754029420703 1.1260089149794397 -0.32392295574196894
v -0.014099551137796774 1.1224596896153638 -0.3248739678120291
v -0.0446913045155619 1.1317423765862036 -0.30372030288970003
v -0.02913907235144667 1.1456091175435228 -0.3000047208485348
v -0.014099551137796774 1.1224596896153638 -0.3248739678120291
v -0.0446913045155619 1.1317423765862036 -0.30372030288970003
v -0.014099551137796774 1.1224596896153638 -0.3248739678120291
v -0.02161931174462172 1.115691399386196 -0.326687525713074
v -0.05486007169979109 1.1129232281441275 -0.3087628785169957
v -0.0446913045155619 1.1317423765862036 -0.30372030288970003
v -0.02161931174462172 1.115691399386196 -0.326687525713074
v -0.05486007169979109 1.1129232281441275 -0.3087628785169957
v -0.02161931174462172 1.115691399386196 -0.326687525713074
v -0.026490065774042424 1.1066119856641419 -0.3291203472876465
v -0.05836359652797089 1.0916278759596731 -0.3144689509373566
v -0.05486007169979109 1.1129232281441275 -0.3087628785169957
v -0.026490065774042424 1.1066119856641419 -0.3291203472876465
v -0.05836359652797089 1.0916278759596731 -0.3144689509373566
v -0.026490065774042424 1.1066119856641419 -0.3291203472876465
v -0.028199102275593548 1.0962944700708985 -0.3318849172587516
v -0.05486007169979109 1.0703325237752186 -0.3201750233577175
v -0.05836359652797089 1.0916278759596731 -0.3144689509373566
v -0.028199102275593548 1.0962944700708985 -0.3318849172587516
v -0.05486007169979109 1.0703325237752186 -0.3201750233577175
v -0.028199102275593548 1.0962944700708985 -0.3318849172587516
v -0.026490065774042424 1.0859769544776552 -0.3346494872298567
v -0.0446913045155619 1.0515133753331427 -0.32521759898501323
v -0.05486007169979109 1.0703325237752186 -0.3201750233577175
v -0.026490065774042424 1.0859769544776552 -0.3346494872298567
v -0.0446913045155619 1.0515133753331427 -0.32521759898501323
v -0.026490065774042424 1.0859769544776552 -0.3346494872298567
v -0.02161931174462172 1.076897540755601 -0.33708230880442913
v -0.02913907235144667 1.0376466343758235 -0.32893318102617847
v -0.0446913045155619 1.0515133753331427 -0.32521759898501323
v -0.02161931174462172 1.076897540755601 -0.33708230880442913
v -0.02913907235144667 1.0376466343758235 -0.32893318102617847
v -0.02161931174462172 1.076897540755601 -0.33708230880442913
v -0.014099551137796774 1.0702117906511792 -0.33887375014570525
v -0.010168767184229188 1.0302180231486884 -0.33092367140537415
v -0.02913907235144667 1.0376466343758235 -0.32893318102617847
v -0.014099551137796774 1.0702117906511792 -0.33887375014570525
v -0.010168767184229188 1.0302180231486884 -0.33092367140537415
v -0.014099551137796774 1.0702117906511792 -0.33887375014570525
v -0.004870754029420703 1.0665800251623574 -0.33984687877553427
v 0.010168767184229188 1.0302180231486884 -0.33092367140537415
v -0.010168767184229188 1.0302180231486884 -0.33092367140537415
v -0.004870754029420703 1.0665800251623574 -0.33984687877553427
v 0.010168767184229188 1.0302180231486884 -0.33092367140537415
v -0.004870754029420703 1.0665800251623574 -0.33984687877553427
v 0.004870754029420703 1.0665800251623574 -0.33984687877553427
v 0.02913907235144667 1.0376466343758235 -0.32893318102617847
v 0.010168767184229188 1.0302180231486884 -0.33092367140537415
v 0.004870754029420703 1.0665800251623574 -0.33984687877553427
v 0.02913907235144667 1.0376466343758235 -0.32893318102617847
v 0.004870754029420703 1.0665800251623574 -0.33984687877553427
v 0.014099551137796774 1.0702117906511792 -0.33887375014570525
v 0.0446913045155619 1.0515133753331427 -0.32521759898501323
v 0.02913907235144667 1.0376466343758235 -0.32893318102617847
v 0.014099551137796774 1.0702117906511792 -0.33887375014570525
v 0.0446913045155619 1.0515133753331427 -0.32521759898501323
v 0.014099551137796774 1.0702117906511792 -0.33887375014570525
v 0.02161931174462172 1.076897540755601 -0.33708230880442913
v 0.05486007169979109 1.0703325237752186 -0.3201750233577175
v 0.0446913045155619 1.0515133753331427 -0.32521759898501323
v 0.02161931174462172 1.076897540755601 -0.33708230880442913
v 0.05486007169979109 1.0703325237752186 -0.3201750233577175
v 0.02161931174462172 1.076897540755601 -0.33708230880442913
v 0.026490065774042424 1.0859769544776552 -0.3346494872298567
v 0.05836359652797089 1.0916278759596731 -0.3144689509373566
v 0.05486007169979109 1.0703325237752186 -0.3201750233577175
v 0.026490065774042424 1.0859769544776552 -0.3346494872298567
v 0.05836359652797089 1.0916278759596731 -0.3144689509373566
v 0.026490065774042424 1.0859769544776552 -0.3346494872298567
v 0.028199102275593548 1.0962944700708985 -0.3318849172587516
v 0.026490065774042424 1.1066119856641419 -0.3291203472876465
v 0.028199102275593548 1.0962944700708985 -0.3318849172587516
v 0.003759880303412473 1.0981080279719435 -0.3386532074879194
v 0.026490065774042424 1.1066119856641419 -0.3291203472876465
v 0.003759880303412473 1.0981080279719435 -0.3386532074879194
v 0.0035035248281798043 1.0995112100926245 -0.3382772259718491
v 0.02161931174462172 1.115691399386196 -0.326687525713074
v 0.026490065774042424 1.1066119856641419 -0.3291203472876465
v 0.0035035248281798043 1.0995112100926245 -0.3382772259718491
v 0.02161931174462172 1.115691399386196 -0.326687525713074
v 0.0035035248281798043 1.0995112100926245 -0.3382772259718491
v 0.0029053620526369108 1.100666771839068 -0.33796759413508537
v 0.014099551137796774 1.1224596896153638 -0.3248739678120291
v 0.02161931174462172 1.115691399386196 -0.326687525713074
v 0.0029053620526369108 1.100666771839068 -0.33796759413508537
v 0.014099551137796774 1.1224596896153638 -0.3248739678120291
v 0.0029053620526369108 1.100666771839068 -0.33796759413508537
v 0.0018799401517062364 1.1015747132112732 -0.3377243119776281
v 0.004870754029420703 1.1260089149794397 -0.32392295574196894
v 0.014099551137796774 1.1224596896153638 -0.3248739678120291
v 0.0018799401517062364 1.1015747132112732 -0.3377243119776281
v 0.004870754029420703 1.1260089149794397 -0.32392295574196894
v 0.0018799401517062364 1.1015747132112732 -0.3377243119776281
v 0.0006836146006204497 1.102069953959749 -0.33759161261901505
v -0.004870754029420703 1.1260089149794397 -0.32392295574196894
v 0.004870754029420703 1.1260089149794397 -0.32392295574196894
v 0.0006836146006204497 1.102069953959749 -0.33759161261901505
v -0.004870754029420703 1.1260089149794397 -0.32392295574196894
v 0.0006836146006204497 1.102069953959749 -0.33759161261901505
v -0.0006836146006204497 1.102069953959749 -0.33759161261901505
v -0.014099551137796774 1.1224596896153638 -0.3248739678120291
v -0.004870754029420703 1.1260089149794397 -0.32392295574196894
v -0.0006836146006204497 1.102069953959749 -0.33759161261901505
v -0.014099551137796774 1.1224596896153638 -0.3248739678120291
v -0.0006836146006204497 1.102069953959749 -0.33759161261901505
v -0.0018799401517062364 1.1015747132112732 -0.3377243119776281
v -0.02161931174462172 1.115691399386196 -0.326687525713074
v -0.014099551137796774 1.1224596896153638 -0.3248739678120291
v -0.0018799401517062364 1.1015747132112732 -0.3377243119776281
v -0.02161931174462172 1.115691399386196 -0.326687525713074
v -0.0018799401517062364 1.1015747132112732 -0.3377243119776281
v -0.0029053620526369108 1.100666771839068 -0.33796759413508537
v -0.026490065774042424 1.1066119856641419 -0.3291203472876465
v -0.02161931174462172 1.115691399386196 -0.326687525713074
v -0.0029053620526369108 1.100666771839068 -0.33796759413508537
v -0.026490065774042424 1.1066119856641419 -0.3291203472876465
v -0.0029053620526369108 1.100666771839068 -0.33796759413508537
v -0.0035035248281798043 1.0995112100926245 -0.3382772259718491
v -0.028199102275593548 1.0962944700708985 -0.3318849172587516
v -0.026490065774042424 1.1066119856641419 -0.3291203472876465
v -0.0035035248281798043 1.0995112100926245 -0.3382772259718491
v -0.028199102275593548 1.0962944700708985 -0.3318849172587516
v -0.0035035248281798043 1.0995112100926245 -0.3382772259718491
v -0.003759880303412473 1.0981080279719435 -0.3386532074879194
v -0.026490065774042424 1.0859769544776552 -0.3346494872298567
v -0.028199102275593548 1.0962944700708985 -0.3318849172587516
v -0.003759880303412473 1.0981080279719435 -0.3386532074879194
v -0.026490065774042424 1.0859769544776552 -0.3346494872298567
v -0.003759880303412473 1.0981080279719435 -0.3386532074879194
v -0.0035035248281798043 1.0967048458512623 -0.3390291890039897
v -0.02161931174462172 1.076897540755601 -0.33708230880442913
v -0.026490065774042424 1.0859769544776552 -0.3346494872298567
v -0.0035035248281798043 1.0967048458512623 -0.3390291890039897
v -0.02161931174462172 1.076897540755601 -0.33708230880442913
v -0.0035035248281798043 1.0967048458512623 -0.3390291890039897
v -0.0029053620526369108 1.095549284104819 -0.33933882084075345
v -0.014099551137796774 1.0702117906511792 -0.33887375014570525
v -0.02161931174462172 1.076897540755601 -0.33708230880442913
v -0.0029053620526369108 1.095549284104819 -0.33933882084075345
v -0.014099551137796774 1.0702117906511792 -0.33887375014570525
v -0.0029053620526369108 1.095549284104819 -0.33933882084075345
v -0.0018799401517062364 1.0946413427326138 -0.33958210299821073
v -0.004870754029420703 1.0665800251623574 -0.33984687877553427
v -0.014099551137796774 1.0702117906511792 -0.33887375014570525
v -0.0018799401517062364 1.0946413427326138 -0.33958210299821073
v -0.004870754029420703 1.0665800251623574 -0.33984687877553427
v -0.0018799401517062364 1.0946413427326138 -0.33958210299821073
v -0.0006836146006204497 1.094146101984138 -0.3397148023568238
v 0.004870754029420703 1.0665800251623574 -0.33984687877553427
v -0.004870754029420703 1.0665800251623574 -0.33984687877553427
v -0.0006836146006204497 1.094146101984138 -0.3397148023568238
v 0.004870754029420703 1.0665800251623574 -0.33984687877553427
v -0.0006836146006204497 1.094146101984138 -0.3397148023568238
v 0.0006836146006204497 1.094146101984138 -0.3397148023568238
v 0.014099551137796774 1.0702117906511792 -0.33887375014570525
v 0.004870754029420703 1.0665800251623574 -0.33984687877553427
v 0.0006836146006204497 1.094146101984138 -0.3397148023568238
v 0.014099551137796774 1.0702117906511792 -0.33887375014570525
v 0.0006836146006204497 1.094146101984138 -0.3397148023568238
v 0.0018799401517062364 1.0946413427326138 -0.33958210299821073
v 0.02161931174462172 1.076897540755601 -0.33708230880442913
v 0.014099551137796774 1.0702117906511792 -0.33887375014570525
v 0.0018799401517062364 1.0946413427326138 -0.33958210299821073
v 0.02161931174462172 1.076897540755601 -0.33708230880442913
v 0.0018799401517062364 1.0946413427326138 -0.33958210299821073
v 0.0029053620526369108 1.095549284104819 -0.33933882084075345
v 0.026490065774042424 1.0859769544776552 -0.3346494872298567
v 0.02161931174462172 1.076897540755601 -0.33708230880442913
v 0.0029053620526369108 1.095549284104819 -0.33933882084075345
v 0.026490065774042424 1.0859769544776552 -0.3346494872298567
v 0.0029053620526369108 1.095549284104819 -0.33933882084075345
v 0.0035035248281798043 1.0967048458512623 -0.3390291890039897
v 0.028199102275593548 1.0962944700708985 -0.3318849172587516
v 0.026490065774042424 1.0859769544776552 -0.3346494872298567
v 0.0035035248281798043 1.0967048458512623 -0.3390291890039897
v 0.028199102275593548 1.0962944700708985 -0.3318849172587516
v 0.0035035248281798043 1.0967048458512623 -0.3390291890039897
v 0.003759880303412473 1.0981080279719435 -0.3386532074879194
v 0.0 1.0164702767252103 -0.03397697201944096
v 0.04520401546602723 1.0164702767252103 -0.03397697201944096
v 0.04246955706354544 1.0329783016743999 -0.029553660065672813
v 0.0 1.0164702767252103 -0.03397697201944096
v 0.04246955706354544 1.0329783016743999 -0.029553660065672813
v 0.034607989156410265 1.0475053636296865 -0.02566114554635684
v 0.0 1.0164702767252103 -0.03397697201944096
v 0.034607989156410265 1.0475053636296865 -0.02566114554635684
v 0.022559281820474838 1.0583181199714056 -0.02276387621663871
v 0.0 1.0164702767252103 -0.03397697201944096
v 0.022559281820474838 1.0583181199714056 -0.02276387621663871
v 0.00786156790713517 1.064013388578876 -0.02123783359258869
v 0.0 1.0164702767252103 -0.03397697201944096
v 0.00786156790713517 1.064013388578876 -0.02123783359258869
v -0.00786156790713517 1.064013388578876 -0.02123783359258869
v 0.0 1.0164702767252103 -0.03397697201944096
v -0.00786156790713517 1.064013388578876 -0.02123783359258869
v -0.022559281820474838 1.0583181199714056 -0.02276387621663871
v 0.0 1.0164702767252103 -0.03397697201944096
v -0.022559281820474838 1.0583181199714056 -0.02276387621663871
v -0.034607989156410265 1.0475053636296865 -0.02566114554635684
v 0.0 1.0164702767252103 -0.03397697201944096
v -0.034607989156410265 1.0475053636296865 -0.02566114554635684
v -0.04246955706354544 1.0329783016743999 -0.029553660065672813
v 0.0 1.0164702767252103 -0.03397697201944096
v -0.04246955706354544 1.0329783016743999 -0.029553660065672813
v -0.04520401546602723 1.0164702767252103 -0.03397697201944096
v 0.0 1.0164702767252103 -0.03397697201944096
v -0.04520401546602723 1.0164702767252103 -0.03397697201944096
v -0.04246955706354544 0.9999622517760208 -0.038400283973209104
v 0.0 1.0164702767252103 -0.03397697201944096
v -0.04246955706354544 0.9999622517760208 -0.038400283973209104
v -0.034607989156410265 0.9854351898207341 -0.04229279849252507
v 0.0 1.0164702767252103 -0.03397697201944096
v -0.034607989156410265 0.9854351898207341 -0.04229279849252507
v -0.022559281820474838 0.9747049736037608 -0.04516795126247437
v 0.0 1.0164702767252103 -0.03397697201944096
v -0.022559281820474838 0.9747049736037608 -0.04516795126247437
v -0.00786156790713517 0.9689271648715446 -0.04671611044629322
v 0.0 1.0164702767252103 -0.03397697201944096
v -0.00786156790713517 0.9689271648715446 -0.04671611044629322
v 0.00786156790713517 0.9689271648715446 -0.04671611044629322
v 0.0 1.0164702767252103 -0.03397697201944096
v 0.00786156790713517 0.9689271648715446 -0.04671611044629322
v 0.022559281820474838 0.9747049736037608 -0.04516795126247437
v 0.0 1.0164702767252103 -0.03397697201944096
v 0.022559281820474838 0.9747049736037608 -0.04516795126247437
v 0.034607989156410265 0.9854351898207341 -0.04229279849252507
v 0.0 1.0164702767252103 -0.03397697201944096
v 0.034607989156410265 0.9854351898207341 -0.04229279849252507
v 0.04246955706354544 0.9999622517760208 -0.038400283973209104
v 0.0 1.0164702767252103 -0.03397697201944096
v 0.04246955706354544 0.9999622517760208 -0.038400283973209104
v 0.04520401546602723 1.0164702767252103 -0.03397697201944096
v 0.0 1.0981080279719435 -0.3386532074879194
v 0.0035035248281798043 1.0995112100926245 -0.3382772259718491
v 0.003759880303412473 1.0981080279719435 -0.3386532074879194
v 0.0 1.0981080279719435 -0.3386532074879194
v 0.0029053620526369108 1.100666771839068 -0.33796759413508537
v 0.0035035248281798043 1.0995112100926245 -0.3382772259718491
v 0.0 1.0981080279719435 -0.3386532074879194
v 0.0018799401517062364 1.1015747132112732 -0.3377243119776281
v 0.0029053620526369108 1.100666771839068 -0.33796759413508537
v 0.0 1.0981080279719435 -0.3386532074879194
v 0.0006836146006204497 1.102069953959749 -0.33759161261901505
v 0.0018799401517062364 1.1015747132112732 -0.3377243119776281
v 0.0 1.0981080279719435 -0.3386532074879194
v -0.0006836146006204497 1.102069953959749 -0.33759161261901505
v 0.0006836146006204497 1.102069953959749 -0.33759161261901505
v 0.0 1.0981080279719435 -0.3386532074879194
v -0.0018799401517062364 1.1015747132112732 -0.3377243119776281
v -0.0006836146006204497 1.102069953959749 -0.33759161261901505
v 0.0 1.0981080279719435 -0.3386532074879194
v -0.0029053620526369108 1.100666771839068 -0.33796759413508537
v -0.0018799401517062364 1.1015747132112732 -0.3377243119776281
v 0.0 1.0981080279719435 -0.3386532074879194
v -0.0035035248281798043 1.0995112100926245 -0.3382772259718491
v -0.0029053620526369108 1.100666771839068 -0.33796759413508537
v 0.0 1.0981080279719435 -0.3386532074879194
v -0.003759880303412473 1.0981080279719435 -0.3386532074879194
v -0.0035035248281798043 1.0995112100926245 -0.3382772259718491
v 0.0 1.0981080279719435 -0.3386532074879194
v -0.0035035248281798043 1.0967048458512623 -0.3390291890039897
v -0.003759880303412473 1.0981080279719435 -0.3386532074879194
v 0.0 1.0981080279719435 -0.3386532074879194
v -0.0029053620526369108 1.095549284104819 -0.33933882084075345
v -0.0035035248281798043 1.0967048458512623 -0.3390291890039897
v 0.0 1.0981080279719435 -0.3386532074879194
v -0.0018799401517062364 1.0946413427326138 -0.33958210299821073
v -0.0029053620526369108 1.095549284104819 -0.33933882084075345
v 0.0 1.0981080279719435 -0.3386532074879194
v -0.0006836146006204497 1.094146101984138 -0.3397148023568238
v -0.0018799401517062364 1.0946413427326138 -0.33958210299821073
v 0.0 1.0981080279719435 -0.3386532074879194
v 0.0006836146006204497 1.094146101984138 -0.3397148023568238
v -0.0006836146006204497 1.094146101984138 -0.3397148023568238
v 0.0 1.0981080279719435 -0.3386532074879194
v 0.0018799401517062364 1.0946413427326138 -0.33958210299821073
v 0.0006836146006204497 1.094146101984138 -0.3397148023568238
v 0.0 1.0981080279719435 -0.3386532074879194
v 0.0029053620526369108 1.095549284104819 -0.33933882084075345
v 0.0018799401517062364 1.0946413427326138 -0.33958210299821073
v 0.0 1.0981080279719435 -0.3386532074879194
v 0.0035035248281798043 1.0967048458512623 -0.3390291890039897
v 0.0029053620526369108 1.095549284104819 -0.33933882084075345
v 0.0 1.0981080279719435 -0.3386532074879194
v 0.003759880303412473 1.0981080279719435 -0.3386532074879194
v 0.0035035248281798043 1.0967048458512623 -0.3390291890039897
f 1 2 3
f 4 5 6
f 7 8 9
f 10 11 12
f 13 14 15
f 16 17 18
f 19 20 21
f 22 23 24
f 25 26 27
f 28 29 30
f 31 32 33
f 34 35 36
f 37 38 39
f 40 41 42
f 43 44 45
f 46 47 48
f 49 50 51
f 52 53 54
f 55 56 57
f 58 59 60
f 61 62 63
f 64 65 66
f 67 68 69
f 70 71 72
f 73 74 75
f 76 77 78
f 79 80 81
f 82 83 84
f 85 86 87
f 88 89 90
f 91 92 93
f 94 95 96
f 97 98 99
f 100 101 102
f 103 104 105
f 106 107 108
f 109 110 111
f 112 113 114
f 115 116 117
f 118 119 120
f 121 122 123
f 124 125 126
f 127 128 129
f 130 131 132
f 133 134 135
f 136 137 138
f 139 140 141
f 142 143 144
f 145 146 147
f 148 149 150
f 151 152 153
f 154 155 156
f 157 158 159
f 160 161 162
f 163 164 165
f 166 167 168
f 169 170 171
f 172 173 174
f 175 176 177
f 178 179 180
f 181 182 183
f 184 185 186
f 187 188 189
f 190 191 192
f 193 194 195
f 196 197 198
f 199 200 201
f 202 203 204
f 205 206 207
f 208 209 210
f 211 212 213
f 214 215 216
f 217 218 219
f 220 221 222
f 223 224 225
f 226 227 228
f 229 230 231
f 232 233 234
f 235 236 237
f 238 239 240
f 241 242 243
f 244 245 246
f 247 248 249
f 250 251 252
f 253 254 255
f 256 257 258
f 259 260 261
f 262 263 264
f 265 266 267
f 268 269 270
f 271 272 273
f 274 275 276
f 277 278 279
f 280 281 282
f 283 284 285
f 286 287 288
f 289 290 291
f 292 293 294
f 295 296 297
f 298 299 300
f 301 302 303
f 304 305 306
f 307 308 309
f 310 311 312
f 313 314 315
f 316 317 318
f 319 320 321
f 322 323 324
f 325 326 327
f 328 329 330
f 331 332 333
f 334 335 336
f 337 338 339
f 340 341 342
f 343 344 345
f 346 347 348
f 349 350 351
f 352 353 354
f 355 356 357
f 358 359 360
f 361 362 363
f 364 365 366
f 367 368 369
f 370 371 372
f 373 374 375
f 376 377 378
f 379 380 381
f 382 383 384
f 385 386 387
f 388 389 390
f 391 392 393
f 394 395 396
f 397 398 399
f 400 401 402
f 403 404 405
f 406 407 408
f 409 410 411
f 412 413 414
f 415 416 417
f 418 419 420
f 421 422 423
f 424 425 426
f 427 428 429
f 430 431 432
f 433 434 435
f 436 437 438
f 439 440 441
f 442 443 444
f 445 446 447
f 448 449 450
f 451 452 453
f 454 455 456
f 457 458 459
f 460 461 462
f 463 464 465
f 466 467 468
f 469 470 471
f 472 473 474
f 475 476 477
f 478 479 480
f 481 482 483
f 484 485 486
f 487 488 489
f 490 491 492
f 493 494 495
f 496 497 498
f 499 500 501
f 502 503 504
f 505 506 507
f 508 509 510
f 511 512 513
f 514 515 516
f 517 518 519
f 520 521 522
f 523 524 525
f 526 527 528
f 529 530 531
f 532 533 534
f 535 536 537
f 538 539 540
f 541 542 543
f 544 545 546
f 547 548 549
f 550 551 552
f 553 554 555
f 556 557 558
f 559 560 561
f 562 563 564
f 565 566 567
f 568 569 570
f 571 572 573
f 574 575 576
f 577 578 579
f 580 581 582
f 583 584 585
f 586 587 588
f 589 590 591
f 592 593 594
f 595 596 597
f 598 599 600
f 601 602 603
f 604 605 606
f 607 608 609
f 610 611 612
f 613 614 615
f 616 617 618
f 619 620 621
f 622 623 624
f 625 626 627
f 628 629 630
f 631 632 633
f 634 635 636
f 637 638 639
f 640 641 642
f 643 644 645
f 646 647 648
f 649 650 651
f 652 653 654
f 655 656 657
f 658 659 660
f 661 662 663
f 664 665 666
f 667 668 669
f 670 671 672
f 673 674 675
f 676 677 678
f 679 680 681
f 682 683 684
f 685 686 687
f 688 689 690
f 691 692 693
f 694 695 696
f 697 698 699
f 700 701 702
f 703 704 705
f 706 707 708
f 709 710 711
f 712 713 714
f 715 716 717
f 718 719 720
f 721 722 723
f 724 725 726
f 727 728 729
f 730 731 732
f 733 734 735
f 736 737 738
f 739 740 741
f 742 743 744
f 745 746 747
f 748 749 750
f 751 752 753
f 754 755 756
f 757 758 759
f 760 761 762
f 763 764 765
f 766 767 768
f 769 770 771
f 772 773 774
f 775 776 777
f 778 779 780
f 781 782 783
f 784 785 786
f 787 788 789
f 790 791 792
f 793 794 795
f 796 797 798
f 799 800 801
f 802 803 804
f 805 806 807
f 808 809 810
f 811 812 813
f 814 815 816
f 817 818 819
f 820 821 822
f 823 824 825
f 826 827 828
f 829 830 831
f 832 833 834
f 835 836 837
f 838 839 840
f 841 842 843
f 844 845 846
f 847 848 849
f 850 851 852
f 853 854 855
f 856 857 858
f 859 860 861
f 862 863 864
f 865 866 867
f 868 869 870
f 871 872 873
f 874 875 876
f 877 878 879
f 880 881 882
f 883 884 885
f 886 887 888
f 889 890 891
f 892 893 894
f 895 896 897
f 898 899 900
f 901 902 903
f 904 905 906
f 907 908 909
f 910 911 912
f 913 914 915
f 916 917 918
f 919 920 921
f 922 923 924
f 925 926 927
f 928 929 930
f 931 932 933
f 934 935 936
f 937 938 939
f 940 941 942
f 943 944 945
f 946 947 948
f 949 950 951
f 952 953 954
f 955 956 957
f 958 959 960
f 961 962 963
f 964 965 966
f 967 968 969
f 970 971 972
f 973 974 975
f 976 977 978
f 979 980 981
f 982 983 984
f 985 986 987
f 988 989 990
f 991 992 993
f 994 995 996
f 997 998 999
f 1000 1001 1002
f 1003 1004 1005
f 1006 1007 1008
f 1009 1010 1011
f 1012 1013 1014
f 1015 1016 1017
f 1018 1019 1020
f 1021 1022 1023
f 1024 1025 1026
f 1027 1028 1029
f 1030 1031 1032
f 1033 1034 1035
f 1036 1037 1038
f 1039 1040 1041
f 1042 1043 1044
f 1045 1046 1047
f 1048 1049 1050
f 1051 1052 1053
f 1054 1055 1056
f 1057 1058 1059
f 1060 1061 1062
f 1063 1064 1065
f 1066 1067 1068
f 1069 1070 1071
f 1072 1073 1074
f 1075 1076 1077
f 1078 1079 1080
