# Piezas extraídas de modelos de terceros; véase procedencia.json
mtllib paciente-4.mtl
o pieza_0
usemtl material_0
v 0.19895321173682026 0.9717465468486861 0.05047531955487387
v 0.20484938766717162 0.9728540025016912 0.05138856410150631
v 0.21339457017492722 0.9558268718367373 0.1477145915834904
v 0.19895321173682026 0.9717465468486861 0.05047531955487387
v 0.21339457017492722 0.9558268718367373 0.1477145915834904
v 0.20801110519504118 0.954811704154816 0.1468590202826033
v 0.1822046540216192 0.9707467604952786 0.051660397867049485
v 0.19895321173682026 0.9717465468486861 0.05047531955487387
v 0.20801110519504118 0.954811704154816 0.1468590202826033
v 0.1822046540216192 0.9707467604952786 0.051660397867049485
v 0.20801110519504118 0.954811704154816 0.1468590202826033
v 0.19254432485600353 0.9539042057724924 0.14788060624283597
v 0.15518051434084207 0.9699161687555248 0.05479057101720031
v 0.1822046540216192 0.9707467604952786 0.051660397867049485
v 0.19254432485600353 0.9539042057724924 0.14788060624283597
v 0.15518051434084207 0.9699161687555248 0.05479057101720031
v 0.19254432485600353 0.9539042057724924 0.14788060624283597
v 0.16774193262724282 0.9531351393467944 0.1507912016928471
v 0.12817773761633433 0.9695008728856479 0.05870001292777272
v 0.15518051434084207 0.9699161687555248 0.05479057101720031
v 0.16774193262724282 0.9531351393467944 0.1507912016928471
v 0.12817773761633433 0.9695008728856479 0.05870001292777272
v 0.16774193262724282 0.9531351393467944 0.1507912016928471
v 0.14287545152967399 0.9527506061339454 0.15440286399531458
v 0.1114291799011333 0.9697162114848433 0.06194564657532882
v 0.12817773761633433 0.9695008728856479 0.05870001292777272
v 0.14287545152967399 0.9527506061339454 0.15440286399531458
v 0.1114291799011333 0.9697162114848433 0.06194564657532882
v 0.14287545152967399 0.9527506061339454 0.15440286399531458
v 0.12749412301571386 0.9529505634046268 0.15737717281131505
v 0.1055330039707819 0.9705621845531112 0.06435053948171764
v 0.1114291799011333 0.9697162114848433 0.06194564657532882
v 0.12749412301571386 0.9529505634046268 0.15737717281131505
v 0.1055330039707819 0.9705621845531112 0.06435053948171764
v 0.12749412301571386 0.9529505634046268 0.15737717281131505
v 0.12202520621075028 0.9537196298303249 0.1596418523472127
v 0.1114291799011333 0.9716696402061162 0.06526378402835008
v 0.1055330039707819 0.9705621845531112 0.06435053948171764
v 0.12202520621075028 0.9537196298303249 0.1596418523472127
v 0.1114291799011333 0.9716696402061162 0.06526378402835008
v 0.12202520621075028 0.9537196298303249 0.1596418523472127
v 0.12749412301571386 0.9547501788407602 0.16041488352335384
v 0.12817773761633433 0.9726540452310097 0.06416124584092031
v 0.1114291799011333 0.9716696402061162 0.06526378402835008
v 0.12749412301571386 0.9547501788407602 0.16041488352335384
v 0.12817773761633433 0.9726540452310097 0.06416124584092031
v 0.12749412301571386 0.9547501788407602 0.16041488352335384
v 0.14287545152967399 0.9556576772230838 0.1593932975631213
v 0.15518051434084207 0.9735000182992776 0.06094853256602375
v 0.12817773761633433 0.9726540452310097 0.06416124584092031
v 0.14287545152967399 0.9556576772230838 0.1593932975631213
v 0.15518051434084207 0.9735000182992776 0.06094853256602375
v 0.14287545152967399 0.9556576772230838 0.1593932975631213
v 0.16774193262724282 0.9564267436487818 0.15648270211311013
v 0.1822046540216192 0.9738999328406405 0.05712163078019712
v 0.15518051434084207 0.9735000182992776 0.06094853256602375
v 0.16774193262724282 0.9564267436487818 0.15648270211311013
v 0.1822046540216192 0.9738999328406405 0.05712163078019712
v 0.16774193262724282 0.9564267436487818 0.15648270211311013
v 0.19254432485600353 0.9567958955331168 0.15295357993538852
v 0.19895321173682026 0.973684594241445 0.05387599713264119
v 0.1822046540216192 0.9738999328406405 0.05712163078019712
v 0.19254432485600353 0.9567958955331168 0.15295357993538852
v 0.19895321173682026 0.973684594241445 0.05387599713264119
v 0.19254432485600353 0.9567958955331168 0.15295357993538852
v 0.20801110519504118 0.9565959382624354 0.14997927111938802
v 0.20484938766717162 0.9728540025016912 0.05138856410150631
v 0.19895321173682026 0.973684594241445 0.05387599713264119
v 0.20801110519504118 0.9565959382624354 0.14997927111938802
v 0.20484938766717162 0.9728540025016912 0.05138856410150631
v 0.20801110519504118 0.9565959382624354 0.14997927111938802
v 0.21339457017492722 0.9558268718367373 0.1477145915834904
v 0.20801110519504118 0.954811704154816 0.1468590202826033
v 0.21339457017492722 0.9558268718367373 0.1477145915834904
v 0.2220252045077604 0.9388112771681689 0.24400083053168392
v 0.20801110519504118 0.954811704154816 0.1468590202826033
v 0.2220252045077604 0.9388112771681689 0.24400083053168392
v 0.21706899865326215 0.9378730161288173 0.24326335604151927
v 0.19254432485600353 0.9539042057724924 0.14788060624283597
v 0.20801110519504118 0.954811704154816 0.1468590202826033
v 0.21706899865326215 0.9378730161288173 0.24326335604151927
v 0.19254432485600353 0.9539042057724924 0.14788060624283597
v 0.21706899865326215 0.9378730161288173 0.24326335604151927
v 0.20296944751546536 0.9370424243890636 0.2442039897745547
v 0.16774193262724282 0.9531351393467944 0.1507912016928471
v 0.19254432485600353 0.9539042057724924 0.14788060624283597
v 0.20296944751546536 0.9370424243890636 0.2442039897745547
v 0.16774193262724282 0.9531351393467944 0.1507912016928471
v 0.20296944751546536 0.9370424243890636 0.2442039897745547
v 0.18032471386991297 0.9363348832774214 0.2468950075244263
v 0.14287545152967399 0.9527506061339454 0.15440286399531458
v 0.16774193262724282 0.9531351393467944 0.1507912016928471
v 0.18032471386991297 0.9363348832774214 0.2468950075244263
v 0.14287545152967399 0.9527506061339454 0.15440286399531458
v 0.18032471386991297 0.9363348832774214 0.2468950075244263
v 0.15765861726809122 0.9359964940501143 0.25012635009404294
v 0.12749412301571386 0.9529505634046268 0.15737717281131505
v 0.14287545152967399 0.9527506061339454 0.15440286399531458
v 0.15765861726809122 0.9359964940501143 0.25012635009404294
v 0.12749412301571386 0.9529505634046268 0.15737717281131505
v 0.15765861726809122 0.9359964940501143 0.25012635009404294
v 0.14355906613029443 0.9361810699922818 0.25282933407848796
v 0.12202520621075028 0.9537196298303249 0.1596418523472127
v 0.12749412301571386 0.9529505634046268 0.15737717281131505
v 0.14355906613029443 0.9361810699922818 0.25282933407848796
v 0.12202520621075028 0.9537196298303249 0.1596418523472127
v 0.14355906613029443 0.9361810699922818 0.25282933407848796
v 0.13860286027579616 0.936888611103924 0.2548712601191483
v 0.12749412301571386 0.9547501788407602 0.16041488352335384
v 0.12202520621075028 0.9537196298303249 0.1596418523472127
v 0.13860286027579616 0.936888611103924 0.2548712601191483
v 0.12749412301571386 0.9547501788407602 0.16041488352335384
v 0.13860286027579616 0.936888611103924 0.2548712601191483
v 0.14355906613029443 0.9378114908147616 0.25569127473405895
v 0.14287545152967399 0.9556576772230838 0.1593932975631213
v 0.12749412301571386 0.9547501788407602 0.16041488352335384
v 0.14355906613029443 0.9378114908147616 0.25569127473405895
v 0.14287545152967399 0.9556576772230838 0.1593932975631213
v 0.14355906613029443 0.9378114908147616 0.25569127473405895
v 0.15765861726809122 0.9386420825545154 0.2547285244412545
v 0.16774193262724282 0.9564267436487818 0.15648270211311013
v 0.14287545152967399 0.9556576772230838 0.1593932975631213
v 0.15765861726809122 0.9386420825545154 0.2547285244412545
v 0.16774193262724282 0.9564267436487818 0.15648270211311013
v 0.15765861726809122 0.9386420825545154 0.2547285244412545
v 0.18032471386991297 0.9393496236661576 0.25205962325115194
v 0.19254432485600353 0.9567958955331168 0.15295357993538852
v 0.16774193262724282 0.9564267436487818 0.15648270211311013
v 0.18032471386991297 0.9393496236661576 0.25205962325115194
v 0.19254432485600353 0.9567958955331168 0.15295357993538852
v 0.18032471386991297 0.9393496236661576 0.25205962325115194
v 0.20296944751546536 0.9396880128934647 0.24880616412176643
v 0.20801110519504118 0.9565959382624354 0.14997927111938802
v 0.19254432485600353 0.9567958955331168 0.15295357993538852
v 0.20296944751546536 0.9396880128934647 0.24880616412176643
v 0.20801110519504118 0.9565959382624354 0.14997927111938802
v 0.20296944751546536 0.9396880128934647 0.24880616412176643
v 0.21706899865326215 0.9395034369512972 0.24610318013732133
v 0.21339457017492722 0.9558268718367373 0.1477145915834904
v 0.20801110519504118 0.9565959382624354 0.14997927111938802
v 0.21706899865326215 0.9395034369512972 0.24610318013732133
v 0.21339457017492722 0.9558268718367373 0.1477145915834904
v 0.21706899865326215 0.9395034369512972 0.24610318013732133
v 0.2220252045077604 0.9388112771681689 0.24400083053168392
v 0.21706899865326215 0.9378730161288173 0.24326335604151927
v 0.2220252045077604 0.9388112771681689 0.24400083053168392
v 0.2306558388405936 0.9217072398606453 0.3408059083167042
v 0.21706899865326215 0.9378730161288173 0.24326335604151927
v 0.2306558388405936 0.9217072398606453 0.3408059083167042
v 0.2268959585371811 0.9198614804389701 0.3459998960554549
v 0.20296944751546536 0.9370424243890636 0.2442039897745547
v 0.21706899865326215 0.9378730161288173 0.24326335604151927
v 0.2268959585371811 0.9198614804389701 0.3459998960554549
v 0.20296944751546536 0.9370424243890636 0.2442039897745547
v 0.2268959585371811 0.9198614804389701 0.3459998960554549
v 0.21459089572601303 0.9185079235297416 0.35041039082291775
v 0.18032471386991297 0.9363348832774214 0.2468950075244263
v 0.20296944751546536 0.9370424243890636 0.2442039897745547
v 0.21459089572601303 0.9185079235297416 0.35041039082291775
v 0.18032471386991297 0.9363348832774214 0.2468950075244263
v 0.21459089572601303 0.9185079235297416 0.35041039082291775
v 0.19425336135755464 0.9176927131185018 0.35385612192416166
v 0.15765861726809122 0.9359964940501143 0.25012635009404294
v 0.18032471386991297 0.9363348832774214 0.2468950075244263
v 0.19425336135755464 0.9176927131185018 0.35385612192416166
v 0.15765861726809122 0.9359964940501143 0.25012635009404294
v 0.19425336135755464 0.9176927131185018 0.35385612192416166
v 0.17355265673251666 0.9176465691329598 0.3552316868466104
v 0.14355906613029443 0.9361810699922818 0.25282933407848796
v 0.15765861726809122 0.9359964940501143 0.25012635009404294
v 0.17355265673251666 0.9176465691329598 0.3552316868466104
v 0.14355906613029443 0.9361810699922818 0.25282933407848796
v 0.17355265673251666 0.9176465691329598 0.3552316868466104
v 0.16030762384549546 0.9184617795441997 0.3538649123636375
v 0.13860286027579616 0.936888611103924 0.2548712601191483
v 0.14355906613029443 0.9361810699922818 0.25282933407848796
v 0.16030762384549546 0.9184617795441997 0.3538649123636375
v 0.13860286027579616 0.936888611103924 0.2548712601191483
v 0.16030762384549546 0.9184617795441997 0.3538649123636375
v 0.15500961069068697 0.9201229630237074 0.34968352268160713
v 0.14355906613029443 0.9378114908147616 0.25569127473405895
v 0.13860286027579616 0.936888611103924 0.2548712601191483
v 0.15500961069068697 0.9201229630237074 0.34968352268160713
v 0.14355906613029443 0.9378114908147616 0.25569127473405895
v 0.15500961069068697 0.9201229630237074 0.34968352268160713
v 0.15876949099409943 0.9219687224453826 0.34448953494285645
v 0.15765861726809122 0.9386420825545154 0.2547285244412545
v 0.14355906613029443 0.9378114908147616 0.25569127473405895
v 0.15876949099409943 0.9219687224453826 0.34448953494285645
v 0.15765861726809122 0.9386420825545154 0.2547285244412545
v 0.15876949099409943 0.9219687224453826 0.34448953494285645
v 0.1710745538052675 0.9233222793546112 0.3400845693153358
v 0.18032471386991297 0.9393496236661576 0.25205962325115194
v 0.15765861726809122 0.9386420825545154 0.2547285244412545
v 0.1710745538052675 0.9233222793546112 0.3400845693153358
v 0.18032471386991297 0.9393496236661576 0.25205962325115194
v 0.1710745538052675 0.9233222793546112 0.3400845693153358
v 0.1914334511299953 0.9241221084373371 0.3367213783388378
v 0.20296944751546536 0.9396880128934647 0.24880616412176643
v 0.18032471386991297 0.9393496236661576 0.25205962325115194
v 0.1914334511299953 0.9241221084373371 0.3367213783388378
v 0.20296944751546536 0.9396880128934647 0.24880616412176643
v 0.1914334511299953 0.9241221084373371 0.3367213783388378
v 0.21211279279876388 0.9241836337513929 0.3352632732916432
v 0.21706899865326215 0.9395034369512972 0.24610318013732133
v 0.20296944751546536 0.9396880128934647 0.24880616412176643
v 0.21211279279876388 0.9241836337513929 0.3352632732916432
v 0.21706899865326215 0.9395034369512972 0.24610318013732133
v 0.21211279279876388 0.9241836337513929 0.3352632732916432
v 0.2253578256857851 0.923353042011639 0.3367070587594197
v 0.2220252045077604 0.9388112771681689 0.24400083053168392
v 0.21706899865326215 0.9395034369512972 0.24610318013732133
v 0.2253578256857851 0.923353042011639 0.3367070587594197
v 0.2220252045077604 0.9388112771681689 0.24400083053168392
v 0.2253578256857851 0.923353042011639 0.3367070587594197
v 0.2306558388405936 0.9217072398606453 0.3408059083167042
v 0.2268959585371811 0.9198614804389701 0.3459998960554549
v 0.2306558388405936 0.9217072398606453 0.3408059083167042
v 0.23364665271830806 0.9109403099008733 0.415066361806596
v 0.2268959585371811 0.9198614804389701 0.3459998960554549
v 0.23364665271830806 0.9109403099008733 0.415066361806596
v 0.23091219431582627 0.9084946786671536 0.4249833404747197
v 0.21459089572601303 0.9185079235297416 0.35041039082291775
v 0.2268959585371811 0.9198614804389701 0.3459998960554549
v 0.23091219431582627 0.9084946786671536 0.4249833404747197
v 0.21459089572601303 0.9185079235297416 0.35041039082291775
v 0.23091219431582627 0.9084946786671536 0.4249833404747197
v 0.2202307161811317 0.9068027325306179 0.4320943803773471
v 0.19425336135755464 0.9176927131185018 0.35385612192416166
v 0.21459089572601303 0.9185079235297416 0.35041039082291775
v 0.2202307161811317 0.9068027325306179 0.4320943803773471
v 0.19425336135755464 0.9176927131185018 0.35385612192416166
v 0.2202307161811317 0.9068027325306179 0.4320943803773471
v 0.20211492926468982 0.9059413781338362 0.43605313057005496
v 0.17355265673251666 0.9176465691329598 0.3552316868466104
v 0.19425336135755464 0.9176927131185018 0.35385612192416166
v 0.20211492926468982 0.9059413781338362 0.43605313057005496
v 0.17355265673251666 0.9176465691329598 0.3552316868466104
v 0.20211492926468982 0.9059413781338362 0.43605313057005496
v 0.18348643139778256 0.9060951914189758 0.4359796923547361
v 0.16030762384549546 0.9184617795441997 0.3538649123636375
v 0.17355265673251666 0.9176465691329598 0.3552316868466104
v 0.18348643139778256 0.9060951914189758 0.4359796923547361
v 0.16030762384549546 0.9184617795441997 0.3538649123636375
v 0.18348643139778256 0.9060951914189758 0.4359796923547361
v 0.17124545745542263 0.9073564603571206 0.4312461256243017
v 0.15500961069068697 0.9201229630237074 0.34968352268160713
v 0.16030762384549546 0.9184617795441997 0.3538649123636375
v 0.17124545745542263 0.9073564603571206 0.4312461256243017
v 0.15500961069068697 0.9201229630237074 0.34968352268160713
v 0.17124545745542263 0.9073564603571206 0.4312461256243017
v 0.16594744430061414 0.9096328969771866 0.4222370883283834
v 0.15876949099409943 0.9219687224453826 0.34448953494285645
v 0.15500961069068697 0.9201229630237074 0.34968352268160713
v 0.16594744430061414 0.9096328969771866 0.4222370883283834
v 0.15876949099409943 0.9219687224453826 0.34448953494285645
v 0.16594744430061414 0.9096328969771866 0.4222370883283834
v 0.16868190270309597 0.9120785282109063 0.41232010966025967
v 0.1710745538052675 0.9233222793546112 0.3400845693153358
v 0.15876949099409943 0.9219687224453826 0.34448953494285645
v 0.16868190270309597 0.9120785282109063 0.41232010966025967
v 0.1710745538052675 0.9233222793546112 0.3400845693153358
v 0.16868190270309597 0.9120785282109063 0.41232010966025967
v 0.1792992919689823 0.9137704743474419 0.4052090697576323
v 0.1914334511299953 0.9241221084373371 0.3367213783388378
v 0.1710745538052675 0.9233222793546112 0.3400845693153358
v 0.1792992919689823 0.9137704743474419 0.4052090697576323
v 0.1914334511299953 0.9241221084373371 0.3367213783388378
v 0.1792992919689823 0.9137704743474419 0.4052090697576323
v 0.1974150788854242 0.9146472100727376 0.4011677794401785
v 0.21211279279876388 0.9241836337513929 0.3352632732916432
v 0.1914334511299953 0.9241221084373371 0.3367213783388378
v 0.1974150788854242 0.9146472100727376 0.4011677794401785
v 0.21211279279876388 0.9241836337513929 0.3352632732916432
v 0.1974150788854242 0.9146472100727376 0.4011677794401785
v 0.21604357675233146 0.914493396787598 0.40124121765549736
v 0.2253578256857851 0.923353042011639 0.3367070587594197
v 0.21211279279876388 0.9241836337513929 0.3352632732916432
v 0.21604357675233146 0.914493396787598 0.40124121765549736
v 0.2253578256857851 0.923353042011639 0.3367070587594197
v 0.21604357675233146 0.914493396787598 0.40124121765549736
v 0.22834863956349957 0.9132321278494533 0.4059747843859317
v 0.2306558388405936 0.9217072398606453 0.3408059083167042
v 0.2253578256857851 0.923353042011639 0.3367070587594197
v 0.22834863956349957 0.9132321278494533 0.4059747843859317
v 0.2306558388405936 0.9217072398606453 0.3408059083167042
v 0.22834863956349957 0.9132321278494533 0.4059747843859317
v 0.23364665271830806 0.9109403099008733 0.415066361806596
v 0.23091219431582627 0.9084946786671536 0.4249833404747197
v 0.23364665271830806 0.9109403099008733 0.415066361806596
v 0.23655201477094495 0.900250286583671 0.48879800273397156
v 0.23091219431582627 0.9084946786671536 0.4249833404747197
v 0.23655201477094495 0.900250286583671 0.48879800273397156
v 0.23415936366877338 0.8981430445772585 0.4973635464128301
v 0.2202307161811317 0.9068027325306179 0.4320943803773471
v 0.23091219431582627 0.9084946786671536 0.4249833404747197
v 0.23415936366877338 0.8981430445772585 0.4973635464128301
v 0.2202307161811317 0.9068027325306179 0.4320943803773471
v 0.23415936366877338 0.8981430445772585 0.4973635464128301
v 0.2247596629102422 0.8966818183684322 0.5035018831614944
v 0.20211492926468982 0.9059413781338362 0.43605313057005496
v 0.2202307161811317 0.9068027325306179 0.4320943803773471
v 0.2247596629102422 0.8966818183684322 0.5035018831614944
v 0.20211492926468982 0.9059413781338362 0.43605313057005496
v 0.2247596629102422 0.8966818183684322 0.5035018831614944
v 0.2087801716207392 0.8959281332712482 0.5069934352798248
v 0.18348643139778256 0.9060951914189758 0.4359796923547361
v 0.20211492926468982 0.9059413781338362 0.43605313057005496
v 0.2087801716207392 0.8959281332712482 0.5069934352798248
v 0.18348643139778256 0.9060951914189758 0.4359796923547361
v 0.2087801716207392 0.8959281332712482 0.5069934352798248
v 0.19228796938077086 0.8960511838993599 0.5069744945151535
v 0.17124545745542263 0.9073564603571206 0.4312461256243017
v 0.18348643139778256 0.9060951914189758 0.4359796923547361
v 0.19228796938077086 0.8960511838993599 0.5069744945151535
v 0.17124545745542263 0.9073564603571206 0.4312461256243017
v 0.19228796938077086 0.8960511838993599 0.5069744945151535
v 0.1815210394209988 0.897127876895337 0.5029438940046758
v 0.16594744430061414 0.9096328969771866 0.4222370883283834
v 0.17124545745542263 0.9073564603571206 0.4312461256243017
v 0.1815210394209988 0.897127876895337 0.5029438940046758
v 0.16594744430061414 0.9096328969771866 0.4222370883283834
v 0.1815210394209988 0.897127876895337 0.5029438940046758
v 0.17682118904173316 0.8990966869451239 0.4951433280082996
v 0.16868190270309597 0.9120785282109063 0.41232010966025967
v 0.16594744430061414 0.9096328969771866 0.4222370883283834
v 0.17682118904173316 0.8990966869451239 0.4951433280082996
v 0.16868190270309597 0.9120785282109063 0.41232010966025967
v 0.17682118904173316 0.8990966869451239 0.4951433280082996
v 0.1792992919689823 0.9012039289515364 0.48657778432944093
v 0.1792992919689823 0.9137704743474419 0.4052090697576323
v 0.16868190270309597 0.9120785282109063 0.41232010966025967
v 0.1792992919689823 0.9012039289515364 0.48657778432944093
v 0.1792992919689823 0.9137704743474419 0.4052090697576323
v 0.1792992919689823 0.9012039289515364 0.48657778432944093
v 0.18869899272751348 0.9026651551603627 0.48043944758077667
v 0.1974150788854242 0.9146472100727376 0.4011677794401785
v 0.1792992919689823 0.9137704743474419 0.4052090697576323
v 0.18869899272751348 0.9026651551603627 0.48043944758077667
v 0.1974150788854242 0.9146472100727376 0.4011677794401785
v 0.18869899272751348 0.9026651551603627 0.48043944758077667
v 0.20467848401701652 0.9034188402575467 0.4769478954624463
v 0.21604357675233146 0.914493396787598 0.40124121765549736
v 0.1974150788854242 0.9146472100727376 0.4011677794401785
v 0.20467848401701652 0.9034188402575467 0.4769478954624463
v 0.21604357675233146 0.914493396787598 0.40124121765549736
v 0.20467848401701652 0.9034188402575467 0.4769478954624463
v 0.22117068625698486 0.9032804083009212 0.47704937635186345
v 0.22834863956349957 0.9132321278494533 0.4059747843859317
v 0.21604357675233146 0.914493396787598 0.40124121765549736
v 0.22117068625698486 0.9032804083009212 0.47704937635186345
v 0.22834863956349957 0.9132321278494533 0.4059747843859317
v 0.22117068625698486 0.9032804083009212 0.47704937635186345
v 0.23193761621675693 0.9022190966334579 0.4809974367375954
v 0.23364665271830806 0.9109403099008733 0.415066361806596
v 0.22834863956349957 0.9132321278494533 0.4059747843859317
v 0.23193761621675693 0.9022190966334579 0.4809974367375954
v 0.23364665271830806 0.9109403099008733 0.415066361806596
v 0.23193761621675693 0.9022190966334579 0.4809974367375954
v 0.23655201477094495 0.900250286583671 0.48879800273397156
v 0.23415936366877338 0.8981430445772585 0.4973635464128301
v 0.23655201477094495 0.900250286583671 0.48879800273397156
v 0.23954282864865942 0.8895448819379548 0.5626343003458619
v 0.23415936366877338 0.8981430445772585 0.4973635464128301
v 0.23954282864865942 0.8895448819379548 0.5626343003458619
v 0.23740653302172054 0.8877875651552348 0.5697422708223582
v 0.2247596629102422 0.8966818183684322 0.5035018831614944
v 0.23415936366877338 0.8981430445772585 0.4973635464128301
v 0.23740653302172054 0.8877875651552348 0.5697422708223582
v 0.2247596629102422 0.8966818183684322 0.5035018831614944
v 0.23740653302172054 0.8877875651552348 0.5697422708223582
v 0.22920315781427514 0.886557058874118 0.5749300209768281
v 0.2087801716207392 0.8959281332712482 0.5069934352798248
v 0.2247596629102422 0.8966818183684322 0.5035018831614944
v 0.22920315781427514 0.886557058874118 0.5749300209768281
v 0.2087801716207392 0.8959281332712482 0.5069934352798248
v 0.22920315781427514 0.886557058874118 0.5749300209768281
v 0.21535996215171105 0.8859110430765317 0.5779322584610123
v 0.19228796938077086 0.8960511838993599 0.5069744945151535
v 0.2087801716207392 0.8959281332712482 0.5069934352798248
v 0.21535996215171105 0.8859110430765317 0.5779322584610123
v 0.19228796938077086 0.8960511838993599 0.5069744945151535
v 0.21535996215171105 0.8859110430765317 0.5779322584610123
v 0.20108950736375913 0.8860033310476154 0.5779899317067577
v 0.1815210394209988 0.897127876895337 0.5029438940046758
v 0.19228796938077086 0.8960511838993599 0.5069744945151535
v 0.20108950736375913 0.8860033310476154 0.5779899317067577
v 0.1815210394209988 0.897127876895337 0.5029438940046758
v 0.20108950736375913 0.8860033310476154 0.5779899317067577
v 0.1917752584303055 0.8868954481014251 0.5746622974162362
v 0.17682118904173316 0.8990966869451239 0.4951433280082996
v 0.1815210394209988 0.897127876895337 0.5029438940046758
v 0.1917752584303055 0.8868954481014251 0.5746622974162362
v 0.17682118904173316 0.8990966869451239 0.4951433280082996
v 0.1917752584303055 0.8868954481014251 0.5746622974162362
v 0.18775902265166036 0.8885450955845473 0.5681321078129615
v 0.1792992919689823 0.9012039289515364 0.48657778432944093
v 0.17682118904173316 0.8990966869451239 0.4951433280082996
v 0.18775902265166036 0.8885450955845473 0.5681321078129615
v 0.1792992919689823 0.9012039289515364 0.48657778432944093
v 0.18775902265166036 0.8885450955845473 0.5681321078129615
v 0.1898953182785993 0.8903139483636527 0.5609401156831371
v 0.18869899272751348 0.9026651551603627 0.48043944758077667
v 0.1792992919689823 0.9012039289515364 0.48657778432944093
v 0.1898953182785993 0.8903139483636527 0.5609401156831371
v 0.18869899272751348 0.9026651551603627 0.48043944758077667
v 0.1898953182785993 0.8903139483636527 0.5609401156831371
v 0.19809869348604467 0.8915444546447695 0.555752365528667
v 0.20467848401701652 0.9034188402575467 0.4769478954624463
v 0.18869899272751348 0.9026651551603627 0.48043944758077667
v 0.19809869348604467 0.8915444546447695 0.555752365528667
v 0.20467848401701652 0.9034188402575467 0.4769478954624463
v 0.19809869348604467 0.8915444546447695 0.555752365528667
v 0.2119418891486088 0.8921904704423559 0.5527501280444829
v 0.22117068625698486 0.9032804083009212 0.47704937635186345
v 0.20467848401701652 0.9034188402575467 0.4769478954624463
v 0.2119418891486088 0.8921904704423559 0.5527501280444829
v 0.22117068625698486 0.9032804083009212 0.47704937635186345
v 0.2119418891486088 0.8921904704423559 0.5527501280444829
v 0.22621234393656064 0.8920828011427582 0.5527971114832524
v 0.23193761621675693 0.9022190966334579 0.4809974367375954
v 0.22117068625698486 0.9032804083009212 0.47704937635186345
v 0.22621234393656064 0.8920828011427582 0.5527971114832524
v 0.23193761621675693 0.9022190966334579 0.4809974367375954
v 0.22621234393656064 0.8920828011427582 0.5527971114832524
v 0.2355265928700143 0.8911906840889484 0.5561247457737739
v 0.23655201477094495 0.900250286583671 0.48879800273397156
v 0.23193761621675693 0.9022190966334579 0.4809974367375954
v 0.2355265928700143 0.8911906840889484 0.5561247457737739
v 0.23655201477094495 0.900250286583671 0.48879800273397156
v 0.2355265928700143 0.8911906840889484 0.5561247457737739
v 0.23954282864865942 0.8895448819379548 0.5626343003458619
v 0.15518051434084207 0.9717004028631442 0.05791082185398498
v 0.20484938766717162 0.9728540025016912 0.05138856410150631
v 0.19895321173682026 0.9717465468486861 0.05047531955487387
v 0.15518051434084207 0.9717004028631442 0.05791082185398498
v 0.19895321173682026 0.9717465468486861 0.05047531955487387
v 0.1822046540216192 0.9707467604952786 0.051660397867049485
v 0.15518051434084207 0.9717004028631442 0.05791082185398498
v 0.1822046540216192 0.9707467604952786 0.051660397867049485
v 0.15518051434084207 0.9699161687555248 0.05479057101720031
v 0.15518051434084207 0.9717004028631442 0.05791082185398498
v 0.15518051434084207 0.9699161687555248 0.05479057101720031
v 0.12817773761633433 0.9695008728856479 0.05870001292777272
v 0.15518051434084207 0.9717004028631442 0.05791082185398498
v 0.12817773761633433 0.9695008728856479 0.05870001292777272
v 0.1114291799011333 0.9697162114848433 0.06194564657532882
v 0.15518051434084207 0.9717004028631442 0.05791082185398498
v 0.1114291799011333 0.9697162114848433 0.06194564657532882
v 0.1055330039707819 0.9705621845531112 0.06435053948171764
v 0.15518051434084207 0.9717004028631442 0.05791082185398498
v 0.1055330039707819 0.9705621845531112 0.06435053948171764
v 0.1114291799011333 0.9716696402061162 0.06526378402835008
v 0.15518051434084207 0.9717004028631442 0.05791082185398498
v 0.1114291799011333 0.9716696402061162 0.06526378402835008
v 0.12817773761633433 0.9726540452310097 0.06416124584092031
v 0.15518051434084207 0.9717004028631442 0.05791082185398498
v 0.12817773761633433 0.9726540452310097 0.06416124584092031
v 0.15518051434084207 0.9735000182992776 0.06094853256602375
v 0.15518051434084207 0.9717004028631442 0.05791082185398498
v 0.15518051434084207 0.9735000182992776 0.06094853256602375
v 0.1822046540216192 0.9738999328406405 0.05712163078019712
v 0.15518051434084207 0.9717004028631442 0.05791082185398498
v 0.1822046540216192 0.9738999328406405 0.05712163078019712
v 0.19895321173682026 0.973684594241445 0.05387599713264119
v 0.15518051434084207 0.9717004028631442 0.05791082185398498
v 0.19895321173682026 0.973684594241445 0.05387599713264119
v 0.20484938766717162 0.9728540025016912 0.05138856410150631
v 0.2136509256501599 0.889052679425508 0.5653419340170387
v 0.23740653302172054 0.8877875651552348 0.5697422708223582
v 0.23954282864865942 0.8895448819379548 0.5626343003458619
v 0.2136509256501599 0.889052679425508 0.5653419340170387
v 0.22920315781427514 0.886557058874118 0.5749300209768281
v 0.23740653302172054 0.8877875651552348 0.5697422708223582
v 0.2136509256501599 0.889052679425508 0.5653419340170387
v 0.21535996215171105 0.8859110430765317 0.5779322584610123
v 0.22920315781427514 0.886557058874118 0.5749300209768281
v 0.2136509256501599 0.889052679425508 0.5653419340170387
v 0.20108950736375913 0.8860033310476154 0.5779899317067577
v 0.21535996215171105 0.8859110430765317 0.5779322584610123
v 0.2136509256501599 0.889052679425508 0.5653419340170387
v 0.1917752584303055 0.8868954481014251 0.5746622974162362
v 0.20108950736375913 0.8860033310476154 0.5779899317067577
v 0.2136509256501599 0.889052679425508 0.5653419340170387
v 0.18775902265166036 0.8885450955845473 0.5681321078129615
v 0.1917752584303055 0.8868954481014251 0.5746622974162362
v 0.2136509256501599 0.889052679425508 0.5653419340170387
v 0.1898953182785993 0.8903139483636527 0.5609401156831371
v 0.18775902265166036 0.8885450955845473 0.5681321078129615
v 0.2136509256501599 0.889052679425508 0.5653419340170387
v 0.19809869348604467 0.8915444546447695 0.555752365528667
v 0.1898953182785993 0.8903139483636527 0.5609401156831371
v 0.2136509256501599 0.889052679425508 0.5653419340170387
v 0.2119418891486088 0.8921904704423559 0.5527501280444829
v 0.19809869348604467 0.8915444546447695 0.555752365528667
v 0.2136509256501599 0.889052679425508 0.5653419340170387
v 0.22621234393656064 0.8920828011427582 0.5527971114832524
v 0.2119418891486088 0.8921904704423559 0.5527501280444829
v 0.2136509256501599 0.889052679425508 0.5653419340170387
v 0.2355265928700143 0.8911906840889484 0.5561247457737739
v 0.22621234393656064 0.8920828011427582 0.5527971114832524
v 0.2136509256501599 0.889052679425508 0.5653419340170387
v 0.23954282864865942 0.8895448819379548 0.5626343003458619
v 0.2355265928700143 0.8911906840889484 0.5561247457737739
v 0.2355265928700143 0.8876183705415812 0.5704953962761816
v 0.23962828047373697 0.8892987806817314 0.5636231939452645
v 0.24919888488242328 0.8838499450556611 0.6012673258486757
v 0.2355265928700143 0.8876183705415812 0.5704953962761816
v 0.24919888488242328 0.8838499450556611 0.6012673258486757
v 0.24424267902792504 0.8819888043054718 0.6089103256074383
v 0.2238196928343891 0.8867416348162855 0.5743597541154848
v 0.2355265928700143 0.8876183705415812 0.5704953962761816
v 0.24424267902792504 0.8819888043054718 0.6089103256074383
v 0.2238196928343891 0.8867416348162855 0.5743597541154848
v 0.24424267902792504 0.8819888043054718 0.6089103256074383
v 0.22971586876474046 0.8809890179520644 0.6133465382056336
v 0.2034821584659307 0.886541677545604 0.5757424075739458
v 0.2238196928343891 0.8867416348162855 0.5743597541154848
v 0.22971586876474046 0.8809890179520644 0.6133465382056336
v 0.2034821584659307 0.886541677545604 0.5757424075739458
v 0.22971586876474046 0.8809890179520644 0.6133465382056336
v 0.20476393584209407 0.880742916695841 0.6150431617176391
v 0.1917752584303055 0.8871876933431904 0.5734700165621335
v 0.2034821584659307 0.886541677545604 0.5757424075739458
v 0.20476393584209407 0.880742916695841 0.6150431617176391
v 0.1917752584303055 0.8871876933431904 0.5734700165621335
v 0.20476393584209407 0.880742916695841 0.6150431617176391
v 0.19032257740398706 0.8814504578074832 0.6126175426849937
v 0.18767357082658281 0.8887911968407707 0.5671210976537902
v 0.1917752584303055 0.8871876933431904 0.5734700165621335
v 0.19032257740398706 0.8814504578074832 0.6126175426849937
v 0.18767357082658281 0.8887911968407707 0.5671210976537902
v 0.19032257740398706 0.8814504578074832 0.6126175426849937
v 0.18528091972441127 0.8832193105865886 0.6056245995930887
v 0.1917752584303055 0.8904677616487924 0.5602695303540596
v 0.18767357082658281 0.8887911968407707 0.5671210976537902
v 0.18528091972441127 0.8832193105865886 0.6056245995930887
v 0.1917752584303055 0.8904677616487924 0.5602695303540596
v 0.18528091972441127 0.8832193105865886 0.6056245995930887
v 0.19032257740398706 0.8850804513367778 0.5979815998343262
v 0.2034821584659307 0.891359878702602 0.5563226323900105
v 0.1917752584303055 0.8904677616487924 0.5602695303540596
v 0.19032257740398706 0.8850804513367778 0.5979815998343262
v 0.2034821584659307 0.891359878702602 0.5563226323900105
v 0.19032257740398706 0.8850804513367778 0.5979815998343262
v 0.20476393584209407 0.8860648563616712 0.5936279273608768
v 0.2238196928343891 0.8915598359732835 0.5549399789315493
v 0.2034821584659307 0.891359878702602 0.5563226323900105
v 0.20476393584209407 0.8860648563616712 0.5936279273608768
v 0.2238196928343891 0.8915598359732835 0.5549399789315493
v 0.20476393584209407 0.8860648563616712 0.5936279273608768
v 0.22971586876474046 0.8863109576178946 0.5919091872891026
v 0.2355265928700143 0.8908984388471832 0.5572949100681077
v 0.2238196928343891 0.8915598359732835 0.5549399789315493
v 0.22971586876474046 0.8863109576178946 0.5919091872891026
v 0.2355265928700143 0.8908984388471832 0.5572949100681077
v 0.22971586876474046 0.8863109576178946 0.5919091872891026
v 0.24424267902792504 0.8856034165062524 0.5943569228815169
v 0.23962828047373697 0.8892987806817314 0.5636231939452645
v 0.2355265928700143 0.8908984388471832 0.5572949100681077
v 0.24424267902792504 0.8856034165062524 0.5943569228815169
v 0.23962828047373697 0.8892987806817314 0.5636231939452645
v 0.24424267902792504 0.8856034165062524 0.5943569228815169
v 0.24919888488242328 0.8838499450556611 0.6012673258486757
v 0.24424267902792504 0.8819888043054718 0.6089103256074383
v 0.24919888488242328 0.8838499450556611 0.6012673258486757
v 0.25560777176324 0.8771283044950604 0.6476879103344724
v 0.24424267902792504 0.8819888043054718 0.6089103256074383
v 0.25560777176324 0.8771283044950604 0.6476879103344724
v 0.2503097586084315 0.8754363583585248 0.6546662508784866
v 0.22971586876474046 0.8809890179520644 0.6133465382056336
v 0.24424267902792504 0.8819888043054718 0.6089103256074383
v 0.2503097586084315 0.8754363583585248 0.6546662508784866
v 0.22971586876474046 0.8809890179520644 0.6133465382056336
v 0.2503097586084315 0.8754363583585248 0.6546662508784866
v 0.2349284300944714 0.8745134786476872 0.6588003456517963
v 0.20476393584209407 0.880742916695841 0.6150431617176391
v 0.22971586876474046 0.8809890179520644 0.6133465382056336
v 0.2349284300944714 0.8745134786476872 0.6588003456517963
v 0.20476393584209407 0.880742916695841 0.6150431617176391
v 0.2349284300944714 0.8745134786476872 0.6588003456517963
v 0.2083529124953514 0.8742519960629499 0.6606237424080855
v 0.19032257740398706 0.8814504578074832 0.6126175426849937
v 0.20476393584209407 0.880742916695841 0.6150431617176391
v 0.2083529124953514 0.8742519960629499 0.6606237424080855
v 0.19032257740398706 0.8814504578074832 0.6126175426849937
v 0.2083529124953514 0.8742519960629499 0.6606237424080855
v 0.1929715839813913 0.8748672492035083 0.6585827813250715
v 0.18528091972441127 0.8832193105865886 0.6056245995930887
v 0.19032257740398706 0.8814504578074832 0.6126175426849937
v 0.1929715839813913 0.8748672492035083 0.6585827813250715
v 0.18528091972441127 0.8832193105865886 0.6056245995930887
v 0.1929715839813913 0.8748672492035083 0.6585827813250715
v 0.18767357082658281 0.8764515260404462 0.6523591541324295
v 0.19032257740398706 0.8850804513367778 0.5979815998343262
v 0.18528091972441127 0.8832193105865886 0.6056245995930887
v 0.18767357082658281 0.8764515260404462 0.6523591541324295
v 0.19032257740398706 0.8850804513367778 0.5979815998343262
v 0.18767357082658281 0.8764515260404462 0.6523591541324295
v 0.1929715839813913 0.8781434721769817 0.6453808135884153
v 0.20476393584209407 0.8860648563616712 0.5936279273608768
v 0.19032257740398706 0.8850804513367778 0.5979815998343262
v 0.1929715839813913 0.8781434721769817 0.6453808135884153
v 0.20476393584209407 0.8860648563616712 0.5936279273608768
v 0.1929715839813913 0.8781434721769817 0.6453808135884153
v 0.2083529124953514 0.8790663518878193 0.6412246022553366
v 0.22971586876474046 0.8863109576178946 0.5919091872891026
v 0.20476393584209407 0.8860648563616712 0.5936279273608768
v 0.2083529124953514 0.8790663518878193 0.6412246022553366
v 0.22971586876474046 0.8863109576178946 0.5919091872891026
v 0.2083529124953514 0.8790663518878193 0.6412246022553366
v 0.2349284300944714 0.8793278344725567 0.6394233220588165
v 0.24424267902792504 0.8856034165062524 0.5943569228815169
v 0.22971586876474046 0.8863109576178946 0.5919091872891026
v 0.2349284300944714 0.8793278344725567 0.6394233220588165
v 0.24424267902792504 0.8856034165062524 0.5943569228815169
v 0.2349284300944714 0.8793278344725567 0.6394233220588165
v 0.2503097586084315 0.8787125813319984 0.6414642831418302
v 0.24919888488242328 0.8838499450556611 0.6012673258486757
v 0.24424267902792504 0.8856034165062524 0.5943569228815169
v 0.2503097586084315 0.8787125813319984 0.6414642831418302
v 0.24919888488242328 0.8838499450556611 0.6012673258486757
v 0.2503097586084315 0.8787125813319984 0.6414642831418302
v 0.25560777176324 0.8771283044950604 0.6476879103344724
v 0.2503097586084315 0.8754363583585248 0.6546662508784866
v 0.25560777176324 0.8771283044950604 0.6476879103344724
v 0.25355692796137863 0.8709450104324484 0.6904012777427135
v 0.2503097586084315 0.8754363583585248 0.6546662508784866
v 0.25355692796137863 0.8709450104324484 0.6904012777427135
v 0.24919888488242328 0.8696837414943037 0.6956214087880623
v 0.2349284300944714 0.8745134786476872 0.6588003456517963
v 0.2503097586084315 0.8754363583585248 0.6546662508784866
v 0.24919888488242328 0.8696837414943037 0.6956214087880623
v 0.2349284300944714 0.8745134786476872 0.6588003456517963
v 0.24919888488242328 0.8696837414943037 0.6956214087880623
v 0.23655201477094495 0.8689915817111755 0.6987606838476402
v 0.2083529124953514 0.8742519960629499 0.6606237424080855
v 0.2349284300944714 0.8745134786476872 0.6588003456517963
v 0.23655201477094495 0.8689915817111755 0.6987606838476402
v 0.2083529124953514 0.8742519960629499 0.6606237424080855
v 0.23655201477094495 0.8689915817111755 0.6987606838476402
v 0.21476179937616813 0.8687762431119801 0.7002479939906161
v 0.1929715839813913 0.8748672492035083 0.6585827813250715
v 0.2083529124953514 0.8742519960629499 0.6606237424080855
v 0.21476179937616813 0.8687762431119801 0.7002479939906161
v 0.1929715839813913 0.8748672492035083 0.6585827813250715
v 0.21476179937616813 0.8687762431119801 0.7002479939906161
v 0.20202947743961228 0.8692223016388849 0.6988053424430437
v 0.18767357082658281 0.8764515260404462 0.6523591541324295
v 0.1929715839813913 0.8748672492035083 0.6585827813250715
v 0.20202947743961228 0.8692223016388849 0.6988053424430437
v 0.18767357082658281 0.8764515260404462 0.6523591541324295
v 0.20202947743961228 0.8692223016388849 0.6988053424430437
v 0.1976714343606569 0.8703912826059459 0.6942352680645525
v 0.1929715839813913 0.8781434721769817 0.6453808135884153
v 0.18767357082658281 0.8764515260404462 0.6523591541324295
v 0.1976714343606569 0.8703912826059459 0.6942352680645525
v 0.1929715839813913 0.8781434721769817 0.6453808135884153
v 0.1976714343606569 0.8703912826059459 0.6942352680645525
v 0.20202947743961228 0.8716371702155766 0.6890976771439496
v 0.2083529124953514 0.8790663518878193 0.6412246022553366
v 0.1929715839813913 0.8781434721769817 0.6453808135884153
v 0.20202947743961228 0.8716371702155766 0.6890976771439496
v 0.2083529124953514 0.8790663518878193 0.6412246022553366
v 0.20202947743961228 0.8716371702155766 0.6890976771439496
v 0.21476179937616813 0.8723293299987048 0.685936285524603
v 0.2349284300944714 0.8793278344725567 0.6394233220588165
v 0.2083529124953514 0.8790663518878193 0.6412246022553366
v 0.21476179937616813 0.8723293299987048 0.685936285524603
v 0.2349284300944714 0.8793278344725567 0.6394233220588165
v 0.21476179937616813 0.8723293299987048 0.685936285524603
v 0.23655201477094495 0.8725446685979004 0.684448975381627
v 0.2503097586084315 0.8787125813319984 0.6414642831418302
v 0.2349284300944714 0.8793278344725567 0.6394233220588165
v 0.23655201477094495 0.8725446685979004 0.684448975381627
v 0.2503097586084315 0.8787125813319984 0.6414642831418302
v 0.23655201477094495 0.8725446685979004 0.684448975381627
v 0.24919888488242328 0.8720986100709954 0.6858916269291995
v 0.25560777176324 0.8771283044950604 0.6476879103344724
v 0.2503097586084315 0.8787125813319984 0.6414642831418302
v 0.24919888488242328 0.8720986100709954 0.6858916269291995
v 0.25560777176324 0.8771283044950604 0.6476879103344724
v 0.24919888488242328 0.8720986100709954 0.6858916269291995
v 0.25355692796137863 0.8709450104324484 0.6904012777427135
v 0.24919888488242328 0.8696837414943037 0.6956214087880623
v 0.25355692796137863 0.8709450104324484 0.6904012777427135
v 0.24244819070129633 0.8665151878204279 0.7210068506381182
v 0.24919888488242328 0.8696837414943037 0.6956214087880623
v 0.24244819070129633 0.8665151878204279 0.7210068506381182
v 0.2402264432492799 0.8658076467087857 0.7238969174259093
v 0.23655201477094495 0.8689915817111755 0.6987606838476402
v 0.24919888488242328 0.8696837414943037 0.6956214087880623
v 0.2402264432492799 0.8658076467087857 0.7238969174259093
v 0.23655201477094495 0.8689915817111755 0.6987606838476402
v 0.2402264432492799 0.8658076467087857 0.7238969174259093
v 0.2339030081935407 0.8654077321674228 0.7257112122727712
v 0.21476179937616813 0.8687762431119801 0.7002479939906161
v 0.23655201477094495 0.8689915817111755 0.6987606838476402
v 0.2339030081935407 0.8654077321674228 0.7257112122727712
v 0.21476179937616813 0.8687762431119801 0.7002479939906161
v 0.2339030081935407 0.8654077321674228 0.7257112122727712
v 0.22296517458361353 0.8653000628678251 0.7264659256241437
v 0.20202947743961228 0.8692223016388849 0.6988053424430437
v 0.21476179937616813 0.8687762431119801 0.7002479939906161
v 0.22296517458361353 0.8653000628678251 0.7264659256241437
v 0.20202947743961228 0.8692223016388849 0.6988053424430437
v 0.22296517458361353 0.8653000628678251 0.7264659256241437
v 0.21664173952787436 0.8655615454525624 0.7255935409379147
v 0.1976714343606569 0.8703912826059459 0.6942352680645525
v 0.20202947743961228 0.8692223016388849 0.6988053424430437
v 0.21664173952787436 0.8655615454525624 0.7255935409379147
v 0.1976714343606569 0.8703912826059459 0.6942352680645525
v 0.21664173952787436 0.8655615454525624 0.7255935409379147
v 0.21450544390093546 0.8662383239071767 0.7229127875191532
v 0.20202947743961228 0.8716371702155766 0.6890976771439496
v 0.1976714343606569 0.8703912826059459 0.6942352680645525
v 0.21450544390093546 0.8662383239071767 0.7229127875191532
v 0.20202947743961228 0.8716371702155766 0.6890976771439496
v 0.21450544390093546 0.8662383239071767 0.7229127875191532
v 0.21664173952787436 0.8669458650188189 0.7200006041715933
v 0.21476179937616813 0.8723293299987048 0.685936285524603
v 0.20202947743961228 0.8716371702155766 0.6890976771439496
v 0.21664173952787436 0.8669458650188189 0.7200006041715933
v 0.21476179937616813 0.8723293299987048 0.685936285524603
v 0.21664173952787436 0.8669458650188189 0.7200006041715933
v 0.22296517458361353 0.8673303982316678 0.7182688494494772
v 0.23655201477094495 0.8725446685979004 0.684448975381627
v 0.21476179937616813 0.8723293299987048 0.685936285524603
v 0.22296517458361353 0.8673303982316678 0.7182688494494772
v 0.23655201477094495 0.8725446685979004 0.684448975381627
v 0.22296517458361353 0.8673303982316678 0.7182688494494772
v 0.2339030081935407 0.8674380675312655 0.7175362526578737
v 0.24919888488242328 0.8720986100709954 0.6858916269291995
v 0.23655201477094495 0.8725446685979004 0.684448975381627
v 0.2339030081935407 0.8674380675312655 0.7175362526578737
v 0.24919888488242328 0.8720986100709954 0.6858916269291995
v 0.2339030081935407 0.8674380675312655 0.7175362526578737
v 0.2402264432492799 0.8671765849465283 0.7184086373441025
v 0.25355692796137863 0.8709450104324484 0.6904012777427135
v 0.24919888488242328 0.8720986100709954 0.6858916269291995
v 0.2402264432492799 0.8671765849465283 0.7184086373441025
v 0.25355692796137863 0.8709450104324484 0.6904012777427135
v 0.2402264432492799 0.8671765849465283 0.7184086373441025
v 0.24244819070129633 0.8665151878204279 0.7210068506381182
v 0.2136509256501599 0.889052679425508 0.5653419340170387
v 0.23962828047373697 0.8892987806817314 0.5636231939452645
v 0.2355265928700143 0.8876183705415812 0.5704953962761816
v 0.2136509256501599 0.889052679425508 0.5653419340170387
v 0.2355265928700143 0.8876183705415812 0.5704953962761816
v 0.2238196928343891 0.8867416348162855 0.5743597541154848
v 0.2136509256501599 0.889052679425508 0.5653419340170387
v 0.2238196928343891 0.8867416348162855 0.5743597541154848
v 0.2034821584659307 0.886541677545604 0.5757424075739458
v 0.2136509256501599 0.889052679425508 0.5653419340170387
v 0.2034821584659307 0.886541677545604 0.5757424075739458
v 0.1917752584303055 0.8871876933431904 0.5734700165621335
v 0.2136509256501599 0.889052679425508 0.5653419340170387
v 0.1917752584303055 0.8871876933431904 0.5734700165621335
v 0.18767357082658281 0.8887911968407707 0.5671210976537902
v 0.2136509256501599 0.889052679425508 0.5653419340170387
v 0.18767357082658281 0.8887911968407707 0.5671210976537902
v 0.1917752584303055 0.8904677616487924 0.5602695303540596
v 0.2136509256501599 0.889052679425508 0.5653419340170387
v 0.1917752584303055 0.8904677616487924 0.5602695303540596
v 0.2034821584659307 0.891359878702602 0.5563226323900105
v 0.2136509256501599 0.889052679425508 0.5653419340170387
v 0.2034821584659307 0.891359878702602 0.5563226323900105
v 0.2238196928343891 0.8915598359732835 0.5549399789315493
v 0.2136509256501599 0.889052679425508 0.5653419340170387
v 0.2238196928343891 0.8915598359732835 0.5549399789315493
v 0.2355265928700143 0.8908984388471832 0.5572949100681077
v 0.2136509256501599 0.889052679425508 0.5653419340170387
v 0.2355265928700143 0.8908984388471832 0.5572949100681077
v 0.23962828047373697 0.8892987806817314 0.5636231939452645
v 0.22843409138857712 0.8663767558638023 0.7219487607987513
v 0.2402264432492799 0.8658076467087857 0.7238969174259093
v 0.24244819070129633 0.8665151878204279 0.7210068506381182
v 0.22843409138857712 0.8663767558638023 0.7219487607987513
v 0.2339030081935407 0.8654077321674228 0.7257112122727712
v 0.2402264432492799 0.8658076467087857 0.7238969174259093
v 0.22843409138857712 0.8663767558638023 0.7219487607987513
v 0.22296517458361353 0.8653000628678251 0.7264659256241437
v 0.2339030081935407 0.8654077321674228 0.7257112122727712
v 0.22843409138857712 0.8663767558638023 0.7219487607987513
v 0.21664173952787436 0.8655615454525624 0.7255935409379147
v 0.22296517458361353 0.8653000628678251 0.7264659256241437
v 0.22843409138857712 0.8663767558638023 0.7219487607987513
v 0.21450544390093546 0.8662383239071767 0.7229127875191532
v 0.21664173952787436 0.8655615454525624 0.7255935409379147
v 0.22843409138857712 0.8663767558638023 0.7219487607987513
v 0.21664173952787436 0.8669458650188189 0.7200006041715933
v 0.21450544390093546 0.8662383239071767 0.7229127875191532
v 0.22843409138857712 0.8663767558638023 0.7219487607987513
v 0.22296517458361353 0.8673303982316678 0.7182688494494772
v 0.21664173952787436 0.8669458650188189 0.7200006041715933
v 0.22843409138857712 0.8663767558638023 0.7219487607987513
v 0.2339030081935407 0.8674380675312655 0.7175362526578737
v 0.22296517458361353 0.8673303982316678 0.7182688494494772
v 0.22843409138857712 0.8663767558638023 0.7219487607987513
v 0.2402264432492799 0.8671765849465283 0.7184086373441025
v 0.2339030081935407 0.8674380675312655 0.7175362526578737
v 0.22843409138857712 0.8663767558638023 0.7219487607987513
v 0.24244819070129633 0.8665151878204279 0.7210068506381182
v 0.2402264432492799 0.8671765849465283 0.7184086373441025
f 1 2 3
f 4 5 6
f 7 8 9
f 10 11 12
f 13 14 15
f 16 17 18
f 19 20 21
f 22 23 24
f 25 26 27
f 28 29 30
f 31 32 33
f 34 35 36
f 37 38 39
f 40 41 42
f 43 44 45
f 46 47 48
f 49 50 51
f 52 53 54
f 55 56 57
f 58 59 60
f 61 62 63
f 64 65 66
f 67 68 69
f 70 71 72
f 73 74 75
f 76 77 78
f 79 80 81
f 82 83 84
f 85 86 87
f 88 89 90
f 91 92 93
f 94 95 96
f 97 98 99
f 100 101 102
f 103 104 105
f 106 107 108
f 109 110 111
f 112 113 114
f 115 116 117
f 118 119 120
f 121 122 123
f 124 125 126
f 127 128 129
f 130 131 132
f 133 134 135
f 136 137 138
f 139 140 141
f 142 143 144
f 145 146 147
f 148 149 150
f 151 152 153
f 154 155 156
f 157 158 159
f 160 161 162
f 163 164 165
f 166 167 168
f 169 170 171
f 172 173 174
f 175 176 177
f 178 179 180
f 181 182 183
f 184 185 186
f 187 188 189
f 190 191 192
f 193 194 195
f 196 197 198
f 199 200 201
f 202 203 204
f 205 206 207
f 208 209 210
f 211 212 213
f 214 215 216
f 217 218 219
f 220 221 222
f 223 224 225
f 226 227 228
f 229 230 231
f 232 233 234
f 235 236 237
f 238 239 240
f 241 242 243
f 244 245 246
f 247 248 249
f 250 251 252
f 253 254 255
f 256 257 258
f 259 260 261
f 262 263 264
f 265 266 267
f 268 269 270
f 271 272 273
f 274 275 276
f 277 278 279
f 280 281 282
f 283 284 285
f 286 287 288
f 289 290 291
f 292 293 294
f 295 296 297
f 298 299 300
f 301 302 303
f 304 305 306
f 307 308 309
f 310 311 312
f 313 314 315
f 316 317 318
f 319 320 321
f 322 323 324
f 325 326 327
f 328 329 330
f 331 332 333
f 334 335 336
f 337 338 339
f 340 341 342
f 343 344 345
f 346 347 348
f 349 350 351
f 352 353 354
f 355 356 357
f 358 359 360
f 361 362 363
f 364 365 366
f 367 368 369
f 370 371 372
f 373 374 375
f 376 377 378
f 379 380 381
f 382 383 384
f 385 386 387
f 388 389 390
f 391 392 393
f 394 395 396
f 397 398 399
f 400 401 402
f 403 404 405
f 406 407 408
f 409 410 411
f 412 413 414
f 415 416 417
f 418 419 420
f 421 422 423
f 424 425 426
f 427 428 429
f 430 431 432
f 433 434 435
f 436 437 438
f 439 440 441
f 442 443 444
f 445 446 447
f 448 449 450
f 451 452 453
f 454 455 456
f 457 458 459
f 460 461 462
f 463 464 465
f 466 467 468
f 469 470 471
f 472 473 474
f 475 476 477
f 478 479 480
f 481 482 483
f 484 485 486
f 487 488 489
f 490 491 492
f 493 494 495
f 496 497 498
f 499 500 501
f 502 503 504
f 505 506 507
f 508 509 510
f 511 512 513
f 514 515 516
f 517 518 519
f 520 521 522
f 523 524 525
f 526 527 528
f 529 530 531
f 532 533 534
f 535 536 537
f 538 539 540
f 541 542 543
f 544 545 546
f 547 548 549
f 550 551 552
f 553 554 555
f 556 557 558
f 559 560 561
f 562 563 564
f 565 566 567
f 568 569 570
f 571 572 573
f 574 575 576
f 577 578 579
f 580 581 582
f 583 584 585
f 586 587 588
f 589 590 591
f 592 593 594
f 595 596 597
f 598 599 600
f 601 602 603
f 604 605 606
f 607 608 609
f 610 611 612
f 613 614 615
f 616 617 618
f 619 620 621
f 622 623 624
f 625 626 627
f 628 629 630
f 631 632 633
f 634 635 636
f 637 638 639
f 640 641 642
f 643 644 645
f 646 647 648
f 649 650 651
f 652 653 654
f 655 656 657
f 658 659 660
f 661 662 663
f 664 665 666
f 667 668 669
f 670 671 672
f 673 674 675
f 676 677 678
f 679 680 681
f 682 683 684
f 685 686 687
f 688 689 690
f 691 692 693
f 694 695 696
f 697 698 699
f 700 701 702
f 703 704 705
f 706 707 708
f 709 710 711
f 712 713 714
f 715 716 717
f 718 719 720
f 721 722 723
f 724 725 726
f 727 728 729
f 730 731 732
f 733 734 735
f 736 737 738
f 739 740 741
f 742 743 744
f 745 746 747
f 748 749 750
f 751 752 753
f 754 755 756
f 757 758 759
f 760 761 762
f 763 764 765
f 766 767 768
f 769 770 771
f 772 773 774
f 775 776 777
f 778 779 780
f 781 782 783
f 784 785 786
f 787 788 789
f 790 791 792
f 793 794 795
f 796 797 798
f 799 800 801
f 802 803 804
