# Piezas extraídas de modelos de terceros; véase procedencia.json
mtllib paciente-7.mtl
o pieza_0
usemtl material_0
v 0.16415295597398546 0.8452467345666066 0.5418570329583792
v 0.17175816840588798 0.8883999062307725 0.5377895260846874
v 0.17613757444111272 0.8956633113623649 0.74358742901022
v 0.16415295597398546 0.8452467345666066 0.5418570329583792
v 0.17613757444111272 0.8956633113623649 0.74358742901022
v 0.16945096912879395 0.857295441902542 0.7471764056634773
v 0.1422772887541311 0.6289290117243028 1.143449272898776
v 0.16415295597398546 0.8452467345666066 0.5418570329583792
v 0.16945096912879395 0.857295441902542 0.7471764056634773
v 0.1422772887541311 0.6289290117243028 1.143449272898776
v 0.16945096912879395 0.857295441902542 0.7471764056634773
v 0.15013885666126625 0.8313180870789649 0.7517224427576034
v 0.10818201054818614 0.6310225814387029 1.1649831328183202
v 0.1422772887541311 0.6289290117243028 1.143449272898776
v 0.15013885666126625 0.8313180870789649 0.7517224427576034
v 0.10818201054818614 0.6310225814387029 1.1649831328183202
v 0.15013885666126625 0.8313180870789649 0.7517224427576034
v 0.12014526605904403 0.7038809437954543 1.141176254351713
v 0.06203802500630581 0.6333297807157969 1.1646242351529943
v 0.10818201054818614 0.6310225814387029 1.1649831328183202
v 0.12014526605904403 0.7038809437954543 1.141176254351713
v 0.06203802500630581 0.6333297807157969 1.1646242351529943
v 0.12014526605904403 0.7038809437954543 1.141176254351713
v 0.07938474549704971 0.7059317875973157 1.1409369892414958
v 0.027942746800360883 0.6346542840044991 1.1427314775681245
v 0.06203802500630581 0.6333297807157969 1.1646242351529943
v 0.07938474549704971 0.7059317875973157 1.1409369892414958
v 0.027942746800360883 0.6346542840044991 1.1427314775681245
v 0.07938474549704971 0.7059317875973157 1.1409369892414958
v 0.04939115489482749 0.8318307980294304 0.7658390842604156
v 0.0060670795805064905 0.8461012528173821 0.5641086882085748
v 0.027942746800360883 0.6346542840044991 1.1427314775681245
v 0.04939115489482749 0.8318307980294304 0.7658390842604156
v 0.0060670795805064905 0.8461012528173821 0.5641086882085748
v 0.04939115489482749 0.8318307980294304 0.7658390842604156
v 0.030079042427299783 0.8579790565031625 0.7667961447012843
v -0.0015381328513960116 0.8892544244815481 0.5621945673268376
v 0.0060670795805064905 0.8461012528173821 0.5641086882085748
v 0.030079042427299783 0.8579790565031625 0.7667961447012843
v -0.0015381328513960116 0.8892544244815481 0.5621945673268376
v 0.030079042427299783 0.8579790565031625 0.7667961447012843
v 0.0234138000712504 0.8964323777880627 0.7650016563746556
v 0.0060670795805064905 0.9324289591019833 0.5581270604531459
v -0.0015381328513960116 0.8892544244815481 0.5621945673268376
v 0.0234138000712504 0.8964323777880627 0.7650016563746556
v 0.0060670795805064905 0.9324289591019833 0.5581270604531459
v 0.0234138000712504 0.8964323777880627 0.7650016563746556
v 0.030079042427299783 0.9347361583790773 0.7614126797213983
v 0.027942746800360883 0.9616534832785076 0.552982860583477
v 0.0060670795805064905 0.9324289591019833 0.5581270604531459
v 0.030079042427299783 0.9347361583790773 0.7614126797213983
v 0.027942746800360883 0.9616534832785076 0.552982860583477
v 0.030079042427299783 0.9347361583790773 0.7614126797213983
v 0.04939115489482749 0.9607135132026544 0.7569862751823808
v 0.06203802500630581 0.9769493599673901 0.5471208653831566
v 0.027942746800360883 0.9616534832785076 0.552982860583477
v 0.04939115489482749 0.9607135132026544 0.7569862751823808
v 0.06203802500630581 0.9769493599673901 0.5471208653831566
v 0.04939115489482749 0.9607135132026544 0.7569862751823808
v 0.07938474549704971 0.9743858052150635 0.751842075312712
v 0.10818201054818614 0.976778456317235 0.5406607074072934
v 0.06203802500630581 0.9769493599673901 0.5471208653831566
v 0.07938474549704971 0.9743858052150635 0.751842075312712
v 0.10818201054818614 0.976778456317235 0.5406607074072934
v 0.07938474549704971 0.9743858052150635 0.751842075312712
v 0.12014526605904403 0.9742149015649083 0.7460997126675001
v 0.1422772887541311 0.9610553205029647 0.5369520981989275
v 0.10818201054818614 0.976778456317235 0.5406607074072934
v 0.12014526605904403 0.9742149015649083 0.7460997126675001
v 0.1422772887541311 0.9610553205029647 0.5369520981989275
v 0.12014526605904403 0.9742149015649083 0.7460997126675001
v 0.15013885666126625 0.9602008022521891 0.7428696336795685
v 0.16415295597398546 0.9316598926762854 0.5358754052029503
v 0.1422772887541311 0.9610553205029647 0.5369520981989275
v 0.15013885666126625 0.9602008022521891 0.7428696336795685
v 0.16415295597398546 0.9316598926762854 0.5358754052029503
v 0.15013885666126625 0.9602008022521891 0.7428696336795685
v 0.16945096912879395 0.9340525437784569 0.7419125732387
v 0.17175816840588798 0.8883999062307725 0.5377895260846874
v 0.16415295597398546 0.9316598926762854 0.5358754052029503
v 0.16945096912879395 0.9340525437784569 0.7419125732387
v 0.17175816840588798 0.8883999062307725 0.5377895260846874
v 0.16945096912879395 0.9340525437784569 0.7419125732387
v 0.17613757444111272 0.8956633113623649 0.74358742901022
v 0.16945096912879395 0.857295441902542 0.7471764056634773
v 0.17613757444111272 0.8956633113623649 0.74358742901022
v 0.1804956175200681 0.9029267164939571 0.9493554237969752
v 0.16945096912879395 0.857295441902542 0.7471764056634773
v 0.1804956175200681 0.9029267164939571 0.9493554237969752
v 0.1746635304585249 0.8693441492384775 0.9524658702297983
v 0.15013885666126625 0.8313180870789649 0.7517224427576034
v 0.16945096912879395 0.857295441902542 0.7471764056634773
v 0.1746635304585249 0.8693441492384775 0.9524658702297983
v 0.15013885666126625 0.8313180870789649 0.7517224427576034
v 0.1746635304585249 0.8693441492384775 0.9524658702297983
v 0.1580004245684014 0.8466139637678476 0.9564137445483815
v 0.12014526605904403 0.7038809437954543 1.141176254351713
v 0.15013885666126625 0.8313180870789649 0.7517224427576034
v 0.1580004245684014 0.8466139637678476 0.9564137445483815
v 0.12014526605904403 0.7038809437954543 1.141176254351713
v 0.1580004245684014 0.8466139637678476 0.9564137445483815
v 0.13202306974482433 0.8346507082569896 0.9608401490873989
v 0.07938474549704971 0.7059317875973157 1.1409369892414958
v 0.12014526605904403 0.7038809437954543 1.141176254351713
v 0.13202306974482433 0.8346507082569896 0.9608401490873989
v 0.07938474549704971 0.7059317875973157 1.1409369892414958
v 0.13202306974482433 0.8346507082569896 0.9608401490873989
v 0.09681691781287119 0.8348216119071448 0.9658647164019591
v 0.04939115489482749 0.8318307980294304 0.7658390842604156
v 0.07938474549704971 0.7059317875973157 1.1409369892414958
v 0.09681691781287119 0.8348216119071448 0.9658647164019591
v 0.04939115489482749 0.8318307980294304 0.7658390842604156
v 0.09681691781287119 0.8348216119071448 0.9658647164019591
v 0.07083956298929409 0.8470412228932354 0.9686162651694565
v 0.030079042427299783 0.8579790565031625 0.7667961447012843
v 0.04939115489482749 0.8318307980294304 0.7658390842604156
v 0.07083956298929409 0.8470412228932354 0.9686162651694565
v 0.030079042427299783 0.8579790565031625 0.7667961447012843
v 0.07083956298929409 0.8470412228932354 0.9686162651694565
v 0.05417645709917064 0.8699423120140204 0.9694536930552164
v 0.0234138000712504 0.8964323777880627 0.7650016563746556
v 0.030079042427299783 0.8579790565031625 0.7667961447012843
v 0.05417645709917064 0.8699423120140204 0.9694536930552164
v 0.0234138000712504 0.8964323777880627 0.7650016563746556
v 0.05417645709917064 0.8699423120140204 0.9694536930552164
v 0.048365732993896814 0.9035248792695 0.967898469838805
v 0.030079042427299783 0.9347361583790773 0.7614126797213983
v 0.0234138000712504 0.8964323777880627 0.7650016563746556
v 0.048365732993896814 0.9035248792695 0.967898469838805
v 0.030079042427299783 0.9347361583790773 0.7614126797213983
v 0.048365732993896814 0.9035248792695 0.967898469838805
v 0.05417645709917064 0.937128809481249 0.964788023405982
v 0.04939115489482749 0.9607135132026544 0.7569862751823808
v 0.030079042427299783 0.9347361583790773 0.7614126797213983
v 0.05417645709917064 0.937128809481249 0.964788023405982
v 0.04939115489482749 0.9607135132026544 0.7569862751823808
v 0.05417645709917064 0.937128809481249 0.964788023405982
v 0.07083956298929409 0.9597735431268013 0.9608401490873989
v 0.07938474549704971 0.9743858052150635 0.751842075312712
v 0.04939115489482749 0.9607135132026544 0.7569862751823808
v 0.07083956298929409 0.9597735431268013 0.9608401490873989
v 0.07938474549704971 0.9743858052150635 0.751842075312712
v 0.07083956298929409 0.9597735431268013 0.9608401490873989
v 0.09681691781287119 0.9717367986376592 0.9564137445483815
v 0.12014526605904403 0.9742149015649083 0.7460997126675001
v 0.07938474549704971 0.9743858052150635 0.751842075312712
v 0.09681691781287119 0.9717367986376592 0.9564137445483815
v 0.12014526605904403 0.9742149015649083 0.7460997126675001
v 0.09681691781287119 0.9717367986376592 0.9564137445483815
v 0.13202306974482433 0.9715658949875041 0.9513891772338212
v 0.15013885666126625 0.9602008022521891 0.7428696336795685
v 0.12014526605904403 0.9742149015649083 0.7460997126675001
v 0.13202306974482433 0.9715658949875041 0.9513891772338212
v 0.15013885666126625 0.9602008022521891 0.7428696336795685
v 0.13202306974482433 0.9715658949875041 0.9513891772338212
v 0.1580004245684014 0.9593462840014135 0.9486376284663238
v 0.16945096912879395 0.9340525437784569 0.7419125732387
v 0.15013885666126625 0.9602008022521891 0.7428696336795685
v 0.1580004245684014 0.9593462840014135 0.9486376284663238
v 0.16945096912879395 0.9340525437784569 0.7419125732387
v 0.1580004245684014 0.9593462840014135 0.9486376284663238
v 0.1746635304585249 0.9365306467057061 0.9479198331356724
v 0.17613757444111272 0.8956633113623649 0.74358742901022
v 0.16945096912879395 0.9340525437784569 0.7419125732387
v 0.1746635304585249 0.9365306467057061 0.9479198331356724
v 0.17613757444111272 0.8956633113623649 0.74358742901022
v 0.1746635304585249 0.9365306467057061 0.9479198331356724
v 0.1804956175200681 0.9029267164939571 0.9493554237969752
v 0.1746635304585249 0.8693441492384775 0.9524658702297983
v 0.1804956175200681 0.9029267164939571 0.9493554237969752
v 0.18485366059902344 0.9107028325760147 1.154166358142862
v 0.1746635304585249 0.8693441492384775 0.9524658702297983
v 0.18485366059902344 0.9107028325760147 1.154166358142862
v 0.1779320627677414 0.8891689726564705 1.1283257262394089
v 0.1580004245684014 0.8466139637678476 0.9564137445483815
v 0.1746635304585249 0.8693441492384775 0.9524658702297983
v 0.1779320627677414 0.8891689726564705 1.1283257262394089
v 0.1580004245684014 0.8466139637678476 0.9564137445483815
v 0.1779320627677414 0.8891689726564705 1.1283257262394089
v 0.16244391947243436 0.8744712587431309 1.112414596409968
v 0.13202306974482433 0.8346507082569896 0.9608401490873989
v 0.1580004245684014 0.8466139637678476 0.9564137445483815
v 0.16244391947243436 0.8744712587431309 1.112414596409968
v 0.13202306974482433 0.8346507082569896 0.9608401490873989
v 0.16244391947243436 0.8744712587431309 1.112414596409968
v 0.13979918582688197 0.8665242390109181 1.1063133360994306
v 0.09681691781287119 0.8348216119071448 0.9658647164019591
v 0.13202306974482433 0.8346507082569896 0.9608401490873989
v 0.13979918582688197 0.8665242390109181 1.1063133360994306
v 0.09681691781287119 0.8348216119071448 0.9658647164019591
v 0.13979918582688197 0.8665242390109181 1.1063133360994306
v 0.11014740252496995 0.866353335360763 1.110979005748665
v 0.07083956298929409 0.8470412228932354 0.9686162651694565
v 0.09681691781287119 0.8348216119071448 0.9658647164019591
v 0.11014740252496995 0.866353335360763 1.110979005748665
v 0.07083956298929409 0.8470412228932354 0.9686162651694565
v 0.11014740252496995 0.866353335360763 1.110979005748665
v 0.088955349905736 0.8740439996177432 1.1240189542555004
v 0.05417645709917064 0.8699423120140204 0.9694536930552164
v 0.07083956298929409 0.8470412228932354 0.9686162651694565
v 0.088955349905736 0.8740439996177432 1.1240189542555004
v 0.05417645709917064 0.8699423120140204 0.9694536930552164
v 0.088955349905736 0.8740439996177432 1.1240189542555004
v 0.07622302796918014 0.8885708098809276 1.1443564886239586
v 0.048365732993896814 0.9035248792695 0.967898469838805
v 0.05417645709917064 0.8699423120140204 0.9694536930552164
v 0.07622302796918014 0.8885708098809276 1.1443564886239586
v 0.048365732993896814 0.9035248792695 0.967898469838805
v 0.07622302796918014 0.8885708098809276 1.1443564886239586
v 0.07340311774162078 0.9101046698004718 1.1717822518826002
v 0.05417645709917064 0.937128809481249 0.964788023405982
v 0.048365732993896814 0.9035248792695 0.967898469838805
v 0.07340311774162078 0.9101046698004718 1.1717822518826002
v 0.05417645709917064 0.937128809481249 0.964788023405982
v 0.07340311774162078 0.9101046698004718 1.1717822518826002
v 0.08023926374782528 0.9316598926762854 1.1976228837860532
v 0.07083956298929409 0.9597735431268013 0.9608401490873989
v 0.05417645709917064 0.937128809481249 0.964788023405982
v 0.08023926374782528 0.9316598926762854 1.1976228837860532
v 0.07083956298929409 0.9597735431268013 0.9608401490873989
v 0.08023926374782528 0.9316598926762854 1.1976228837860532
v 0.09570604408686295 0.946357606589625 1.2134143810603857
v 0.09681691781287119 0.9717367986376592 0.9564137445483815
v 0.07083956298929409 0.9597735431268013 0.9608401490873989
v 0.09570604408686295 0.946357606589625 1.2134143810603857
v 0.09681691781287119 0.9717367986376592 0.9564137445483815
v 0.09570604408686295 0.946357606589625 1.2134143810603857
v 0.11835077773241534 0.9543046263218378 1.2196352739260317
v 0.13202306974482433 0.9715658949875041 0.9513891772338212
v 0.09681691781287119 0.9717367986376592 0.9564137445483815
v 0.11835077773241534 0.9543046263218378 1.2196352739260317
v 0.13202306974482433 0.9715658949875041 0.9513891772338212
v 0.11835077773241534 0.9543046263218378 1.2196352739260317
v 0.14800256103432735 0.9544755299719928 1.214969604276797
v 0.1580004245684014 0.9593462840014135 0.9486376284663238
v 0.13202306974482433 0.9715658949875041 0.9513891772338212
v 0.14800256103432735 0.9544755299719928 1.214969604276797
v 0.1580004245684014 0.9593462840014135 0.9486376284663238
v 0.14800256103432735 0.9544755299719928 1.214969604276797
v 0.1691946136535613 0.9467848657150127 1.2019296557699621
v 0.1746635304585249 0.9365306467057061 0.9479198331356724
v 0.1580004245684014 0.9593462840014135 0.9486376284663238
v 0.1691946136535613 0.9467848657150127 1.2019296557699621
v 0.1746635304585249 0.9365306467057061 0.9479198331356724
v 0.1691946136535613 0.9467848657150127 1.2019296557699621
v 0.18194829854638656 0.9322580554518283 1.1815921214015037
v 0.1804956175200681 0.9029267164939571 0.9493554237969752
v 0.1746635304585249 0.9365306467057061 0.9479198331356724
v 0.18194829854638656 0.9322580554518283 1.1815921214015037
v 0.1804956175200681 0.9029267164939571 0.9493554237969752
v 0.18194829854638656 0.9322580554518283 1.1815921214015037
v 0.18485366059902344 0.9107028325760147 1.154166358142862
v 0.1779320627677414 0.8891689726564705 1.1283257262394089
v 0.18485366059902344 0.9107028325760147 1.154166358142862
v 0.18100832847053341 0.847536143228961 1.2063759968858885
v 0.1779320627677414 0.8891689726564705 1.1283257262394089
v 0.18100832847053341 0.847536143228961 1.2063759968858885
v 0.17380901220774933 0.8352203989396583 1.2072134247716484
v 0.16244391947243436 0.8744712587431309 1.112414596409968
v 0.1779320627677414 0.8891689726564705 1.1283257262394089
v 0.17380901220774933 0.8352203989396583 1.2072134247716484
v 0.16244391947243436 0.8744712587431309 1.112414596409968
v 0.17380901220774933 0.8352203989396583 1.2072134247716484
v 0.15953855741979742 0.8274015569450618 1.2080508526574083
v 0.13979918582688197 0.8665242390109181 1.1063133360994306
v 0.16244391947243436 0.8744712587431309 1.112414596409968
v 0.15953855741979742 0.8274015569450618 1.2080508526574083
v 0.13979918582688197 0.8665242390109181 1.1063133360994306
v 0.15953855741979742 0.8274015569450618 1.2080508526574083
v 0.13920102305133908 0.8239407580294208 1.2088882805431684
v 0.11014740252496995 0.866353335360763 1.110979005748665
v 0.13979918582688197 0.8665242390109181 1.1063133360994306
v 0.13920102305133908 0.8239407580294208 1.2088882805431684
v 0.11014740252496995 0.866353335360763 1.110979005748665
v 0.13920102305133908 0.8239407580294208 1.2088882805431684
v 0.11305276457760685 0.825436164968278 1.2094864433187114
v 0.088955349905736 0.8740439996177432 1.1240189542555004
v 0.11014740252496995 0.866353335360763 1.110979005748665
v 0.11305276457760685 0.825436164968278 1.2094864433187114
v 0.088955349905736 0.8740439996177432 1.1240189542555004
v 0.11305276457760685 0.825436164968278 1.2094864433187114
v 0.09476607401100984 0.8310332595108579 1.2097257084289286
v 0.07622302796918014 0.8885708098809276 1.1443564886239586
v 0.088955349905736 0.8740439996177432 1.1240189542555004
v 0.09476607401100984 0.8310332595108579 1.2097257084289286
v 0.07622302796918014 0.8885708098809276 1.1443564886239586
v 0.09476607401100984 0.8310332595108579 1.2097257084289286
v 0.08425549952647042 0.840262056619234 1.2094864433187114
v 0.07340311774162078 0.9101046698004718 1.1717822518826002
v 0.07622302796918014 0.8885708098809276 1.1443564886239586
v 0.08425549952647042 0.840262056619234 1.2094864433187114
v 0.07340311774162078 0.9101046698004718 1.1717822518826002
v 0.08425549952647042 0.840262056619234 1.2094864433187114
v 0.08280281850015196 0.8530905118590022 1.20876864798806
v 0.08023926374782528 0.9316598926762854 1.1976228837860532
v 0.07340311774162078 0.9101046698004718 1.1717822518826002
v 0.08280281850015196 0.8530905118590022 1.20876864798806
v 0.08023926374782528 0.9316598926762854 1.1976228837860532
v 0.08280281850015196 0.8530905118590022 1.20876864798806
v 0.08989531998158913 0.8653955746701703 1.2079312201022998
v 0.09570604408686295 0.946357606589625 1.2134143810603857
v 0.08023926374782528 0.9316598926762854 1.1976228837860532
v 0.08989531998158913 0.8653955746701703 1.2079312201022998
v 0.09570604408686295 0.946357606589625 1.2134143810603857
v 0.08989531998158913 0.8653955746701703 1.2079312201022998
v 0.10425122659461858 0.8732144166647666 1.20709379221654
v 0.11835077773241534 0.9543046263218378 1.2196352739260317
v 0.09570604408686295 0.946357606589625 1.2134143810603857
v 0.10425122659461858 0.8732144166647666 1.20709379221654
v 0.11835077773241534 0.9543046263218378 1.2196352739260317
v 0.10425122659461858 0.8732144166647666 1.20709379221654
v 0.12458876096307694 0.8766752155804076 1.2063759968858885
v 0.14800256103432735 0.9544755299719928 1.214969604276797
v 0.11835077773241534 0.9543046263218378 1.2196352739260317
v 0.12458876096307694 0.8766752155804076 1.2063759968858885
v 0.14800256103432735 0.9544755299719928 1.214969604276797
v 0.12458876096307694 0.8766752155804076 1.2063759968858885
v 0.15073701943680914 0.8751798086415504 1.2056582015552368
v 0.1691946136535613 0.9467848657150127 1.2019296557699621
v 0.14800256103432735 0.9544755299719928 1.214969604276797
v 0.15073701943680914 0.8751798086415504 1.2056582015552368
v 0.1691946136535613 0.9467848657150127 1.2019296557699621
v 0.15073701943680914 0.8751798086415504 1.2056582015552368
v 0.16902371000340616 0.8695827140989705 1.2055385690001283
v 0.18194829854638656 0.9322580554518283 1.1815921214015037
v 0.1691946136535613 0.9467848657150127 1.2019296557699621
v 0.16902371000340616 0.8695827140989705 1.2055385690001283
v 0.18194829854638656 0.9322580554518283 1.1815921214015037
v 0.16902371000340616 0.8695827140989705 1.2055385690001283
v 0.1794701956191374 0.8603539169905945 1.2056582015552368
v 0.18485366059902344 0.9107028325760147 1.154166358142862
v 0.18194829854638656 0.9322580554518283 1.1815921214015037
v 0.1794701956191374 0.8603539169905945 1.2056582015552368
v 0.18485366059902344 0.9107028325760147 1.154166358142862
v 0.1794701956191374 0.8603539169905945 1.2056582015552368
v 0.18100832847053341 0.847536143228961 1.2063759968858885
v 0.17380901220774933 0.8352203989396583 1.2072134247716484
v 0.18100832847053341 0.847536143228961 1.2063759968858885
v 0.1771629963420434 0.8493306315555896 1.4027229279578433
v 0.17380901220774933 0.8352203989396583 1.2072134247716484
v 0.1771629963420434 0.8493306315555896 1.4027229279578433
v 0.17098910198018996 0.838723923767838 1.4034407232884947
v 0.15953855741979742 0.8274015569450618 1.2080508526574083
v 0.17380901220774933 0.8352203989396583 1.2072134247716484
v 0.17098910198018996 0.838723923767838 1.4034407232884947
v 0.15953855741979742 0.8274015569450618 1.2080508526574083
v 0.17098910198018996 0.838723923767838 1.4034407232884947
v 0.15859858734394433 0.831973229586711 1.404158518619146
v 0.13920102305133908 0.8239407580294208 1.2088882805431684
v 0.15953855741979742 0.8274015569450618 1.2080508526574083
v 0.15859858734394433 0.831973229586711 1.404158518619146
v 0.13920102305133908 0.8239407580294208 1.2088882805431684
v 0.15859858734394433 0.831973229586711 1.404158518619146
v 0.14108096320304528 0.8290251416215354 1.4048763139497975
v 0.11305276457760685 0.825436164968278 1.2094864433187114
v 0.13920102305133908 0.8239407580294208 1.2088882805431684
v 0.14108096320304528 0.8290251416215354 1.4048763139497975
v 0.11305276457760685 0.825436164968278 1.2094864433187114
v 0.14108096320304528 0.8290251416215354 1.4048763139497975
v 0.11843622955749289 0.8303069189976987 1.4054744767253404
v 0.09476607401100984 0.8310332595108579 1.2097257084289286
v 0.11305276457760685 0.825436164968278 1.2094864433187114
v 0.11843622955749289 0.8303069189976987 1.4054744767253404
v 0.09476607401100984 0.8310332595108579 1.2097257084289286
v 0.11843622955749289 0.8303069189976987 1.4054744767253404
v 0.102627641918145 0.8351349471145807 1.405594109280449
v 0.08425549952647042 0.840262056619234 1.2094864433187114
v 0.09476607401100984 0.8310332595108579 1.2097257084289286
v 0.102627641918145 0.8351349471145807 1.405594109280449
v 0.08425549952647042 0.840262056619234 1.2094864433187114
v 0.102627641918145 0.8351349471145807 1.405594109280449
v 0.09356974845992405 0.8430819668467934 1.4054744767253404
v 0.08280281850015196 0.8530905118590022 1.20876864798806
v 0.08425549952647042 0.840262056619234 1.2094864433187114
v 0.09356974845992405 0.8430819668467934 1.4054744767253404
v 0.08280281850015196 0.8530905118590022 1.20876864798806
v 0.09356974845992405 0.8430819668467934 1.4054744767253404
v 0.09220251925868314 0.8541159337599328 1.4048763139497975
v 0.08989531998158913 0.8653955746701703 1.2079312201022998
v 0.08280281850015196 0.8530905118590022 1.20876864798806
v 0.09220251925868314 0.8541159337599328 1.4048763139497975
v 0.08989531998158913 0.8653955746701703 1.2079312201022998
v 0.09220251925868314 0.8541159337599328 1.4048763139497975
v 0.0983550506642672 0.8647119600695498 1.4040388860640374
v 0.10425122659461858 0.8732144166647666 1.20709379221654
v 0.08989531998158913 0.8653955746701703 1.2079312201022998
v 0.0983550506642672 0.8647119600695498 1.4040388860640374
v 0.10425122659461858 0.8732144166647666 1.20709379221654
v 0.0983550506642672 0.8647119600695498 1.4040388860640374
v 0.11074556530051284 0.8714626542506767 1.403321090733386
v 0.12458876096307694 0.8766752155804076 1.2063759968858885
v 0.10425122659461858 0.8732144166647666 1.20709379221654
v 0.11074556530051284 0.8714626542506767 1.403321090733386
v 0.12458876096307694 0.8766752155804076 1.2063759968858885
v 0.11074556530051284 0.8714626542506767 1.403321090733386
v 0.12834864126648943 0.8744107422158525 1.4027229279578433
v 0.15073701943680914 0.8751798086415504 1.2056582015552368
v 0.12458876096307694 0.8766752155804076 1.2063759968858885
v 0.12834864126648943 0.8744107422158525 1.4027229279578433
v 0.15073701943680914 0.8751798086415504 1.2056582015552368
v 0.12834864126648943 0.8744107422158525 1.4027229279578433
v 0.15090792308696427 0.873128964839689 1.4021247651823001
v 0.16902371000340616 0.8695827140989705 1.2055385690001283
v 0.15073701943680914 0.8751798086415504 1.2056582015552368
v 0.15090792308696427 0.873128964839689 1.4021247651823001
v 0.16902371000340616 0.8695827140989705 1.2055385690001283
v 0.15090792308696427 0.873128964839689 1.4021247651823001
v 0.1668019625513897 0.8683009367228072 1.4020051326271916
v 0.1794701956191374 0.8603539169905945 1.2056582015552368
v 0.16902371000340616 0.8695827140989705 1.2055385690001283
v 0.1668019625513897 0.8683009367228072 1.4020051326271916
v 0.1794701956191374 0.8603539169905945 1.2056582015552368
v 0.1668019625513897 0.8683009367228072 1.4020051326271916
v 0.17588121896588008 0.8603539169905945 1.4021247651823001
v 0.18100832847053341 0.847536143228961 1.2063759968858885
v 0.1794701956191374 0.8603539169905945 1.2056582015552368
v 0.17588121896588008 0.8603539169905945 1.4021247651823001
v 0.18100832847053341 0.847536143228961 1.2063759968858885
v 0.17588121896588008 0.8603539169905945 1.4021247651823001
v 0.1771629963420434 0.8493306315555896 1.4027229279578433
v 0.17098910198018996 0.838723923767838 1.4034407232884947
v 0.1771629963420434 0.8493306315555896 1.4027229279578433
v 0.17329630125728399 0.8511251198822184 1.5990698590297978
v 0.17098910198018996 0.838723923767838 1.4034407232884947
v 0.17329630125728399 0.8511251198822184 1.5990698590297978
v 0.16808373992755307 0.8422274485960178 1.5996680218053407
v 0.15859858734394433 0.831973229586711 1.404158518619146
v 0.17098910198018996 0.838723923767838 1.4034407232884947
v 0.16808373992755307 0.8422274485960178 1.5996680218053407
v 0.15859858734394433 0.831973229586711 1.404158518619146
v 0.16808373992755307 0.8422274485960178 1.5996680218053407
v 0.15774406909316877 0.8365449022283603 1.6002661845808837
v 0.14108096320304528 0.8290251416215354 1.4048763139497975
v 0.15859858734394433 0.831973229586711 1.404158518619146
v 0.15774406909316877 0.8365449022283603 1.6002661845808837
v 0.14108096320304528 0.8290251416215354 1.4048763139497975
v 0.15774406909316877 0.8365449022283603 1.6002661845808837
v 0.14287545152967399 0.83410952521365 1.6008643473564264
v 0.11843622955749289 0.8303069189976987 1.4054744767253404
v 0.14108096320304528 0.8290251416215354 1.4048763139497975
v 0.14287545152967399 0.83410952521365 1.6008643473564264
v 0.11843622955749289 0.8303069189976987 1.4054744767253404
v 0.14287545152967399 0.83410952521365 1.6008643473564264
v 0.12381969453737894 0.8351776730271194 1.6013428775768608
v 0.102627641918145 0.8351349471145807 1.405594109280449
v 0.11843622955749289 0.8303069189976987 1.4054744767253404
v 0.12381969453737894 0.8351776730271194 1.6013428775768608
v 0.102627641918145 0.8351349471145807 1.405594109280449
v 0.12381969453737894 0.8351776730271194 1.6013428775768608
v 0.11040375800020262 0.8392366347183033 1.6014625101319693
v 0.09356974845992405 0.8430819668467934 1.4054744767253404
v 0.102627641918145 0.8351349471145807 1.405594109280449
v 0.11040375800020262 0.8392366347183033 1.6014625101319693
v 0.09356974845992405 0.8430819668467934 1.4054744767253404
v 0.11040375800020262 0.8392366347183033 1.6014625101319693
v 0.1027985455683001 0.8459018770743527 1.6013428775768608
v 0.09220251925868314 0.8541159337599328 1.4048763139497975
v 0.09356974845992405 0.8430819668467934 1.4054744767253404
v 0.1027985455683001 0.8459018770743527 1.6013428775768608
v 0.09220251925868314 0.8541159337599328 1.4048763139497975
v 0.1027985455683001 0.8459018770743527 1.6013428775768608
v 0.10168767184229188 0.8551413556608635 1.6008643473564264
v 0.0983550506642672 0.8647119600695498 1.4040388860640374
v 0.09220251925868314 0.8541159337599328 1.4048763139497975
v 0.10168767184229188 0.8551413556608635 1.6008643473564264
v 0.0983550506642672 0.8647119600695498 1.4040388860640374
v 0.10168767184229188 0.8551413556608635 1.6008643473564264
v 0.10681478134694525 0.8640283454689294 1.6002661845808837
v 0.11074556530051284 0.8714626542506767 1.403321090733386
v 0.0983550506642672 0.8647119600695498 1.4040388860640374
v 0.10681478134694525 0.8640283454689294 1.6002661845808837
v 0.11074556530051284 0.8714626542506767 1.403321090733386
v 0.10681478134694525 0.8640283454689294 1.6002661845808837
v 0.11723990400640712 0.869668165924048 1.599548389250232
v 0.12834864126648943 0.8744107422158525 1.4027229279578433
v 0.11074556530051284 0.8714626542506767 1.403321090733386
v 0.11723990400640712 0.869668165924048 1.599548389250232
v 0.12834864126648943 0.8744107422158525 1.4027229279578433
v 0.11723990400640712 0.869668165924048 1.599548389250232
v 0.13210852156990188 0.8721462688512972 1.5990698590297978
v 0.15090792308696427 0.873128964839689 1.4021247651823001
v 0.12834864126648943 0.8744107422158525 1.4027229279578433
v 0.13210852156990188 0.8721462688512972 1.5990698590297978
v 0.15090792308696427 0.873128964839689 1.4021247651823001
v 0.13210852156990188 0.8721462688512972 1.5990698590297978
v 0.1511642785621969 0.8710781210378278 1.5985913288093636
v 0.1668019625513897 0.8683009367228072 1.4020051326271916
v 0.15090792308696427 0.873128964839689 1.4021247651823001
v 0.1511642785621969 0.8710781210378278 1.5985913288093636
v 0.1668019625513897 0.8683009367228072 1.4020051326271916
v 0.1511642785621969 0.8710781210378278 1.5985913288093636
v 0.1644947632742957 0.8670191593466439 1.5984716962542551
v 0.17588121896588008 0.8603539169905945 1.4021247651823001
v 0.1668019625513897 0.8683009367228072 1.4020051326271916
v 0.1644947632742957 0.8670191593466439 1.5984716962542551
v 0.17588121896588008 0.8603539169905945 1.4021247651823001
v 0.1644947632742957 0.8670191593466439 1.5984716962542551
v 0.17218542753127575 0.8603539169905945 1.5985913288093636
v 0.1771629963420434 0.8493306315555896 1.4027229279578433
v 0.17588121896588008 0.8603539169905945 1.4021247651823001
v 0.17218542753127575 0.8603539169905945 1.5985913288093636
v 0.1771629963420434 0.8493306315555896 1.4027229279578433
v 0.17218542753127575 0.8603539169905945 1.5985913288093636
v 0.17329630125728399 0.8511251198822184 1.5990698590297978
v 0.08511001777724599 0.8888271653561604 0.5499920467057625
v 0.17175816840588798 0.8883999062307725 0.5377895260846874
v 0.16415295597398546 0.8452467345666066 0.5418570329583792
v 0.08511001777724599 0.8888271653561604 0.5499920467057625
v 0.16415295597398546 0.8452467345666066 0.5418570329583792
v 0.1422772887541311 0.6289290117243028 1.143449272898776
v 0.08511001777724599 0.8888271653561604 0.5499920467057625
v 0.1422772887541311 0.6289290117243028 1.143449272898776
v 0.10818201054818614 0.6310225814387029 1.1649831328183202
v 0.08511001777724599 0.8888271653561604 0.5499920467057625
v 0.10818201054818614 0.6310225814387029 1.1649831328183202
v 0.06203802500630581 0.6333297807157969 1.1646242351529943
v 0.08511001777724599 0.8888271653561604 0.5499920467057625
v 0.06203802500630581 0.6333297807157969 1.1646242351529943
v 0.027942746800360883 0.6346542840044991 1.1427314775681245
v 0.08511001777724599 0.8888271653561604 0.5499920467057625
v 0.027942746800360883 0.6346542840044991 1.1427314775681245
v 0.0060670795805064905 0.8461012528173821 0.5641086882085748
v 0.08511001777724599 0.8888271653561604 0.5499920467057625
v 0.0060670795805064905 0.8461012528173821 0.5641086882085748
v -0.0015381328513960116 0.8892544244815481 0.5621945673268376
v 0.08511001777724599 0.8888271653561604 0.5499920467057625
v -0.0015381328513960116 0.8892544244815481 0.5621945673268376
v 0.0060670795805064905 0.9324289591019833 0.5581270604531459
v 0.08511001777724599 0.8888271653561604 0.5499920467057625
v 0.0060670795805064905 0.9324289591019833 0.5581270604531459
v 0.027942746800360883 0.9616534832785076 0.552982860583477
v 0.08511001777724599 0.8888271653561604 0.5499920467057625
v 0.027942746800360883 0.9616534832785076 0.552982860583477
v 0.06203802500630581 0.9769493599673901 0.5471208653831566
v 0.08511001777724599 0.8888271653561604 0.5499920467057625
v 0.06203802500630581 0.9769493599673901 0.5471208653831566
v 0.10818201054818614 0.976778456317235 0.5406607074072934
v 0.08511001777724599 0.8888271653561604 0.5499920467057625
v 0.10818201054818614 0.976778456317235 0.5406607074072934
v 0.1422772887541311 0.9610553205029647 0.5369520981989275
v 0.08511001777724599 0.8888271653561604 0.5499920467057625
v 0.1422772887541311 0.9610553205029647 0.5369520981989275
v 0.16415295597398546 0.9316598926762854 0.5358754052029503
v 0.08511001777724599 0.8888271653561604 0.5499920467057625
v 0.16415295597398546 0.9316598926762854 0.5358754052029503
v 0.17175816840588798 0.8883999062307725 0.5377895260846874
v 0.13749198654978792 0.8531332377715409 1.599907286915558
v 0.16808373992755307 0.8422274485960178 1.5996680218053407
v 0.17329630125728399 0.8511251198822184 1.5990698590297978
v 0.13749198654978792 0.8531332377715409 1.599907286915558
v 0.15774406909316877 0.8365449022283603 1.6002661845808837
v 0.16808373992755307 0.8422274485960178 1.5996680218053407
v 0.13749198654978792 0.8531332377715409 1.599907286915558
v 0.14287545152967399 0.83410952521365 1.6008643473564264
v 0.15774406909316877 0.8365449022283603 1.6002661845808837
v 0.13749198654978792 0.8531332377715409 1.599907286915558
v 0.12381969453737894 0.8351776730271194 1.6013428775768608
v 0.14287545152967399 0.83410952521365 1.6008643473564264
v 0.13749198654978792 0.8531332377715409 1.599907286915558
v 0.11040375800020262 0.8392366347183033 1.6014625101319693
v 0.12381969453737894 0.8351776730271194 1.6013428775768608
v 0.13749198654978792 0.8531332377715409 1.599907286915558
v 0.1027985455683001 0.8459018770743527 1.6013428775768608
v 0.11040375800020262 0.8392366347183033 1.6014625101319693
v 0.13749198654978792 0.8531332377715409 1.599907286915558
v 0.10168767184229188 0.8551413556608635 1.6008643473564264
v 0.1027985455683001 0.8459018770743527 1.6013428775768608
v 0.13749198654978792 0.8531332377715409 1.599907286915558
v 0.10681478134694525 0.8640283454689294 1.6002661845808837
v 0.10168767184229188 0.8551413556608635 1.6008643473564264
v 0.13749198654978792 0.8531332377715409 1.599907286915558
v 0.11723990400640712 0.869668165924048 1.599548389250232
v 0.10681478134694525 0.8640283454689294 1.6002661845808837
v 0.13749198654978792 0.8531332377715409 1.599907286915558
v 0.13210852156990188 0.8721462688512972 1.5990698590297978
v 0.11723990400640712 0.869668165924048 1.599548389250232
v 0.13749198654978792 0.8531332377715409 1.599907286915558
v 0.1511642785621969 0.8710781210378278 1.5985913288093636
v 0.13210852156990188 0.8721462688512972 1.5990698590297978
v 0.13749198654978792 0.8531332377715409 1.599907286915558
v 0.1644947632742957 0.8670191593466439 1.5984716962542551
v 0.1511642785621969 0.8710781210378278 1.5985913288093636
v 0.13749198654978792 0.8531332377715409 1.599907286915558
v 0.17218542753127575 0.8603539169905945 1.5985913288093636
v 0.1644947632742957 0.8670191593466439 1.5984716962542551
v 0.13749198654978792 0.8531332377715409 1.599907286915558
v 0.17329630125728399 0.8511251198822184 1.5990698590297978
v 0.17218542753127575 0.8603539169905945 1.5985913288093636
f 1 2 3
f 4 5 6
f 7 8 9
f 10 11 12
f 13 14 15
f 16 17 18
f 19 20 21
f 22 23 24
f 25 26 27
f 28 29 30
f 31 32 33
f 34 35 36
f 37 38 39
f 40 41 42
f 43 44 45
f 46 47 48
f 49 50 51
f 52 53 54
f 55 56 57
f 58 59 60
f 61 62 63
f 64 65 66
f 67 68 69
f 70 71 72
f 73 74 75
f 76 77 78
f 79 80 81
f 82 83 84
f 85 86 87
f 88 89 90
f 91 92 93
f 94 95 96
f 97 98 99
f 100 101 102
f 103 104 105
f 106 107 108
f 109 110 111
f 112 113 114
f 115 116 117
f 118 119 120
f 121 122 123
f 124 125 126
f 127 128 129
f 130 131 132
f 133 134 135
f 136 137 138
f 139 140 141
f 142 143 144
f 145 146 147
f 148 149 150
f 151 152 153
f 154 155 156
f 157 158 159
f 160 161 162
f 163 164 165
f 166 167 168
f 169 170 171
f 172 173 174
f 175 176 177
f 178 179 180
f 181 182 183
f 184 185 186
f 187 188 189
f 190 191 192
f 193 194 195
f 196 197 198
f 199 200 201
f 202 203 204
f 205 206 207
f 208 209 210
f 211 212 213
f 214 215 216
f 217 218 219
f 220 221 222
f 223 224 225
f 226 227 228
f 229 230 231
f 232 233 234
f 235 236 237
f 238 239 240
f 241 242 243
f 244 245 246
f 247 248 249
f 250 251 252
f 253 254 255
f 256 257 258
f 259 260 261
f 262 263 264
f 265 266 267
f 268 269 270
f 271 272 273
f 274 275 276
f 277 278 279
f 280 281 282
f 283 284 285
f 286 287 288
f 289 290 291
f 292 293 294
f 295 296 297
f 298 299 300
f 301 302 303
f 304 305 306
f 307 308 309
f 310 311 312
f 313 314 315
f 316 317 318
f 319 320 321
f 322 323 324
f 325 326 327
f 328 329 330
f 331 332 333
f 334 335 336
f 337 338 339
f 340 341 342
f 343 344 345
f 346 347 348
f 349 350 351
f 352 353 354
f 355 356 357
f 358 359 360
f 361 362 363
f 364 365 366
f 367 368 369
f 370 371 372
f 373 374 375
f 376 377 378
f 379 380 381
f 382 383 384
f 385 386 387
f 388 389 390
f 391 392 393
f 394 395 396
f 397 398 399
f 400 401 402
f 403 404 405
f 406 407 408
f 409 410 411
f 412 413 414
f 415 416 417
f 418 419 420
f 421 422 423
f 424 425 426
f 427 428 429
f 430 431 432
f 433 434 435
f 436 437 438
f 439 440 441
f 442 443 444
f 445 446 447
f 448 449 450
f 451 452 453
f 454 455 456
f 457 458 459
f 460 461 462
f 463 464 465
f 466 467 468
f 469 470 471
f 472 473 474
f 475 476 477
f 478 479 480
f 481 482 483
f 484 485 486
f 487 488 489
f 490 491 492
f 493 494 495
f 496 497 498
f 499 500 501
f 502 503 504
f 505 506 507
f 508 509 510
f 511 512 513
f 514 515 516
f 517 518 519
f 520 521 522
f 523 524 525
f 526 527 528
f 529 530 531
f 532 533 534
f 535 536 537
f 538 539 540
f 541 542 543
f 544 545 546
f 547 548 549
f 550 551 552
f 553 554 555
f 556 557 558
f 559 560 561
f 562 563 564
f 565 566 567
f 568 569 570
f 571 572 573
f 574 575 576
f 577 578 579
f 580 581 582
f 583 584 585
f 586 587 588
