# Piezas extraídas de modelos de terceros; véase procedencia.json
mtllib paciente-5.mtl
o pieza_0
usemtl material_0
v -0.0057252722801962655 0.8458448973421495 0.5584859581184716
v 0.0018799401517062364 0.889083520831393 0.5560933070163001
v -0.015808587639347896 0.8962614741379077 0.7604556192805296
v -0.0057252722801962655 0.8458448973421495 0.5584859581184716
v -0.015808587639347896 0.8962614741379077 0.7604556192805296
v -0.022473829995397283 0.857893604678085 0.762609005272484
v -0.02768639132512821 0.6332016029781806 1.142851110123233
v -0.0057252722801962655 0.8458448973421495 0.5584859581184716
v -0.022473829995397283 0.857893604678085 0.762609005272484
v -0.02768639132512821 0.6332016029781806 1.142851110123233
v -0.022473829995397283 0.857893604678085 0.762609005272484
v -0.04187139428800254 0.8317453462043527 0.7630875354929183
v -0.061952573181228245 0.6327316179402541 1.164743867708103
v -0.02768639132512821 0.6332016029781806 1.142851110123233
v -0.04187139428800254 0.8317453462043527 0.7630875354929183
v -0.061952573181228245 0.6327316179402541 1.164743867708103
v -0.04187139428800254 0.8317453462043527 0.7630875354929183
v -0.07203588854037989 0.7056754321220831 1.1409369892414958
v -0.1082674623732637 0.6315780183017071 1.1648635002632115
v -0.061952573181228245 0.6327316179402541 1.164743867708103
v -0.07203588854037989 0.7056754321220831 1.1409369892414958
v -0.1082674623732637 0.6315780183017071 1.1648635002632115
v -0.07203588854037989 0.7056754321220831 1.1409369892414958
v -0.11288186092745174 0.7046500102211524 1.141176254351713
v -0.14253364422936377 0.6303389668380825 1.1433296403436675
v -0.1082674623732637 0.6315780183017071 1.1648635002632115
v -0.11288186092745174 0.7046500102211524 1.141176254351713
v -0.14253364422936377 0.6303389668380825 1.1433296403436675
v -0.11288186092745174 0.7046500102211524 1.141176254351713
v -0.14304635517982908 0.8314889907291201 0.7560292147415122
v -0.1644947632742957 0.8455030900418393 0.5474797630484823
v -0.14253364422936377 0.6303389668380825 1.1433296403436675
v -0.14304635517982908 0.8314889907291201 0.7560292147415122
v -0.1644947632742957 0.8455030900418393 0.5474797630484823
v -0.14304635517982908 0.8314889907291201 0.7560292147415122
v -0.1623584676473568 0.8575517973777748 0.7527991357535805
v -0.1720999757061982 0.8886562617060052 0.543890786395225
v -0.1644947632742957 0.8455030900418393 0.5474797630484823
v -0.1623584676473568 0.8575517973777748 0.7527991357535805
v -0.1720999757061982 0.8886562617060052 0.543890786395225
v -0.1623584676473568 0.8575517973777748 0.7527991357535805
v -0.16910916182848373 0.8958342150125199 0.7496886893207575
v -0.1644947632742957 0.9318307963264404 0.5414981352930535
v -0.1720999757061982 0.8886562617060052 0.543890786395225
v -0.16910916182848373 0.8958342150125199 0.7496886893207575
v -0.1644947632742957 0.9318307963264404 0.5414981352930535
v -0.16910916182848373 0.8958342150125199 0.7496886893207575
v -0.1623584676473568 0.9343088992536895 0.747535303328803
v -0.14253364422936377 0.9612262241531198 0.5410196050726191
v -0.1644947632742957 0.9318307963264404 0.5414981352930535
v -0.1623584676473568 0.9343088992536895 0.747535303328803
v -0.14253364422936377 0.9612262241531198 0.5410196050726191
v -0.1623584676473568 0.9343088992536895 0.747535303328803
v -0.14304635517982908 0.9603717059023442 0.7471764056634773
v -0.1082674623732637 0.976778456317235 0.5423355631788135
v -0.14253364422936377 0.9612262241531198 0.5410196050726191
v -0.14304635517982908 0.9603717059023442 0.7471764056634773
v -0.1082674623732637 0.976778456317235 0.5423355631788135
v -0.14304635517982908 0.9603717059023442 0.7471764056634773
v -0.11288186092745174 0.9742149015649083 0.7482530986594546
v -0.061952573181228245 0.9769493599673901 0.5455656421667451
v -0.1082674623732637 0.976778456317235 0.5423355631788135
v -0.11288186092745174 0.9742149015649083 0.7482530986594546
v -0.061952573181228245 0.9769493599673901 0.5455656421667451
v -0.11288186092745174 0.9742149015649083 0.7482530986594546
v -0.07203588854037989 0.9743858052150635 0.7511242799820604
v -0.02768639132512821 0.9614825796283525 0.5490349862648939
v -0.061952573181228245 0.9769493599673901 0.5455656421667451
v -0.07203588854037989 0.9743858052150635 0.7511242799820604
v -0.02768639132512821 0.9614825796283525 0.5490349862648939
v -0.07203588854037989 0.9743858052150635 0.7511242799820604
v -0.04187139428800254 0.960628061377577 0.7542347264148834
v -0.0057252722801962655 0.9322580554518283 0.5526239629181513
v -0.02768639132512821 0.9614825796283525 0.5490349862648939
v -0.04187139428800254 0.960628061377577 0.7542347264148834
v -0.0057252722801962655 0.9322580554518283 0.5526239629181513
v -0.04187139428800254 0.960628061377577 0.7542347264148834
v -0.022473829995397283 0.9346507065539998 0.7573451728477065
v 0.0018799401517062364 0.889083520831393 0.5560933070163001
v -0.0057252722801962655 0.9322580554518283 0.5526239629181513
v -0.022473829995397283 0.9346507065539998 0.7573451728477065
v 0.0018799401517062364 0.889083520831393 0.5560933070163001
v -0.022473829995397283 0.9346507065539998 0.7573451728477065
v -0.015808587639347896 0.8962614741379077 0.7604556192805296
v -0.022473829995397283 0.857893604678085 0.762609005272484
v -0.015808587639347896 0.8962614741379077 0.7604556192805296
v -0.03341166360532448 0.9034394274444224 0.964788023405982
v -0.022473829995397283 0.857893604678085 0.762609005272484
v -0.03341166360532448 0.9034394274444224 0.964788023405982
v -0.039307839535675855 0.8698568601889428 0.9667021442877193
v -0.04187139428800254 0.8317453462043527 0.7630875354929183
v -0.022473829995397283 0.857893604678085 0.762609005272484
v -0.039307839535675855 0.8698568601889428 0.9667021442877193
v -0.04187139428800254 0.8317453462043527 0.7630875354929183
v -0.039307839535675855 0.8698568601889428 0.9667021442877193
v -0.055970945425799314 0.8470412228932354 0.9671806745081535
v -0.07203588854037989 0.7056754321220831 1.1409369892414958
v -0.04187139428800254 0.8317453462043527 0.7630875354929183
v -0.055970945425799314 0.8470412228932354 0.9671806745081535
v -0.07203588854037989 0.7056754321220831 1.1409369892414958
v -0.055970945425799314 0.8470412228932354 0.9671806745081535
v -0.0821192038995315 0.8348216119071448 0.9661039815121764
v -0.11288186092745174 0.7046500102211524 1.141176254351713
v -0.07203588854037989 0.7056754321220831 1.1409369892414958
v -0.0821192038995315 0.8348216119071448 0.9661039815121764
v -0.11288186092745174 0.7046500102211524 1.141176254351713
v -0.0821192038995315 0.8348216119071448 0.9661039815121764
v -0.11749625948163979 0.8347361600820672 0.9637113304100047
v -0.14304635517982908 0.8314889907291201 0.7560292147415122
v -0.11288186092745174 0.7046500102211524 1.141176254351713
v -0.11749625948163979 0.8347361600820672 0.9637113304100047
v -0.14304635517982908 0.8314889907291201 0.7560292147415122
v -0.11749625948163979 0.8347361600820672 0.9637113304100047
v -0.14355906613029443 0.8467848674180026 0.9609597816425074
v -0.1623584676473568 0.8575517973777748 0.7527991357535805
v -0.14304635517982908 0.8314889907291201 0.7560292147415122
v -0.14355906613029443 0.8467848674180026 0.9609597816425074
v -0.1623584676473568 0.8575517973777748 0.7527991357535805
v -0.14355906613029443 0.8467848674180026 0.9609597816425074
v -0.16030762384549546 0.8695150528886326 0.9582082328750101
v -0.16910916182848373 0.8958342150125199 0.7496886893207575
v -0.1623584676473568 0.8575517973777748 0.7527991357535805
v -0.16030762384549546 0.8695150528886326 0.9582082328750101
v -0.16910916182848373 0.8958342150125199 0.7496886893207575
v -0.16030762384549546 0.8695150528886326 0.9582082328750101
v -0.16611834795076927 0.9030976201441122 0.9555763166626214
v -0.1623584676473568 0.9343088992536895 0.747535303328803
v -0.16910916182848373 0.8958342150125199 0.7496886893207575
v -0.16611834795076927 0.9030976201441122 0.9555763166626214
v -0.1623584676473568 0.9343088992536895 0.747535303328803
v -0.16611834795076927 0.9030976201441122 0.9555763166626214
v -0.16030762384549546 0.9367015503558612 0.9536621957808842
v -0.14304635517982908 0.9603717059023442 0.7471764056634773
v -0.1623584676473568 0.9343088992536895 0.747535303328803
v -0.16030762384549546 0.9367015503558612 0.9536621957808842
v -0.14304635517982908 0.9603717059023442 0.7471764056634773
v -0.16030762384549546 0.9367015503558612 0.9536621957808842
v -0.14355906613029443 0.9595171876515687 0.9531836655604499
v -0.11288186092745174 0.9742149015649083 0.7482530986594546
v -0.14304635517982908 0.9603717059023442 0.7471764056634773
v -0.14355906613029443 0.9595171876515687 0.9531836655604499
v -0.11288186092745174 0.9742149015649083 0.7482530986594546
v -0.14355906613029443 0.9595171876515687 0.9531836655604499
v -0.11749625948163979 0.9716513468125817 0.954260358556427
v -0.07203588854037989 0.9743858052150635 0.7511242799820604
v -0.11288186092745174 0.9742149015649083 0.7482530986594546
v -0.11749625948163979 0.9716513468125817 0.954260358556427
v -0.07203588854037989 0.9743858052150635 0.7511242799820604
v -0.11749625948163979 0.9716513468125817 0.954260358556427
v -0.0821192038995315 0.9718222504627367 0.9566530096585986
v -0.04187139428800254 0.960628061377577 0.7542347264148834
v -0.07203588854037989 0.9743858052150635 0.7511242799820604
v -0.0821192038995315 0.9718222504627367 0.9566530096585986
v -0.04187139428800254 0.960628061377577 0.7542347264148834
v -0.0821192038995315 0.9718222504627367 0.9566530096585986
v -0.055970945425799314 0.9597735431268013 0.959404558426096
v -0.022473829995397283 0.9346507065539998 0.7573451728477065
v -0.04187139428800254 0.960628061377577 0.7542347264148834
v -0.055970945425799314 0.9597735431268013 0.959404558426096
v -0.022473829995397283 0.9346507065539998 0.7573451728477065
v -0.055970945425799314 0.9597735431268013 0.959404558426096
v -0.039307839535675855 0.9370433576561714 0.9620364746384846
v -0.015808587639347896 0.8962614741379077 0.7604556192805296
v -0.022473829995397283 0.9346507065539998 0.7573451728477065
v -0.039307839535675855 0.9370433576561714 0.9620364746384846
v -0.015808587639347896 0.8962614741379077 0.7604556192805296
v -0.039307839535675855 0.9370433576561714 0.9620364746384846
v -0.03341166360532448 0.9034394274444224 0.964788023405982
v -0.039307839535675855 0.8698568601889428 0.9667021442877193
v -0.03341166360532448 0.9034394274444224 0.964788023405982
v -0.05118564322145617 0.9101901216255494 1.1697484984457542
v -0.039307839535675855 0.8698568601889428 0.9667021442877193
v -0.05118564322145617 0.9101901216255494 1.1697484984457542
v -0.05503097534994619 0.8892544244815481 1.1417245724115697
v -0.055970945425799314 0.8470412228932354 0.9671806745081535
v -0.039307839535675855 0.8698568601889428 0.9667021442877193
v -0.05503097534994619 0.8892544244815481 1.1417245724115697
v -0.055970945425799314 0.8470412228932354 0.9671806745081535
v -0.05503097534994619 0.8892544244815481 1.1417245724115697
v -0.06844691188712251 0.8750694215186737 1.1218655682635457
v -0.0821192038995315 0.8348216119071448 0.9661039815121764
v -0.055970945425799314 0.8470412228932354 0.9671806745081535
v -0.06844691188712251 0.8750694215186737 1.1218655682635457
v -0.0821192038995315 0.8348216119071448 0.9661039815121764
v -0.06844691188712251 0.8750694215186737 1.1218655682635457
v -0.09006622363174424 0.8676351127369264 1.1101415778629051
v -0.11749625948163979 0.8347361600820672 0.9637113304100047
v -0.0821192038995315 0.8348216119071448 0.9661039815121764
v -0.09006622363174424 0.8676351127369264 1.1101415778629051
v -0.11749625948163979 0.8347361600820672 0.9637113304100047
v -0.09006622363174424 0.8676351127369264 1.1101415778629051
v -0.11988891058381135 0.8678060163870814 1.1077489267607334
v -0.14355906613029443 0.8467848674180026 0.9609597816425074
v -0.11749625948163979 0.8347361600820672 0.9637113304100047
v -0.11988891058381135 0.8678060163870814 1.1077489267607334
v -0.14355906613029443 0.8467848674180026 0.9609597816425074
v -0.11988891058381135 0.8678060163870814 1.1077489267607334
v -0.1422772887541311 0.8754112288189839 1.115883940508117
v -0.16030762384549546 0.8695150528886326 0.9582082328750101
v -0.14355906613029443 0.8467848674180026 0.9609597816425074
v -0.1422772887541311 0.8754112288189839 1.115883940508117
v -0.16030762384549546 0.8695150528886326 0.9582082328750101
v -0.1422772887541311 0.8754112288189839 1.115883940508117
v -0.15714590631762587 0.8897671354320134 1.1334699261090777
v -0.16611834795076927 0.9030976201441122 0.9555763166626214
v -0.16030762384549546 0.8695150528886326 0.9582082328750101
v -0.15714590631762587 0.8897671354320134 1.1334699261090777
v -0.16611834795076927 0.9030976201441122 0.9555763166626214
v -0.15714590631762587 0.8897671354320134 1.1334699261090777
v -0.1631275340730548 0.9107028325760147 1.1607760568126109
v -0.16030762384549546 0.9367015503558612 0.9536621957808842
v -0.16611834795076927 0.9030976201441122 0.9555763166626214
v -0.1631275340730548 0.9107028325760147 1.1607760568126109
v -0.16030762384549546 0.9367015503558612 0.9536621957808842
v -0.1631275340730548 0.9107028325760147 1.1607760568126109
v -0.15919675011948722 0.9317453445013629 1.1887700747080183
v -0.14355906613029443 0.9595171876515687 0.9531836655604499
v -0.16030762384549546 0.9367015503558612 0.9536621957808842
v -0.15919675011948722 0.9317453445013629 1.1887700747080183
v -0.14355906613029443 0.9595171876515687 0.9531836655604499
v -0.15919675011948722 0.9317453445013629 1.1887700747080183
v -0.14578081358231088 0.9459303474642372 1.2086290788560423
v -0.11749625948163979 0.9716513468125817 0.954260358556427
v -0.14355906613029443 0.9595171876515687 0.9531836655604499
v -0.14578081358231088 0.9459303474642372 1.2086290788560423
v -0.11749625948163979 0.9716513468125817 0.954260358556427
v -0.14578081358231088 0.9459303474642372 1.2086290788560423
v -0.12416150183768918 0.9533646562459847 1.2203530692566833
v -0.0821192038995315 0.9718222504627367 0.9566530096585986
v -0.11749625948163979 0.9716513468125817 0.954260358556427
v -0.12416150183768918 0.9533646562459847 1.2203530692566833
v -0.0821192038995315 0.9718222504627367 0.9566530096585986
v -0.12416150183768918 0.9533646562459847 1.2203530692566833
v -0.09433881488562205 0.9531937525958295 1.2227457203588548
v -0.055970945425799314 0.9597735431268013 0.959404558426096
v -0.0821192038995315 0.9718222504627367 0.9566530096585986
v -0.09433881488562205 0.9531937525958295 1.2227457203588548
v -0.055970945425799314 0.9597735431268013 0.959404558426096
v -0.09433881488562205 0.9531937525958295 1.2227457203588548
v -0.07195043671530232 0.945588540163927 1.2146107066114713
v -0.039307839535675855 0.9370433576561714 0.9620364746384846
v -0.055970945425799314 0.9597735431268013 0.959404558426096
v -0.07195043671530232 0.945588540163927 1.2146107066114713
v -0.039307839535675855 0.9370433576561714 0.9620364746384846
v -0.07195043671530232 0.945588540163927 1.2146107066114713
v -0.057081819151807545 0.9312326335508976 1.1970247210105103
v -0.03341166360532448 0.9034394274444224 0.964788023405982
v -0.039307839535675855 0.9370433576561714 0.9620364746384846
v -0.057081819151807545 0.9312326335508976 1.1970247210105103
v -0.03341166360532448 0.9034394274444224 0.964788023405982
v -0.057081819151807545 0.9312326335508976 1.1970247210105103
v -0.05118564322145617 0.9101901216255494 1.1697484984457542
v -0.05503097534994619 0.8892544244815481 1.1417245724115697
v -0.05118564322145617 0.9101901216255494 1.1697484984457542
v -0.059218114778746445 0.8483479355671978 1.2082901177676257
v -0.05503097534994619 0.8892544244815481 1.1417245724115697
v -0.059218114778746445 0.8483479355671978 1.2082901177676257
v -0.06203802500630581 0.8356049321525072 1.2067348945512142
v -0.06844691188712251 0.8750694215186737 1.1218655682635457
v -0.05503097534994619 0.8892544244815481 1.1417245724115697
v -0.06203802500630581 0.8356049321525072 1.2067348945512142
v -0.06844691188712251 0.8750694215186737 1.1218655682635457
v -0.06203802500630581 0.8356049321525072 1.2067348945512142
v -0.07357402139177589 0.8266752164319026 1.2056582015552368
v -0.09006622363174424 0.8676351127369264 1.1101415778629051
v -0.06844691188712251 0.8750694215186737 1.1218655682635457
v -0.07357402139177589 0.8266752164319026 1.2056582015552368
v -0.09006622363174424 0.8676351127369264 1.1101415778629051
v -0.07357402139177589 0.8266752164319026 1.2056582015552368
v -0.09237342290883825 0.8215908328397881 1.2048207736694767
v -0.11988891058381135 0.8678060163870814 1.1077489267607334
v -0.09006622363174424 0.8676351127369264 1.1101415778629051
v -0.09237342290883825 0.8215908328397881 1.2048207736694767
v -0.11988891058381135 0.8678060163870814 1.1077489267607334
v -0.09237342290883825 0.8215908328397881 1.2048207736694767
v -0.11869258503272558 0.82082176641409 1.2043422434490425
v -0.1422772887541311 0.8754112288189839 1.115883940508117
v -0.11988891058381135 0.8678060163870814 1.1077489267607334
v -0.11869258503272558 0.82082176641409 1.2043422434490425
v -0.1422772887541311 0.8754112288189839 1.115883940508117
v -0.11869258503272558 0.82082176641409 1.2043422434490425
v -0.13860286027579616 0.8248380021927352 1.2044618760041512
v -0.15714590631762587 0.8897671354320134 1.1334699261090777
v -0.1422772887541311 0.8754112288189839 1.115883940508117
v -0.13860286027579616 0.8248380021927352 1.2044618760041512
v -0.15714590631762587 0.8897671354320134 1.1334699261090777
v -0.13860286027579616 0.8248380021927352 1.2044618760041512
v -0.15201879681297248 0.8330413774001806 1.2051796713348026
v -0.1631275340730548 0.9107028325760147 1.1607760568126109
v -0.15714590631762587 0.8897671354320134 1.1334699261090777
v -0.15201879681297248 0.8330413774001806 1.2051796713348026
v -0.1631275340730548 0.9107028325760147 1.1607760568126109
v -0.15201879681297248 0.8330413774001806 1.2051796713348026
v -0.1578295209182463 0.8455173438615038 1.206495629440997
v -0.15919675011948722 0.9317453445013629 1.1887700747080183
v -0.1631275340730548 0.9107028325760147 1.1607760568126109
v -0.1578295209182463 0.8455173438615038 1.206495629440997
v -0.15919675011948722 0.9317453445013629 1.1887700747080183
v -0.1578295209182463 0.8455173438615038 1.206495629440997
v -0.1549241588656094 0.8582603472761943 1.2080508526574083
v -0.14578081358231088 0.9459303474642372 1.2086290788560423
v -0.15919675011948722 0.9317453445013629 1.1887700747080183
v -0.1549241588656094 0.8582603472761943 1.2080508526574083
v -0.14578081358231088 0.9459303474642372 1.2086290788560423
v -0.1549241588656094 0.8582603472761943 1.2080508526574083
v -0.14347361430521688 0.8671900629967989 1.2091275456533856
v -0.12416150183768918 0.9533646562459847 1.2203530692566833
v -0.14578081358231088 0.9459303474642372 1.2086290788560423
v -0.14347361430521688 0.8671900629967989 1.2091275456533856
v -0.12416150183768918 0.9533646562459847 1.2203530692566833
v -0.14347361430521688 0.8671900629967989 1.2091275456533856
v -0.12467421278815449 0.8722744465889135 1.2099649735391458
v -0.09433881488562205 0.9531937525958295 1.2227457203588548
v -0.12416150183768918 0.9533646562459847 1.2203530692566833
v -0.12467421278815449 0.8722744465889135 1.2099649735391458
v -0.09433881488562205 0.9531937525958295 1.2227457203588548
v -0.12467421278815449 0.8722744465889135 1.2099649735391458
v -0.0983550506642672 0.8730435130146115 1.21044350375958
v -0.07195043671530232 0.945588540163927 1.2146107066114713
v -0.09433881488562205 0.9531937525958295 1.2227457203588548
v -0.0983550506642672 0.8730435130146115 1.21044350375958
v -0.07195043671530232 0.945588540163927 1.2146107066114713
v -0.0983550506642672 0.8730435130146115 1.21044350375958
v -0.0784447754211966 0.8690700031485051 1.2103238712044715
v -0.057081819151807545 0.9312326335508976 1.1970247210105103
v -0.07195043671530232 0.945588540163927 1.2146107066114713
v -0.0784447754211966 0.8690700031485051 1.2103238712044715
v -0.057081819151807545 0.9312326335508976 1.1970247210105103
v -0.0784447754211966 0.8690700031485051 1.2103238712044715
v -0.06502883888402027 0.860823902028521 1.20960607587382
v -0.05118564322145617 0.9101901216255494 1.1697484984457542
v -0.057081819151807545 0.9312326335508976 1.1970247210105103
v -0.06502883888402027 0.860823902028521 1.20960607587382
v -0.05118564322145617 0.9101901216255494 1.1697484984457542
v -0.06502883888402027 0.860823902028521 1.20960607587382
v -0.059218114778746445 0.8483479355671978 1.2082901177676257
v -0.06203802500630581 0.8356049321525072 1.2067348945512142
v -0.059218114778746445 0.8483479355671978 1.2082901177676257
v -0.06725058633603674 0.8453464402113486 1.4042781511742546
v -0.06203802500630581 0.8356049321525072 1.2067348945512142
v -0.06725058633603674 0.8453464402113486 1.4042781511742546
v -0.06972868926328586 0.8343658806888826 1.4029621930680602
v -0.07357402139177589 0.8266752164319026 1.2056582015552368
v -0.06203802500630581 0.8356049321525072 1.2067348945512142
v -0.06972868926328586 0.8343658806888826 1.4029621930680602
v -0.07357402139177589 0.8266752164319026 1.2056582015552368
v -0.06972868926328586 0.8343658806888826 1.4029621930680602
v -0.07964110097228239 0.8267179423444414 1.4020051326271916
v -0.09237342290883825 0.8215908328397881 1.2048207736694767
v -0.07357402139177589 0.8266752164319026 1.2056582015552368
v -0.07964110097228239 0.8267179423444414 1.4020051326271916
v -0.09237342290883825 0.8215908328397881 1.2048207736694767
v -0.07964110097228239 0.8267179423444414 1.4020051326271916
v -0.09596239956209561 0.8223171733529472 1.40128733729654
v -0.11869258503272558 0.82082176641409 1.2043422434490425
v -0.09237342290883825 0.8215908328397881 1.2048207736694767
v -0.09596239956209561 0.8223171733529472 1.40128733729654
v -0.11869258503272558 0.82082176641409 1.2043422434490425
v -0.09596239956209561 0.8223171733529472 1.40128733729654
v -0.11869258503272558 0.8216762846648655 1.4008088070761058
v -0.13860286027579616 0.8248380021927352 1.2044618760041512
v -0.11869258503272558 0.82082176641409 1.2043422434490425
v -0.11869258503272558 0.8216762846648655 1.4008088070761058
v -0.13860286027579616 0.8248380021927352 1.2044618760041512
v -0.11869258503272558 0.8216762846648655 1.4008088070761058
v -0.1359538536983919 0.8250943576679678 1.401048072186323
v -0.15201879681297248 0.8330413774001806 1.2051796713348026
v -0.13860286027579616 0.8248380021927352 1.2044618760041512
v -0.1359538536983919 0.8250943576679678 1.401048072186323
v -0.15201879681297248 0.8330413774001806 1.2051796713348026
v -0.1359538536983919 0.8250943576679678 1.401048072186323
v -0.14757530190893958 0.8321441332368662 1.401646234961866
v -0.1578295209182463 0.8455173438615038 1.206495629440997
v -0.15201879681297248 0.8330413774001806 1.2051796713348026
v -0.14757530190893958 0.8321441332368662 1.401646234961866
v -0.1578295209182463 0.8455173438615038 1.206495629440997
v -0.14757530190893958 0.8321441332368662 1.401646234961866
v -0.15253150776343782 0.8429110631966383 1.4027229279578433
v -0.1549241588656094 0.8582603472761943 1.2080508526574083
v -0.1578295209182463 0.8455173438615038 1.206495629440997
v -0.15253150776343782 0.8429110631966383 1.4027229279578433
v -0.1549241588656094 0.8582603472761943 1.2080508526574083
v -0.15253150776343782 0.8429110631966383 1.4027229279578433
v -0.1500534048361887 0.8538595782847002 1.4040388860640374
v -0.14347361430521688 0.8671900629967989 1.2091275456533856
v -0.1549241588656094 0.8582603472761943 1.2080508526574083
v -0.1500534048361887 0.8538595782847002 1.4040388860640374
v -0.14347361430521688 0.8671900629967989 1.2091275456533856
v -0.1500534048361887 0.8538595782847002 1.4040388860640374
v -0.14014099312719216 0.8615502425416802 1.404995946504906
v -0.12467421278815449 0.8722744465889135 1.2099649735391458
v -0.14347361430521688 0.8671900629967989 1.2091275456533856
v -0.14014099312719216 0.8615502425416802 1.404995946504906
v -0.12467421278815449 0.8722744465889135 1.2099649735391458
v -0.14014099312719216 0.8615502425416802 1.404995946504906
v -0.12381969453737894 0.8659510115331743 1.4057137418355574
v -0.0983550506642672 0.8730435130146115 1.21044350375958
v -0.12467421278815449 0.8722744465889135 1.2099649735391458
v -0.12381969453737894 0.8659510115331743 1.4057137418355574
v -0.0983550506642672 0.8730435130146115 1.21044350375958
v -0.12381969453737894 0.8659510115331743 1.4057137418355574
v -0.10108950906674899 0.8665919002212561 1.4060726395008833
v -0.0784447754211966 0.8690700031485051 1.2103238712044715
v -0.0983550506642672 0.8730435130146115 1.21044350375958
v -0.10108950906674899 0.8665919002212561 1.4060726395008833
v -0.0784447754211966 0.8690700031485051 1.2103238712044715
v -0.10108950906674899 0.8665919002212561 1.4060726395008833
v -0.0839136922261602 0.8631738272181538 1.4059530069457746
v -0.06502883888402027 0.860823902028521 1.20960607587382
v -0.0784447754211966 0.8690700031485051 1.2103238712044715
v -0.0839136922261602 0.8631738272181538 1.4059530069457746
v -0.06502883888402027 0.860823902028521 1.20960607587382
v -0.0839136922261602 0.8631738272181538 1.4059530069457746
v -0.07229224401561256 0.8561240516492554 1.405354844170232
v -0.059218114778746445 0.8483479355671978 1.2082901177676257
v -0.06502883888402027 0.860823902028521 1.20960607587382
v -0.07229224401561256 0.8561240516492554 1.405354844170232
v -0.059218114778746445 0.8483479355671978 1.2082901177676257
v -0.07229224401561256 0.8561240516492554 1.405354844170232
v -0.06725058633603674 0.8453464402113486 1.4042781511742546
v -0.06972868926328586 0.8343658806888826 1.4029621930680602
v -0.06725058633603674 0.8453464402113486 1.4042781511742546
v -0.07536850971840457 0.8423556263336341 1.6002661845808837
v -0.06972868926328586 0.8343658806888826 1.4029621930680602
v -0.07536850971840457 0.8423556263336341 1.6002661845808837
v -0.07741935352026592 0.8331695551377969 1.5991894915849065
v -0.07964110097228239 0.8267179423444414 1.4020051326271916
v -0.06972868926328586 0.8343658806888826 1.4029621930680602
v -0.07741935352026592 0.8331695551377969 1.5991894915849065
v -0.07964110097228239 0.8267179423444414 1.4020051326271916
v -0.07741935352026592 0.8331695551377969 1.5991894915849065
v -0.08579363237786643 0.8267179423444414 1.5983520636991464
v -0.09596239956209561 0.8223171733529472 1.40128733729654
v -0.07964110097228239 0.8267179423444414 1.4020051326271916
v -0.08579363237786643 0.8267179423444414 1.5983520636991464
v -0.09596239956209561 0.8223171733529472 1.40128733729654
v -0.08579363237786643 0.8267179423444414 1.5983520636991464
v -0.09955137621535298 0.8230435138661064 1.5977539009236035
v -0.11869258503272558 0.8216762846648655 1.4008088070761058
v -0.09596239956209561 0.8223171733529472 1.40128733729654
v -0.09955137621535298 0.8230435138661064 1.5977539009236035
v -0.11869258503272558 0.8216762846648655 1.4008088070761058
v -0.09955137621535298 0.8230435138661064 1.5977539009236035
v -0.11877803685780312 0.8224880770031023 1.5973950032582778
v -0.1359538536983919 0.8250943576679678 1.401048072186323
v -0.11869258503272558 0.8216762846648655 1.4008088070761058
v -0.11877803685780312 0.8224880770031023 1.5973950032582778
v -0.1359538536983919 0.8250943576679678 1.401048072186323
v -0.11877803685780312 0.8224880770031023 1.5973950032582778
v -0.13330484712098767 0.8253507131432005 1.5975146358133863
v -0.14757530190893958 0.8321441332368662 1.401646234961866
v -0.1359538536983919 0.8250943576679678 1.401048072186323
v -0.13330484712098767 0.8253507131432005 1.5975146358133863
v -0.14757530190893958 0.8321441332368662 1.401646234961866
v -0.13330484712098767 0.8253507131432005 1.5975146358133863
v -0.14313180700490663 0.8312896149860907 1.5979931660338207
v -0.15253150776343782 0.8429110631966383 1.4027229279578433
v -0.14757530190893958 0.8321441332368662 1.401646234961866
v -0.14313180700490663 0.8312896149860907 1.5979931660338207
v -0.15253150776343782 0.8429110631966383 1.4027229279578433
v -0.14313180700490663 0.8312896149860907 1.5979931660338207
v -0.1473189464337069 0.8403047825317728 1.5989502264746893
v -0.1500534048361887 0.8538595782847002 1.4040388860640374
v -0.15253150776343782 0.8429110631966383 1.4027229279578433
v -0.1473189464337069 0.8403047825317728 1.5989502264746893
v -0.1500534048361887 0.8538595782847002 1.4040388860640374
v -0.1473189464337069 0.8403047825317728 1.5989502264746893
v -0.14518265080676798 0.8495015352057448 1.6000269194706664
v -0.14014099312719216 0.8615502425416802 1.404995946504906
v -0.1500534048361887 0.8538595782847002 1.4040388860640374
v -0.14518265080676798 0.8495015352057448 1.6000269194706664
v -0.14014099312719216 0.8615502425416802 1.404995946504906
v -0.14518265080676798 0.8495015352057448 1.6000269194706664
v -0.13680837194916748 0.8559531479991003 1.6008643473564264
v -0.12381969453737894 0.8659510115331743 1.4057137418355574
v -0.14014099312719216 0.8615502425416802 1.404995946504906
v -0.13680837194916748 0.8559531479991003 1.6008643473564264
v -0.12381969453737894 0.8659510115331743 1.4057137418355574
v -0.13680837194916748 0.8559531479991003 1.6008643473564264
v -0.12305062811168094 0.8596275764774352 1.6014625101319693
v -0.10108950906674899 0.8665919002212561 1.4060726395008833
v -0.12381969453737894 0.8659510115331743 1.4057137418355574
v -0.12305062811168094 0.8596275764774352 1.6014625101319693
v -0.10108950906674899 0.8665919002212561 1.4060726395008833
v -0.12305062811168094 0.8596275764774352 1.6014625101319693
v -0.10390941929430834 0.8601830133404393 1.6018214077972952
v -0.0839136922261602 0.8631738272181538 1.4059530069457746
v -0.10108950906674899 0.8665919002212561 1.4060726395008833
v -0.10390941929430834 0.8601830133404393 1.6018214077972952
v -0.0839136922261602 0.8631738272181538 1.4059530069457746
v -0.10390941929430834 0.8601830133404393 1.6018214077972952
v -0.0893826090311238 0.8572776512878024 1.6017017752421867
v -0.07229224401561256 0.8561240516492554 1.405354844170232
v -0.0839136922261602 0.8631738272181538 1.4059530069457746
v -0.0893826090311238 0.8572776512878024 1.6017017752421867
v -0.07229224401561256 0.8561240516492554 1.405354844170232
v -0.0893826090311238 0.8572776512878024 1.6017017752421867
v -0.07955564914720482 0.851381475357451 1.6011036124666438
v -0.06725058633603674 0.8453464402113486 1.4042781511742546
v -0.07229224401561256 0.8561240516492554 1.405354844170232
v -0.07955564914720482 0.851381475357451 1.6011036124666438
v -0.06725058633603674 0.8453464402113486 1.4042781511742546
v -0.07955564914720482 0.851381475357451 1.6011036124666438
v -0.07536850971840457 0.8423556263336341 1.6002661845808837
v -0.08511001777724599 0.8888271653561604 0.5499920467057625
v 0.0018799401517062364 0.889083520831393 0.5560933070163001
v -0.0057252722801962655 0.8458448973421495 0.5584859581184716
v -0.08511001777724599 0.8888271653561604 0.5499920467057625
v -0.0057252722801962655 0.8458448973421495 0.5584859581184716
v -0.02768639132512821 0.6332016029781806 1.142851110123233
v -0.08511001777724599 0.8888271653561604 0.5499920467057625
v -0.02768639132512821 0.6332016029781806 1.142851110123233
v -0.061952573181228245 0.6327316179402541 1.164743867708103
v -0.08511001777724599 0.8888271653561604 0.5499920467057625
v -0.061952573181228245 0.6327316179402541 1.164743867708103
v -0.1082674623732637 0.6315780183017071 1.1648635002632115
v -0.08511001777724599 0.8888271653561604 0.5499920467057625
v -0.1082674623732637 0.6315780183017071 1.1648635002632115
v -0.14253364422936377 0.6303389668380825 1.1433296403436675
v -0.08511001777724599 0.8888271653561604 0.5499920467057625
v -0.14253364422936377 0.6303389668380825 1.1433296403436675
v -0.1644947632742957 0.8455030900418393 0.5474797630484823
v -0.08511001777724599 0.8888271653561604 0.5499920467057625
v -0.1644947632742957 0.8455030900418393 0.5474797630484823
v -0.1720999757061982 0.8886562617060052 0.543890786395225
v -0.08511001777724599 0.8888271653561604 0.5499920467057625
v -0.1720999757061982 0.8886562617060052 0.543890786395225
v -0.1644947632742957 0.9318307963264404 0.5414981352930535
v -0.08511001777724599 0.8888271653561604 0.5499920467057625
v -0.1644947632742957 0.9318307963264404 0.5414981352930535
v -0.14253364422936377 0.9612262241531198 0.5410196050726191
v -0.08511001777724599 0.8888271653561604 0.5499920467057625
v -0.14253364422936377 0.9612262241531198 0.5410196050726191
v -0.1082674623732637 0.976778456317235 0.5423355631788135
v -0.08511001777724599 0.8888271653561604 0.5499920467057625
v -0.1082674623732637 0.976778456317235 0.5423355631788135
v -0.061952573181228245 0.9769493599673901 0.5455656421667451
v -0.08511001777724599 0.8888271653561604 0.5499920467057625
v -0.061952573181228245 0.9769493599673901 0.5455656421667451
v -0.02768639132512821 0.9614825796283525 0.5490349862648939
v -0.08511001777724599 0.8888271653561604 0.5499920467057625
v -0.02768639132512821 0.9614825796283525 0.5490349862648939
v -0.0057252722801962655 0.9322580554518283 0.5526239629181513
v -0.08511001777724599 0.8888271653561604 0.5499920467057625
v -0.0057252722801962655 0.9322580554518283 0.5526239629181513
v 0.0018799401517062364 0.889083520831393 0.5560933070163001
v -0.11134372807605573 0.8413302044327035 1.599548389250232
v -0.07741935352026592 0.8331695551377969 1.5991894915849065
v -0.07536850971840457 0.8423556263336341 1.6002661845808837
v -0.11134372807605573 0.8413302044327035 1.599548389250232
v -0.08579363237786643 0.8267179423444414 1.5983520636991464
v -0.07741935352026592 0.8331695551377969 1.5991894915849065
v -0.11134372807605573 0.8413302044327035 1.599548389250232
v -0.09955137621535298 0.8230435138661064 1.5977539009236035
v -0.08579363237786643 0.8267179423444414 1.5983520636991464
v -0.11134372807605573 0.8413302044327035 1.599548389250232
v -0.11877803685780312 0.8224880770031023 1.5973950032582778
v -0.09955137621535298 0.8230435138661064 1.5977539009236035
v -0.11134372807605573 0.8413302044327035 1.599548389250232
v -0.13330484712098767 0.8253507131432005 1.5975146358133863
v -0.11877803685780312 0.8224880770031023 1.5973950032582778
v -0.11134372807605573 0.8413302044327035 1.599548389250232
v -0.14313180700490663 0.8312896149860907 1.5979931660338207
v -0.13330484712098767 0.8253507131432005 1.5975146358133863
v -0.11134372807605573 0.8413302044327035 1.599548389250232
v -0.1473189464337069 0.8403047825317728 1.5989502264746893
v -0.14313180700490663 0.8312896149860907 1.5979931660338207
v -0.11134372807605573 0.8413302044327035 1.599548389250232
v -0.14518265080676798 0.8495015352057448 1.6000269194706664
v -0.1473189464337069 0.8403047825317728 1.5989502264746893
v -0.11134372807605573 0.8413302044327035 1.599548389250232
v -0.13680837194916748 0.8559531479991003 1.6008643473564264
v -0.14518265080676798 0.8495015352057448 1.6000269194706664
v -0.11134372807605573 0.8413302044327035 1.599548389250232
v -0.12305062811168094 0.8596275764774352 1.6014625101319693
v -0.13680837194916748 0.8559531479991003 1.6008643473564264
v -0.11134372807605573 0.8413302044327035 1.599548389250232
v -0.10390941929430834 0.8601830133404393 1.6018214077972952
v -0.12305062811168094 0.8596275764774352 1.6014625101319693
v -0.11134372807605573 0.8413302044327035 1.599548389250232
v -0.0893826090311238 0.8572776512878024 1.6017017752421867
v -0.10390941929430834 0.8601830133404393 1.6018214077972952
v -0.11134372807605573 0.8413302044327035 1.599548389250232
v -0.07955564914720482 0.851381475357451 1.6011036124666438
v -0.0893826090311238 0.8572776512878024 1.6017017752421867
v -0.11134372807605573 0.8413302044327035 1.599548389250232
v -0.07536850971840457 0.8423556263336341 1.6002661845808837
v -0.07955564914720482 0.851381475357451 1.6011036124666438
f 1 2 3
f 4 5 6
f 7 8 9
f 10 11 12
f 13 14 15
f 16 17 18
f 19 20 21
f 22 23 24
f 25 26 27
f 28 29 30
f 31 32 33
f 34 35 36
f 37 38 39
f 40 41 42
f 43 44 45
f 46 47 48
f 49 50 51
f 52 53 54
f 55 56 57
f 58 59 60
f 61 62 63
f 64 65 66
f 67 68 69
f 70 71 72
f 73 74 75
f 76 77 78
f 79 80 81
f 82 83 84
f 85 86 87
f 88 89 90
f 91 92 93
f 94 95 96
f 97 98 99
f 100 101 102
f 103 104 105
f 106 107 108
f 109 110 111
f 112 113 114
f 115 116 117
f 118 119 120
f 121 122 123
f 124 125 126
f 127 128 129
f 130 131 132
f 133 134 135
f 136 137 138
f 139 140 141
f 142 143 144
f 145 146 147
f 148 149 150
f 151 152 153
f 154 155 156
f 157 158 159
f 160 161 162
f 163 164 165
f 166 167 168
f 169 170 171
f 172 173 174
f 175 176 177
f 178 179 180
f 181 182 183
f 184 185 186
f 187 188 189
f 190 191 192
f 193 194 195
f 196 197 198
f 199 200 201
f 202 203 204
f 205 206 207
f 208 209 210
f 211 212 213
f 214 215 216
f 217 218 219
f 220 221 222
f 223 224 225
f 226 227 228
f 229 230 231
f 232 233 234
f 235 236 237
f 238 239 240
f 241 242 243
f 244 245 246
f 247 248 249
f 250 251 252
f 253 254 255
f 256 257 258
f 259 260 261
f 262 263 264
f 265 266 267
f 268 269 270
f 271 272 273
f 274 275 276
f 277 278 279
f 280 281 282
f 283 284 285
f 286 287 288
f 289 290 291
f 292 293 294
f 295 296 297
f 298 299 300
f 301 302 303
f 304 305 306
f 307 308 309
f 310 311 312
f 313 314 315
f 316 317 318
f 319 320 321
f 322 323 324
f 325 326 327
f 328 329 330
f 331 332 333
f 334 335 336
f 337 338 339
f 340 341 342
f 343 344 345
f 346 347 348
f 349 350 351
f 352 353 354
f 355 356 357
f 358 359 360
f 361 362 363
f 364 365 366
f 367 368 369
f 370 371 372
f 373 374 375
f 376 377 378
f 379 380 381
f 382 383 384
f 385 386 387
f 388 389 390
f 391 392 393
f 394 395 396
f 397 398 399
f 400 401 402
f 403 404 405
f 406 407 408
f 409 410 411
f 412 413 414
f 415 416 417
f 418 419 420
f 421 422 423
f 424 425 426
f 427 428 429
f 430 431 432
f 433 434 435
f 436 437 438
f 439 440 441
f 442 443 444
f 445 446 447
f 448 449 450
f 451 452 453
f 454 455 456
f 457 458 459
f 460 461 462
f 463 464 465
f 466 467 468
f 469 470 471
f 472 473 474
f 475 476 477
f 478 479 480
f 481 482 483
f 484 485 486
f 487 488 489
f 490 491 492
f 493 494 495
f 496 497 498
f 499 500 501
f 502 503 504
f 505 506 507
f 508 509 510
f 511 512 513
f 514 515 516
f 517 518 519
f 520 521 522
f 523 524 525
f 526 527 528
f 529 530 531
f 532 533 534
f 535 536 537
f 538 539 540
f 541 542 543
f 544 545 546
f 547 548 549
f 550 551 552
f 553 554 555
f 556 557 558
f 559 560 561
f 562 563 564
f 565 566 567
f 568 569 570
f 571 572 573
f 574 575 576
f 577 578 579
f 580 581 582
f 583 584 585
f 586 587 588
