# Piezas extraídas de modelos de terceros; véase procedencia.json
mtllib paciente-1.mtl
o pieza_0
usemtl material_0
v 0.05648365637626465 1.0262913300990235 0.0386534829692761
v 0.06203802500630581 1.000916806067773 0.024069370708146506
v 0.04904934759451727 1.0086887064501484 0.010581787061995272
v 0.05648365637626465 1.0262913300990235 0.0386534829692761
v 0.04904934759451727 1.0086887064501484 0.010581787061995272
v 0.04443494904032923 1.0299485019486263 0.01840152183487205
v 0.0405896169118392 1.0440694123344152 0.048902012569895965
v 0.05648365637626465 1.0262913300990235 0.0386534829692761
v 0.04443494904032923 1.0299485019486263 0.01840152183487205
v 0.0405896169118392 1.0440694123344152 0.048902012569895965
v 0.04443494904032923 1.0299485019486263 0.01840152183487205
v 0.03136081980346313 1.045871232012716 0.02434886303927533
v 0.016064943114580565 1.053492001205795 0.054346173538079565
v 0.0405896169118392 1.0440694123344152 0.048902012569895965
v 0.03136081980346313 1.045871232012716 0.02434886303927533
v 0.016064943114580565 1.053492001205795 0.054346173538079565
v 0.03136081980346313 1.045871232012716 0.02434886303927533
v 0.011792351860702757 1.0545039763226127 0.02745819605725512
v -0.016064943114580565 1.053492001205795 0.054346173538079565
v 0.016064943114580565 1.053492001205795 0.054346173538079565
v 0.011792351860702757 1.0545039763226127 0.02745819605725512
v -0.016064943114580565 1.053492001205795 0.054346173538079565
v 0.011792351860702757 1.0545039763226127 0.02745819605725512
v -0.011792351860702757 1.0545039763226127 0.02745819605725512
v -0.0405896169118392 1.0440694123344152 0.048902012569895965
v -0.016064943114580565 1.053492001205795 0.054346173538079565
v -0.011792351860702757 1.0545039763226127 0.02745819605725512
v -0.0405896169118392 1.0440694123344152 0.048902012569895965
v -0.011792351860702757 1.0545039763226127 0.02745819605725512
v -0.03136081980346313 1.045871232012716 0.02434886303927533
v -0.05648365637626465 1.0262913300990235 0.0386534829692761
v -0.0405896169118392 1.0440694123344152 0.048902012569895965
v -0.03136081980346313 1.045871232012716 0.02434886303927533
v -0.05648365637626465 1.0262913300990235 0.0386534829692761
v -0.03136081980346313 1.045871232012716 0.02434886303927533
v -0.04443494904032923 1.0299485019486263 0.01840152183487205
v -0.06203802500630581 1.000916806067773 0.024069370708146506
v -0.05648365637626465 1.0262913300990235 0.0386534829692761
v -0.04443494904032923 1.0299485019486263 0.01840152183487205
v -0.06203802500630581 1.000916806067773 0.024069370708146506
v -0.04443494904032923 1.0299485019486263 0.01840152183487205
v -0.04904934759451727 1.0086887064501484 0.010581787061995272
v -0.05648365637626465 0.9755643985962913 0.009402718322270952
v -0.06203802500630581 1.000916806067773 0.024069370708146506
v -0.04904934759451727 1.0086887064501484 0.010581787061995272
v -0.05648365637626465 0.9755643985962913 0.009402718322270952
v -0.04904934759451727 1.0086887064501484 0.010581787061995272
v -0.04443494904032923 0.9874289109516705 0.002762052289118604
v -0.0405896169118392 0.9578467399258768 -0.0007411545938339984
v -0.05648365637626465 0.9755643985962913 0.009402718322270952
v -0.04443494904032923 0.9874289109516705 0.002762052289118604
v -0.0405896169118392 0.9578467399258768 -0.0007411545938339984
v -0.04443494904032923 0.9874289109516705 0.002762052289118604
v -0.03136081980346313 0.971506180887581 -0.0031852889152848996
v -0.016064943114580565 0.948341610929751 -0.006207432121786677
v -0.0405896169118392 0.9578467399258768 -0.0007411545938339984
v -0.03136081980346313 0.971506180887581 -0.0031852889152848996
v -0.016064943114580565 0.948341610929751 -0.006207432121786677
v -0.03136081980346313 0.971506180887581 -0.0031852889152848996
v -0.011792351860702757 0.9628955531374529 -0.006377162058010305
v 0.016064943114580565 0.948341610929751 -0.006207432121786677
v -0.016064943114580565 0.948341610929751 -0.006207432121786677
v -0.011792351860702757 0.9628955531374529 -0.006377162058010305
v 0.016064943114580565 0.948341610929751 -0.006207432121786677
v -0.011792351860702757 0.9628955531374529 -0.006377162058010305
v 0.011792351860702757 0.9628955531374529 -0.006377162058010305
v 0.0405896169118392 0.9578467399258768 -0.0007411545938339984
v 0.016064943114580565 0.948341610929751 -0.006207432121786677
v 0.011792351860702757 0.9628955531374529 -0.006377162058010305
v 0.0405896169118392 0.9578467399258768 -0.0007411545938339984
v 0.011792351860702757 0.9628955531374529 -0.006377162058010305
v 0.03136081980346313 0.971506180887581 -0.0031852889152848996
v 0.05648365637626465 0.9755643985962913 0.009402718322270952
v 0.0405896169118392 0.9578467399258768 -0.0007411545938339984
v 0.03136081980346313 0.971506180887581 -0.0031852889152848996
v 0.05648365637626465 0.9755643985962913 0.009402718322270952
v 0.03136081980346313 0.971506180887581 -0.0031852889152848996
v 0.04443494904032923 0.9874289109516705 0.002762052289118604
v 0.06203802500630581 1.000916806067773 0.024069370708146506
v 0.05648365637626465 0.9755643985962913 0.009402718322270952
v 0.04443494904032923 0.9874289109516705 0.002762052289118604
v 0.06203802500630581 1.000916806067773 0.024069370708146506
v 0.04443494904032923 0.9874289109516705 0.002762052289118604
v 0.04904934759451727 1.0086887064501484 0.010581787061995272
v 0.04443494904032923 1.0299485019486263 0.01840152183487205
v 0.04904934759451727 1.0086887064501484 0.010581787061995272
v 0.04708395561773347 1.023552962483788 -0.037298680195633045
v 0.04443494904032923 1.0299485019486263 0.01840152183487205
v 0.04708395561773347 1.023552962483788 -0.037298680195633045
v 0.04264046071370055 1.0443795286963162 -0.030833556207119216
v 0.03136081980346313 1.045871232012716 0.02434886303927533
v 0.04443494904032923 1.0299485019486263 0.01840152183487205
v 0.04264046071370055 1.0443795286963162 -0.030833556207119216
v 0.03136081980346313 1.045871232012716 0.02434886303927533
v 0.04264046071370055 1.0443795286963162 -0.030833556207119216
v 0.030079042427299783 1.0598852199198956 -0.025971088853071936
v 0.011792351860702757 1.0545039763226127 0.02745819605725512
v 0.03136081980346313 1.045871232012716 0.02434886303927533
v 0.030079042427299783 1.0598852199198956 -0.025971088853071936
v 0.011792351860702757 1.0545039763226127 0.02745819605725512
v 0.030079042427299783 1.0598852199198956 -0.025971088853071936
v 0.011279640910237419 1.0683809266543987 -0.023340806138128577
v -0.011792351860702757 1.0545039763226127 0.02745819605725512
v 0.011792351860702757 1.0545039763226127 0.02745819605725512
v 0.011279640910237419 1.0683809266543987 -0.023340806138128577
v -0.011792351860702757 1.0545039763226127 0.02745819605725512
v 0.011279640910237419 1.0683809266543987 -0.023340806138128577
v -0.011279640910237419 1.0683809266543987 -0.023340806138128577
v -0.03136081980346313 1.045871232012716 0.02434886303927533
v -0.011792351860702757 1.0545039763226127 0.02745819605725512
v -0.011279640910237419 1.0683809266543987 -0.023340806138128577
v -0.03136081980346313 1.045871232012716 0.02434886303927533
v -0.011279640910237419 1.0683809266543987 -0.023340806138128577
v -0.030079042427299783 1.0598852199198956 -0.025971088853071936
v -0.04443494904032923 1.0299485019486263 0.01840152183487205
v -0.03136081980346313 1.045871232012716 0.02434886303927533
v -0.030079042427299783 1.0598852199198956 -0.025971088853071936
v -0.04443494904032923 1.0299485019486263 0.01840152183487205
v -0.030079042427299783 1.0598852199198956 -0.025971088853071936
v -0.04264046071370055 1.0443795286963162 -0.030833556207119216
v -0.04904934759451727 1.0086887064501484 0.010581787061995272
v -0.04443494904032923 1.0299485019486263 0.01840152183487205
v -0.04264046071370055 1.0443795286963162 -0.030833556207119216
v -0.04904934759451727 1.0086887064501484 0.010581787061995272
v -0.04264046071370055 1.0443795286963162 -0.030833556207119216
v -0.04708395561773347 1.023552962483788 -0.037298680195633045
v -0.04443494904032923 0.9874289109516705 0.002762052289118604
v -0.04904934759451727 1.0086887064501484 0.010581787061995272
v -0.04708395561773347 1.023552962483788 -0.037298680195633045
v -0.04443494904032923 0.9874289109516705 0.002762052289118604
v -0.04708395561773347 1.023552962483788 -0.037298680195633045
v -0.04264046071370055 1.002808936396006 -0.043741687624378044
v -0.03136081980346313 0.971506180887581 -0.0031852889152848996
v -0.04443494904032923 0.9874289109516705 0.002762052289118604
v -0.04264046071370055 1.002808936396006 -0.043741687624378044
v -0.03136081980346313 0.971506180887581 -0.0031852889152848996
v -0.04264046071370055 1.002808936396006 -0.043741687624378044
v -0.030079042427299783 0.9873032451724266 -0.04860415497842531
v -0.011792351860702757 0.9628955531374529 -0.006377162058010305
v -0.03136081980346313 0.971506180887581 -0.0031852889152848996
v -0.030079042427299783 0.9873032451724266 -0.04860415497842531
v -0.011792351860702757 0.9628955531374529 -0.006377162058010305
v -0.030079042427299783 0.9873032451724266 -0.04860415497842531
v -0.011279640910237419 0.9788075384379235 -0.05123443769336857
v 0.011792351860702757 0.9628955531374529 -0.006377162058010305
v -0.011792351860702757 0.9628955531374529 -0.006377162058010305
v -0.011279640910237419 0.9788075384379235 -0.05123443769336857
v 0.011792351860702757 0.9628955531374529 -0.006377162058010305
v -0.011279640910237419 0.9788075384379235 -0.05123443769336857
v 0.011279640910237419 0.9788075384379235 -0.05123443769336857
v 0.03136081980346313 0.971506180887581 -0.0031852889152848996
v 0.011792351860702757 0.9628955531374529 -0.006377162058010305
v 0.011279640910237419 0.9788075384379235 -0.05123443769336857
v 0.03136081980346313 0.971506180887581 -0.0031852889152848996
v 0.011279640910237419 0.9788075384379235 -0.05123443769336857
v 0.030079042427299783 0.9873032451724266 -0.04860415497842531
v 0.04443494904032923 0.9874289109516705 0.002762052289118604
v 0.03136081980346313 0.971506180887581 -0.0031852889152848996
v 0.030079042427299783 0.9873032451724266 -0.04860415497842531
v 0.04443494904032923 0.9874289109516705 0.002762052289118604
v 0.030079042427299783 0.9873032451724266 -0.04860415497842531
v 0.04264046071370055 1.002808936396006 -0.043741687624378044
v 0.04904934759451727 1.0086887064501484 0.010581787061995272
v 0.04443494904032923 0.9874289109516705 0.002762052289118604
v 0.04264046071370055 1.002808936396006 -0.043741687624378044
v 0.04904934759451727 1.0086887064501484 0.010581787061995272
v 0.04264046071370055 1.002808936396006 -0.043741687624378044
v 0.04708395561773347 1.023552962483788 -0.037298680195633045
v 0.0 1.000916806067773 0.024069370708146506
v 0.06203802500630581 1.000916806067773 0.024069370708146506
v 0.05648365637626465 1.0262913300990235 0.0386534829692761
v 0.0 1.000916806067773 0.024069370708146506
v 0.05648365637626465 1.0262913300990235 0.0386534829692761
v 0.0405896169118392 1.0440694123344152 0.048902012569895965
v 0.0 1.000916806067773 0.024069370708146506
v 0.0405896169118392 1.0440694123344152 0.048902012569895965
v 0.016064943114580565 1.053492001205795 0.054346173538079565
v 0.0 1.000916806067773 0.024069370708146506
v 0.016064943114580565 1.053492001205795 0.054346173538079565
v -0.016064943114580565 1.053492001205795 0.054346173538079565
v 0.0 1.000916806067773 0.024069370708146506
v -0.016064943114580565 1.053492001205795 0.054346173538079565
v -0.0405896169118392 1.0440694123344152 0.048902012569895965
v 0.0 1.000916806067773 0.024069370708146506
v -0.0405896169118392 1.0440694123344152 0.048902012569895965
v -0.05648365637626465 1.0262913300990235 0.0386534829692761
v 0.0 1.000916806067773 0.024069370708146506
v -0.05648365637626465 1.0262913300990235 0.0386534829692761
v -0.06203802500630581 1.000916806067773 0.024069370708146506
v 0.0 1.000916806067773 0.024069370708146506
v -0.06203802500630581 1.000916806067773 0.024069370708146506
v -0.05648365637626465 0.9755643985962913 0.009402718322270952
v 0.0 1.000916806067773 0.024069370708146506
v -0.05648365637626465 0.9755643985962913 0.009402718322270952
v -0.0405896169118392 0.9578467399258768 -0.0007411545938339984
v 0.0 1.000916806067773 0.024069370708146506
v -0.0405896169118392 0.9578467399258768 -0.0007411545938339984
v -0.016064943114580565 0.948341610929751 -0.006207432121786677
v 0.0 1.000916806067773 0.024069370708146506
v -0.016064943114580565 0.948341610929751 -0.006207432121786677
v 0.016064943114580565 0.948341610929751 -0.006207432121786677
v 0.0 1.000916806067773 0.024069370708146506
v 0.016064943114580565 0.948341610929751 -0.006207432121786677
v 0.0405896169118392 0.9578467399258768 -0.0007411545938339984
v 0.0 1.000916806067773 0.024069370708146506
v 0.0405896169118392 0.9578467399258768 -0.0007411545938339984
v 0.05648365637626465 0.9755643985962913 0.009402718322270952
v 0.0 1.000916806067773 0.024069370708146506
v 0.05648365637626465 0.9755643985962913 0.009402718322270952
v 0.06203802500630581 1.000916806067773 0.024069370708146506
f 1 2 3
f 4 5 6
f 7 8 9
f 10 11 12
f 13 14 15
f 16 17 18
f 19 20 21
f 22 23 24
f 25 26 27
f 28 29 30
f 31 32 33
f 34 35 36
f 37 38 39
f 40 41 42
f 43 44 45
f 46 47 48
f 49 50 51
f 52 53 54
f 55 56 57
f 58 59 60
f 61 62 63
f 64 65 66
f 67 68 69
f 70 71 72
f 73 74 75
f 76 77 78
f 79 80 81
f 82 83 84
f 85 86 87
f 88 89 90
f 91 92 93
f 94 95 96
f 97 98 99
f 100 101 102
f 103 104 105
f 106 107 108
f 109 110 111
f 112 113 114
f 115 116 117
f 118 119 120
f 121 122 123
f 124 125 126
f 127 128 129
f 130 131 132
f 133 134 135
f 136 137 138
f 139 140 141
f 142 143 144
f 145 146 147
f 148 149 150
f 151 152 153
f 154 155 156
f 157 158 159
f 160 161 162
f 163 164 165
f 166 167 168
f 169 170 171
f 172 173 174
f 175 176 177
f 178 179 180
f 181 182 183
f 184 185 186
f 187 188 189
f 190 191 192
f 193 194 195
f 196 197 198
f 199 200 201
f 202 203 204
f 205 206 207
f 208 209 210
