# Piezas extraídas de modelos de terceros; véase procedencia.json
mtllib carrito-vacio.mtl
o pieza_0
usemtl material_0
v -0.2078770058707122 0.08887175470590591 -0.1529780233350325
v -0.20599169447046248 0.08887175470590591 -0.16000509309959948
v -0.20599169447046248 0.738897131921538 -0.16000509309959948
v -0.2078770058707122 0.08887175470590591 -0.1529780233350325
v -0.20599169447046248 0.738897131921538 -0.16000509309959948
v -0.2078770058707122 0.738897131921538 -0.1529780233350325
v -0.22000298601322715 0.08887175470590591 -0.16000509309959948
v -0.20599169447046248 0.08887175470590591 -0.16000509309959948
v -0.2078770058707122 0.08887175470590591 -0.1529780233350325
v -0.22000298601322715 0.738897131921538 -0.16000509309959948
v -0.2078770058707122 0.738897131921538 -0.1529780233350325
v -0.20599169447046248 0.738897131921538 -0.16000509309959948
v -0.21301876423502947 0.08887175470590591 -0.1478791129570845
v -0.2078770058707122 0.08887175470590591 -0.1529780233350325
v -0.2078770058707122 0.738897131921538 -0.1529780233350325
v -0.21301876423502947 0.08887175470590591 -0.1478791129570845
v -0.2078770058707122 0.738897131921538 -0.1529780233350325
v -0.21301876423502947 0.738897131921538 -0.1478791129570845
v -0.2078770058707122 0.08887175470590591 -0.1529780233350325
v -0.21301876423502947 0.08887175470590591 -0.1478791129570845
v -0.21301876423502947 0.738897131921538 -0.1478791129570845
v -0.2078770058707122 0.738897131921538 -0.1529780233350325
v -0.22000298601322715 0.08887175470590591 -0.1459938015568348
v -0.21301876423502947 0.08887175470590591 -0.1478791129570845
v -0.21301876423502947 0.738897131921538 -0.1478791129570845
v -0.22000298601322715 0.08887175470590591 -0.1459938015568348
v -0.21301876423502947 0.738897131921538 -0.1478791129570845
v -0.22000298601322715 0.738897131921538 -0.1459938015568348
v -0.21301876423502947 0.08887175470590591 -0.1478791129570845
v -0.22000298601322715 0.08887175470590591 -0.1459938015568348
v -0.22000298601322715 0.738897131921538 -0.1459938015568348
v -0.21301876423502947 0.738897131921538 -0.1478791129570845
v -0.2269872077914249 0.08887175470590591 -0.1478791129570845
v -0.22000298601322715 0.08887175470590591 -0.1459938015568348
v -0.22000298601322715 0.738897131921538 -0.1459938015568348
v -0.2269872077914249 0.738897131921538 -0.1478791129570845
v -0.22000298601322715 0.08887175470590591 -0.1459938015568348
v -0.2269872077914249 0.08887175470590591 -0.1478791129570845
v -0.22000298601322715 0.738897131921538 -0.16000509309959948
v -0.2269872077914249 0.738897131921538 -0.1478791129570845
v -0.22000298601322715 0.738897131921538 -0.1459938015568348
v -0.23212896615574216 0.08887175470590591 -0.1529780233350325
v -0.2269872077914249 0.08887175470590591 -0.1478791129570845
v -0.2269872077914249 0.738897131921538 -0.1478791129570845
v -0.23212896615574216 0.738897131921538 -0.1529780233350325
v -0.2269872077914249 0.08887175470590591 -0.1478791129570845
v -0.23212896615574216 0.08887175470590591 -0.1529780233350325
v -0.23212896615574216 0.738897131921538 -0.1529780233350325
v -0.2269872077914249 0.738897131921538 -0.1478791129570845
v -0.23401427755599188 0.08887175470590591 -0.16000509309959948
v -0.23212896615574216 0.08887175470590591 -0.1529780233350325
v -0.23212896615574216 0.738897131921538 -0.1529780233350325
v -0.23401427755599188 0.738897131921538 -0.16000509309959948
v -0.23212896615574216 0.08887175470590591 -0.1529780233350325
v -0.23401427755599188 0.08887175470590591 -0.16000509309959948
v -0.23401427755599188 0.738897131921538 -0.16000509309959948
v -0.23212896615574216 0.738897131921538 -0.1529780233350325
v -0.23212896615574216 0.08887175470590591 -0.1669893148777972
v -0.23401427755599188 0.08887175470590591 -0.16000509309959948
v -0.23401427755599188 0.738897131921538 -0.16000509309959948
v -0.23212896615574216 0.738897131921538 -0.1669893148777972
v -0.22000298601322715 0.08887175470590591 -0.16000509309959948
v -0.23401427755599188 0.08887175470590591 -0.16000509309959948
v -0.23212896615574216 0.08887175470590591 -0.1669893148777972
v -0.23212896615574216 0.738897131921538 -0.1669893148777972
v -0.23401427755599188 0.738897131921538 -0.16000509309959948
v -0.2269872077914249 0.08887175470590591 -0.1721310732421145
v -0.23212896615574216 0.08887175470590591 -0.1669893148777972
v -0.23212896615574216 0.738897131921538 -0.1669893148777972
v -0.2269872077914249 0.738897131921538 -0.1721310732421145
v -0.23212896615574216 0.08887175470590591 -0.1669893148777972
v -0.2269872077914249 0.08887175470590591 -0.1721310732421145
v -0.2269872077914249 0.738897131921538 -0.1721310732421145
v -0.23212896615574216 0.738897131921538 -0.1669893148777972
v -0.22000298601322715 0.08887175470590591 -0.17397353665599488
v -0.2269872077914249 0.08887175470590591 -0.1721310732421145
v -0.2269872077914249 0.738897131921538 -0.1721310732421145
v -0.22000298601322715 0.738897131921538 -0.17397353665599488
v -0.2269872077914249 0.08887175470590591 -0.1721310732421145
v -0.22000298601322715 0.08887175470590591 -0.17397353665599488
v -0.22000298601322715 0.738897131921538 -0.17397353665599488
v -0.2269872077914249 0.738897131921538 -0.1721310732421145
v -0.21301876423502947 0.08887175470590591 -0.1721310732421145
v -0.22000298601322715 0.08887175470590591 -0.17397353665599488
v -0.22000298601322715 0.738897131921538 -0.17397353665599488
v -0.21301876423502947 0.738897131921538 -0.1721310732421145
v -0.22000298601322715 0.08887175470590591 -0.16000509309959948
v -0.22000298601322715 0.08887175470590591 -0.17397353665599488
v -0.21301876423502947 0.08887175470590591 -0.1721310732421145
v -0.21301876423502947 0.738897131921538 -0.1721310732421145
v -0.22000298601322715 0.738897131921538 -0.17397353665599488
v -0.2078770058707122 0.08887175470590591 -0.1669893148777972
v -0.21301876423502947 0.08887175470590591 -0.1721310732421145
v -0.21301876423502947 0.738897131921538 -0.1721310732421145
v -0.2078770058707122 0.738897131921538 -0.1669893148777972
v -0.21301876423502947 0.08887175470590591 -0.1721310732421145
v -0.2078770058707122 0.08887175470590591 -0.1669893148777972
v -0.2078770058707122 0.738897131921538 -0.1669893148777972
v -0.21301876423502947 0.738897131921538 -0.1721310732421145
v -0.20599169447046248 0.08887175470590591 -0.16000509309959948
v -0.2078770058707122 0.08887175470590591 -0.1669893148777972
v -0.2078770058707122 0.738897131921538 -0.1669893148777972
v -0.20599169447046248 0.738897131921538 -0.16000509309959948
v -0.2078770058707122 0.08887175470590591 -0.1669893148777972
v -0.20599169447046248 0.08887175470590591 -0.16000509309959948
v -0.20599169447046248 0.738897131921538 -0.16000509309959948
v -0.2078770058707122 0.738897131921538 -0.1669893148777972
f 1 2 3
f 4 5 6
f 7 8 9
f 10 11 12
f 13 14 15
f 16 17 18
f 7 19 20
f 10 21 22
f 23 24 25
f 26 27 28
f 7 29 30
f 10 31 32
f 33 34 35
f 33 35 36
f 7 37 38
f 39 40 41
f 42 43 44
f 42 44 45
f 7 46 47
f 10 48 49
f 50 51 52
f 50 52 53
f 7 54 55
f 10 56 57
f 58 59 60
f 58 60 61
f 62 63 64
f 10 65 66
f 67 68 69
f 67 69 70
f 7 71 72
f 10 73 74
f 75 76 77
f 75 77 78
f 7 79 80
f 10 81 82
f 83 84 85
f 83 85 86
f 87 88 89
f 10 90 91
f 92 93 94
f 92 94 95
f 7 96 97
f 10 98 99
f 100 101 102
f 100 102 103
f 7 104 105
f 10 106 107
o pieza_1
usemtl material_1
v -0.2078770058707122 0.08887175470590591 0.1669893148777972
v -0.20599169447046248 0.08887175470590591 0.16000509309959948
v -0.20599169447046248 0.738897131921538 0.16000509309959948
v -0.2078770058707122 0.08887175470590591 0.1669893148777972
v -0.20599169447046248 0.738897131921538 0.16000509309959948
v -0.2078770058707122 0.738897131921538 0.1669893148777972
v -0.22000298601322715 0.08887175470590591 0.16000509309959948
v -0.20599169447046248 0.08887175470590591 0.16000509309959948
v -0.2078770058707122 0.08887175470590591 0.1669893148777972
v -0.22000298601322715 0.738897131921538 0.16000509309959948
v -0.2078770058707122 0.738897131921538 0.1669893148777972
v -0.20599169447046248 0.738897131921538 0.16000509309959948
v -0.21301876423502947 0.08887175470590591 0.1721310732421145
v -0.2078770058707122 0.08887175470590591 0.1669893148777972
v -0.2078770058707122 0.738897131921538 0.1669893148777972
v -0.21301876423502947 0.08887175470590591 0.1721310732421145
v -0.2078770058707122 0.738897131921538 0.1669893148777972
v -0.21301876423502947 0.738897131921538 0.1721310732421145
v -0.2078770058707122 0.08887175470590591 0.1669893148777972
v -0.21301876423502947 0.08887175470590591 0.1721310732421145
v -0.21301876423502947 0.738897131921538 0.1721310732421145
v -0.2078770058707122 0.738897131921538 0.1669893148777972
v -0.22000298601322715 0.08887175470590591 0.17397353665599488
v -0.21301876423502947 0.08887175470590591 0.1721310732421145
v -0.21301876423502947 0.738897131921538 0.1721310732421145
v -0.22000298601322715 0.08887175470590591 0.17397353665599488
v -0.21301876423502947 0.738897131921538 0.1721310732421145
v -0.22000298601322715 0.738897131921538 0.17397353665599488
v -0.21301876423502947 0.08887175470590591 0.1721310732421145
v -0.22000298601322715 0.08887175470590591 0.17397353665599488
v -0.22000298601322715 0.738897131921538 0.17397353665599488
v -0.21301876423502947 0.738897131921538 0.1721310732421145
v -0.2269872077914249 0.08887175470590591 0.1721310732421145
v -0.22000298601322715 0.08887175470590591 0.17397353665599488
v -0.22000298601322715 0.738897131921538 0.17397353665599488
v -0.2269872077914249 0.738897131921538 0.1721310732421145
v -0.22000298601322715 0.08887175470590591 0.17397353665599488
v -0.2269872077914249 0.08887175470590591 0.1721310732421145
v -0.22000298601322715 0.738897131921538 0.16000509309959948
v -0.2269872077914249 0.738897131921538 0.1721310732421145
v -0.22000298601322715 0.738897131921538 0.17397353665599488
v -0.23212896615574216 0.08887175470590591 0.1669893148777972
v -0.2269872077914249 0.08887175470590591 0.1721310732421145
v -0.2269872077914249 0.738897131921538 0.1721310732421145
v -0.23212896615574216 0.738897131921538 0.1669893148777972
v -0.2269872077914249 0.08887175470590591 0.1721310732421145
v -0.23212896615574216 0.08887175470590591 0.1669893148777972
v -0.23212896615574216 0.738897131921538 0.1669893148777972
v -0.2269872077914249 0.738897131921538 0.1721310732421145
v -0.23401427755599188 0.08887175470590591 0.16000509309959948
v -0.23212896615574216 0.08887175470590591 0.1669893148777972
v -0.23212896615574216 0.738897131921538 0.1669893148777972
v -0.23401427755599188 0.738897131921538 0.16000509309959948
v -0.23212896615574216 0.08887175470590591 0.1669893148777972
v -0.23401427755599188 0.08887175470590591 0.16000509309959948
v -0.23401427755599188 0.738897131921538 0.16000509309959948
v -0.23212896615574216 0.738897131921538 0.1669893148777972
v -0.23212896615574216 0.08887175470590591 0.1529780233350325
v -0.23401427755599188 0.08887175470590591 0.16000509309959948
v -0.23401427755599188 0.738897131921538 0.16000509309959948
v -0.23212896615574216 0.738897131921538 0.1529780233350325
v -0.22000298601322715 0.08887175470590591 0.16000509309959948
v -0.23401427755599188 0.08887175470590591 0.16000509309959948
v -0.23212896615574216 0.08887175470590591 0.1529780233350325
v -0.23212896615574216 0.738897131921538 0.1529780233350325
v -0.23401427755599188 0.738897131921538 0.16000509309959948
v -0.2269872077914249 0.08887175470590591 0.1478791129570845
v -0.23212896615574216 0.08887175470590591 0.1529780233350325
v -0.23212896615574216 0.738897131921538 0.1529780233350325
v -0.2269872077914249 0.738897131921538 0.1478791129570845
v -0.23212896615574216 0.08887175470590591 0.1529780233350325
v -0.2269872077914249 0.08887175470590591 0.1478791129570845
v -0.2269872077914249 0.738897131921538 0.1478791129570845
v -0.23212896615574216 0.738897131921538 0.1529780233350325
v -0.22000298601322715 0.08887175470590591 0.1459938015568348
v -0.2269872077914249 0.08887175470590591 0.1478791129570845
v -0.2269872077914249 0.738897131921538 0.1478791129570845
v -0.22000298601322715 0.738897131921538 0.1459938015568348
v -0.2269872077914249 0.08887175470590591 0.1478791129570845
v -0.22000298601322715 0.08887175470590591 0.1459938015568348
v -0.22000298601322715 0.738897131921538 0.1459938015568348
v -0.2269872077914249 0.738897131921538 0.1478791129570845
v -0.21301876423502947 0.08887175470590591 0.1478791129570845
v -0.22000298601322715 0.08887175470590591 0.1459938015568348
v -0.22000298601322715 0.738897131921538 0.1459938015568348
v -0.21301876423502947 0.738897131921538 0.1478791129570845
v -0.22000298601322715 0.08887175470590591 0.16000509309959948
v -0.22000298601322715 0.08887175470590591 0.1459938015568348
v -0.21301876423502947 0.08887175470590591 0.1478791129570845
v -0.21301876423502947 0.738897131921538 0.1478791129570845
v -0.22000298601322715 0.738897131921538 0.1459938015568348
v -0.2078770058707122 0.08887175470590591 0.1529780233350325
v -0.21301876423502947 0.08887175470590591 0.1478791129570845
v -0.21301876423502947 0.738897131921538 0.1478791129570845
v -0.2078770058707122 0.738897131921538 0.1529780233350325
v -0.21301876423502947 0.08887175470590591 0.1478791129570845
v -0.2078770058707122 0.08887175470590591 0.1529780233350325
v -0.2078770058707122 0.738897131921538 0.1529780233350325
v -0.21301876423502947 0.738897131921538 0.1478791129570845
v -0.20599169447046248 0.08887175470590591 0.16000509309959948
v -0.2078770058707122 0.08887175470590591 0.1529780233350325
v -0.2078770058707122 0.738897131921538 0.1529780233350325
v -0.20599169447046248 0.738897131921538 0.16000509309959948
v -0.2078770058707122 0.08887175470590591 0.1529780233350325
v -0.20599169447046248 0.08887175470590591 0.16000509309959948
v -0.20599169447046248 0.738897131921538 0.16000509309959948
v -0.2078770058707122 0.738897131921538 0.1529780233350325
f 108 109 110
f 111 112 113
f 114 115 116
f 117 118 119
f 120 121 122
f 123 124 125
f 114 126 127
f 117 128 129
f 130 131 132
f 133 134 135
f 114 136 137
f 117 138 139
f 140 141 142
f 140 142 143
f 114 144 145
f 146 147 148
f 149 150 151
f 149 151 152
f 114 153 154
f 117 155 156
f 157 158 159
f 157 159 160
f 114 161 162
f 117 163 164
f 165 166 167
f 165 167 168
f 169 170 171
f 117 172 173
f 174 175 176
f 174 176 177
f 114 178 179
f 117 180 181
f 182 183 184
f 182 184 185
f 114 186 187
f 117 188 189
f 190 191 192
f 190 192 193
f 194 195 196
f 117 197 198
f 199 200 201
f 199 201 202
f 114 203 204
f 117 205 206
f 207 208 209
f 207 209 210
f 114 211 212
f 117 213 214
o pieza_2
usemtl material_2
v 0.23212896615574216 0.08887175470590591 -0.1529780233350325
v 0.23401427755599188 0.08887175470590591 -0.16000509309959948
v 0.23401427755599188 0.738897131921538 -0.16000509309959948
v 0.23212896615574216 0.08887175470590591 -0.1529780233350325
v 0.23401427755599188 0.738897131921538 -0.16000509309959948
v 0.23212896615574216 0.738897131921538 -0.1529780233350325
v 0.22000298601322715 0.08887175470590591 -0.16000509309959948
v 0.23401427755599188 0.08887175470590591 -0.16000509309959948
v 0.23212896615574216 0.08887175470590591 -0.1529780233350325
v 0.22000298601322715 0.738897131921538 -0.16000509309959948
v 0.23212896615574216 0.738897131921538 -0.1529780233350325
v 0.23401427755599188 0.738897131921538 -0.16000509309959948
v 0.2269872077914249 0.08887175470590591 -0.1478791129570845
v 0.23212896615574216 0.08887175470590591 -0.1529780233350325
v 0.23212896615574216 0.738897131921538 -0.1529780233350325
v 0.2269872077914249 0.08887175470590591 -0.1478791129570845
v 0.23212896615574216 0.738897131921538 -0.1529780233350325
v 0.2269872077914249 0.738897131921538 -0.1478791129570845
v 0.23212896615574216 0.08887175470590591 -0.1529780233350325
v 0.2269872077914249 0.08887175470590591 -0.1478791129570845
v 0.2269872077914249 0.738897131921538 -0.1478791129570845
v 0.23212896615574216 0.738897131921538 -0.1529780233350325
v 0.22000298601322715 0.08887175470590591 -0.1459938015568348
v 0.2269872077914249 0.08887175470590591 -0.1478791129570845
v 0.2269872077914249 0.738897131921538 -0.1478791129570845
v 0.22000298601322715 0.08887175470590591 -0.1459938015568348
v 0.2269872077914249 0.738897131921538 -0.1478791129570845
v 0.22000298601322715 0.738897131921538 -0.1459938015568348
v 0.2269872077914249 0.08887175470590591 -0.1478791129570845
v 0.22000298601322715 0.08887175470590591 -0.1459938015568348
v 0.22000298601322715 0.738897131921538 -0.1459938015568348
v 0.2269872077914249 0.738897131921538 -0.1478791129570845
v 0.21301876423502947 0.08887175470590591 -0.1478791129570845
v 0.22000298601322715 0.08887175470590591 -0.1459938015568348
v 0.22000298601322715 0.738897131921538 -0.1459938015568348
v 0.21301876423502947 0.738897131921538 -0.1478791129570845
v 0.22000298601322715 0.08887175470590591 -0.1459938015568348
v 0.21301876423502947 0.08887175470590591 -0.1478791129570845
v 0.22000298601322715 0.738897131921538 -0.16000509309959948
v 0.21301876423502947 0.738897131921538 -0.1478791129570845
v 0.22000298601322715 0.738897131921538 -0.1459938015568348
v 0.2078770058707122 0.08887175470590591 -0.1529780233350325
v 0.21301876423502947 0.08887175470590591 -0.1478791129570845
v 0.21301876423502947 0.738897131921538 -0.1478791129570845
v 0.2078770058707122 0.738897131921538 -0.1529780233350325
v 0.21301876423502947 0.08887175470590591 -0.1478791129570845
v 0.2078770058707122 0.08887175470590591 -0.1529780233350325
v 0.2078770058707122 0.738897131921538 -0.1529780233350325
v 0.21301876423502947 0.738897131921538 -0.1478791129570845
v 0.20599169447046248 0.08887175470590591 -0.16000509309959948
v 0.2078770058707122 0.08887175470590591 -0.1529780233350325
v 0.2078770058707122 0.738897131921538 -0.1529780233350325
v 0.20599169447046248 0.738897131921538 -0.16000509309959948
v 0.2078770058707122 0.08887175470590591 -0.1529780233350325
v 0.20599169447046248 0.08887175470590591 -0.16000509309959948
v 0.20599169447046248 0.738897131921538 -0.16000509309959948
v 0.2078770058707122 0.738897131921538 -0.1529780233350325
v 0.2078770058707122 0.08887175470590591 -0.1669893148777972
v 0.20599169447046248 0.08887175470590591 -0.16000509309959948
v 0.20599169447046248 0.738897131921538 -0.16000509309959948
v 0.2078770058707122 0.738897131921538 -0.1669893148777972
v 0.22000298601322715 0.08887175470590591 -0.16000509309959948
v 0.20599169447046248 0.08887175470590591 -0.16000509309959948
v 0.2078770058707122 0.08887175470590591 -0.1669893148777972
v 0.2078770058707122 0.738897131921538 -0.1669893148777972
v 0.20599169447046248 0.738897131921538 -0.16000509309959948
v 0.21301876423502947 0.08887175470590591 -0.1721310732421145
v 0.2078770058707122 0.08887175470590591 -0.1669893148777972
v 0.2078770058707122 0.738897131921538 -0.1669893148777972
v 0.21301876423502947 0.738897131921538 -0.1721310732421145
v 0.2078770058707122 0.08887175470590591 -0.1669893148777972
v 0.21301876423502947 0.08887175470590591 -0.1721310732421145
v 0.21301876423502947 0.738897131921538 -0.1721310732421145
v 0.2078770058707122 0.738897131921538 -0.1669893148777972
v 0.22000298601322715 0.08887175470590591 -0.17397353665599488
v 0.21301876423502947 0.08887175470590591 -0.1721310732421145
v 0.21301876423502947 0.738897131921538 -0.1721310732421145
v 0.22000298601322715 0.738897131921538 -0.17397353665599488
v 0.21301876423502947 0.08887175470590591 -0.1721310732421145
v 0.22000298601322715 0.08887175470590591 -0.17397353665599488
v 0.22000298601322715 0.738897131921538 -0.17397353665599488
v 0.21301876423502947 0.738897131921538 -0.1721310732421145
v 0.2269872077914249 0.08887175470590591 -0.1721310732421145
v 0.22000298601322715 0.08887175470590591 -0.17397353665599488
v 0.22000298601322715 0.738897131921538 -0.17397353665599488
v 0.2269872077914249 0.738897131921538 -0.1721310732421145
v 0.22000298601322715 0.08887175470590591 -0.16000509309959948
v 0.22000298601322715 0.08887175470590591 -0.17397353665599488
v 0.2269872077914249 0.08887175470590591 -0.1721310732421145
v 0.2269872077914249 0.738897131921538 -0.1721310732421145
v 0.22000298601322715 0.738897131921538 -0.17397353665599488
v 0.23212896615574216 0.08887175470590591 -0.1669893148777972
v 0.2269872077914249 0.08887175470590591 -0.1721310732421145
v 0.2269872077914249 0.738897131921538 -0.1721310732421145
v 0.23212896615574216 0.738897131921538 -0.1669893148777972
v 0.2269872077914249 0.08887175470590591 -0.1721310732421145
v 0.23212896615574216 0.08887175470590591 -0.1669893148777972
v 0.23212896615574216 0.738897131921538 -0.1669893148777972
v 0.2269872077914249 0.738897131921538 -0.1721310732421145
v 0.23401427755599188 0.08887175470590591 -0.16000509309959948
v 0.23212896615574216 0.08887175470590591 -0.1669893148777972
v 0.23212896615574216 0.738897131921538 -0.1669893148777972
v 0.23401427755599188 0.738897131921538 -0.16000509309959948
v 0.23212896615574216 0.08887175470590591 -0.1669893148777972
v 0.23401427755599188 0.08887175470590591 -0.16000509309959948
v 0.23401427755599188 0.738897131921538 -0.16000509309959948
v 0.23212896615574216 0.738897131921538 -0.1669893148777972
f 215 216 217
f 218 219 220
f 221 222 223
f 224 225 226
f 227 228 229
f 230 231 232
f 221 233 234
f 224 235 236
f 237 238 239
f 240 241 242
f 221 243 244
f 224 245 246
f 247 248 249
f 247 249 250
f 221 251 252
f 253 254 255
f 256 257 258
f 256 258 259
f 221 260 261
f 224 262 263
f 264 265 266
f 264 266 267
f 221 268 269
f 224 270 271
f 272 273 274
f 272 274 275
f 276 277 278
f 224 279 280
f 281 282 283
f 281 283 284
f 221 285 286
f 224 287 288
f 289 290 291
f 289 291 292
f 221 293 294
f 224 295 296
f 297 298 299
f 297 299 300
f 301 302 303
f 224 304 305
f 306 307 308
f 306 308 309
f 221 310 311
f 224 312 313
f 314 315 316
f 314 316 317
f 221 318 319
f 224 320 321
o pieza_3
usemtl material_3
v 0.23212896615574216 0.08887175470590591 0.1669893148777972
v 0.23401427755599188 0.08887175470590591 0.16000509309959948
v 0.23401427755599188 0.738897131921538 0.16000509309959948
v 0.23212896615574216 0.08887175470590591 0.1669893148777972
v 0.23401427755599188 0.738897131921538 0.16000509309959948
v 0.23212896615574216 0.738897131921538 0.1669893148777972
v 0.22000298601322715 0.08887175470590591 0.16000509309959948
v 0.23401427755599188 0.08887175470590591 0.16000509309959948
v 0.23212896615574216 0.08887175470590591 0.1669893148777972
v 0.22000298601322715 0.738897131921538 0.16000509309959948
v 0.23212896615574216 0.738897131921538 0.1669893148777972
v 0.23401427755599188 0.738897131921538 0.16000509309959948
v 0.2269872077914249 0.08887175470590591 0.1721310732421145
v 0.23212896615574216 0.08887175470590591 0.1669893148777972
v 0.23212896615574216 0.738897131921538 0.1669893148777972
v 0.2269872077914249 0.08887175470590591 0.1721310732421145
v 0.23212896615574216 0.738897131921538 0.1669893148777972
v 0.2269872077914249 0.738897131921538 0.1721310732421145
v 0.23212896615574216 0.08887175470590591 0.1669893148777972
v 0.2269872077914249 0.08887175470590591 0.1721310732421145
v 0.2269872077914249 0.738897131921538 0.1721310732421145
v 0.23212896615574216 0.738897131921538 0.1669893148777972
v 0.22000298601322715 0.08887175470590591 0.17397353665599488
v 0.2269872077914249 0.08887175470590591 0.1721310732421145
v 0.2269872077914249 0.738897131921538 0.1721310732421145
v 0.22000298601322715 0.08887175470590591 0.17397353665599488
v 0.2269872077914249 0.738897131921538 0.1721310732421145
v 0.22000298601322715 0.738897131921538 0.17397353665599488
v 0.2269872077914249 0.08887175470590591 0.1721310732421145
v 0.22000298601322715 0.08887175470590591 0.17397353665599488
v 0.22000298601322715 0.738897131921538 0.17397353665599488
v 0.2269872077914249 0.738897131921538 0.1721310732421145
v 0.21301876423502947 0.08887175470590591 0.1721310732421145
v 0.22000298601322715 0.08887175470590591 0.17397353665599488
v 0.22000298601322715 0.738897131921538 0.17397353665599488
v 0.21301876423502947 0.738897131921538 0.1721310732421145
v 0.22000298601322715 0.08887175470590591 0.17397353665599488
v 0.21301876423502947 0.08887175470590591 0.1721310732421145
v 0.22000298601322715 0.738897131921538 0.16000509309959948
v 0.21301876423502947 0.738897131921538 0.1721310732421145
v 0.22000298601322715 0.738897131921538 0.17397353665599488
v 0.2078770058707122 0.08887175470590591 0.1669893148777972
v 0.21301876423502947 0.08887175470590591 0.1721310732421145
v 0.21301876423502947 0.738897131921538 0.1721310732421145
v 0.2078770058707122 0.738897131921538 0.1669893148777972
v 0.21301876423502947 0.08887175470590591 0.1721310732421145
v 0.2078770058707122 0.08887175470590591 0.1669893148777972
v 0.2078770058707122 0.738897131921538 0.1669893148777972
v 0.21301876423502947 0.738897131921538 0.1721310732421145
v 0.20599169447046248 0.08887175470590591 0.16000509309959948
v 0.2078770058707122 0.08887175470590591 0.1669893148777972
v 0.2078770058707122 0.738897131921538 0.1669893148777972
v 0.20599169447046248 0.738897131921538 0.16000509309959948
v 0.2078770058707122 0.08887175470590591 0.1669893148777972
v 0.20599169447046248 0.08887175470590591 0.16000509309959948
v 0.20599169447046248 0.738897131921538 0.16000509309959948
v 0.2078770058707122 0.738897131921538 0.1669893148777972
v 0.2078770058707122 0.08887175470590591 0.1529780233350325
v 0.20599169447046248 0.08887175470590591 0.16000509309959948
v 0.20599169447046248 0.738897131921538 0.16000509309959948
v 0.2078770058707122 0.738897131921538 0.1529780233350325
v 0.22000298601322715 0.08887175470590591 0.16000509309959948
v 0.20599169447046248 0.08887175470590591 0.16000509309959948
v 0.2078770058707122 0.08887175470590591 0.1529780233350325
v 0.2078770058707122 0.738897131921538 0.1529780233350325
v 0.20599169447046248 0.738897131921538 0.16000509309959948
v 0.21301876423502947 0.08887175470590591 0.1478791129570845
v 0.2078770058707122 0.08887175470590591 0.1529780233350325
v 0.2078770058707122 0.738897131921538 0.1529780233350325
v 0.21301876423502947 0.738897131921538 0.1478791129570845
v 0.2078770058707122 0.08887175470590591 0.1529780233350325
v 0.21301876423502947 0.08887175470590591 0.1478791129570845
v 0.21301876423502947 0.738897131921538 0.1478791129570845
v 0.2078770058707122 0.738897131921538 0.1529780233350325
v 0.22000298601322715 0.08887175470590591 0.1459938015568348
v 0.21301876423502947 0.08887175470590591 0.1478791129570845
v 0.21301876423502947 0.738897131921538 0.1478791129570845
v 0.22000298601322715 0.738897131921538 0.1459938015568348
v 0.21301876423502947 0.08887175470590591 0.1478791129570845
v 0.22000298601322715 0.08887175470590591 0.1459938015568348
v 0.22000298601322715 0.738897131921538 0.1459938015568348
v 0.21301876423502947 0.738897131921538 0.1478791129570845
v 0.2269872077914249 0.08887175470590591 0.1478791129570845
v 0.22000298601322715 0.08887175470590591 0.1459938015568348
v 0.22000298601322715 0.738897131921538 0.1459938015568348
v 0.2269872077914249 0.738897131921538 0.1478791129570845
v 0.22000298601322715 0.08887175470590591 0.16000509309959948
v 0.22000298601322715 0.08887175470590591 0.1459938015568348
v 0.2269872077914249 0.08887175470590591 0.1478791129570845
v 0.2269872077914249 0.738897131921538 0.1478791129570845
v 0.22000298601322715 0.738897131921538 0.1459938015568348
v 0.23212896615574216 0.08887175470590591 0.1529780233350325
v 0.2269872077914249 0.08887175470590591 0.1478791129570845
v 0.2269872077914249 0.738897131921538 0.1478791129570845
v 0.23212896615574216 0.738897131921538 0.1529780233350325
v 0.2269872077914249 0.08887175470590591 0.1478791129570845
v 0.23212896615574216 0.08887175470590591 0.1529780233350325
v 0.23212896615574216 0.738897131921538 0.1529780233350325
v 0.2269872077914249 0.738897131921538 0.1478791129570845
v 0.23401427755599188 0.08887175470590591 0.16000509309959948
v 0.23212896615574216 0.08887175470590591 0.1529780233350325
v 0.23212896615574216 0.738897131921538 0.1529780233350325
v 0.23401427755599188 0.738897131921538 0.16000509309959948
v 0.23212896615574216 0.08887175470590591 0.1529780233350325
v 0.23401427755599188 0.08887175470590591 0.16000509309959948
v 0.23401427755599188 0.738897131921538 0.16000509309959948
v 0.23212896615574216 0.738897131921538 0.1529780233350325
f 322 323 324
f 325 326 327
f 328 329 330
f 331 332 333
f 334 335 336
f 337 338 339
f 328 340 341
f 331 342 343
f 344 345 346
f 347 348 349
f 328 350 351
f 331 352 353
f 354 355 356
f 354 356 357
f 328 358 359
f 360 361 362
f 363 364 365
f 363 365 366
f 328 367 368
f 331 369 370
f 371 372 373
f 371 373 374
f 328 375 376
f 331 377 378
f 379 380 381
f 379 381 382
f 383 384 385
f 331 386 387
f 388 389 390
f 388 390 391
f 328 392 393
f 331 394 395
f 396 397 398
f 396 398 399
f 328 400 401
f 331 402 403
f 404 405 406
f 404 406 407
f 408 409 410
f 331 411 412
f 413 414 415
f 413 415 416
f 328 417 418
f 331 419 420
f 421 422 423
f 421 423 424
f 328 425 426
f 331 427 428
o pieza_4
usemtl material_4
v 0.2474685452759555 0.38434075671208207 0.18748136435892016
v 0.2482398090306031 0.38087006981616783 0.18825262811356774
v 0.2482398090306031 0.38511202046672965 0.18401067746300595
v 0.24999657647174484 0.38087006981616783 0.18401067746300595
v 0.2482398090306031 0.38511202046672965 -0.18401067746300595
v 0.24999657647174484 0.38087006981616783 -0.18401067746300595
v 0.2474685452759555 0.38434075671208207 -0.18748136435892016
v 0.2482398090306031 0.38087006981616783 -0.18825262811356774
v 0.2482398090306031 0.36488777090041485 0.18825262811356774
v 0.24999657647174484 0.36488777090041485 0.18401067746300595
v 0.24999657647174484 0.36488777090041485 -0.18401067746300595
v 0.2482398090306031 0.36488777090041485 -0.18825262811356774
v 0.2474685452759555 0.3614170840045007 0.18748136435892016
v 0.2482398090306031 0.3606458202498531 0.18401067746300595
v 0.2482398090306031 0.3606458202498531 -0.18401067746300595
v 0.2474685452759555 0.3614170840045007 -0.18748136435892016
v -0.2474685452759555 0.38434075671208207 -0.18748136435892016
v -0.2482398090306031 0.38087006981616783 -0.18825262811356774
v -0.2482398090306031 0.38511202046672965 -0.18401067746300595
v -0.24999657647174484 0.38087006981616783 -0.18401067746300595
v -0.2482398090306031 0.38511202046672965 0.18401067746300595
v -0.24999657647174484 0.38087006981616783 0.18401067746300595
v -0.2474685452759555 0.38434075671208207 0.18748136435892016
v -0.2482398090306031 0.38087006981616783 0.18825262811356774
v -0.2482398090306031 0.36488777090041485 -0.18825262811356774
v -0.24999657647174484 0.36488777090041485 -0.18401067746300595
v -0.24999657647174484 0.36488777090041485 0.18401067746300595
v -0.2482398090306031 0.36488777090041485 0.18825262811356774
v -0.2474685452759555 0.3614170840045007 -0.18748136435892016
v -0.2482398090306031 0.3606458202498531 -0.18401067746300595
v -0.2482398090306031 0.3606458202498531 0.18401067746300595
v -0.2474685452759555 0.3614170840045007 0.18748136435892016
v -0.2474685452759555 0.38434075671208207 -0.18748136435892016
v -0.2482398090306031 0.38511202046672965 -0.18401067746300595
v -0.24399785838004132 0.38511202046672965 -0.18825262811356774
v -0.24399785838004132 0.3868687879078714 -0.18401067746300595
v 0.24399785838004132 0.38511202046672965 -0.18825262811356774
v 0.24399785838004132 0.3868687879078714 -0.18401067746300595
v 0.2482398090306031 0.38511202046672965 -0.18401067746300595
v -0.2482398090306031 0.38511202046672965 0.18401067746300595
v -0.24399785838004132 0.3868687879078714 0.18401067746300595
v 0.24399785838004132 0.3868687879078714 0.18401067746300595
v 0.2482398090306031 0.38511202046672965 0.18401067746300595
v -0.2474685452759555 0.38434075671208207 0.18748136435892016
v -0.24399785838004132 0.38511202046672965 0.18825262811356774
v 0.24399785838004132 0.38511202046672965 0.18825262811356774
v 0.2474685452759555 0.38434075671208207 0.18748136435892016
v -0.2474685452759555 0.3614170840045007 0.18748136435892016
v -0.2482398090306031 0.3606458202498531 0.18401067746300595
v -0.24399785838004132 0.3606458202498531 0.18825262811356774
v -0.24399785838004132 0.3588890528087113 0.18401067746300595
v 0.24399785838004132 0.3606458202498531 0.18825262811356774
v 0.24399785838004132 0.3588890528087113 0.18401067746300595
v 0.2474685452759555 0.3614170840045007 0.18748136435892016
v 0.2482398090306031 0.3606458202498531 0.18401067746300595
v -0.2482398090306031 0.3606458202498531 -0.18401067746300595
v -0.24399785838004132 0.3588890528087113 -0.18401067746300595
v 0.24399785838004132 0.3588890528087113 -0.18401067746300595
v 0.2482398090306031 0.3606458202498531 -0.18401067746300595
v -0.2474685452759555 0.3614170840045007 -0.18748136435892016
v -0.24399785838004132 0.3606458202498531 -0.18825262811356774
v 0.24399785838004132 0.3606458202498531 -0.18825262811356774
v 0.2474685452759555 0.3614170840045007 -0.18748136435892016
v -0.2474685452759555 0.38434075671208207 0.18748136435892016
v -0.2482398090306031 0.38087006981616783 0.18825262811356774
v -0.24399785838004132 0.38511202046672965 0.18825262811356774
v -0.24399785838004132 0.38087006981616783 0.19000939555470953
v 0.24399785838004132 0.38511202046672965 0.18825262811356774
v 0.24399785838004132 0.38087006981616783 0.19000939555470953
v 0.2474685452759555 0.38434075671208207 0.18748136435892016
v 0.2482398090306031 0.38087006981616783 0.18825262811356774
v -0.2482398090306031 0.36488777090041485 0.18825262811356774
v -0.24399785838004132 0.36488777090041485 0.19000939555470953
v 0.24399785838004132 0.36488777090041485 0.19000939555470953
v 0.2482398090306031 0.36488777090041485 0.18825262811356774
v -0.2474685452759555 0.3614170840045007 0.18748136435892016
v -0.24399785838004132 0.3606458202498531 0.18825262811356774
v 0.24399785838004132 0.3606458202498531 0.18825262811356774
v 0.2474685452759555 0.3614170840045007 0.18748136435892016
v 0.2474685452759555 0.38434075671208207 -0.18748136435892016
v 0.2482398090306031 0.38087006981616783 -0.18825262811356774
v 0.24399785838004132 0.38511202046672965 -0.18825262811356774
v 0.24399785838004132 0.38087006981616783 -0.19000939555470953
v -0.24399785838004132 0.38511202046672965 -0.18825262811356774
v -0.24399785838004132 0.38087006981616783 -0.19000939555470953
v -0.2474685452759555 0.38434075671208207 -0.18748136435892016
v -0.2482398090306031 0.38087006981616783 -0.18825262811356774
v 0.2482398090306031 0.36488777090041485 -0.18825262811356774
v 0.24399785838004132 0.36488777090041485 -0.19000939555470953
v -0.24399785838004132 0.36488777090041485 -0.19000939555470953
v -0.2482398090306031 0.36488777090041485 -0.18825262811356774
v 0.2474685452759555 0.3614170840045007 -0.18748136435892016
v 0.24399785838004132 0.3606458202498531 -0.18825262811356774
v -0.24399785838004132 0.3606458202498531 -0.18825262811356774
v -0.2474685452759555 0.3614170840045007 -0.18748136435892016
f 429 430 431
f 430 432 431
f 431 432 433
f 432 434 433
f 433 434 435
f 434 436 435
f 430 437 432
f 437 438 432
f 432 438 434
f 438 439 434
f 434 439 436
f 439 440 436
f 437 441 438
f 441 442 438
f 438 442 439
f 442 443 439
f 439 443 440
f 443 444 440
f 445 446 447
f 446 448 447
f 447 448 449
f 448 450 449
f 449 450 451
f 450 452 451
f 446 453 448
f 453 454 448
f 448 454 450
f 454 455 450
f 450 455 452
f 455 456 452
f 453 457 454
f 457 458 454
f 454 458 455
f 458 459 455
f 455 459 456
f 459 460 456
f 461 462 463
f 462 464 463
f 463 464 465
f 464 466 465
f 465 466 435
f 466 467 435
f 462 468 464
f 468 469 464
f 464 469 466
f 469 470 466
f 466 470 467
f 470 471 467
f 468 472 469
f 472 473 469
f 469 473 470
f 473 474 470
f 470 474 471
f 474 475 471
f 476 477 478
f 477 479 478
f 478 479 480
f 479 481 480
f 480 481 482
f 481 483 482
f 477 484 479
f 484 485 479
f 479 485 481
f 485 486 481
f 481 486 483
f 486 487 483
f 484 488 485
f 488 489 485
f 485 489 486
f 489 490 486
f 486 490 487
f 490 491 487
f 492 493 494
f 493 495 494
f 494 495 496
f 495 497 496
f 496 497 498
f 497 499 498
f 493 500 495
f 500 501 495
f 495 501 497
f 501 502 497
f 497 502 499
f 502 503 499
f 500 504 501
f 504 505 501
f 501 505 502
f 505 506 502
f 502 506 503
f 506 507 503
f 508 509 510
f 509 511 510
f 510 511 512
f 511 513 512
f 512 513 514
f 513 515 514
f 509 516 511
f 516 517 511
f 511 517 513
f 517 518 513
f 513 518 515
f 518 519 515
f 516 520 517
f 520 521 517
f 517 521 518
f 521 522 518
f 518 522 519
f 522 523 519
o pieza_5
usemtl material_5
v 0.2769586718946338 0.7658485153478346 0.20697719815695664
v 0.27790132759475866 0.7616922606700114 0.2078770058707122
v 0.27790132759475866 0.7667483230615901 0.2028209434791335
v 0.2800008789268549 0.7616922606700114 0.2028209434791335
v 0.27790132759475866 0.7667483230615901 -0.2028209434791335
v 0.2800008789268549 0.7616922606700114 -0.2028209434791335
v 0.2769586718946338 0.7658485153478346 -0.20697719815695664
v 0.27790132759475866 0.7616922606700114 -0.2078770058707122
v 0.27790132759475866 0.7460955936315823 0.2078770058707122
v 0.2800008789268549 0.7460955936315823 0.2028209434791335
v 0.2800008789268549 0.7460955936315823 -0.2028209434791335
v 0.27790132759475866 0.7460955936315823 -0.2078770058707122
v 0.2769586718946338 0.7419393389537591 0.20697719815695664
v 0.27790132759475866 0.7409966832536343 0.2028209434791335
v 0.27790132759475866 0.7409966832536343 -0.2028209434791335
v 0.2769586718946338 0.7419393389537591 -0.20697719815695664
v -0.2769586718946338 0.7658485153478346 -0.20697719815695664
v -0.27790132759475866 0.7616922606700114 -0.2078770058707122
v -0.27790132759475866 0.7667483230615901 -0.2028209434791335
v -0.2800008789268549 0.7616922606700114 -0.2028209434791335
v -0.27790132759475866 0.7667483230615901 0.2028209434791335
v -0.2800008789268549 0.7616922606700114 0.2028209434791335
v -0.2769586718946338 0.7658485153478346 0.20697719815695664
v -0.27790132759475866 0.7616922606700114 0.2078770058707122
v -0.27790132759475866 0.7460955936315823 -0.2078770058707122
v -0.2800008789268549 0.7460955936315823 -0.2028209434791335
v -0.2800008789268549 0.7460955936315823 0.2028209434791335
v -0.27790132759475866 0.7460955936315823 0.2078770058707122
v -0.2769586718946338 0.7419393389537591 -0.20697719815695664
v -0.27790132759475866 0.7409966832536343 -0.2028209434791335
v -0.27790132759475866 0.7409966832536343 0.2028209434791335
v -0.2769586718946338 0.7419393389537591 0.20697719815695664
v -0.27790132759475866 0.7667483230615901 -0.2028209434791335
v -0.27280241721681064 0.7667483230615901 -0.2078770058707122
v -0.27280241721681064 0.7688907223800556 -0.2028209434791335
v 0.27280241721681064 0.7667483230615901 -0.2078770058707122
v 0.27280241721681064 0.7688907223800556 -0.2028209434791335
v 0.27790132759475866 0.7667483230615901 -0.2028209434791335
v -0.27790132759475866 0.7667483230615901 0.2028209434791335
v -0.27280241721681064 0.7688907223800556 0.2028209434791335
v 0.27280241721681064 0.7688907223800556 0.2028209434791335
v 0.27790132759475866 0.7667483230615901 0.2028209434791335
v -0.2769586718946338 0.7658485153478346 0.20697719815695664
v -0.27280241721681064 0.7667483230615901 0.2078770058707122
v 0.27280241721681064 0.7667483230615901 0.2078770058707122
v 0.2769586718946338 0.7658485153478346 0.20697719815695664
v -0.2769586718946338 0.7419393389537591 0.20697719815695664
v -0.27790132759475866 0.7409966832536343 0.2028209434791335
v -0.27280241721681064 0.7409966832536343 0.2078770058707122
v -0.27280241721681064 0.738897131921538 0.2028209434791335
v 0.27280241721681064 0.7409966832536343 0.2078770058707122
v 0.27280241721681064 0.738897131921538 0.2028209434791335
v 0.2769586718946338 0.7419393389537591 0.20697719815695664
v 0.27790132759475866 0.7409966832536343 0.2028209434791335
v -0.27790132759475866 0.7409966832536343 -0.2028209434791335
v -0.27280241721681064 0.738897131921538 -0.2028209434791335
v 0.27280241721681064 0.738897131921538 -0.2028209434791335
v 0.27790132759475866 0.7409966832536343 -0.2028209434791335
v -0.2769586718946338 0.7419393389537591 -0.20697719815695664
v -0.27280241721681064 0.7409966832536343 -0.2078770058707122
v 0.27280241721681064 0.7409966832536343 -0.2078770058707122
v 0.2769586718946338 0.7419393389537591 -0.20697719815695664
v -0.2769586718946338 0.7658485153478346 0.20697719815695664
v -0.27790132759475866 0.7616922606700114 0.2078770058707122
v -0.27280241721681064 0.7667483230615901 0.2078770058707122
v -0.27280241721681064 0.7616922606700114 0.21001940518917772
v 0.27280241721681064 0.7667483230615901 0.2078770058707122
v 0.27280241721681064 0.7616922606700114 0.21001940518917772
v 0.2769586718946338 0.7658485153478346 0.20697719815695664
v 0.27790132759475866 0.7616922606700114 0.2078770058707122
v -0.27790132759475866 0.7460955936315823 0.2078770058707122
v -0.27280241721681064 0.7460955936315823 0.21001940518917772
v 0.27280241721681064 0.7460955936315823 0.21001940518917772
v 0.27790132759475866 0.7460955936315823 0.2078770058707122
v -0.2769586718946338 0.7419393389537591 0.20697719815695664
v -0.27280241721681064 0.7409966832536343 0.2078770058707122
v 0.27280241721681064 0.7409966832536343 0.2078770058707122
v 0.2769586718946338 0.7419393389537591 0.20697719815695664
v 0.2769586718946338 0.7658485153478346 -0.20697719815695664
v 0.27790132759475866 0.7616922606700114 -0.2078770058707122
v 0.27280241721681064 0.7667483230615901 -0.2078770058707122
v 0.27280241721681064 0.7616922606700114 -0.21001940518917772
v -0.27280241721681064 0.7667483230615901 -0.2078770058707122
v -0.27280241721681064 0.7616922606700114 -0.21001940518917772
v -0.2769586718946338 0.7658485153478346 -0.20697719815695664
v -0.27790132759475866 0.7616922606700114 -0.2078770058707122
v 0.27790132759475866 0.7460955936315823 -0.2078770058707122
v 0.27280241721681064 0.7460955936315823 -0.21001940518917772
v -0.27280241721681064 0.7460955936315823 -0.21001940518917772
v -0.27790132759475866 0.7460955936315823 -0.2078770058707122
v 0.2769586718946338 0.7419393389537591 -0.20697719815695664
v 0.27280241721681064 0.7409966832536343 -0.2078770058707122
v -0.27280241721681064 0.7409966832536343 -0.2078770058707122
v -0.2769586718946338 0.7419393389537591 -0.20697719815695664
f 524 525 526
f 525 527 526
f 526 527 528
f 527 529 528
f 528 529 530
f 529 531 530
f 525 532 527
f 532 533 527
f 527 533 529
f 533 534 529
f 529 534 531
f 534 535 531
f 532 536 533
f 536 537 533
f 533 537 534
f 537 538 534
f 534 538 535
f 538 539 535
f 540 541 542
f 541 543 542
f 542 543 544
f 543 545 544
f 544 545 546
f 545 547 546
f 541 548 543
f 548 549 543
f 543 549 545
f 549 550 545
f 545 550 547
f 550 551 547
f 548 552 549
f 552 553 549
f 549 553 550
f 553 554 550
f 550 554 551
f 554 555 551
f 540 556 557
f 556 558 557
f 557 558 559
f 558 560 559
f 559 560 530
f 560 561 530
f 556 562 558
f 562 563 558
f 558 563 560
f 563 564 560
f 560 564 561
f 564 565 561
f 562 566 563
f 566 567 563
f 563 567 564
f 567 568 564
f 564 568 565
f 568 569 565
f 570 571 572
f 571 573 572
f 572 573 574
f 573 575 574
f 574 575 576
f 575 577 576
f 571 578 573
f 578 579 573
f 573 579 575
f 579 580 575
f 575 580 577
f 580 581 577
f 578 582 579
f 582 583 579
f 579 583 580
f 583 584 580
f 580 584 581
f 584 585 581
f 586 587 588
f 587 589 588
f 588 589 590
f 589 591 590
f 590 591 592
f 591 593 592
f 587 594 589
f 594 595 589
f 589 595 591
f 595 596 591
f 591 596 593
f 596 597 593
f 594 598 595
f 598 599 595
f 595 599 596
f 599 600 596
f 596 600 597
f 600 601 597
f 602 603 604
f 603 605 604
f 604 605 606
f 605 607 606
f 606 607 608
f 607 609 608
f 603 610 605
f 610 611 605
f 605 611 607
f 611 612 607
f 607 612 609
f 612 613 609
f 610 614 611
f 614 615 611
f 611 615 612
f 615 616 612
f 612 616 613
f 616 617 613
o pieza_6
usemtl material_6
v 0.27837265544482104 0.7892435159054785 -0.19562248176908925
v 0.27888683128125275 0.7870154206142742 -0.1951083059326575
v 0.27888683128125275 0.7897576917419101 -0.1978505770602934
v 0.2800008789268549 0.7870154206142742 -0.1978505770602934
v 0.27888683128125275 0.7897576917419101 -0.20616308641593972
v 0.2800008789268549 0.7870154206142742 -0.20616308641593972
v 0.27837265544482104 0.7892435159054785 -0.2083911817071439
v 0.27888683128125275 0.7870154206142742 -0.2088625095572063
v 0.27888683128125275 0.7727041931669243 -0.1951083059326575
v 0.2800008789268549 0.7727041931669243 -0.1978505770602934
v 0.2800008789268549 0.7727041931669243 -0.20616308641593972
v 0.27888683128125275 0.7727041931669243 -0.2088625095572063
v 0.27837265544482104 0.7704760978757201 -0.19562248176908925
v 0.27888683128125275 0.7700047700256578 -0.1978505770602934
v 0.27888683128125275 0.7700047700256578 -0.20616308641593972
v 0.27837265544482104 0.7704760978757201 -0.2083911817071439
v -0.27837265544482104 0.7892435159054785 -0.2083911817071439
v -0.27888683128125275 0.7870154206142742 -0.2088625095572063
v -0.27888683128125275 0.7897576917419101 -0.20616308641593972
v -0.2800008789268549 0.7870154206142742 -0.20616308641593972
v -0.27888683128125275 0.7897576917419101 -0.1978505770602934
v -0.2800008789268549 0.7870154206142742 -0.1978505770602934
v -0.27837265544482104 0.7892435159054785 -0.19562248176908925
v -0.27888683128125275 0.7870154206142742 -0.1951083059326575
v -0.27888683128125275 0.7727041931669243 -0.2088625095572063
v -0.2800008789268549 0.7727041931669243 -0.20616308641593972
v -0.2800008789268549 0.7727041931669243 -0.1978505770602934
v -0.27888683128125275 0.7727041931669243 -0.1951083059326575
v -0.27837265544482104 0.7704760978757201 -0.2083911817071439
v -0.27888683128125275 0.7700047700256578 -0.20616308641593972
v -0.27888683128125275 0.7700047700256578 -0.1978505770602934
v -0.27837265544482104 0.7704760978757201 -0.19562248176908925
v -0.27837265544482104 0.7892435159054785 -0.2083911817071439
v -0.27888683128125275 0.7897576917419101 -0.20616308641593972
v -0.27618740813998616 0.7897576917419101 -0.2088625095572063
v -0.27618740813998616 0.7908717393875122 -0.20616308641593972
v 0.27618740813998616 0.7897576917419101 -0.2088625095572063
v 0.27618740813998616 0.7908717393875122 -0.20616308641593972
v 0.27888683128125275 0.7897576917419101 -0.20616308641593972
v -0.27888683128125275 0.7897576917419101 -0.1978505770602934
v -0.27618740813998616 0.7908717393875122 -0.1978505770602934
v 0.27618740813998616 0.7908717393875122 -0.1978505770602934
v 0.27888683128125275 0.7897576917419101 -0.1978505770602934
v -0.27837265544482104 0.7892435159054785 -0.19562248176908925
v -0.27618740813998616 0.7897576917419101 -0.1951083059326575
v 0.27618740813998616 0.7897576917419101 -0.1951083059326575
v 0.27837265544482104 0.7892435159054785 -0.19562248176908925
v -0.27837265544482104 0.7704760978757201 -0.19562248176908925
v -0.27888683128125275 0.7700047700256578 -0.1978505770602934
v -0.27618740813998616 0.7700047700256578 -0.1951083059326575
v -0.27618740813998616 0.7688907223800556 -0.1978505770602934
v 0.27618740813998616 0.7700047700256578 -0.1951083059326575
v 0.27618740813998616 0.7688907223800556 -0.1978505770602934
v 0.27837265544482104 0.7704760978757201 -0.19562248176908925
v 0.27888683128125275 0.7700047700256578 -0.1978505770602934
v -0.27888683128125275 0.7700047700256578 -0.20616308641593972
v -0.27618740813998616 0.7688907223800556 -0.20616308641593972
v 0.27618740813998616 0.7688907223800556 -0.20616308641593972
v 0.27888683128125275 0.7700047700256578 -0.20616308641593972
v -0.27837265544482104 0.7704760978757201 -0.2083911817071439
v -0.27618740813998616 0.7700047700256578 -0.2088625095572063
v 0.27618740813998616 0.7700047700256578 -0.2088625095572063
v -0.27837265544482104 0.7892435159054785 -0.19562248176908925
v -0.27888683128125275 0.7870154206142742 -0.1951083059326575
v -0.27618740813998616 0.7897576917419101 -0.1951083059326575
v -0.27618740813998616 0.7870154206142742 -0.1939942582870554
v 0.27618740813998616 0.7897576917419101 -0.1951083059326575
v 0.27618740813998616 0.7870154206142742 -0.1939942582870554
v 0.27837265544482104 0.7892435159054785 -0.19562248176908925
v 0.27888683128125275 0.7870154206142742 -0.1951083059326575
v -0.27888683128125275 0.7727041931669243 -0.1951083059326575
v -0.27618740813998616 0.7727041931669243 -0.1939942582870554
v 0.27618740813998616 0.7727041931669243 -0.1939942582870554
v 0.27888683128125275 0.7727041931669243 -0.1951083059326575
v -0.27837265544482104 0.7704760978757201 -0.19562248176908925
v -0.27618740813998616 0.7700047700256578 -0.1951083059326575
v 0.27618740813998616 0.7700047700256578 -0.1951083059326575
v 0.27837265544482104 0.7704760978757201 -0.19562248176908925
v 0.27837265544482104 0.7892435159054785 -0.2083911817071439
v 0.27888683128125275 0.7870154206142742 -0.2088625095572063
v 0.27618740813998616 0.7897576917419101 -0.2088625095572063
v 0.27618740813998616 0.7870154206142742 -0.21001940518917772
v -0.27618740813998616 0.7897576917419101 -0.2088625095572063
v -0.27618740813998616 0.7870154206142742 -0.21001940518917772
v -0.27837265544482104 0.7892435159054785 -0.2083911817071439
v -0.27888683128125275 0.7870154206142742 -0.2088625095572063
v 0.27888683128125275 0.7727041931669243 -0.2088625095572063
v 0.27618740813998616 0.7727041931669243 -0.21001940518917772
v -0.27618740813998616 0.7727041931669243 -0.21001940518917772
v -0.27888683128125275 0.7727041931669243 -0.2088625095572063
v 0.27837265544482104 0.7704760978757201 -0.2083911817071439
v 0.27618740813998616 0.7700047700256578 -0.2088625095572063
v -0.27618740813998616 0.7700047700256578 -0.2088625095572063
v -0.27837265544482104 0.7704760978757201 -0.2083911817071439
f 618 619 620
f 619 621 620
f 620 621 622
f 621 623 622
f 622 623 624
f 623 625 624
f 619 626 621
f 626 627 621
f 621 627 623
f 627 628 623
f 623 628 625
f 628 629 625
f 626 630 627
f 630 631 627
f 627 631 628
f 631 632 628
f 628 632 629
f 632 633 629
f 634 635 636
f 635 637 636
f 636 637 638
f 637 639 638
f 638 639 640
f 639 641 640
f 635 642 637
f 642 643 637
f 637 643 639
f 643 644 639
f 639 644 641
f 644 645 641
f 642 646 643
f 646 647 643
f 643 647 644
f 647 648 644
f 644 648 645
f 648 649 645
f 650 651 652
f 651 653 652
f 652 653 654
f 653 655 654
f 654 655 624
f 655 656 624
f 651 657 653
f 657 658 653
f 653 658 655
f 658 659 655
f 655 659 656
f 659 660 656
f 657 661 658
f 661 662 658
f 658 662 659
f 662 663 659
f 659 663 660
f 663 664 660
f 665 666 667
f 666 668 667
f 667 668 669
f 668 670 669
f 669 670 671
f 670 672 671
f 666 673 668
f 673 674 668
f 668 674 670
f 674 675 670
f 670 675 672
f 675 676 672
f 673 677 674
f 677 678 674
f 674 678 675
f 678 679 675
f 675 679 676
f 679 633 676
f 680 681 682
f 681 683 682
f 682 683 684
f 683 685 684
f 684 685 686
f 685 687 686
f 681 688 683
f 688 689 683
f 683 689 685
f 689 690 685
f 685 690 687
f 690 691 687
f 688 692 689
f 692 693 689
f 689 693 690
f 693 694 690
f 690 694 691
f 694 695 691
f 696 697 698
f 697 699 698
f 698 699 700
f 699 701 700
f 700 701 702
f 701 703 702
f 697 704 699
f 704 705 699
f 699 705 701
f 705 706 701
f 701 706 703
f 706 707 703
f 704 708 705
f 708 709 705
f 705 709 706
f 709 710 706
f 706 710 707
f 710 711 707
o pieza_7
usemtl material_7
v 0.27837265544482104 0.7892435159054785 0.2083911817071439
v 0.27888683128125275 0.7870154206142742 0.2088625095572063
v 0.27888683128125275 0.7897576917419101 0.20616308641593972
v 0.2800008789268549 0.7870154206142742 0.20616308641593972
v 0.27888683128125275 0.7897576917419101 0.1978505770602934
v 0.2800008789268549 0.7870154206142742 0.1978505770602934
v 0.27837265544482104 0.7892435159054785 0.19562248176908925
v 0.27888683128125275 0.7870154206142742 0.1951083059326575
v 0.27888683128125275 0.7727041931669243 0.2088625095572063
v 0.2800008789268549 0.7727041931669243 0.20616308641593972
v 0.2800008789268549 0.7727041931669243 0.1978505770602934
v 0.27888683128125275 0.7727041931669243 0.1951083059326575
v 0.27837265544482104 0.7704760978757201 0.2083911817071439
v 0.27888683128125275 0.7700047700256578 0.20616308641593972
v 0.27888683128125275 0.7700047700256578 0.1978505770602934
v 0.27837265544482104 0.7704760978757201 0.19562248176908925
v -0.27837265544482104 0.7892435159054785 0.19562248176908925
v -0.27888683128125275 0.7870154206142742 0.1951083059326575
v -0.27888683128125275 0.7897576917419101 0.1978505770602934
v -0.2800008789268549 0.7870154206142742 0.1978505770602934
v -0.27888683128125275 0.7897576917419101 0.20616308641593972
v -0.2800008789268549 0.7870154206142742 0.20616308641593972
v -0.27837265544482104 0.7892435159054785 0.2083911817071439
v -0.27888683128125275 0.7870154206142742 0.2088625095572063
v -0.27888683128125275 0.7727041931669243 0.1951083059326575
v -0.2800008789268549 0.7727041931669243 0.1978505770602934
v -0.2800008789268549 0.7727041931669243 0.20616308641593972
v -0.27888683128125275 0.7727041931669243 0.2088625095572063
v -0.27837265544482104 0.7704760978757201 0.19562248176908925
v -0.27888683128125275 0.7700047700256578 0.1978505770602934
v -0.27888683128125275 0.7700047700256578 0.20616308641593972
v -0.27837265544482104 0.7704760978757201 0.2083911817071439
v -0.27837265544482104 0.7892435159054785 0.19562248176908925
v -0.27888683128125275 0.7897576917419101 0.1978505770602934
v -0.27618740813998616 0.7897576917419101 0.1951083059326575
v -0.27618740813998616 0.7908717393875122 0.1978505770602934
v 0.27618740813998616 0.7897576917419101 0.1951083059326575
v 0.27618740813998616 0.7908717393875122 0.1978505770602934
v 0.27888683128125275 0.7897576917419101 0.1978505770602934
v -0.27888683128125275 0.7897576917419101 0.20616308641593972
v -0.27618740813998616 0.7908717393875122 0.20616308641593972
v 0.27618740813998616 0.7908717393875122 0.20616308641593972
v 0.27888683128125275 0.7897576917419101 0.20616308641593972
v -0.27837265544482104 0.7892435159054785 0.2083911817071439
v -0.27618740813998616 0.7897576917419101 0.2088625095572063
v 0.27618740813998616 0.7897576917419101 0.2088625095572063
v 0.27837265544482104 0.7892435159054785 0.2083911817071439
v -0.27837265544482104 0.7704760978757201 0.2083911817071439
v -0.27888683128125275 0.7700047700256578 0.20616308641593972
v -0.27618740813998616 0.7700047700256578 0.2088625095572063
v -0.27618740813998616 0.7688907223800556 0.20616308641593972
v 0.27618740813998616 0.7700047700256578 0.2088625095572063
v 0.27618740813998616 0.7688907223800556 0.20616308641593972
v 0.27837265544482104 0.7704760978757201 0.2083911817071439
v 0.27888683128125275 0.7700047700256578 0.20616308641593972
v -0.27888683128125275 0.7700047700256578 0.1978505770602934
v -0.27618740813998616 0.7688907223800556 0.1978505770602934
v 0.27618740813998616 0.7688907223800556 0.1978505770602934
v 0.27888683128125275 0.7700047700256578 0.1978505770602934
v -0.27837265544482104 0.7704760978757201 0.19562248176908925
v -0.27618740813998616 0.7700047700256578 0.1951083059326575
v 0.27618740813998616 0.7700047700256578 0.1951083059326575
v -0.27837265544482104 0.7892435159054785 0.2083911817071439
v -0.27888683128125275 0.7870154206142742 0.2088625095572063
v -0.27618740813998616 0.7897576917419101 0.2088625095572063
v -0.27618740813998616 0.7870154206142742 0.21001940518917772
v 0.27618740813998616 0.7897576917419101 0.2088625095572063
v 0.27618740813998616 0.7870154206142742 0.21001940518917772
v 0.27837265544482104 0.7892435159054785 0.2083911817071439
v 0.27888683128125275 0.7870154206142742 0.2088625095572063
v -0.27888683128125275 0.7727041931669243 0.2088625095572063
v -0.27618740813998616 0.7727041931669243 0.21001940518917772
v 0.27618740813998616 0.7727041931669243 0.21001940518917772
v 0.27888683128125275 0.7727041931669243 0.2088625095572063
v -0.27837265544482104 0.7704760978757201 0.2083911817071439
v -0.27618740813998616 0.7700047700256578 0.2088625095572063
v 0.27618740813998616 0.7700047700256578 0.2088625095572063
v 0.27837265544482104 0.7704760978757201 0.2083911817071439
v 0.27837265544482104 0.7892435159054785 0.19562248176908925
v 0.27888683128125275 0.7870154206142742 0.1951083059326575
v 0.27618740813998616 0.7897576917419101 0.1951083059326575
v 0.27618740813998616 0.7870154206142742 0.1939942582870554
v -0.27618740813998616 0.7897576917419101 0.1951083059326575
v -0.27618740813998616 0.7870154206142742 0.1939942582870554
v -0.27837265544482104 0.7892435159054785 0.19562248176908925
v -0.27888683128125275 0.7870154206142742 0.1951083059326575
v 0.27888683128125275 0.7727041931669243 0.1951083059326575
v 0.27618740813998616 0.7727041931669243 0.1939942582870554
v -0.27618740813998616 0.7727041931669243 0.1939942582870554
v -0.27888683128125275 0.7727041931669243 0.1951083059326575
v 0.27837265544482104 0.7704760978757201 0.19562248176908925
v 0.27618740813998616 0.7700047700256578 0.1951083059326575
v -0.27618740813998616 0.7700047700256578 0.1951083059326575
v -0.27837265544482104 0.7704760978757201 0.19562248176908925
f 712 713 714
f 713 715 714
f 714 715 716
f 715 717 716
f 716 717 718
f 717 719 718
f 713 720 715
f 720 721 715
f 715 721 717
f 721 722 717
f 717 722 719
f 722 723 719
f 720 724 721
f 724 725 721
f 721 725 722
f 725 726 722
f 722 726 723
f 726 727 723
f 728 729 730
f 729 731 730
f 730 731 732
f 731 733 732
f 732 733 734
f 733 735 734
f 729 736 731
f 736 737 731
f 731 737 733
f 737 738 733
f 733 738 735
f 738 739 735
f 736 740 737
f 740 741 737
f 737 741 738
f 741 742 738
f 738 742 739
f 742 743 739
f 744 745 746
f 745 747 746
f 746 747 748
f 747 749 748
f 748 749 718
f 749 750 718
f 745 751 747
f 751 752 747
f 747 752 749
f 752 753 749
f 749 753 750
f 753 754 750
f 751 755 752
f 755 756 752
f 752 756 753
f 756 757 753
f 753 757 754
f 757 758 754
f 759 760 761
f 760 762 761
f 761 762 763
f 762 764 763
f 763 764 765
f 764 766 765
f 760 767 762
f 767 768 762
f 762 768 764
f 768 769 764
f 764 769 766
f 769 770 766
f 767 771 768
f 771 772 768
f 768 772 769
f 772 773 769
f 769 773 770
f 773 727 770
f 774 775 776
f 775 777 776
f 776 777 778
f 777 779 778
f 778 779 780
f 779 781 780
f 775 782 777
f 782 783 777
f 777 783 779
f 783 784 779
f 779 784 781
f 784 785 781
f 782 786 783
f 786 787 783
f 783 787 784
f 787 788 784
f 784 788 785
f 788 789 785
f 790 791 792
f 791 793 792
f 792 793 794
f 793 795 794
f 794 795 796
f 795 797 796
f 791 798 793
f 798 799 793
f 793 799 795
f 799 800 795
f 795 800 797
f 800 801 797
f 798 802 799
f 802 803 799
f 799 803 800
f 803 804 800
f 800 804 801
f 804 805 801
o pieza_8
usemtl material_8
v -0.2656468034931357 0.7892435159054785 0.19138053111852746
v -0.2651326276567039 0.7870154206142742 0.1918947069549592
v -0.2651326276567039 0.7897576917419101 0.18915243582732327
v -0.2640185800111019 0.7870154206142742 0.18915243582732327
v -0.2651326276567039 0.7897576917419101 -0.18915243582732327
v -0.2640185800111019 0.7870154206142742 -0.18915243582732327
v -0.2656468034931357 0.7892435159054785 -0.19138053111852746
v -0.2651326276567039 0.7870154206142742 -0.1918947069549592
v -0.2651326276567039 0.7727041931669243 0.1918947069549592
v -0.2640185800111019 0.7727041931669243 0.18915243582732327
v -0.2640185800111019 0.7727041931669243 -0.18915243582732327
v -0.2651326276567039 0.7727041931669243 -0.1918947069549592
v -0.2656468034931357 0.7704760978757201 0.19138053111852746
v -0.2651326276567039 0.7700047700256578 0.18915243582732327
v -0.2651326276567039 0.7700047700256578 -0.18915243582732327
v -0.2656468034931357 0.7704760978757201 -0.19138053111852746
v -0.27837265544482104 0.7892435159054785 -0.19138053111852746
v -0.27888683128125275 0.7870154206142742 -0.1918947069549592
v -0.27888683128125275 0.7897576917419101 -0.18915243582732327
v -0.2800008789268549 0.7870154206142742 -0.18915243582732327
v -0.27888683128125275 0.7897576917419101 0.18915243582732327
v -0.2800008789268549 0.7870154206142742 0.18915243582732327
v -0.27837265544482104 0.7892435159054785 0.19138053111852746
v -0.27888683128125275 0.7870154206142742 0.1918947069549592
v -0.27888683128125275 0.7727041931669243 -0.1918947069549592
v -0.2800008789268549 0.7727041931669243 -0.18915243582732327
v -0.2800008789268549 0.7727041931669243 0.18915243582732327
v -0.27888683128125275 0.7727041931669243 0.1918947069549592
v -0.27837265544482104 0.7704760978757201 -0.19138053111852746
v -0.27888683128125275 0.7700047700256578 -0.18915243582732327
v -0.27888683128125275 0.7700047700256578 0.18915243582732327
v -0.27837265544482104 0.7704760978757201 0.19138053111852746
v -0.27888683128125275 0.7897576917419101 -0.18915243582732327
v -0.27618740813998616 0.7897576917419101 -0.1918947069549592
v -0.27618740813998616 0.7908717393875122 -0.18915243582732327
v -0.2678320507979705 0.7897576917419101 -0.1918947069549592
v -0.2678320507979705 0.7908717393875122 -0.18915243582732327
v -0.2651326276567039 0.7897576917419101 -0.18915243582732327
v -0.27888683128125275 0.7897576917419101 0.18915243582732327
v -0.27618740813998616 0.7908717393875122 0.18915243582732327
v -0.2678320507979705 0.7908717393875122 0.18915243582732327
v -0.2651326276567039 0.7897576917419101 0.18915243582732327
v -0.27837265544482104 0.7892435159054785 0.19138053111852746
v -0.27618740813998616 0.7897576917419101 0.1918947069549592
v -0.2678320507979705 0.7897576917419101 0.1918947069549592
v -0.2656468034931357 0.7892435159054785 0.19138053111852746
v -0.27837265544482104 0.7704760978757201 0.19138053111852746
v -0.27888683128125275 0.7700047700256578 0.18915243582732327
v -0.27618740813998616 0.7700047700256578 0.1918947069549592
v -0.27618740813998616 0.7688907223800556 0.18915243582732327
v -0.2678320507979705 0.7700047700256578 0.1918947069549592
v -0.2678320507979705 0.7688907223800556 0.18915243582732327
v -0.2656468034931357 0.7704760978757201 0.19138053111852746
v -0.2651326276567039 0.7700047700256578 0.18915243582732327
v -0.27888683128125275 0.7700047700256578 -0.18915243582732327
v -0.27618740813998616 0.7688907223800556 -0.18915243582732327
v -0.2678320507979705 0.7688907223800556 -0.18915243582732327
v -0.2651326276567039 0.7700047700256578 -0.18915243582732327
v -0.27618740813998616 0.7700047700256578 -0.1918947069549592
v -0.2678320507979705 0.7700047700256578 -0.1918947069549592
v -0.27837265544482104 0.7892435159054785 0.19138053111852746
v -0.27888683128125275 0.7870154206142742 0.1918947069549592
v -0.27618740813998616 0.7897576917419101 0.1918947069549592
v -0.27618740813998616 0.7870154206142742 0.19300875460056127
v -0.2678320507979705 0.7897576917419101 0.1918947069549592
v -0.2678320507979705 0.7870154206142742 0.19300875460056127
v -0.2656468034931357 0.7892435159054785 0.19138053111852746
v -0.2651326276567039 0.7870154206142742 0.1918947069549592
v -0.27888683128125275 0.7727041931669243 0.1918947069549592
v -0.27618740813998616 0.7727041931669243 0.19300875460056127
v -0.2678320507979705 0.7727041931669243 0.19300875460056127
v -0.2651326276567039 0.7727041931669243 0.1918947069549592
v -0.27837265544482104 0.7704760978757201 0.19138053111852746
v -0.27618740813998616 0.7700047700256578 0.1918947069549592
v -0.2678320507979705 0.7700047700256578 0.1918947069549592
v -0.2656468034931357 0.7704760978757201 0.19138053111852746
v -0.2656468034931357 0.7892435159054785 -0.19138053111852746
v -0.2651326276567039 0.7870154206142742 -0.1918947069549592
v -0.2678320507979705 0.7897576917419101 -0.1918947069549592
v -0.2678320507979705 0.7870154206142742 -0.19300875460056127
v -0.27618740813998616 0.7897576917419101 -0.1918947069549592
v -0.27618740813998616 0.7870154206142742 -0.19300875460056127
v -0.27837265544482104 0.7892435159054785 -0.19138053111852746
v -0.27888683128125275 0.7870154206142742 -0.1918947069549592
v -0.2651326276567039 0.7727041931669243 -0.1918947069549592
v -0.2678320507979705 0.7727041931669243 -0.19300875460056127
v -0.27618740813998616 0.7727041931669243 -0.19300875460056127
v -0.27888683128125275 0.7727041931669243 -0.1918947069549592
v -0.2656468034931357 0.7704760978757201 -0.19138053111852746
v -0.2678320507979705 0.7700047700256578 -0.1918947069549592
v -0.27618740813998616 0.7700047700256578 -0.1918947069549592
v -0.27837265544482104 0.7704760978757201 -0.19138053111852746
f 806 807 808
f 807 809 808
f 808 809 810
f 809 811 810
f 810 811 812
f 811 813 812
f 807 814 809
f 814 815 809
f 809 815 811
f 815 816 811
f 811 816 813
f 816 817 813
f 814 818 815
f 818 819 815
f 815 819 816
f 819 820 816
f 816 820 817
f 820 821 817
f 822 823 824
f 823 825 824
f 824 825 826
f 825 827 826
f 826 827 828
f 827 829 828
f 823 830 825
f 830 831 825
f 825 831 827
f 831 832 827
f 827 832 829
f 832 833 829
f 830 834 831
f 834 835 831
f 831 835 832
f 835 836 832
f 832 836 833
f 836 837 833
f 822 838 839
f 838 840 839
f 839 840 841
f 840 842 841
f 841 842 812
f 842 843 812
f 838 844 840
f 844 845 840
f 840 845 842
f 845 846 842
f 842 846 843
f 846 847 843
f 844 848 845
f 848 849 845
f 845 849 846
f 849 850 846
f 846 850 847
f 850 851 847
f 852 853 854
f 853 855 854
f 854 855 856
f 855 857 856
f 856 857 858
f 857 859 858
f 853 860 855
f 860 861 855
f 855 861 857
f 861 862 857
f 857 862 859
f 862 863 859
f 860 834 861
f 834 864 861
f 861 864 862
f 864 865 862
f 862 865 863
f 865 821 863
f 866 867 868
f 867 869 868
f 868 869 870
f 869 871 870
f 870 871 872
f 871 873 872
f 867 874 869
f 874 875 869
f 869 875 871
f 875 876 871
f 871 876 873
f 876 877 873
f 874 878 875
f 878 879 875
f 875 879 876
f 879 880 876
f 876 880 877
f 880 881 877
f 882 883 884
f 883 885 884
f 884 885 886
f 885 887 886
f 886 887 888
f 887 889 888
f 883 890 885
f 890 891 885
f 885 891 887
f 891 892 887
f 887 892 889
f 892 893 889
f 890 894 891
f 894 895 891
f 891 895 892
f 895 896 892
f 892 896 893
f 896 897 893
o pieza_9
usemtl material_9
v 0.27837265544482104 0.7892435159054785 0.19138053111852746
v 0.27888683128125275 0.7870154206142742 0.1918947069549592
v 0.27888683128125275 0.7897576917419101 0.18915243582732327
v 0.2800008789268549 0.7870154206142742 0.18915243582732327
v 0.27888683128125275 0.7897576917419101 -0.18915243582732327
v 0.2800008789268549 0.7870154206142742 -0.18915243582732327
v 0.27837265544482104 0.7892435159054785 -0.19138053111852746
v 0.27888683128125275 0.7870154206142742 -0.1918947069549592
v 0.27888683128125275 0.7727041931669243 0.1918947069549592
v 0.2800008789268549 0.7727041931669243 0.18915243582732327
v 0.2800008789268549 0.7727041931669243 -0.18915243582732327
v 0.27888683128125275 0.7727041931669243 -0.1918947069549592
v 0.27837265544482104 0.7704760978757201 0.19138053111852746
v 0.27888683128125275 0.7700047700256578 0.18915243582732327
v 0.27888683128125275 0.7700047700256578 -0.18915243582732327
v 0.27837265544482104 0.7704760978757201 -0.19138053111852746
v 0.2656468034931357 0.7892435159054785 -0.19138053111852746
v 0.2651326276567039 0.7870154206142742 -0.1918947069549592
v 0.2651326276567039 0.7897576917419101 -0.18915243582732327
v 0.2640185800111019 0.7870154206142742 -0.18915243582732327
v 0.2651326276567039 0.7897576917419101 0.18915243582732327
v 0.2640185800111019 0.7870154206142742 0.18915243582732327
v 0.2656468034931357 0.7892435159054785 0.19138053111852746
v 0.2651326276567039 0.7870154206142742 0.1918947069549592
v 0.2651326276567039 0.7727041931669243 -0.1918947069549592
v 0.2640185800111019 0.7727041931669243 -0.18915243582732327
v 0.2640185800111019 0.7727041931669243 0.18915243582732327
v 0.2651326276567039 0.7727041931669243 0.1918947069549592
v 0.2656468034931357 0.7704760978757201 -0.19138053111852746
v 0.2651326276567039 0.7700047700256578 -0.18915243582732327
v 0.2651326276567039 0.7700047700256578 0.18915243582732327
v 0.2656468034931357 0.7704760978757201 0.19138053111852746
v 0.2651326276567039 0.7897576917419101 -0.18915243582732327
v 0.2678320507979705 0.7897576917419101 -0.1918947069549592
v 0.2678320507979705 0.7908717393875122 -0.18915243582732327
v 0.27618740813998616 0.7897576917419101 -0.1918947069549592
v 0.27618740813998616 0.7908717393875122 -0.18915243582732327
v 0.27888683128125275 0.7897576917419101 -0.18915243582732327
v 0.2651326276567039 0.7897576917419101 0.18915243582732327
v 0.2678320507979705 0.7908717393875122 0.18915243582732327
v 0.27618740813998616 0.7908717393875122 0.18915243582732327
v 0.27888683128125275 0.7897576917419101 0.18915243582732327
v 0.2656468034931357 0.7892435159054785 0.19138053111852746
v 0.2678320507979705 0.7897576917419101 0.1918947069549592
v 0.27618740813998616 0.7897576917419101 0.1918947069549592
v 0.27837265544482104 0.7892435159054785 0.19138053111852746
v 0.2656468034931357 0.7704760978757201 0.19138053111852746
v 0.2651326276567039 0.7700047700256578 0.18915243582732327
v 0.2678320507979705 0.7700047700256578 0.1918947069549592
v 0.2678320507979705 0.7688907223800556 0.18915243582732327
v 0.27618740813998616 0.7700047700256578 0.1918947069549592
v 0.27618740813998616 0.7688907223800556 0.18915243582732327
v 0.27837265544482104 0.7704760978757201 0.19138053111852746
v 0.27888683128125275 0.7700047700256578 0.18915243582732327
v 0.2651326276567039 0.7700047700256578 -0.18915243582732327
v 0.2678320507979705 0.7688907223800556 -0.18915243582732327
v 0.27618740813998616 0.7688907223800556 -0.18915243582732327
v 0.27888683128125275 0.7700047700256578 -0.18915243582732327
v 0.2678320507979705 0.7700047700256578 -0.1918947069549592
v 0.27618740813998616 0.7700047700256578 -0.1918947069549592
v 0.2656468034931357 0.7892435159054785 0.19138053111852746
v 0.2651326276567039 0.7870154206142742 0.1918947069549592
v 0.2678320507979705 0.7897576917419101 0.1918947069549592
v 0.2678320507979705 0.7870154206142742 0.19300875460056127
v 0.27618740813998616 0.7897576917419101 0.1918947069549592
v 0.27618740813998616 0.7870154206142742 0.19300875460056127
v 0.27837265544482104 0.7892435159054785 0.19138053111852746
v 0.27888683128125275 0.7870154206142742 0.1918947069549592
v 0.2651326276567039 0.7727041931669243 0.1918947069549592
v 0.2678320507979705 0.7727041931669243 0.19300875460056127
v 0.27618740813998616 0.7727041931669243 0.19300875460056127
v 0.27888683128125275 0.7727041931669243 0.1918947069549592
v 0.2656468034931357 0.7704760978757201 0.19138053111852746
v 0.2678320507979705 0.7700047700256578 0.1918947069549592
v 0.27618740813998616 0.7700047700256578 0.1918947069549592
v 0.27837265544482104 0.7704760978757201 0.19138053111852746
v 0.27837265544482104 0.7892435159054785 -0.19138053111852746
v 0.27888683128125275 0.7870154206142742 -0.1918947069549592
v 0.27618740813998616 0.7897576917419101 -0.1918947069549592
v 0.27618740813998616 0.7870154206142742 -0.19300875460056127
v 0.2678320507979705 0.7897576917419101 -0.1918947069549592
v 0.2678320507979705 0.7870154206142742 -0.19300875460056127
v 0.2656468034931357 0.7892435159054785 -0.19138053111852746
v 0.2651326276567039 0.7870154206142742 -0.1918947069549592
v 0.27888683128125275 0.7727041931669243 -0.1918947069549592
v 0.27618740813998616 0.7727041931669243 -0.19300875460056127
v 0.2678320507979705 0.7727041931669243 -0.19300875460056127
v 0.2651326276567039 0.7727041931669243 -0.1918947069549592
v 0.27837265544482104 0.7704760978757201 -0.19138053111852746
v 0.27618740813998616 0.7700047700256578 -0.1918947069549592
v 0.2678320507979705 0.7700047700256578 -0.1918947069549592
v 0.2656468034931357 0.7704760978757201 -0.19138053111852746
f 898 899 900
f 899 901 900
f 900 901 902
f 901 903 902
f 902 903 904
f 903 905 904
f 899 906 901
f 906 907 901
f 901 907 903
f 907 908 903
f 903 908 905
f 908 909 905
f 906 910 907
f 910 911 907
f 907 911 908
f 911 912 908
f 908 912 909
f 912 913 909
f 914 915 916
f 915 917 916
f 916 917 918
f 917 919 918
f 918 919 920
f 919 921 920
f 915 922 917
f 922 923 917
f 917 923 919
f 923 924 919
f 919 924 921
f 924 925 921
f 922 926 923
f 926 927 923
f 923 927 924
f 927 928 924
f 924 928 925
f 928 929 925
f 914 930 931
f 930 932 931
f 931 932 933
f 932 934 933
f 933 934 904
f 934 935 904
f 930 936 932
f 936 937 932
f 932 937 934
f 937 938 934
f 934 938 935
f 938 939 935
f 936 940 937
f 940 941 937
f 937 941 938
f 941 942 938
f 938 942 939
f 942 943 939
f 944 945 946
f 945 947 946
f 946 947 948
f 947 949 948
f 948 949 950
f 949 951 950
f 945 952 947
f 952 953 947
f 947 953 949
f 953 954 949
f 949 954 951
f 954 955 951
f 952 926 953
f 926 956 953
f 953 956 954
f 956 957 954
f 954 957 955
f 957 913 955
f 958 959 960
f 959 961 960
f 960 961 962
f 961 963 962
f 962 963 964
f 963 965 964
f 959 966 961
f 966 967 961
f 961 967 963
f 967 968 963
f 963 968 965
f 968 969 965
f 966 970 967
f 970 971 967
f 967 971 968
f 971 972 968
f 968 972 969
f 972 973 969
f 974 975 976
f 975 977 976
f 976 977 978
f 977 979 978
f 978 979 980
f 979 981 980
f 975 982 977
f 982 983 977
f 977 983 979
f 983 984 979
f 979 984 981
f 984 985 981
f 982 986 983
f 986 987 983
f 983 987 984
f 987 988 984
f 984 988 985
f 988 989 985
