# Piezas extraídas de modelos de terceros; véase procedencia.json
mtllib hoja-barrera.mtl
o pieza_18
usemtl material_18
v -0.15000000596046448 0.009997853857067779 0.09649900398081139
v 0.15000000596046448 0.009997853857067779 0.09649900398081139
v 0.15000000596046448 0.1000060974312324 0.09649900398081139
v -0.15000000596046448 0.1000060974312324 0.09649900398081139
v 0.15000000596046448 0.009997853857067779 0.09349598252904393
v -0.15000000596046448 0.009997853857067779 0.09349598252904393
v -0.15000000596046448 0.1000060974312324 0.09349598252904393
v 0.15000000596046448 0.1000060974312324 0.09349598252904393
v -0.15000000596046448 0.009997853857067779 0.09349598252904393
v -0.15000000596046448 0.009997853857067779 0.09649900398081139
v -0.15000000596046448 0.1000060974312324 0.09649900398081139
v -0.15000000596046448 0.1000060974312324 0.09349598252904393
v 0.15000000596046448 0.009997853857067779 0.09649900398081139
v 0.15000000596046448 0.009997853857067779 0.09349598252904393
v 0.15000000596046448 0.1000060974312324 0.09349598252904393
v 0.15000000596046448 0.009997853857067779 0.09649900398081139
v 0.15000000596046448 0.1000060974312324 0.09349598252904393
v 0.15000000596046448 0.1000060974312324 0.09649900398081139
v -0.15000000596046448 0.1000060974312324 0.09649900398081139
v 0.15000000596046448 0.1000060974312324 0.09649900398081139
v 0.15000000596046448 0.1000060974312324 0.09349598252904393
v -0.15000000596046448 0.1000060974312324 0.09649900398081139
v 0.15000000596046448 0.1000060974312324 0.09349598252904393
v -0.15000000596046448 0.1000060974312324 0.09349598252904393
v -0.15000000596046448 0.009997853857067779 0.09349598252904393
v 0.15000000596046448 0.009997853857067779 0.09349598252904393
v 0.15000000596046448 0.009997853857067779 0.09649900398081139
v -0.15000000596046448 0.009997853857067779 0.09649900398081139
f 1 2 3
f 1 3 4
f 5 6 7
f 5 7 8
f 9 10 11
f 9 11 12
f 13 14 15
f 16 17 18
f 19 20 21
f 22 23 24
f 25 26 27
f 25 27 28
