# Piezas extraídas de modelos de terceros; véase procedencia.json
mtllib guantes.mtl
o pieza_0
usemtl material_0
v -0.05854610144728429 0.051454971523099205 -0.01354899739354706
v -0.05745842177545345 0.04660741150419882 -0.012461317721716226
v -0.05745842177545345 0.05254265119493004 -0.018396557412447445
v -0.055001071405761576 0.04660741150419882 -0.018396557412447445
v -0.05745842177545345 0.05254265119493004 -0.10160740934353044
v -0.055001071405761576 0.04660741150419882 -0.10160740934353044
v -0.05854610144728429 0.051454971523099205 -0.10645496936243083
v -0.05745842177545345 0.04660741150419882 -0.10754264903426167
v -0.05745842177545345 0.02839884810910485 -0.012461317721716226
v -0.055001071405761576 0.02839884810910485 -0.018396557412447445
v -0.055001071405761576 0.02839884810910485 -0.10160740934353044
v -0.05745842177545345 0.02839884810910485 -0.10754264903426167
v -0.05854610144728429 0.0235479310541803 -0.01354899739354706
v -0.05745842177545345 0.022460251382349465 -0.018396557412447445
v -0.05745842177545345 0.022460251382349465 -0.10160740934353044
v -0.05854610144728429 0.0235479310541803 -0.10645496936243083
v -0.18145390436416858 0.051454971523099205 -0.10645496936243083
v -0.1825415840359994 0.04660741150419882 -0.10754264903426167
v -0.1825415840359994 0.05254265119493004 -0.10160740934353044
v -0.1849989344056913 0.04660741150419882 -0.10160740934353044
v -0.1825415840359994 0.05254265119493004 -0.018396557412447445
v -0.1849989344056913 0.04660741150419882 -0.018396557412447445
v -0.18145390436416858 0.051454971523099205 -0.01354899739354706
v -0.1825415840359994 0.04660741150419882 -0.012461317721716226
v -0.1825415840359994 0.02839884810910485 -0.10754264903426167
v -0.1849989344056913 0.02839884810910485 -0.10160740934353044
v -0.1849989344056913 0.02839884810910485 -0.018396557412447445
v -0.1825415840359994 0.02839884810910485 -0.012461317721716226
v -0.18145390436416858 0.0235479310541803 -0.10645496936243083
v -0.1825415840359994 0.022460251382349465 -0.10160740934353044
v -0.1825415840359994 0.022460251382349465 -0.018396557412447445
v -0.18145390436416858 0.0235479310541803 -0.01354899739354706
v -0.1825415840359994 0.05254265119493004 -0.10160740934353044
v -0.1766063443452682 0.05254265119493004 -0.10754264903426167
v -0.1766063443452682 0.055000001564621925 -0.10160740934353044
v -0.06339366146618466 0.05254265119493004 -0.10754264903426167
v -0.06339366146618466 0.055000001564621925 -0.10160740934353044
v -0.05745842177545345 0.05254265119493004 -0.10160740934353044
v -0.1825415840359994 0.05254265119493004 -0.018396557412447445
v -0.1766063443452682 0.055000001564621925 -0.018396557412447445
v -0.06339366146618466 0.055000001564621925 -0.018396557412447445
v -0.05745842177545345 0.05254265119493004 -0.018396557412447445
v -0.18145390436416858 0.051454971523099205 -0.01354899739354706
v -0.1766063443452682 0.05254265119493004 -0.012461317721716226
v -0.06339366146618466 0.05254265119493004 -0.012461317721716226
v -0.05854610144728429 0.051454971523099205 -0.01354899739354706
v -0.18145390436416858 0.0235479310541803 -0.01354899739354706
v -0.1825415840359994 0.022460251382349465 -0.018396557412447445
v -0.1766063443452682 0.022460251382349465 -0.012461317721716226
v -0.1766063443452682 0.02000290101265758 -0.018396557412447445
v -0.06339366146618466 0.022460251382349465 -0.012461317721716226
v -0.06339366146618466 0.02000290101265758 -0.018396557412447445
v -0.05854610144728429 0.0235479310541803 -0.01354899739354706
v -0.05745842177545345 0.022460251382349465 -0.018396557412447445
v -0.1825415840359994 0.022460251382349465 -0.10160740934353044
v -0.1766063443452682 0.02000290101265758 -0.10160740934353044
v -0.06339366146618466 0.02000290101265758 -0.10160740934353044
v -0.05745842177545345 0.022460251382349465 -0.10160740934353044
v -0.1766063443452682 0.022460251382349465 -0.10754264903426167
v -0.06339366146618466 0.022460251382349465 -0.10754264903426167
v -0.18145390436416858 0.051454971523099205 -0.01354899739354706
v -0.1825415840359994 0.04660741150419882 -0.012461317721716226
v -0.1766063443452682 0.05254265119493004 -0.012461317721716226
v -0.1766063443452682 0.04660741150419882 -0.010003967352024341
v -0.06339366146618466 0.05254265119493004 -0.012461317721716226
v -0.06339366146618466 0.04660741150419882 -0.010003967352024341
v -0.05854610144728429 0.051454971523099205 -0.01354899739354706
v -0.05745842177545345 0.04660741150419882 -0.012461317721716226
v -0.1825415840359994 0.02839884810910485 -0.012461317721716226
v -0.1766063443452682 0.02839884810910485 -0.010003967352024341
v -0.06339366146618466 0.02839884810910485 -0.010003967352024341
v -0.05745842177545345 0.02839884810910485 -0.012461317721716226
v -0.18145390436416858 0.0235479310541803 -0.01354899739354706
v -0.1766063443452682 0.022460251382349465 -0.012461317721716226
v -0.06339366146618466 0.022460251382349465 -0.012461317721716226
v -0.05854610144728429 0.0235479310541803 -0.01354899739354706
v -0.05854610144728429 0.051454971523099205 -0.10645496936243083
v -0.05745842177545345 0.04660741150419882 -0.10754264903426167
v -0.06339366146618466 0.05254265119493004 -0.10754264903426167
v -0.06339366146618466 0.04660741150419882 -0.10999999940395355
v -0.1766063443452682 0.05254265119493004 -0.10754264903426167
v -0.1766063443452682 0.04660741150419882 -0.10999999940395355
v -0.18145390436416858 0.051454971523099205 -0.10645496936243083
v -0.1825415840359994 0.04660741150419882 -0.10754264903426167
v -0.05745842177545345 0.02839884810910485 -0.10754264903426167
v -0.06339366146618466 0.02839884810910485 -0.10999999940395355
v -0.1766063443452682 0.02839884810910485 -0.10999999940395355
v -0.1825415840359994 0.02839884810910485 -0.10754264903426167
v -0.05854610144728429 0.0235479310541803 -0.10645496936243083
v -0.06339366146618466 0.022460251382349465 -0.10754264903426167
v -0.1766063443452682 0.022460251382349465 -0.10754264903426167
v -0.18145390436416858 0.0235479310541803 -0.10645496936243083
f 1 2 3
f 2 4 3
f 3 4 5
f 4 6 5
f 5 6 7
f 6 8 7
f 2 9 4
f 9 10 4
f 4 10 6
f 10 11 6
f 6 11 8
f 11 12 8
f 9 13 10
f 13 14 10
f 10 14 11
f 14 15 11
f 11 15 12
f 15 16 12
f 17 18 19
f 18 20 19
f 19 20 21
f 20 22 21
f 21 22 23
f 22 24 23
f 18 25 20
f 25 26 20
f 20 26 22
f 26 27 22
f 22 27 24
f 27 28 24
f 25 29 26
f 29 30 26
f 26 30 27
f 30 31 27
f 27 31 28
f 31 32 28
f 17 33 34
f 33 35 34
f 34 35 36
f 35 37 36
f 36 37 7
f 37 38 7
f 33 39 35
f 39 40 35
f 35 40 37
f 40 41 37
f 37 41 38
f 41 42 38
f 39 43 40
f 43 44 40
f 40 44 41
f 44 45 41
f 41 45 42
f 45 46 42
f 47 48 49
f 48 50 49
f 49 50 51
f 50 52 51
f 51 52 53
f 52 54 53
f 48 55 50
f 55 56 50
f 50 56 52
f 56 57 52
f 52 57 54
f 57 58 54
f 55 29 56
f 29 59 56
f 56 59 57
f 59 60 57
f 57 60 58
f 60 16 58
f 61 62 63
f 62 64 63
f 63 64 65
f 64 66 65
f 65 66 67
f 66 68 67
f 62 69 64
f 69 70 64
f 64 70 66
f 70 71 66
f 66 71 68
f 71 72 68
f 69 73 70
f 73 74 70
f 70 74 71
f 74 75 71
f 71 75 72
f 75 76 72
f 77 78 79
f 78 80 79
f 79 80 81
f 80 82 81
f 81 82 83
f 82 84 83
f 78 85 80
f 85 86 80
f 80 86 82
f 86 87 82
f 82 87 84
f 87 88 84
f 85 89 86
f 89 90 86
f 86 90 87
f 90 91 87
f 87 91 88
f 91 92 88
o pieza_1
usemtl material_1
v -0.05854610144728429 0.08645207207506356 0.10645496936243083
v -0.05745842177545345 0.081601155020139 0.10754264903426167
v -0.05745842177545345 0.08753975174689438 0.10160740934353044
v -0.055001071405761576 0.081601155020139 0.10160740934353044
v -0.05745842177545345 0.08753975174689438 0.018396557412447445
v -0.055001071405761576 0.081601155020139 0.018396557412447445
v -0.05854610144728429 0.08645207207506356 0.01354899739354706
v -0.05745842177545345 0.081601155020139 0.012461317721716226
v -0.05745842177545345 0.06339259162504503 0.10754264903426167
v -0.055001071405761576 0.06339259162504503 0.10160740934353044
v -0.055001071405761576 0.06339259162504503 0.018396557412447445
v -0.05745842177545345 0.06339259162504503 0.012461317721716226
v -0.05854610144728429 0.058545031606144646 0.10645496936243083
v -0.05745842177545345 0.05745735193431381 0.10160740934353044
v -0.05745842177545345 0.05745735193431381 0.018396557412447445
v -0.05854610144728429 0.058545031606144646 0.01354899739354706
v -0.18145390436416858 0.08645207207506356 0.01354899739354706
v -0.1825415840359994 0.081601155020139 0.012461317721716226
v -0.1825415840359994 0.08753975174689438 0.018396557412447445
v -0.1849989344056913 0.081601155020139 0.018396557412447445
v -0.1825415840359994 0.08753975174689438 0.10160740934353044
v -0.1849989344056913 0.081601155020139 0.10160740934353044
v -0.18145390436416858 0.08645207207506356 0.10645496936243083
v -0.1825415840359994 0.081601155020139 0.10754264903426167
v -0.1825415840359994 0.06339259162504503 0.012461317721716226
v -0.1849989344056913 0.06339259162504503 0.018396557412447445
v -0.1849989344056913 0.06339259162504503 0.10160740934353044
v -0.1825415840359994 0.06339259162504503 0.10754264903426167
v -0.18145390436416858 0.058545031606144646 0.01354899739354706
v -0.1825415840359994 0.05745735193431381 0.018396557412447445
v -0.1825415840359994 0.05745735193431381 0.10160740934353044
v -0.18145390436416858 0.058545031606144646 0.10645496936243083
v -0.1825415840359994 0.08753975174689438 0.018396557412447445
v -0.1766063443452682 0.08753975174689438 0.012461317721716226
v -0.1766063443452682 0.08999710211658626 0.018396557412447445
v -0.06339366146618466 0.08753975174689438 0.012461317721716226
v -0.06339366146618466 0.08999710211658626 0.018396557412447445
v -0.05745842177545345 0.08753975174689438 0.018396557412447445
v -0.1825415840359994 0.08753975174689438 0.10160740934353044
v -0.1766063443452682 0.08999710211658626 0.10160740934353044
v -0.06339366146618466 0.08999710211658626 0.10160740934353044
v -0.05745842177545345 0.08753975174689438 0.10160740934353044
v -0.18145390436416858 0.08645207207506356 0.10645496936243083
v -0.1766063443452682 0.08753975174689438 0.10754264903426167
v -0.06339366146618466 0.08753975174689438 0.10754264903426167
v -0.05854610144728429 0.08645207207506356 0.10645496936243083
v -0.18145390436416858 0.058545031606144646 0.10645496936243083
v -0.1825415840359994 0.05745735193431381 0.10160740934353044
v -0.1766063443452682 0.05745735193431381 0.10754264903426167
v -0.1766063443452682 0.055000001564621925 0.10160740934353044
v -0.06339366146618466 0.05745735193431381 0.10754264903426167
v -0.06339366146618466 0.055000001564621925 0.10160740934353044
v -0.05854610144728429 0.058545031606144646 0.10645496936243083
v -0.05745842177545345 0.05745735193431381 0.10160740934353044
v -0.1825415840359994 0.05745735193431381 0.018396557412447445
v -0.1766063443452682 0.055000001564621925 0.018396557412447445
v -0.06339366146618466 0.055000001564621925 0.018396557412447445
v -0.05745842177545345 0.05745735193431381 0.018396557412447445
v -0.1766063443452682 0.05745735193431381 0.012461317721716226
v -0.06339366146618466 0.05745735193431381 0.012461317721716226
v -0.18145390436416858 0.08645207207506356 0.10645496936243083
v -0.1825415840359994 0.081601155020139 0.10754264903426167
v -0.1766063443452682 0.08753975174689438 0.10754264903426167
v -0.1766063443452682 0.081601155020139 0.10999999940395355
v -0.06339366146618466 0.08753975174689438 0.10754264903426167
v -0.06339366146618466 0.081601155020139 0.10999999940395355
v -0.05854610144728429 0.08645207207506356 0.10645496936243083
v -0.05745842177545345 0.081601155020139 0.10754264903426167
v -0.1825415840359994 0.06339259162504503 0.10754264903426167
v -0.1766063443452682 0.06339259162504503 0.10999999940395355
v -0.06339366146618466 0.06339259162504503 0.10999999940395355
v -0.05745842177545345 0.06339259162504503 0.10754264903426167
v -0.18145390436416858 0.058545031606144646 0.10645496936243083
v -0.1766063443452682 0.05745735193431381 0.10754264903426167
v -0.06339366146618466 0.05745735193431381 0.10754264903426167
v -0.05854610144728429 0.058545031606144646 0.10645496936243083
v -0.05854610144728429 0.08645207207506356 0.01354899739354706
v -0.05745842177545345 0.081601155020139 0.012461317721716226
v -0.06339366146618466 0.08753975174689438 0.012461317721716226
v -0.06339366146618466 0.081601155020139 0.010003967352024341
v -0.1766063443452682 0.08753975174689438 0.012461317721716226
v -0.1766063443452682 0.081601155020139 0.010003967352024341
v -0.18145390436416858 0.08645207207506356 0.01354899739354706
v -0.1825415840359994 0.081601155020139 0.012461317721716226
v -0.05745842177545345 0.06339259162504503 0.012461317721716226
v -0.06339366146618466 0.06339259162504503 0.010003967352024341
v -0.1766063443452682 0.06339259162504503 0.010003967352024341
v -0.1825415840359994 0.06339259162504503 0.012461317721716226
v -0.05854610144728429 0.058545031606144646 0.01354899739354706
v -0.06339366146618466 0.05745735193431381 0.012461317721716226
v -0.1766063443452682 0.05745735193431381 0.012461317721716226
v -0.18145390436416858 0.058545031606144646 0.01354899739354706
f 93 94 95
f 94 96 95
f 95 96 97
f 96 98 97
f 97 98 99
f 98 100 99
f 94 101 96
f 101 102 96
f 96 102 98
f 102 103 98
f 98 103 100
f 103 104 100
f 101 105 102
f 105 106 102
f 102 106 103
f 106 107 103
f 103 107 104
f 107 108 104
f 109 110 111
f 110 112 111
f 111 112 113
f 112 114 113
f 113 114 115
f 114 116 115
f 110 117 112
f 117 118 112
f 112 118 114
f 118 119 114
f 114 119 116
f 119 120 116
f 117 121 118
f 121 122 118
f 118 122 119
f 122 123 119
f 119 123 120
f 123 124 120
f 109 125 126
f 125 127 126
f 126 127 128
f 127 129 128
f 128 129 99
f 129 130 99
f 125 131 127
f 131 132 127
f 127 132 129
f 132 133 129
f 129 133 130
f 133 134 130
f 131 135 132
f 135 136 132
f 132 136 133
f 136 137 133
f 133 137 134
f 137 138 134
f 139 140 141
f 140 142 141
f 141 142 143
f 142 144 143
f 143 144 145
f 144 146 145
f 140 147 142
f 147 148 142
f 142 148 144
f 148 149 144
f 144 149 146
f 149 150 146
f 147 121 148
f 121 151 148
f 148 151 149
f 151 152 149
f 149 152 150
f 152 108 150
f 153 154 155
f 154 156 155
f 155 156 157
f 156 158 157
f 157 158 159
f 158 160 159
f 154 161 156
f 161 162 156
f 156 162 158
f 162 163 158
f 158 163 160
f 163 164 160
f 161 165 162
f 165 166 162
f 162 166 163
f 166 167 163
f 163 167 164
f 167 168 164
f 169 170 171
f 170 172 171
f 171 172 173
f 172 174 173
f 173 174 175
f 174 176 175
f 170 177 172
f 177 178 172
f 172 178 174
f 178 179 174
f 174 179 176
f 179 180 176
f 177 181 178
f 181 182 178
f 178 182 179
f 182 183 179
f 179 183 180
f 183 184 180
