# Piezas extraídas de modelos de terceros; véase procedencia.json
mtllib hoja.mtl
o pieza_0
usemtl material_0
v -0.054726 8.125e-07 0.003348375
v -0.054726 8.125e-07 0.00426490625
v -0.054726 0.00477525 0.00426490625
v -0.054726 0.00477525 0.003348375
v -0.046925625 8.125e-07 0.01496453125
v -0.042537874999999996 8.125e-07 0.01541034375
v -0.042537874999999996 0.00477525 0.01541034375
v -0.046925625 0.00477525 0.01496453125
v -0.046925625 0.00477525 -0.007351234375
v -0.042537874999999996 0.00477525 -0.007797046875
v -0.042537874999999996 8.125e-07 -0.007797046875
v -0.046925625 8.125e-07 -0.007351234375
v -0.050338312499999996 8.125e-07 0.013627062499999999
v -0.046925625 8.125e-07 0.01496453125
v -0.046925625 0.00477525 0.01496453125
v -0.050338312499999996 0.00477525 0.013627062499999999
v -0.052775937499999995 8.125e-07 0.011397984375
v -0.050338312499999996 8.125e-07 0.013627062499999999
v -0.050338312499999996 0.00477525 0.013627062499999999
v -0.052775937499999995 0.00477525 0.011397984375
v -0.054238499999999995 8.125e-07 0.00827725
v -0.052775937499999995 8.125e-07 0.011397984375
v -0.052775937499999995 0.00477525 0.011397984375
v -0.054238499999999995 0.00477525 0.00827725
v -0.054726 8.125e-07 0.00426490625
v -0.054238499999999995 8.125e-07 0.00827725
v -0.054238499999999995 0.00477525 0.00827725
v -0.054726 0.00477525 0.00426490625
v -0.050338312499999996 0.00477525 -0.00601378125
v -0.046925625 0.00477525 -0.007351234375
v -0.046925625 8.125e-07 -0.007351234375
v -0.050338312499999996 8.125e-07 -0.00601378125
v -0.052775937499999995 0.00477525 -0.003784703125
v -0.050338312499999996 0.00477525 -0.00601378125
v -0.050338312499999996 8.125e-07 -0.00601378125
v -0.052775937499999995 8.125e-07 -0.003784703125
v -0.054238499999999995 0.00477525 -0.00066396875
v -0.052775937499999995 0.00477525 -0.003784703125
v -0.052775937499999995 8.125e-07 -0.003784703125
v -0.054238499999999995 8.125e-07 -0.00066396875
v -0.054726 0.00477525 0.003348375
v -0.054238499999999995 0.00477525 -0.00066396875
v -0.054238499999999995 8.125e-07 -0.00066396875
v -0.054726 8.125e-07 0.003348375
v -0.042537874999999996 8.125e-07 0.01541034375
v -0.046925625 8.125e-07 0.01496453125
v -0.050338312499999996 8.125e-07 0.013627062499999999
v -0.052775937499999995 8.125e-07 0.011397984375
v -0.054238499999999995 8.125e-07 0.00827725
v -0.054726 8.125e-07 0.003348375
v -0.054726 8.125e-07 0.00426490625
v -0.054238499999999995 8.125e-07 -0.00066396875
v -0.052775937499999995 8.125e-07 -0.003784703125
v -0.046925625 8.125e-07 -0.007351234375
v -0.050338312499999996 8.125e-07 -0.00601378125
v -0.050338312499999996 0.00477525 -0.00601378125
v -0.052775937499999995 0.00477525 -0.003784703125
v -0.054238499999999995 0.00477525 -0.00066396875
v -0.054726 0.00477525 0.00426490625
v -0.054726 0.00477525 0.003348375
v -0.054238499999999995 0.00477525 0.00827725
v -0.052775937499999995 0.00477525 0.011397984375
v -0.046925625 0.00477525 0.01496453125
v -0.050338312499999996 0.00477525 0.013627062499999999
f 2 4 1
f 4 2 3
f 7 8 5
f 5 6 7
f 10 12 9
f 12 10 11
f 15 16 13
f 13 14 15
f 19 20 17
f 17 18 19
f 22 24 21
f 24 22 23
f 26 28 25
f 28 26 27
f 30 32 29
f 32 30 31
f 34 36 33
f 36 34 35
f 38 40 37
f 40 38 39
f 42 44 41
f 44 42 43
f 45 46 47
f 49 50 47
f 47 48 49
f 49 51 50
f 53 54 50
f 50 52 53
f 53 55 54
f 47 50 54
f 57 59 56
f 59 57 58
f 58 60 59
f 61 63 59
f 63 61 62
f 62 64 63
