# Piezas extraídas de modelos de terceros; véase procedencia.json
mtllib aguja.mtl
o pieza_0
usemtl material_0
v 0.0 -0.032150998711586 0.9634850025177002
v 0.0 -0.023454999551177025 0.9985309839248657
v 0.020312000066041946 -0.011726999655365944 0.9985309839248657
v 0.02784300036728382 -0.016075000166893005 0.9634850025177002
v 0.02784300036728382 -0.016075000166893005 0.9634850025177002
v 0.020312000066041946 -0.011726999655365944 0.9985309839248657
v 0.020312000066041946 0.011726999655365944 0.9985309839248657
v 0.02784300036728382 0.016075000166893005 0.9634850025177002
v 0.02784300036728382 0.016075000166893005 0.9634850025177002
v 0.020312000066041946 0.011726999655365944 0.9985309839248657
v 0.0 0.023454999551177025 0.9985309839248657
v 0.0 0.032150998711586 0.9634850025177002
v 0.0 0.032150998711586 0.9634850025177002
v 0.0 0.023454999551177025 0.9985309839248657
v -0.020312000066041946 0.011726999655365944 0.9985309839248657
v -0.02784300036728382 0.016075000166893005 0.9634850025177002
v 0.020312000066041946 -0.011726999655365944 0.9985309839248657
v 0.0 -0.023454999551177025 0.9985309839248657
v -0.020312000066041946 -0.011726999655365944 0.9985309839248657
v -0.020312000066041946 0.011726999655365944 0.9985309839248657
v 0.0 0.023454999551177025 0.9985309839248657
v 0.020312000066041946 0.011726999655365944 0.9985309839248657
v -0.02784300036728382 0.016075000166893005 0.9634850025177002
v -0.020312000066041946 0.011726999655365944 0.9985309839248657
v -0.020312000066041946 -0.011726999655365944 0.9985309839248657
v -0.02784300036728382 -0.016075000166893005 0.9634850025177002
v -0.02784300036728382 -0.016075000166893005 0.9634850025177002
v -0.020312000066041946 -0.011726999655365944 0.9985309839248657
v 0.0 -0.023454999551177025 0.9985309839248657
v 0.0 -0.032150998711586 0.9634850025177002
v 0.0 -0.038430001586675644 0.830968976020813
v 0.03328099846839905 -0.019215000793337822 0.830968976020813
v 0.03328099846839905 0.019215000793337822 0.830968976020813
v 0.0 0.038430001586675644 0.830968976020813
v -0.03328099846839905 0.019215000793337822 0.830968976020813
v -0.03328099846839905 -0.019215000793337822 0.830968976020813
v -0.03328099846839905 -0.019215000793337822 0.830968976020813
v -0.03328099846839905 -0.019215000793337822 0.9147499799728394
v 0.0 -0.038430001586675644 0.9147499799728394
v 0.0 -0.038430001586675644 0.830968976020813
v -0.03328099846839905 0.019215000793337822 0.830968976020813
v -0.03328099846839905 0.019215000793337822 0.9147499799728394
v -0.03328099846839905 -0.019215000793337822 0.9147499799728394
v -0.03328099846839905 -0.019215000793337822 0.830968976020813
v 0.0 0.038430001586675644 0.830968976020813
v 0.0 0.038430001586675644 0.9147499799728394
v -0.03328099846839905 0.019215000793337822 0.9147499799728394
v -0.03328099846839905 0.019215000793337822 0.830968976020813
v 0.03328099846839905 0.019215000793337822 0.830968976020813
v 0.03328099846839905 0.019215000793337822 0.9147499799728394
v 0.0 0.038430001586675644 0.9147499799728394
v 0.0 0.038430001586675644 0.830968976020813
v 0.03328099846839905 -0.019215000793337822 0.830968976020813
v 0.03328099846839905 -0.019215000793337822 0.9147499799728394
v 0.03328099846839905 0.019215000793337822 0.9147499799728394
v 0.03328099846839905 0.019215000793337822 0.830968976020813
v 0.0 -0.038430001586675644 0.830968976020813
v 0.0 -0.038430001586675644 0.9147499799728394
v 0.03328099846839905 -0.019215000793337822 0.9147499799728394
v 0.03328099846839905 -0.019215000793337822 0.830968976020813
v -0.03328099846839905 -0.019215000793337822 0.9147499799728394
v -0.02784300036728382 -0.016075000166893005 0.9634850025177002
v 0.0 -0.032150998711586 0.9634850025177002
v 0.0 -0.038430001586675644 0.9147499799728394
v -0.03328099846839905 0.019215000793337822 0.9147499799728394
v -0.02784300036728382 0.016075000166893005 0.9634850025177002
v -0.02784300036728382 -0.016075000166893005 0.9634850025177002
v -0.03328099846839905 -0.019215000793337822 0.9147499799728394
v 0.0 0.038430001586675644 0.9147499799728394
v 0.0 0.032150998711586 0.9634850025177002
v -0.02784300036728382 0.016075000166893005 0.9634850025177002
v -0.03328099846839905 0.019215000793337822 0.9147499799728394
v 0.03328099846839905 0.019215000793337822 0.9147499799728394
v 0.02784300036728382 0.016075000166893005 0.9634850025177002
v 0.0 0.032150998711586 0.9634850025177002
v 0.0 0.038430001586675644 0.9147499799728394
v 0.03328099846839905 -0.019215000793337822 0.9147499799728394
v 0.02784300036728382 -0.016075000166893005 0.9634850025177002
v 0.02784300036728382 0.016075000166893005 0.9634850025177002
v 0.03328099846839905 0.019215000793337822 0.9147499799728394
v 0.0 -0.038430001586675644 0.9147499799728394
v 0.0 -0.032150998711586 0.9634850025177002
v 0.02784300036728382 -0.016075000166893005 0.9634850025177002
v 0.03328099846839905 -0.019215000793337822 0.9147499799728394
f 2 4 1
f 4 2 3
f 7 8 5
f 5 6 7
f 11 12 9
f 9 10 11
f 15 16 13
f 13 14 15
f 18 22 17
f 22 20 21
f 20 18 19
f 18 20 22
f 24 26 23
f 26 24 25
f 28 30 27
f 30 28 29
f 35 36 31
f 31 32 33
f 33 34 35
f 35 31 33
f 38 40 37
f 40 38 39
f 42 44 41
f 44 42 43
f 47 48 45
f 45 46 47
f 51 52 49
f 49 50 51
f 55 56 53
f 53 54 55
f 58 60 57
f 60 58 59
f 62 64 61
f 64 62 63
f 66 68 65
f 68 66 67
f 71 72 69
f 69 70 71
f 75 76 73
f 73 74 75
f 79 80 77
f 77 78 79
f 82 84 81
f 84 82 83
o pieza_1
usemtl material_1
v 0.0 -0.004081000108271837 0.980817973613739
v 0.0 -0.004081000108271837 1.2931859493255615
v 0.003533999901264906 -0.0020409999415278435 1.2931859493255615
v 0.003533999901264906 -0.0020409999415278435 0.980817973613739
v 0.003533999901264906 -0.0020409999415278435 0.980817973613739
v 0.003533999901264906 -0.0020409999415278435 1.2931859493255615
v 0.003533999901264906 0.0020409999415278435 1.2931859493255615
v 0.003533999901264906 0.0020409999415278435 0.980817973613739
v 0.003533999901264906 0.0020409999415278435 0.980817973613739
v 0.003533999901264906 0.0020409999415278435 1.2931859493255615
v 0.0 0.004081000108271837 1.2931859493255615
v 0.0 0.004081000108271837 0.980817973613739
v 0.0 0.004081000108271837 0.980817973613739
v 0.0 0.004081000108271837 1.2931859493255615
v -0.003533999901264906 0.0020409999415278435 1.2931859493255615
v -0.003533999901264906 0.0020409999415278435 0.980817973613739
v 0.003533999901264906 -0.0020409999415278435 1.2931859493255615
v 0.0 -0.004081000108271837 1.2931859493255615
v -0.003533999901264906 -0.0020409999415278435 1.2931859493255615
v -0.003533999901264906 0.0020409999415278435 1.2931859493255615
v 0.0 0.004081000108271837 1.2931859493255615
v 0.003533999901264906 0.0020409999415278435 1.2931859493255615
v -0.003533999901264906 0.0020409999415278435 0.980817973613739
v -0.003533999901264906 0.0020409999415278435 1.2931859493255615
v -0.003533999901264906 -0.0020409999415278435 1.2931859493255615
v -0.003533999901264906 -0.0020409999415278435 0.980817973613739
v -0.003533999901264906 -0.0020409999415278435 0.980817973613739
v -0.003533999901264906 -0.0020409999415278435 1.2931859493255615
v 0.0 -0.004081000108271837 1.2931859493255615
v 0.0 -0.004081000108271837 0.980817973613739
v 0.0 -0.004081000108271837 0.980817973613739
v 0.003533999901264906 -0.0020409999415278435 0.980817973613739
v 0.003533999901264906 0.0020409999415278435 0.980817973613739
v 0.0 0.004081000108271837 0.980817973613739
v -0.003533999901264906 0.0020409999415278435 0.980817973613739
v -0.003533999901264906 -0.0020409999415278435 0.980817973613739
f 86 88 85
f 88 86 87
f 91 92 89
f 89 90 91
f 95 96 93
f 93 94 95
f 99 100 97
f 97 98 99
f 102 106 101
f 106 104 105
f 104 102 103
f 102 104 106
f 108 110 107
f 110 108 109
f 112 114 111
f 114 112 113
f 119 120 115
f 115 116 117
f 117 118 119
f 119 115 117
